<svg xmlns="http://www.w3.org/2000/svg" xmlns:xlink="http://www.w3.org/1999/xlink" width="500" zoomAndPan="magnify" viewBox="0 0 375 374.999991" height="500" preserveAspectRatio="xMidYMid meet" version="1.0"><defs><clipPath id="fd03914dec"><path d="M 18.074219 21 L 344 21 L 344 333 L 18.074219 333 Z M 18.074219 21 " clip-rule="nonzero"/></clipPath></defs><path fill="#1c1d28" d="M 267.902344 312.367188 C 267.902344 312.722656 267.867188 313.074219 267.796875 313.425781 C 267.726562 313.773438 267.625 314.113281 267.488281 314.441406 C 267.351562 314.773438 267.183594 315.085938 266.984375 315.382812 C 266.789062 315.679688 266.5625 315.953125 266.3125 316.203125 C 266.058594 316.457031 265.785156 316.683594 265.488281 316.878906 C 265.191406 317.078125 264.878906 317.246094 264.550781 317.382812 C 264.21875 317.519531 263.878906 317.621094 263.53125 317.691406 C 263.179688 317.761719 262.828125 317.796875 262.472656 317.796875 C 262.113281 317.796875 261.761719 317.761719 261.410156 317.691406 C 261.0625 317.621094 260.722656 317.519531 260.394531 317.382812 C 260.0625 317.246094 259.75 317.078125 259.453125 316.878906 C 259.15625 316.683594 258.882812 316.457031 258.632812 316.203125 C 258.378906 315.953125 258.15625 315.679688 257.957031 315.382812 C 257.757812 315.085938 257.589844 314.773438 257.453125 314.441406 C 257.316406 314.113281 257.214844 313.773438 257.144531 313.425781 C 257.074219 313.074219 257.042969 312.722656 257.042969 312.367188 C 257.042969 312.007812 257.074219 311.65625 257.144531 311.304688 C 257.214844 310.957031 257.316406 310.617188 257.453125 310.289062 C 257.589844 309.957031 257.757812 309.644531 257.957031 309.347656 C 258.15625 309.050781 258.378906 308.777344 258.632812 308.527344 C 258.882812 308.273438 259.15625 308.046875 259.453125 307.851562 C 259.75 307.652344 260.0625 307.484375 260.394531 307.347656 C 260.722656 307.210938 261.0625 307.109375 261.410156 307.039062 C 261.761719 306.96875 262.113281 306.933594 262.472656 306.933594 C 262.828125 306.933594 263.179688 306.96875 263.53125 307.039062 C 263.878906 307.109375 264.21875 307.210938 264.550781 307.347656 C 264.878906 307.484375 265.191406 307.652344 265.488281 307.851562 C 265.785156 308.046875 266.058594 308.273438 266.3125 308.527344 C 266.5625 308.777344 266.789062 309.050781 266.984375 309.347656 C 267.183594 309.644531 267.351562 309.957031 267.488281 310.289062 C 267.625 310.617188 267.726562 310.957031 267.796875 311.304688 C 267.867188 311.65625 267.902344 312.007812 267.902344 312.367188 Z M 267.902344 312.367188 " fill-opacity="1" fill-rule="nonzero"/><path fill="#1c1d28" d="M 340.289062 341.320312 C 340.289062 341.675781 340.253906 342.03125 340.183594 342.378906 C 340.117188 342.730469 340.011719 343.070312 339.875 343.398438 C 339.738281 343.726562 339.574219 344.042969 339.375 344.335938 C 339.175781 344.632812 338.953125 344.910156 338.699219 345.160156 C 338.449219 345.414062 338.171875 345.636719 337.875 345.835938 C 337.582031 346.035156 337.265625 346.199219 336.9375 346.335938 C 336.609375 346.472656 336.269531 346.578125 335.917969 346.644531 C 335.570312 346.714844 335.214844 346.75 334.859375 346.75 C 334.503906 346.75 334.148438 346.714844 333.800781 346.644531 C 333.449219 346.578125 333.113281 346.472656 332.78125 346.335938 C 332.453125 346.199219 332.140625 346.035156 331.84375 345.835938 C 331.546875 345.636719 331.273438 345.414062 331.019531 345.160156 C 330.769531 344.910156 330.542969 344.632812 330.34375 344.335938 C 330.148438 344.042969 329.980469 343.726562 329.84375 343.398438 C 329.707031 343.070312 329.605469 342.730469 329.535156 342.378906 C 329.464844 342.03125 329.429688 341.675781 329.429688 341.320312 C 329.429688 340.964844 329.464844 340.609375 329.535156 340.261719 C 329.605469 339.910156 329.707031 339.574219 329.84375 339.242188 C 329.980469 338.914062 330.148438 338.601562 330.34375 338.304688 C 330.542969 338.007812 330.769531 337.734375 331.019531 337.480469 C 331.273438 337.230469 331.546875 337.003906 331.84375 336.804688 C 332.140625 336.609375 332.453125 336.441406 332.78125 336.304688 C 333.113281 336.167969 333.449219 336.066406 333.800781 335.996094 C 334.148438 335.925781 334.503906 335.890625 334.859375 335.890625 C 335.214844 335.890625 335.570312 335.925781 335.917969 335.996094 C 336.269531 336.066406 336.609375 336.167969 336.9375 336.304688 C 337.265625 336.441406 337.582031 336.609375 337.875 336.804688 C 338.171875 337.003906 338.449219 337.230469 338.699219 337.480469 C 338.953125 337.734375 339.175781 338.007812 339.375 338.304688 C 339.574219 338.601562 339.738281 338.914062 339.875 339.242188 C 340.011719 339.574219 340.117188 339.910156 340.183594 340.261719 C 340.253906 340.609375 340.289062 340.964844 340.289062 341.320312 Z M 340.289062 341.320312 " fill-opacity="1" fill-rule="nonzero"/><path fill="#1c1d28" d="M 123.121094 294.269531 C 123.121094 294.625 123.089844 294.976562 123.019531 295.328125 C 122.949219 295.675781 122.847656 296.015625 122.710938 296.347656 C 122.574219 296.675781 122.40625 296.988281 122.207031 297.285156 C 122.011719 297.582031 121.785156 297.855469 121.53125 298.105469 C 121.28125 298.359375 121.007812 298.585938 120.710938 298.78125 C 120.414062 298.980469 120.101562 299.148438 119.769531 299.285156 C 119.441406 299.421875 119.101562 299.523438 118.753906 299.59375 C 118.402344 299.664062 118.050781 299.699219 117.695312 299.699219 C 117.335938 299.699219 116.984375 299.664062 116.632812 299.59375 C 116.285156 299.523438 115.945312 299.421875 115.617188 299.285156 C 115.285156 299.148438 114.972656 298.980469 114.675781 298.78125 C 114.382812 298.585938 114.105469 298.359375 113.855469 298.105469 C 113.601562 297.855469 113.378906 297.582031 113.179688 297.285156 C 112.980469 296.988281 112.8125 296.675781 112.679688 296.347656 C 112.542969 296.015625 112.4375 295.675781 112.367188 295.328125 C 112.300781 294.976562 112.265625 294.625 112.265625 294.269531 C 112.265625 293.910156 112.300781 293.558594 112.367188 293.210938 C 112.4375 292.859375 112.542969 292.519531 112.679688 292.191406 C 112.8125 291.859375 112.980469 291.546875 113.179688 291.25 C 113.378906 290.957031 113.601562 290.679688 113.855469 290.429688 C 114.105469 290.175781 114.382812 289.953125 114.675781 289.753906 C 114.972656 289.554688 115.285156 289.390625 115.617188 289.253906 C 115.945312 289.117188 116.285156 289.011719 116.632812 288.941406 C 116.984375 288.875 117.335938 288.839844 117.695312 288.839844 C 118.050781 288.839844 118.402344 288.875 118.753906 288.941406 C 119.101562 289.011719 119.441406 289.117188 119.769531 289.253906 C 120.101562 289.390625 120.414062 289.554688 120.710938 289.753906 C 121.007812 289.953125 121.28125 290.175781 121.53125 290.429688 C 121.785156 290.679688 122.011719 290.957031 122.207031 291.25 C 122.40625 291.546875 122.574219 291.859375 122.710938 292.191406 C 122.847656 292.519531 122.949219 292.859375 123.019531 293.210938 C 123.089844 293.558594 123.121094 293.910156 123.121094 294.269531 Z M 123.121094 294.269531 " fill-opacity="1" fill-rule="nonzero"/><path fill="#1c1d28" d="M 36.257812 305.125 C 36.257812 305.484375 36.222656 305.835938 36.152344 306.1875 C 36.082031 306.535156 35.980469 306.875 35.84375 307.203125 C 35.707031 307.535156 35.539062 307.847656 35.339844 308.144531 C 35.144531 308.4375 34.917969 308.714844 34.667969 308.964844 C 34.414062 309.21875 34.140625 309.441406 33.84375 309.640625 C 33.546875 309.839844 33.234375 310.007812 32.90625 310.140625 C 32.574219 310.277344 32.234375 310.382812 31.886719 310.453125 C 31.535156 310.519531 31.183594 310.554688 30.828125 310.554688 C 30.472656 310.554688 30.117188 310.519531 29.769531 310.453125 C 29.417969 310.382812 29.078125 310.277344 28.75 310.140625 C 28.421875 310.007812 28.105469 309.839844 27.8125 309.640625 C 27.515625 309.441406 27.242188 309.21875 26.988281 308.964844 C 26.734375 308.714844 26.511719 308.4375 26.3125 308.144531 C 26.113281 307.847656 25.949219 307.535156 25.8125 307.203125 C 25.675781 306.875 25.570312 306.535156 25.503906 306.1875 C 25.433594 305.835938 25.398438 305.484375 25.398438 305.125 C 25.398438 304.769531 25.433594 304.417969 25.503906 304.066406 C 25.570312 303.71875 25.675781 303.378906 25.8125 303.046875 C 25.949219 302.71875 26.113281 302.40625 26.3125 302.109375 C 26.511719 301.8125 26.734375 301.539062 26.988281 301.289062 C 27.242188 301.035156 27.515625 300.808594 27.8125 300.613281 C 28.105469 300.414062 28.421875 300.246094 28.75 300.109375 C 29.078125 299.972656 29.417969 299.871094 29.769531 299.800781 C 30.117188 299.730469 30.472656 299.699219 30.828125 299.699219 C 31.183594 299.699219 31.535156 299.730469 31.886719 299.800781 C 32.234375 299.871094 32.574219 299.972656 32.90625 300.109375 C 33.234375 300.246094 33.546875 300.414062 33.84375 300.613281 C 34.140625 300.808594 34.414062 301.035156 34.667969 301.289062 C 34.917969 301.539062 35.144531 301.8125 35.339844 302.109375 C 35.539062 302.40625 35.707031 302.71875 35.84375 303.046875 C 35.980469 303.378906 36.082031 303.71875 36.152344 304.066406 C 36.222656 304.417969 36.257812 304.769531 36.257812 305.125 Z M 36.257812 305.125 " fill-opacity="1" fill-rule="nonzero"/><path fill="#1c1d28" d="M 188.273438 245.40625 C 188.273438 245.882812 188.226562 246.351562 188.132812 246.816406 C 188.039062 247.285156 187.902344 247.738281 187.722656 248.175781 C 187.539062 248.613281 187.316406 249.03125 187.054688 249.425781 C 186.789062 249.824219 186.488281 250.1875 186.152344 250.523438 C 185.816406 250.859375 185.449219 251.160156 185.054688 251.425781 C 184.660156 251.6875 184.242188 251.910156 183.804688 252.09375 C 183.363281 252.277344 182.914062 252.414062 182.445312 252.503906 C 181.980469 252.597656 181.507812 252.644531 181.035156 252.644531 C 180.558594 252.644531 180.085938 252.597656 179.621094 252.503906 C 179.15625 252.414062 178.703125 252.277344 178.265625 252.09375 C 177.824219 251.910156 177.40625 251.6875 177.011719 251.425781 C 176.617188 251.160156 176.25 250.859375 175.914062 250.523438 C 175.578125 250.1875 175.277344 249.824219 175.015625 249.425781 C 174.75 249.03125 174.527344 248.613281 174.347656 248.175781 C 174.164062 247.738281 174.027344 247.285156 173.933594 246.816406 C 173.839844 246.351562 173.796875 245.882812 173.796875 245.40625 C 173.796875 244.929688 173.839844 244.460938 173.933594 243.992188 C 174.027344 243.527344 174.164062 243.074219 174.347656 242.636719 C 174.527344 242.195312 174.75 241.777344 175.015625 241.382812 C 175.277344 240.988281 175.578125 240.625 175.914062 240.285156 C 176.25 239.949219 176.617188 239.652344 177.011719 239.386719 C 177.40625 239.121094 177.824219 238.898438 178.265625 238.71875 C 178.703125 238.535156 179.15625 238.398438 179.621094 238.304688 C 180.085938 238.214844 180.558594 238.167969 181.035156 238.167969 C 181.507812 238.167969 181.980469 238.214844 182.445312 238.304688 C 182.914062 238.398438 183.363281 238.535156 183.804688 238.71875 C 184.242188 238.898438 184.660156 239.121094 185.054688 239.386719 C 185.449219 239.652344 185.816406 239.949219 186.152344 240.285156 C 186.488281 240.625 186.789062 240.988281 187.054688 241.382812 C 187.316406 241.777344 187.539062 242.195312 187.722656 242.636719 C 187.902344 243.074219 188.039062 243.527344 188.132812 243.992188 C 188.226562 244.460938 188.273438 244.929688 188.273438 245.40625 Z M 188.273438 245.40625 " fill-opacity="1" fill-rule="nonzero"/><g clip-path="url(#fd03914dec)"><path fill="#1c1d28" d="M 321.710938 39.097656 L 282.378906 39.097656 L 282.378906 24.621094 C 282.378906 22.621094 280.757812 21 278.757812 21 L 223.222656 21 C 220.035156 21 218.402344 24.847656 220.625 27.140625 L 232.234375 39.097656 L 40.359375 39.097656 C 28.117188 39.097656 18.160156 49.054688 18.160156 61.296875 L 18.160156 248.542969 C 18.160156 260.785156 28.117188 270.742188 40.359375 270.742188 L 137.601562 270.742188 L 137.601562 325.035156 L 126.742188 325.035156 C 124.742188 325.035156 123.121094 326.652344 123.121094 328.652344 C 123.121094 330.652344 124.742188 332.273438 126.742188 332.273438 L 141.21875 332.273438 C 152.382812 332.273438 226.519531 332.273438 235.324219 332.273438 C 237.324219 332.273438 238.945312 330.652344 238.945312 328.652344 C 238.945312 326.652344 237.324219 325.035156 235.324219 325.035156 L 224.46875 325.035156 L 224.46875 270.742188 L 321.710938 270.742188 C 333.949219 270.742188 343.910156 260.785156 343.910156 248.542969 L 343.910156 61.296875 C 343.910156 49.054688 333.949219 39.097656 321.710938 39.097656 Z M 321.710938 46.335938 C 329.957031 46.335938 336.667969 53.046875 336.667969 61.296875 L 336.667969 220.070312 L 322.191406 220.070312 L 322.191406 64.433594 C 322.191406 62.433594 320.570312 60.816406 318.574219 60.816406 L 282.378906 60.816406 L 282.378906 46.335938 Z M 47.113281 201.972656 L 126.742188 201.972656 C 128.742188 201.972656 130.363281 200.351562 130.363281 198.351562 C 130.363281 196.355469 128.742188 194.734375 126.742188 194.734375 L 47.113281 194.734375 L 47.113281 68.054688 L 210.894531 68.054688 L 163.761719 115.1875 L 138.335938 89.761719 C 136.925781 88.351562 134.628906 88.351562 133.21875 89.761719 L 80.75 142.230469 C 79.335938 143.644531 79.339844 145.941406 80.75 147.351562 L 101.738281 168.335938 C 102.445312 169.042969 103.371094 169.394531 104.296875 169.394531 C 105.222656 169.394531 106.148438 169.042969 106.855469 168.335938 L 135.777344 139.414062 L 161.203125 164.839844 C 162.617188 166.25 164.90625 166.25 166.320312 164.839844 L 261.703125 69.457031 L 276.160156 84.351562 C 276.855469 85.066406 277.800781 85.449219 278.757812 85.449219 C 280.742188 85.449219 282.378906 83.839844 282.378906 81.832031 L 282.378906 68.054688 L 314.953125 68.054688 L 314.953125 220.070312 L 47.113281 220.070312 Z M 256.660156 64.261719 L 163.761719 157.160156 L 138.335938 131.738281 C 136.925781 130.324219 134.628906 130.324219 133.21875 131.738281 L 104.296875 160.660156 L 88.429688 144.792969 L 135.777344 97.441406 L 161.203125 122.867188 C 162.613281 124.28125 164.90625 124.28125 166.320312 122.867188 L 241.027344 48.160156 Z M 275.140625 28.238281 L 275.140625 72.90625 L 231.78125 28.238281 Z M 40.359375 46.335938 L 232.613281 46.335938 L 218.132812 60.816406 L 43.496094 60.816406 C 41.496094 60.816406 39.875 62.433594 39.875 64.433594 L 39.875 220.070312 L 25.398438 220.070312 L 25.398438 61.296875 C 25.398438 53.046875 32.109375 46.335938 40.359375 46.335938 Z M 144.839844 270.742188 L 162.9375 270.742188 L 162.9375 325.035156 L 144.839844 325.035156 Z M 170.175781 325.035156 L 170.175781 270.742188 L 191.890625 270.742188 L 191.890625 325.035156 Z M 217.226562 325.035156 L 199.132812 325.035156 L 199.132812 270.742188 L 217.226562 270.742188 Z M 321.710938 263.503906 C 306.929688 263.503906 55.921875 263.503906 40.359375 263.503906 C 32.109375 263.503906 25.398438 256.792969 25.398438 248.542969 L 25.398438 227.308594 C 29.285156 227.308594 332.898438 227.308594 336.667969 227.308594 L 336.667969 248.542969 C 336.667969 256.792969 329.957031 263.503906 321.710938 263.503906 Z M 321.710938 263.503906 " fill-opacity="1" fill-rule="nonzero"/></g><path fill="#1c1d28" d="M 307.714844 288.839844 C 295.738281 288.839844 285.996094 298.582031 285.996094 310.554688 C 285.996094 322.53125 295.738281 332.273438 307.714844 332.273438 C 319.6875 332.273438 329.429688 322.53125 329.429688 310.554688 C 329.429688 298.582031 319.6875 288.839844 307.714844 288.839844 Z M 307.714844 325.035156 C 299.730469 325.035156 293.238281 318.539062 293.238281 310.554688 C 293.238281 302.574219 299.730469 296.078125 307.714844 296.078125 C 315.699219 296.078125 322.191406 302.574219 322.191406 310.554688 C 322.191406 318.539062 315.699219 325.035156 307.714844 325.035156 Z M 307.714844 325.035156 " fill-opacity="1" fill-rule="nonzero"/><path fill="#1c1d28" d="M 68.832031 303.316406 C 54.859375 303.316406 43.496094 314.683594 43.496094 328.652344 C 43.496094 342.625 54.859375 353.988281 68.832031 353.988281 C 82.800781 353.988281 94.167969 342.625 94.167969 328.652344 C 94.167969 314.683594 82.800781 303.316406 68.832031 303.316406 Z M 68.832031 346.75 C 58.851562 346.75 50.734375 338.632812 50.734375 328.652344 C 50.734375 318.675781 58.851562 310.554688 68.832031 310.554688 C 78.808594 310.554688 86.929688 318.675781 86.929688 328.652344 C 86.929688 338.632812 78.808594 346.75 68.832031 346.75 Z M 68.832031 346.75 " fill-opacity="1" fill-rule="nonzero"/><path fill="#1c1d28" d="M 214.933594 157.921875 C 214.933594 155.050781 218.921875 155.054688 221.472656 155.769531 C 224.03125 156.492188 226.523438 157.875 226.851562 158.308594 L 229.949219 152.457031 C 225.320312 149.757812 219.761719 148.121094 214.609375 149.746094 C 210.484375 151.050781 207.660156 154.339844 207.660156 159.042969 C 207.660156 169.359375 223.28125 166.695312 223.28125 171.605469 C 223.28125 174.398438 218.710938 174.144531 216.050781 173.414062 C 214.261719 172.921875 212.160156 172.132812 210.585938 171.132812 C 209.957031 170.730469 209.582031 170.460938 209.46875 170.316406 L 206.371094 176.46875 C 214.328125 181.863281 230.855469 182.703125 230.855469 170.917969 C 230.855469 169.511719 230.632812 168.308594 230.1875 167.304688 C 227.109375 160.367188 214.933594 162.375 214.933594 157.921875 Z M 214.933594 157.921875 " fill-opacity="1" fill-rule="nonzero"/><path fill="#1c1d28" d="M 245.226562 167.21875 L 257.277344 167.21875 L 257.277344 161.496094 L 245.226562 161.496094 L 245.226562 155.554688 L 259.253906 155.554688 L 259.253906 149.359375 L 238.171875 149.359375 L 238.171875 179.910156 L 259.644531 179.910156 L 259.644531 173.714844 L 245.226562 173.714844 Z M 245.226562 167.21875 " fill-opacity="1" fill-rule="nonzero"/><path fill="#1c1d28" d="M 280.976562 149.1875 C 270.148438 149.1875 262.816406 160.210938 266.796875 170.359375 C 270.957031 180.957031 284.097656 183.542969 291.777344 175.457031 C 301.132812 165.601562 294.1875 149.1875 280.976562 149.1875 Z M 280.890625 173.886719 C 275.847656 173.886719 272.886719 169.609375 272.886719 164.679688 C 272.886719 152.363281 288.894531 152.429688 288.894531 164.59375 C 288.894531 166.847656 285.964844 173.886719 280.890625 173.886719 Z M 280.890625 173.886719 " fill-opacity="1" fill-rule="nonzero"/></svg>