<svg xmlns="http://www.w3.org/2000/svg" xmlns:xlink="http://www.w3.org/1999/xlink" width="500" zoomAndPan="magnify" viewBox="0 0 375 374.999991" height="500" preserveAspectRatio="xMidYMid meet" version="1.0"><defs><clipPath id="40664eaa77"><path d="M 147.660156 155.230469 L 217 155.230469 L 217 222 L 147.660156 222 Z M 147.660156 155.230469 " clip-rule="nonzero"/></clipPath><clipPath id="249f455687"><path d="M 225 170 L 272 170 L 272 222.3125 L 225 222.3125 Z M 225 170 " clip-rule="nonzero"/></clipPath><clipPath id="36745242a2"><path d="M 274 157 L 309 157 L 309 222.3125 L 274 222.3125 Z M 274 157 " clip-rule="nonzero"/></clipPath><clipPath id="f27096fff2"><path d="M 313 170 L 360.625 170 L 360.625 222.3125 L 313 222.3125 Z M 313 170 " clip-rule="nonzero"/></clipPath><clipPath id="0475acc7c8"><path d="M 53 153.003906 L 87 153.003906 L 87 193 L 53 193 Z M 53 153.003906 " clip-rule="nonzero"/></clipPath><clipPath id="c1f1aa5f16"><path d="M 53.484375 153 C 53.453125 153 53.417969 153 53.386719 153 L 53.25 164.332031 C 53.28125 164.332031 53.3125 164.332031 53.34375 164.332031 C 60.636719 164.332031 66.296875 170.214844 78.59375 191.394531 L 79.34375 192.6875 L 79.394531 192.769531 L 86.277344 182.207031 L 86.230469 182.125 C 84.609375 179.433594 83.054688 176.953125 81.558594 174.6875 C 79.828125 172.066406 78.171875 169.722656 76.566406 167.632812 C 68.433594 157.039062 61.625 153 53.484375 153 Z M 53.484375 153 " clip-rule="nonzero"/></clipPath><linearGradient x1="9.96847" gradientTransform="matrix(6.466594, 0, 0, 6.5, 21.03101, 148.666636)" y1="6.879379" x2="5.084091" gradientUnits="userSpaceOnUse" y2="0.588256" id="2c22bfc6e9"><stop stop-opacity="1" stop-color="rgb(3.09906%, 40.39917%, 87.5%)" offset="0"/><stop stop-opacity="1" stop-color="rgb(2.963257%, 40.475464%, 87.634277%)" offset="0.25"/><stop stop-opacity="1" stop-color="rgb(2.697754%, 40.628052%, 87.89978%)" offset="0.375"/><stop stop-opacity="1" stop-color="rgb(2.502441%, 40.739441%, 88.095093%)" offset="0.393237"/><stop stop-opacity="1" stop-color="rgb(2.436829%, 40.777588%, 88.160706%)" offset="0.4375"/><stop stop-opacity="1" stop-color="rgb(2.365112%, 40.753174%, 88.171387%)" offset="0.46875"/><stop stop-opacity="1" stop-color="rgb(2.1698%, 40.646362%, 88.160706%)" offset="0.5"/><stop stop-opacity="1" stop-color="rgb(1.919556%, 40.478516%, 88.117981%)" offset="0.53125"/><stop stop-opacity="1" stop-color="rgb(1.667786%, 40.312195%, 88.076782%)" offset="0.5625"/><stop stop-opacity="1" stop-color="rgb(1.417542%, 40.144348%, 88.035583%)" offset="0.59375"/><stop stop-opacity="1" stop-color="rgb(1.167297%, 39.978027%, 87.992859%)" offset="0.606763"/><stop stop-opacity="1" stop-color="rgb(1.042175%, 39.894104%, 87.973022%)" offset="0.625"/><stop stop-opacity="1" stop-color="rgb(0.917053%, 39.810181%, 87.95166%)" offset="0.65625"/><stop stop-opacity="1" stop-color="rgb(0.666809%, 39.64386%, 87.910461%)" offset="0.6875"/><stop stop-opacity="1" stop-color="rgb(0.416565%, 39.476013%, 87.867737%)" offset="0.71875"/><stop stop-opacity="1" stop-color="rgb(0.164795%, 39.309692%, 87.826538%)" offset="0.75"/><stop stop-opacity="1" stop-color="rgb(0.0198364%, 39.213562%, 87.802124%)" offset="1"/></linearGradient><clipPath id="dc49fb32e0"><path d="M 32 153.003906 L 54 153.003906 L 54 173 L 32 173 Z M 32 153.003906 " clip-rule="nonzero"/></clipPath><clipPath id="93197ed4d3"><path d="M 53.386719 153 C 45.203125 153.042969 37.972656 158.453125 32.75 166.730469 C 32.734375 166.757812 32.71875 166.78125 32.703125 166.804688 L 42.289062 172.140625 C 42.304688 172.117188 42.320312 172.09375 42.335938 172.070312 C 45.386719 167.371094 49.183594 164.378906 53.25 164.332031 C 53.28125 164.332031 53.3125 164.332031 53.34375 164.332031 L 53.484375 153 C 53.453125 153 53.417969 153 53.386719 153 Z M 53.386719 153 " clip-rule="nonzero"/></clipPath><linearGradient x1="1.795329" gradientTransform="matrix(6.466594, 0, 0, 6.5, 21.03101, 148.666636)" y1="3.598521" x2="5.270974" gradientUnits="userSpaceOnUse" y2="1.005243" id="ef7e0f4899"><stop stop-opacity="1" stop-color="rgb(0%, 39.199829%, 87.5%)" offset="0"/><stop stop-opacity="1" stop-color="rgb(0%, 39.199829%, 87.548828%)" offset="0.406038"/><stop stop-opacity="1" stop-color="rgb(0%, 39.199829%, 87.599182%)" offset="0.5"/><stop stop-opacity="1" stop-color="rgb(0%, 39.199829%, 87.698364%)" offset="0.593962"/><stop stop-opacity="1" stop-color="rgb(0%, 39.199829%, 87.799072%)" offset="1"/></linearGradient><clipPath id="9942f1b7af"><path d="M 25 166 L 43 166 L 43 189 L 25 189 Z M 25 166 " clip-rule="nonzero"/></clipPath><clipPath id="4e1a00cd7e"><path d="M 32.75 166.730469 C 32.734375 166.757812 32.71875 166.78125 32.703125 166.804688 C 29.269531 172.269531 26.710938 178.972656 25.328125 186.203125 C 25.324219 186.234375 25.316406 186.265625 25.3125 186.296875 L 36.082031 188.898438 C 36.089844 188.867188 36.09375 188.832031 36.097656 188.800781 C 37.25 182.445312 39.441406 176.550781 42.289062 172.140625 C 42.304688 172.117188 42.320312 172.09375 42.335938 172.066406 Z M 32.75 166.730469 " clip-rule="nonzero"/></clipPath><linearGradient x1="1.231499" gradientTransform="matrix(6.466594, 0, 0, 6.5, 21.03101, 148.666636)" y1="6.419316" x2="2.785092" gradientUnits="userSpaceOnUse" y2="2.57336" id="db8f288646"><stop stop-opacity="1" stop-color="rgb(0%, 44.699097%, 92.498779%)" offset="0"/><stop stop-opacity="1" stop-color="rgb(0%, 44.699097%, 92.498779%)" offset="0.125"/><stop stop-opacity="1" stop-color="rgb(0%, 44.560242%, 92.373657%)" offset="0.1875"/><stop stop-opacity="1" stop-color="rgb(0%, 44.32373%, 92.158508%)" offset="0.203125"/><stop stop-opacity="1" stop-color="rgb(0%, 44.125366%, 91.978455%)" offset="0.21875"/><stop stop-opacity="1" stop-color="rgb(0%, 43.928528%, 91.798401%)" offset="0.234375"/><stop stop-opacity="1" stop-color="rgb(0%, 43.730164%, 91.618347%)" offset="0.237735"/><stop stop-opacity="1" stop-color="rgb(0%, 43.630981%, 91.52832%)" offset="0.25"/><stop stop-opacity="1" stop-color="rgb(0%, 43.531799%, 91.438293%)" offset="0.265625"/><stop stop-opacity="1" stop-color="rgb(0%, 43.333435%, 91.25824%)" offset="0.28125"/><stop stop-opacity="1" stop-color="rgb(0%, 43.135071%, 91.07666%)" offset="0.296875"/><stop stop-opacity="1" stop-color="rgb(0%, 42.936707%, 90.896606%)" offset="0.3125"/><stop stop-opacity="1" stop-color="rgb(0%, 42.738342%, 90.716553%)" offset="0.328125"/><stop stop-opacity="1" stop-color="rgb(0%, 42.539978%, 90.536499%)" offset="0.34375"/><stop stop-opacity="1" stop-color="rgb(0%, 42.34314%, 90.356445%)" offset="0.359375"/><stop stop-opacity="1" stop-color="rgb(0%, 42.144775%, 90.176392%)" offset="0.375"/><stop stop-opacity="1" stop-color="rgb(0%, 41.946411%, 89.996338%)" offset="0.390625"/><stop stop-opacity="1" stop-color="rgb(0%, 41.748047%, 89.816284%)" offset="0.40625"/><stop stop-opacity="1" stop-color="rgb(0%, 41.549683%, 89.63623%)" offset="0.421875"/><stop stop-opacity="1" stop-color="rgb(0%, 41.351318%, 89.456177%)" offset="0.4375"/><stop stop-opacity="1" stop-color="rgb(0%, 41.152954%, 89.276123%)" offset="0.453125"/><stop stop-opacity="1" stop-color="rgb(0%, 40.95459%, 89.096069%)" offset="0.46875"/><stop stop-opacity="1" stop-color="rgb(0%, 40.756226%, 88.916016%)" offset="0.484375"/><stop stop-opacity="1" stop-color="rgb(0%, 40.559387%, 88.734436%)" offset="0.5"/><stop stop-opacity="1" stop-color="rgb(0%, 40.361023%, 88.554382%)" offset="0.515625"/><stop stop-opacity="1" stop-color="rgb(0%, 40.162659%, 88.374329%)" offset="0.53125"/><stop stop-opacity="1" stop-color="rgb(0%, 39.964294%, 88.194275%)" offset="0.546875"/><stop stop-opacity="1" stop-color="rgb(0%, 39.76593%, 88.014221%)" offset="0.5625"/><stop stop-opacity="1" stop-color="rgb(0%, 39.567566%, 87.834167%)" offset="0.578125"/><stop stop-opacity="1" stop-color="rgb(0%, 39.369202%, 87.654114%)" offset="0.59375"/><stop stop-opacity="1" stop-color="rgb(0%, 39.234924%, 87.532043%)" offset="0.625"/><stop stop-opacity="1" stop-color="rgb(0%, 39.199829%, 87.5%)" offset="0.75"/><stop stop-opacity="1" stop-color="rgb(0%, 39.199829%, 87.5%)" offset="0.762265"/><stop stop-opacity="1" stop-color="rgb(0%, 39.199829%, 87.5%)" offset="1"/></linearGradient><clipPath id="c1428aa581"><path d="M 24.167969 186 L 37 186 L 37 200 L 24.167969 200 Z M 24.167969 186 " clip-rule="nonzero"/></clipPath><clipPath id="0009479b69"><path d="M 36.101562 188.800781 L 25.328125 186.203125 C 25.324219 186.234375 25.316406 186.265625 25.3125 186.296875 C 24.558594 190.273438 24.175781 194.316406 24.167969 198.367188 C 24.167969 198.402344 24.167969 198.433594 24.167969 198.464844 L 35.210938 199.476562 C 35.210938 199.445312 35.210938 199.410156 35.210938 199.378906 C 35.203125 199.144531 35.203125 198.90625 35.203125 198.664062 C 35.207031 195.386719 35.503906 192.117188 36.082031 188.898438 C 36.089844 188.867188 36.09375 188.832031 36.101562 188.800781 Z M 36.101562 188.800781 " clip-rule="nonzero"/></clipPath><linearGradient x1="1.321647" gradientTransform="matrix(6.466594, 0, 0, 6.5, 21.03101, 148.666636)" y1="7.881409" x2="1.488774" gradientUnits="userSpaceOnUse" y2="5.710187" id="b1330a30a4"><stop stop-opacity="1" stop-color="rgb(0%, 48.599243%, 96.499634%)" offset="0"/><stop stop-opacity="1" stop-color="rgb(0%, 48.599243%, 96.499634%)" offset="0.0650324"/><stop stop-opacity="1" stop-color="rgb(0%, 48.599243%, 96.499634%)" offset="0.125"/><stop stop-opacity="1" stop-color="rgb(0%, 48.554993%, 96.453857%)" offset="0.1875"/><stop stop-opacity="1" stop-color="rgb(0%, 48.321533%, 96.214294%)" offset="0.25"/><stop stop-opacity="1" stop-color="rgb(0%, 47.943115%, 95.826721%)" offset="0.3125"/><stop stop-opacity="1" stop-color="rgb(0%, 47.566223%, 95.439148%)" offset="0.375"/><stop stop-opacity="1" stop-color="rgb(0%, 47.187805%, 95.051575%)" offset="0.4375"/><stop stop-opacity="1" stop-color="rgb(0%, 46.809387%, 94.664001%)" offset="0.5"/><stop stop-opacity="1" stop-color="rgb(0%, 46.430969%, 94.276428%)" offset="0.5625"/><stop stop-opacity="1" stop-color="rgb(0%, 46.054077%, 93.888855%)" offset="0.625"/><stop stop-opacity="1" stop-color="rgb(0%, 45.675659%, 93.499756%)" offset="0.6875"/><stop stop-opacity="1" stop-color="rgb(0%, 45.297241%, 93.112183%)" offset="0.75"/><stop stop-opacity="1" stop-color="rgb(0%, 44.918823%, 92.724609%)" offset="0.8125"/><stop stop-opacity="1" stop-color="rgb(0%, 44.714355%, 92.514038%)" offset="0.875"/><stop stop-opacity="1" stop-color="rgb(0%, 44.699097%, 92.498779%)" offset="0.934968"/><stop stop-opacity="1" stop-color="rgb(0%, 44.699097%, 92.498779%)" offset="1"/></linearGradient><clipPath id="f87cebee87"><path d="M 24.167969 198 L 36 198 L 36 206 L 24.167969 206 Z M 24.167969 198 " clip-rule="nonzero"/></clipPath><clipPath id="1bd761e929"><path d="M 35.546875 203 C 35.351562 201.835938 35.238281 200.660156 35.210938 199.476562 C 35.210938 199.445312 35.210938 199.414062 35.210938 199.378906 L 24.167969 198.367188 C 24.167969 198.402344 24.167969 198.433594 24.167969 198.46875 L 24.167969 198.472656 C 24.167969 200.996094 24.371094 203.355469 24.773438 205.535156 C 24.777344 205.566406 24.78125 205.597656 24.789062 205.628906 L 35.566406 203.097656 C 35.558594 203.066406 35.554688 203.03125 35.546875 203 Z M 35.546875 203 " clip-rule="nonzero"/></clipPath><linearGradient x1="1.462296" gradientTransform="matrix(6.466594, 0, 0, 6.5, 21.03101, 148.666636)" y1="8.870739" x2="1.280664" gradientUnits="userSpaceOnUse" y2="7.538039" id="64fcb43f05"><stop stop-opacity="1" stop-color="rgb(0%, 49.798584%, 97.599792%)" offset="0"/><stop stop-opacity="1" stop-color="rgb(0%, 49.798584%, 97.599792%)" offset="0.17696"/><stop stop-opacity="1" stop-color="rgb(0%, 49.798584%, 97.599792%)" offset="0.25"/><stop stop-opacity="1" stop-color="rgb(0%, 49.769592%, 97.572327%)" offset="0.375"/><stop stop-opacity="1" stop-color="rgb(0%, 49.563599%, 97.383118%)" offset="0.5"/><stop stop-opacity="1" stop-color="rgb(0%, 49.209595%, 97.058105%)" offset="0.625"/><stop stop-opacity="1" stop-color="rgb(0%, 48.855591%, 96.733093%)" offset="0.75"/><stop stop-opacity="1" stop-color="rgb(0%, 48.638916%, 96.534729%)" offset="0.82304"/><stop stop-opacity="1" stop-color="rgb(0%, 48.599243%, 96.499634%)" offset="1"/></linearGradient><clipPath id="366412f516"><path d="M 24.167969 203 L 39 203 L 39 217 L 24.167969 217 Z M 24.167969 203 " clip-rule="nonzero"/></clipPath><clipPath id="c9c3f74f2f"><path d="M 38.066406 208.847656 C 36.863281 207.507812 36.011719 205.570312 35.566406 203.097656 C 35.558594 203.0625 35.554688 203.03125 35.546875 203 L 24.773438 205.535156 C 24.777344 205.566406 24.785156 205.597656 24.789062 205.628906 C 25.605469 210.003906 27.203125 213.648438 29.488281 216.40625 C 29.507812 216.429688 29.53125 216.453125 29.550781 216.480469 L 38.128906 208.917969 C 38.109375 208.894531 38.085938 208.871094 38.066406 208.847656 Z M 38.066406 208.847656 " clip-rule="nonzero"/></clipPath><linearGradient x1="1.116495" gradientTransform="matrix(6.466594, 0, 0, 6.5, 21.03101, 148.666636)" y1="8.100947" x2="2.312201" gradientUnits="userSpaceOnUse" y2="10.592001" id="7be656b54d"><stop stop-opacity="1" stop-color="rgb(0%, 49.798584%, 97.599792%)" offset="0"/><stop stop-opacity="1" stop-color="rgb(0%, 49.824524%, 97.616577%)" offset="0.25"/><stop stop-opacity="1" stop-color="rgb(0%, 50.038147%, 97.758484%)" offset="0.323486"/><stop stop-opacity="1" stop-color="rgb(0%, 50.22583%, 97.883606%)" offset="0.375"/><stop stop-opacity="1" stop-color="rgb(0%, 50.413513%, 98.008728%)" offset="0.5"/><stop stop-opacity="1" stop-color="rgb(0%, 50.788879%, 98.258972%)" offset="0.625"/><stop stop-opacity="1" stop-color="rgb(0%, 50.987244%, 98.391724%)" offset="0.676514"/><stop stop-opacity="1" stop-color="rgb(0%, 50.999451%, 98.399353%)" offset="0.75"/><stop stop-opacity="1" stop-color="rgb(0%, 50.999451%, 98.399353%)" offset="1"/></linearGradient><clipPath id="a577f9d7ed"><path d="M 29 177 L 76 177 L 76 222.335938 L 29 222.335938 Z M 29 177 " clip-rule="nonzero"/></clipPath><clipPath id="e94b5da94e"><path d="M 76 161 L 88 161 L 88 175 L 76 175 Z M 76 161 " clip-rule="nonzero"/></clipPath><clipPath id="cbd2b07fdb"><path d="M 81.566406 161.421875 C 81.542969 161.445312 81.523438 161.472656 81.5 161.496094 C 79.796875 163.351562 78.160156 165.425781 76.566406 167.628906 C 78.171875 169.722656 79.832031 172.070312 81.5625 174.691406 C 83.601562 171.472656 85.507812 168.863281 87.375 166.863281 C 87.394531 166.839844 87.417969 166.816406 87.441406 166.792969 Z M 81.566406 161.421875 " clip-rule="nonzero"/></clipPath><linearGradient x1="8.592507" gradientTransform="matrix(6.466594, 0, 0, 6.5, 21.03101, 148.666636)" y1="4.00712" x2="10.158115" gradientUnits="userSpaceOnUse" y2="1.880389" id="81c2d801a3"><stop stop-opacity="1" stop-color="rgb(0%, 49.798584%, 97.299194%)" offset="0"/><stop stop-opacity="1" stop-color="rgb(0%, 49.969482%, 97.454834%)" offset="0.377498"/><stop stop-opacity="1" stop-color="rgb(0%, 50.140381%, 97.612%)" offset="0.5"/><stop stop-opacity="1" stop-color="rgb(0%, 50.27771%, 97.737122%)" offset="0.5625"/><stop stop-opacity="1" stop-color="rgb(0%, 50.550842%, 97.988892%)" offset="0.622502"/><stop stop-opacity="1" stop-color="rgb(0%, 50.688171%, 98.114014%)" offset="0.625"/><stop stop-opacity="1" stop-color="rgb(0%, 50.843811%, 98.25592%)" offset="0.75"/><stop stop-opacity="1" stop-color="rgb(0%, 50.999451%, 98.399353%)" offset="1"/></linearGradient><clipPath id="ff80a9b9ad"><path d="M 81 153.003906 L 114 153.003906 L 114 167 L 81 167 Z M 81 153.003906 " clip-rule="nonzero"/></clipPath><clipPath id="8cbb4ed45d"><path d="M 106 160 L 126.195312 160 L 126.195312 197 L 106 197 Z M 106 160 " clip-rule="nonzero"/></clipPath><clipPath id="05e5f84f00"><path d="M 126.1875 196.878906 C 125.933594 181.855469 120.792969 168.425781 113.160156 160.492188 C 113.136719 160.46875 113.117188 160.449219 113.09375 160.425781 L 106.339844 166.597656 C 106.363281 166.621094 106.386719 166.644531 106.40625 166.667969 C 112.148438 172.695312 116.085938 183.914062 116.445312 196.875 C 116.445312 196.90625 116.445312 196.9375 116.445312 196.972656 L 126.1875 196.976562 C 126.1875 196.941406 126.1875 196.910156 126.1875 196.878906 Z M 126.1875 196.878906 " clip-rule="nonzero"/></clipPath><linearGradient x1="13.947378" gradientTransform="matrix(6.466594, 0, 0, 6.5, 21.03101, 148.666636)" y1="1.600006" x2="15.610394" gradientUnits="userSpaceOnUse" y2="7.612178" id="5439fd43d2"><stop stop-opacity="1" stop-color="rgb(0%, 50.999451%, 98.399353%)" offset="0"/><stop stop-opacity="1" stop-color="rgb(0%, 50.904846%, 98.304749%)" offset="0.131172"/><stop stop-opacity="1" stop-color="rgb(0%, 50.810242%, 98.210144%)" offset="0.5"/><stop stop-opacity="1" stop-color="rgb(0%, 50.704956%, 98.104858%)" offset="0.868828"/><stop stop-opacity="1" stop-color="rgb(0%, 50.59967%, 97.999573%)" offset="1"/></linearGradient><clipPath id="a2b90122c5"><path d="M 114 196 L 126.195312 196 L 126.195312 216 L 114 216 Z M 114 196 " clip-rule="nonzero"/></clipPath><clipPath id="b7b5dba860"><path d="M 126.1875 196.976562 C 126.1875 196.941406 126.1875 196.910156 126.1875 196.878906 L 116.441406 196.875 C 116.445312 196.90625 116.445312 196.9375 116.445312 196.972656 C 116.460938 197.582031 116.46875 198.191406 116.46875 198.808594 C 116.46875 202.339844 115.953125 205.199219 114.902344 207.261719 C 114.886719 207.292969 114.871094 207.320312 114.855469 207.351562 L 122.121094 215.078125 C 122.140625 215.050781 122.15625 215.023438 122.175781 214.992188 C 124.8125 210.832031 126.195312 205.050781 126.195312 198.042969 C 126.195312 197.6875 126.191406 197.328125 126.1875 196.976562 Z M 126.1875 196.976562 " clip-rule="nonzero"/></clipPath><linearGradient x1="15.964312" gradientTransform="matrix(6.466594, 0, 0, 6.5, 21.03101, 148.666636)" y1="7.266256" x2="14.485132" gradientUnits="userSpaceOnUse" y2="10.204935" id="2ac761a299"><stop stop-opacity="1" stop-color="rgb(0%, 50.59967%, 97.999573%)" offset="0"/><stop stop-opacity="1" stop-color="rgb(0%, 50.471497%, 97.871399%)" offset="0.239633"/><stop stop-opacity="1" stop-color="rgb(0%, 50.343323%, 97.743225%)" offset="0.5"/><stop stop-opacity="1" stop-color="rgb(0%, 50.271606%, 97.671509%)" offset="0.760367"/><stop stop-opacity="1" stop-color="rgb(0%, 50.19989%, 97.599792%)" offset="1"/></linearGradient><clipPath id="da0b621999"><path d="M 110 207 L 123 207 L 123 222 L 110 222 Z M 110 207 " clip-rule="nonzero"/></clipPath><clipPath id="bcd23568f9"><path d="M 114.90625 207.261719 C 114.890625 207.292969 114.871094 207.320312 114.855469 207.351562 C 113.949219 209.089844 112.652344 210.25 110.957031 210.757812 L 114.269531 221.429688 C 114.707031 221.277344 115.132812 221.105469 115.550781 220.917969 C 115.671875 220.859375 115.796875 220.800781 115.917969 220.742188 C 115.988281 220.707031 116.058594 220.671875 116.128906 220.636719 C 118.316406 219.519531 120.167969 217.875 121.664062 215.753906 C 121.757812 215.625 121.847656 215.496094 121.9375 215.359375 C 122 215.265625 122.058594 215.171875 122.121094 215.078125 C 122.140625 215.050781 122.15625 215.023438 122.175781 214.992188 Z M 114.90625 207.261719 " clip-rule="nonzero"/></clipPath><linearGradient x1="13.601859" gradientTransform="matrix(6.466594, 0, 0, 6.5, 21.03101, 148.666636)" y1="10.739059" x2="15.807838" gradientUnits="userSpaceOnUse" y2="9.263975" id="b072ae1487"><stop stop-opacity="1" stop-color="rgb(0.799561%, 47.799683%, 95.298767%)" offset="0"/><stop stop-opacity="1" stop-color="rgb(0.799561%, 47.799683%, 95.298767%)" offset="0.25"/><stop stop-opacity="1" stop-color="rgb(0.778198%, 47.862244%, 95.358276%)" offset="0.3125"/><stop stop-opacity="1" stop-color="rgb(0.723267%, 48.023987%, 95.513916%)" offset="0.34375"/><stop stop-opacity="1" stop-color="rgb(0.657654%, 48.222351%, 95.704651%)" offset="0.375"/><stop stop-opacity="1" stop-color="rgb(0.590515%, 48.422241%, 95.895386%)" offset="0.40625"/><stop stop-opacity="1" stop-color="rgb(0.524902%, 48.622131%, 96.087646%)" offset="0.4375"/><stop stop-opacity="1" stop-color="rgb(0.457764%, 48.820496%, 96.278381%)" offset="0.456573"/><stop stop-opacity="1" stop-color="rgb(0.42572%, 48.921204%, 96.374512%)" offset="0.46875"/><stop stop-opacity="1" stop-color="rgb(0.392151%, 49.020386%, 96.469116%)" offset="0.5"/><stop stop-opacity="1" stop-color="rgb(0.325012%, 49.21875%, 96.659851%)" offset="0.53125"/><stop stop-opacity="1" stop-color="rgb(0.259399%, 49.41864%, 96.850586%)" offset="0.543427"/><stop stop-opacity="1" stop-color="rgb(0.22583%, 49.519348%, 96.946716%)" offset="0.5625"/><stop stop-opacity="1" stop-color="rgb(0.192261%, 49.61853%, 97.042847%)" offset="0.59375"/><stop stop-opacity="1" stop-color="rgb(0.126648%, 49.816895%, 97.233582%)" offset="0.625"/><stop stop-opacity="1" stop-color="rgb(0.0457764%, 50.057983%, 97.463989%)" offset="0.75"/><stop stop-opacity="1" stop-color="rgb(0%, 50.19989%, 97.599792%)" offset="1"/></linearGradient><clipPath id="aa518edfd3"><path d="M 102 210 L 115 210 L 115 222.335938 L 102 222.335938 Z M 102 210 " clip-rule="nonzero"/></clipPath><clipPath id="6b5e4f0e60"><path d="M 108.847656 211.046875 C 107.738281 211.046875 106.757812 210.878906 105.800781 210.441406 L 102.410156 221.367188 C 104.316406 222.035156 106.347656 222.332031 108.613281 222.332031 C 110.703125 222.332031 112.621094 222.011719 114.359375 221.398438 L 111.050781 210.730469 C 110.335938 210.949219 109.59375 211.054688 108.847656 211.046875 Z M 108.847656 211.046875 " clip-rule="nonzero"/></clipPath><linearGradient x1="12.5845" gradientTransform="matrix(6.466594, 0, 0, 6.5, 21.03101, 148.666636)" y1="10.419" x2="14.432399" gradientUnits="userSpaceOnUse" y2="10.419" id="9273644f24"><stop stop-opacity="1" stop-color="rgb(1.199341%, 46.699524%, 93.699646%)" offset="0"/><stop stop-opacity="1" stop-color="rgb(1.10321%, 46.890259%, 93.890381%)" offset="0.5"/><stop stop-opacity="1" stop-color="rgb(0.926208%, 47.244263%, 94.244385%)" offset="0.75"/><stop stop-opacity="1" stop-color="rgb(0.822449%, 47.453308%, 94.45343%)" offset="1"/></linearGradient><clipPath id="de16851931"><path d="M 94 207 L 106 207 L 106 222 L 94 222 Z M 94 207 " clip-rule="nonzero"/></clipPath><clipPath id="91a6bfcaa4"><path d="M 102.0625 207.3125 C 102.042969 207.289062 102.019531 207.261719 102 207.238281 L 94.199219 215.535156 C 94.21875 215.558594 94.242188 215.582031 94.265625 215.605469 C 96.976562 218.558594 99.5625 220.394531 102.5 221.398438 L 105.886719 210.480469 C 104.648438 209.9375 103.453125 208.953125 102.0625 207.3125 Z M 102.0625 207.3125 " clip-rule="nonzero"/></clipPath><linearGradient x1="11.145944" gradientTransform="matrix(6.466594, 0, 0, 6.5, 21.03101, 148.666636)" y1="9.302545" x2="13.444553" gradientUnits="userSpaceOnUse" y2="10.632735" id="599f799760"><stop stop-opacity="1" stop-color="rgb(1.599121%, 44.299316%, 91.398621%)" offset="0"/><stop stop-opacity="1" stop-color="rgb(1.599121%, 44.299316%, 91.398621%)" offset="0.25"/><stop stop-opacity="1" stop-color="rgb(1.589966%, 44.34967%, 91.447449%)" offset="0.375"/><stop stop-opacity="1" stop-color="rgb(1.564026%, 44.50531%, 91.596985%)" offset="0.40625"/><stop stop-opacity="1" stop-color="rgb(1.528931%, 44.714355%, 91.798401%)" offset="0.410895"/><stop stop-opacity="1" stop-color="rgb(1.512146%, 44.819641%, 91.899109%)" offset="0.4375"/><stop stop-opacity="1" stop-color="rgb(1.493835%, 44.923401%, 91.998291%)" offset="0.46875"/><stop stop-opacity="1" stop-color="rgb(1.45874%, 45.132446%, 92.198181%)" offset="0.5"/><stop stop-opacity="1" stop-color="rgb(1.425171%, 45.343018%, 92.399597%)" offset="0.53125"/><stop stop-opacity="1" stop-color="rgb(1.390076%, 45.552063%, 92.599487%)" offset="0.5625"/><stop stop-opacity="1" stop-color="rgb(1.35498%, 45.761108%, 92.799377%)" offset="0.589105"/><stop stop-opacity="1" stop-color="rgb(1.338196%, 45.866394%, 92.900085%)" offset="0.59375"/><stop stop-opacity="1" stop-color="rgb(1.319885%, 45.970154%, 93.000793%)" offset="0.625"/><stop stop-opacity="1" stop-color="rgb(1.28479%, 46.179199%, 93.200684%)" offset="0.65625"/><stop stop-opacity="1" stop-color="rgb(1.249695%, 46.388245%, 93.400574%)" offset="0.6875"/><stop stop-opacity="1" stop-color="rgb(1.216125%, 46.595764%, 93.600464%)" offset="0.75"/><stop stop-opacity="1" stop-color="rgb(1.199341%, 46.699524%, 93.699646%)" offset="1"/></linearGradient><clipPath id="5ac8c64343"><path d="M 79 182 L 103 182 L 103 216 L 79 216 Z M 79 182 " clip-rule="nonzero"/></clipPath><clipPath id="43324b8121"><path d="M 102 207.238281 C 99.660156 204.453125 96.765625 199.820312 92.210938 192.328125 L 86.277344 182.207031 L 86.230469 182.125 L 79.34375 192.6875 L 79.394531 192.769531 L 83.597656 200.003906 C 87.671875 206.976562 90.996094 212.023438 94.199219 215.535156 C 94.21875 215.558594 94.242188 215.582031 94.265625 215.605469 L 102.0625 207.3125 C 102.042969 207.289062 102.019531 207.261719 102 207.238281 Z M 102 207.238281 " clip-rule="nonzero"/></clipPath><linearGradient x1="8.795056" gradientTransform="matrix(6.466594, 0, 0, 6.5, 21.03101, 148.666636)" y1="5.327714" x2="12.704096" gradientUnits="userSpaceOnUse" y2="10.158242" id="5b35aabeb0"><stop stop-opacity="1" stop-color="rgb(3.09906%, 40.39917%, 87.5%)" offset="0"/><stop stop-opacity="1" stop-color="rgb(3.09906%, 40.39917%, 87.5%)" offset="0.25"/><stop stop-opacity="1" stop-color="rgb(3.08075%, 40.446472%, 87.547302%)" offset="0.355661"/><stop stop-opacity="1" stop-color="rgb(3.062439%, 40.493774%, 87.594604%)" offset="0.375"/><stop stop-opacity="1" stop-color="rgb(3.015137%, 40.617371%, 87.716675%)" offset="0.40625"/><stop stop-opacity="1" stop-color="rgb(2.920532%, 40.863037%, 87.962341%)" offset="0.4375"/><stop stop-opacity="1" stop-color="rgb(2.825928%, 41.108704%, 88.208008%)" offset="0.46875"/><stop stop-opacity="1" stop-color="rgb(2.731323%, 41.35437%, 88.453674%)" offset="0.5"/><stop stop-opacity="1" stop-color="rgb(2.636719%, 41.600037%, 88.699341%)" offset="0.53125"/><stop stop-opacity="1" stop-color="rgb(2.542114%, 41.845703%, 88.945007%)" offset="0.5625"/><stop stop-opacity="1" stop-color="rgb(2.44751%, 42.09137%, 89.190674%)" offset="0.59375"/><stop stop-opacity="1" stop-color="rgb(2.352905%, 42.337036%, 89.43634%)" offset="0.625"/><stop stop-opacity="1" stop-color="rgb(2.259827%, 42.582703%, 89.683533%)" offset="0.644339"/><stop stop-opacity="1" stop-color="rgb(2.212524%, 42.706299%, 89.807129%)" offset="0.65625"/><stop stop-opacity="1" stop-color="rgb(2.165222%, 42.828369%, 89.929199%)" offset="0.6875"/><stop stop-opacity="1" stop-color="rgb(2.070618%, 43.074036%, 90.174866%)" offset="0.71875"/><stop stop-opacity="1" stop-color="rgb(1.976013%, 43.319702%, 90.420532%)" offset="0.75"/><stop stop-opacity="1" stop-color="rgb(1.881409%, 43.565369%, 90.666199%)" offset="0.78125"/><stop stop-opacity="1" stop-color="rgb(1.786804%, 43.811035%, 90.911865%)" offset="0.8125"/><stop stop-opacity="1" stop-color="rgb(1.669312%, 44.116211%, 91.217041%)" offset="0.875"/><stop stop-opacity="1" stop-color="rgb(1.599121%, 44.299316%, 91.398621%)" offset="1"/></linearGradient></defs><g clip-path="url(#40664eaa77)"><path fill="#1c2b33" d="M 147.660156 155.226562 L 160.414062 155.226562 L 182.097656 195.335938 L 203.777344 155.226562 L 216.253906 155.226562 L 216.253906 221.132812 L 205.851562 221.132812 L 205.851562 170.621094 L 186.839844 205.597656 L 177.078125 205.597656 L 158.066406 170.621094 L 158.066406 221.132812 L 147.660156 221.132812 Z M 147.660156 155.226562 " fill-opacity="1" fill-rule="nonzero"/></g><g clip-path="url(#249f455687)"><path fill="#1c2b33" d="M 249.8125 222.3125 C 244.996094 222.3125 240.761719 221.21875 237.109375 219.039062 C 233.457031 216.859375 230.609375 213.835938 228.570312 209.976562 C 226.527344 206.117188 225.507812 201.691406 225.507812 196.703125 C 225.507812 191.648438 226.503906 187.175781 228.5 183.285156 C 230.496094 179.394531 233.265625 176.351562 236.808594 174.152344 C 240.355469 171.957031 244.429688 170.859375 249.03125 170.855469 C 253.605469 170.855469 257.539062 171.964844 260.839844 174.175781 C 264.136719 176.386719 266.675781 179.488281 268.457031 183.472656 C 270.238281 187.460938 271.128906 192.136719 271.128906 197.5 L 271.128906 200.421875 L 235.820312 200.421875 C 236.464844 204.4375 238.050781 207.601562 240.585938 209.90625 C 243.117188 212.210938 246.316406 213.367188 250.183594 213.367188 C 253.28125 213.367188 255.953125 212.894531 258.191406 211.953125 C 260.433594 211.011719 262.535156 209.585938 264.5 207.671875 L 270.023438 214.589844 C 264.53125 219.738281 257.792969 222.3125 249.8125 222.3125 Z M 257.410156 183.214844 C 255.230469 180.9375 252.375 179.800781 248.847656 179.800781 C 245.410156 179.800781 242.53125 180.960938 240.214844 183.285156 C 237.898438 185.609375 236.433594 188.730469 235.820312 192.652344 L 261.140625 192.652344 C 260.832031 188.636719 259.589844 185.488281 257.410156 183.214844 Z M 257.410156 183.214844 " fill-opacity="1" fill-rule="nonzero"/></g><g clip-path="url(#36745242a2)"><path fill="#1c2b33" d="M 283.742188 180.742188 L 274.167969 180.742188 L 274.167969 172.035156 L 283.742188 172.035156 L 283.742188 157.628906 L 293.777344 157.628906 L 293.777344 172.035156 L 308.324219 172.035156 L 308.324219 180.742188 L 293.777344 180.742188 L 293.777344 202.820312 C 293.777344 206.492188 294.394531 209.113281 295.621094 210.683594 C 296.847656 212.253906 298.949219 213.039062 301.925781 213.035156 C 303.246094 213.035156 304.367188 212.980469 305.289062 212.871094 C 306.207031 212.761719 307.222656 212.613281 308.324219 212.425781 L 308.324219 221.039062 C 307.066406 221.410156 305.78125 221.695312 304.480469 221.886719 C 302.996094 222.109375 301.496094 222.21875 299.992188 222.214844 C 289.160156 222.214844 283.742188 216.160156 283.742188 204.046875 Z M 283.742188 180.742188 " fill-opacity="1" fill-rule="nonzero"/></g><g clip-path="url(#f27096fff2)"><path fill="#1c2b33" d="M 360.625 221.132812 L 350.773438 221.132812 L 350.773438 214.261719 C 349.023438 216.835938 346.796875 218.820312 344.097656 220.214844 C 341.394531 221.613281 338.328125 222.308594 334.890625 222.3125 C 330.65625 222.3125 326.902344 221.203125 323.632812 218.992188 C 320.367188 216.777344 317.796875 213.734375 315.925781 209.859375 C 314.050781 205.984375 313.117188 201.550781 313.117188 196.558594 C 313.117188 191.539062 314.066406 187.097656 315.96875 183.238281 C 317.871094 179.378906 320.503906 176.347656 323.863281 174.152344 C 327.226562 171.957031 331.085938 170.859375 335.441406 170.855469 C 338.726562 170.855469 341.671875 171.507812 344.28125 172.8125 C 346.855469 174.082031 349.082031 175.984375 350.773438 178.34375 L 350.773438 172.035156 L 360.625 172.035156 Z M 350.589844 189.214844 C 349.515625 186.421875 347.820312 184.21875 345.5 182.601562 C 343.183594 180.984375 340.507812 180.179688 337.46875 180.179688 C 333.171875 180.179688 329.75 181.652344 327.203125 184.601562 C 324.65625 187.554688 323.382812 191.539062 323.382812 196.558594 C 323.382812 201.613281 324.609375 205.613281 327.066406 208.566406 C 329.519531 211.515625 332.847656 212.988281 337.054688 212.988281 C 340.152344 212.988281 342.914062 212.171875 345.339844 210.542969 C 347.765625 208.910156 349.515625 206.714844 350.589844 203.949219 Z M 350.589844 189.214844 " fill-opacity="1" fill-rule="nonzero"/></g><g clip-path="url(#0475acc7c8)"><g clip-path="url(#c1f1aa5f16)"><path fill="url(#2c22bfc6e9)" d="M 53.25 153.003906 L 53.25 192.769531 L 86.277344 192.769531 L 86.277344 153.003906 Z M 53.25 153.003906 " fill-rule="nonzero"/></g></g><g clip-path="url(#dc49fb32e0)"><g clip-path="url(#93197ed4d3)"><path fill="url(#ef7e0f4899)" d="M 32.703125 153.003906 L 32.703125 172.140625 L 53.484375 172.140625 L 53.484375 153.003906 Z M 32.703125 153.003906 " fill-rule="nonzero"/></g></g><g clip-path="url(#9942f1b7af)"><g clip-path="url(#4e1a00cd7e)"><path fill="url(#db8f288646)" d="M 25.3125 166.730469 L 25.3125 188.898438 L 42.335938 188.898438 L 42.335938 166.730469 Z M 25.3125 166.730469 " fill-rule="nonzero"/></g></g><g clip-path="url(#c1428aa581)"><g clip-path="url(#0009479b69)"><path fill="url(#b1330a30a4)" d="M 24.167969 186.203125 L 24.167969 199.476562 L 36.101562 199.476562 L 36.101562 186.203125 Z M 24.167969 186.203125 " fill-rule="nonzero"/></g></g><g clip-path="url(#f87cebee87)"><g clip-path="url(#1bd761e929)"><path fill="url(#64fcb43f05)" d="M 24.167969 198.367188 L 24.167969 205.628906 L 35.566406 205.628906 L 35.566406 198.367188 Z M 24.167969 198.367188 " fill-rule="nonzero"/></g></g><g clip-path="url(#366412f516)"><g clip-path="url(#c9c3f74f2f)"><path fill="url(#7be656b54d)" d="M 24.773438 203 L 24.773438 216.480469 L 38.128906 216.480469 L 38.128906 203 Z M 24.773438 203 " fill-rule="nonzero"/></g></g><g clip-path="url(#a577f9d7ed)"><path fill="#0082fb" d="M 69.992188 177.5 C 63.496094 187.683594 59.5625 194.074219 59.5625 194.074219 C 50.914062 207.941406 47.921875 211.046875 43.105469 211.046875 C 41.09375 211.046875 39.414062 210.316406 38.128906 208.917969 C 38.105469 208.894531 38.085938 208.871094 38.066406 208.847656 L 29.488281 216.40625 C 29.507812 216.429688 29.527344 216.453125 29.550781 216.480469 C 32.707031 220.242188 37.167969 222.332031 42.683594 222.332031 C 51.027344 222.332031 57.03125 218.308594 67.699219 199.238281 C 67.699219 199.238281 72.148438 191.207031 75.207031 185.671875 C 73.3125 182.542969 71.585938 179.835938 69.992188 177.5 Z M 69.992188 177.5 " fill-opacity="1" fill-rule="nonzero"/></g><g clip-path="url(#e94b5da94e)"><g clip-path="url(#cbd2b07fdb)"><path fill="url(#81c2d801a3)" d="M 76.566406 161.421875 L 76.566406 174.691406 L 87.441406 174.691406 L 87.441406 161.421875 Z M 76.566406 161.421875 " fill-rule="nonzero"/></g></g><g clip-path="url(#ff80a9b9ad)"><path fill="#0082fb" d="M 113.09375 160.425781 C 108.566406 155.746094 103.164062 153 97.390625 153 C 91.304688 153 86.183594 156.410156 81.566406 161.421875 C 81.542969 161.445312 81.523438 161.46875 81.5 161.496094 L 87.375 166.863281 C 87.394531 166.839844 87.417969 166.816406 87.441406 166.792969 C 90.480469 163.558594 93.425781 161.941406 96.691406 161.941406 C 100.203125 161.941406 103.492188 163.632812 106.339844 166.597656 C 106.363281 166.621094 106.386719 166.644531 106.40625 166.667969 L 113.160156 160.492188 C 113.136719 160.46875 113.117188 160.449219 113.09375 160.425781 Z M 113.09375 160.425781 " fill-opacity="1" fill-rule="nonzero"/></g><g clip-path="url(#8cbb4ed45d)"><g clip-path="url(#05e5f84f00)"><path fill="url(#5439fd43d2)" d="M 106.339844 160.425781 L 106.339844 196.976562 L 126.1875 196.976562 L 126.1875 160.425781 Z M 106.339844 160.425781 " fill-rule="nonzero"/></g></g><g clip-path="url(#a2b90122c5)"><g clip-path="url(#b7b5dba860)"><path fill="url(#2ac761a299)" d="M 114.855469 196.875 L 114.855469 215.078125 L 126.195312 215.078125 L 126.195312 196.875 Z M 114.855469 196.875 " fill-rule="nonzero"/></g></g><g clip-path="url(#da0b621999)"><g clip-path="url(#bcd23568f9)"><path fill="url(#b072ae1487)" d="M 110.957031 207.261719 L 110.957031 221.429688 L 122.175781 221.429688 L 122.175781 207.261719 Z M 110.957031 207.261719 " fill-rule="nonzero"/></g></g><g clip-path="url(#aa518edfd3)"><g clip-path="url(#6b5e4f0e60)"><path fill="url(#9273644f24)" d="M 102.410156 210.441406 L 102.410156 222.332031 L 114.359375 222.332031 L 114.359375 210.441406 Z M 102.410156 210.441406 " fill-rule="nonzero"/></g></g><g clip-path="url(#de16851931)"><g clip-path="url(#91a6bfcaa4)"><path fill="url(#599f799760)" d="M 94.199219 207.238281 L 94.199219 221.398438 L 105.886719 221.398438 L 105.886719 207.238281 Z M 94.199219 207.238281 " fill-rule="nonzero"/></g></g><g clip-path="url(#5ac8c64343)"><g clip-path="url(#43324b8121)"><path fill="url(#5b35aabeb0)" d="M 79.34375 182.125 L 79.34375 215.605469 L 102.0625 215.605469 L 102.0625 182.125 Z M 79.34375 182.125 " fill-rule="nonzero"/></g></g></svg>