<svg xmlns="http://www.w3.org/2000/svg" xmlns:xlink="http://www.w3.org/1999/xlink" width="500" zoomAndPan="magnify" viewBox="0 0 375 374.999991" height="500" preserveAspectRatio="xMidYMid meet" version="1.0"><defs><clipPath id="efbe73feb6"><path d="M 324 177 L 342.667969 177 L 342.667969 194 L 324 194 Z M 324 177 " clip-rule="nonzero"/></clipPath><clipPath id="cf668d543f"><path d="M 65 27.507812 L 233 27.507812 L 233 356 L 65 356 Z M 65 27.507812 " clip-rule="nonzero"/></clipPath><clipPath id="c546e49ad4"><path d="M 32.167969 156 L 53 156 L 53 169 L 32.167969 169 Z M 32.167969 156 " clip-rule="nonzero"/></clipPath></defs><g clip-path="url(#efbe73feb6)"><path fill="#1c1d28" d="M 326.53125 193.539062 C 325.847656 193.539062 325.175781 193.242188 324.703125 192.675781 C 323.875 191.671875 324.023438 190.183594 325.027344 189.351562 L 338.582031 178.203125 C 339.585938 177.371094 341.078125 177.519531 341.90625 178.527344 C 342.734375 179.53125 342.585938 181.019531 341.582031 181.847656 L 328.027344 193 C 327.585938 193.363281 327.054688 193.539062 326.53125 193.539062 Z M 326.53125 193.539062 " fill-opacity="1" fill-rule="nonzero"/></g><g clip-path="url(#cf668d543f)"><path fill="#1c1d28" d="M 229.949219 277.355469 C 228.648438 277.355469 227.589844 278.414062 227.589844 279.714844 L 227.589844 323.355469 C 227.589844 338.65625 215.140625 351.101562 199.84375 351.101562 L 98.417969 351.101562 C 83.113281 351.101562 70.667969 338.652344 70.667969 323.355469 L 70.667969 59.976562 C 70.667969 44.671875 83.121094 32.226562 98.417969 32.226562 L 110.347656 32.226562 L 115.398438 47.375 C 116.6875 51.230469 120.292969 53.828125 124.351562 53.828125 L 173.894531 53.828125 C 177.953125 53.828125 181.558594 51.230469 182.847656 47.375 L 187.898438 32.226562 L 199.828125 32.226562 C 215.132812 32.226562 227.578125 44.679688 227.578125 59.976562 L 227.578125 172.324219 C 227.578125 173.625 228.636719 174.683594 229.9375 174.683594 C 231.238281 174.683594 232.296875 173.625 232.296875 172.324219 L 232.296875 59.976562 C 232.296875 42.070312 217.726562 27.507812 199.828125 27.507812 L 98.417969 27.507812 C 80.511719 27.507812 65.949219 42.078125 65.949219 59.976562 L 65.949219 323.347656 C 65.949219 341.253906 80.515625 355.8125 98.417969 355.8125 L 199.84375 355.8125 C 217.75 355.8125 232.308594 341.246094 232.308594 323.347656 L 232.308594 279.710938 C 232.308594 278.40625 231.25 277.355469 229.949219 277.355469 Z M 229.949219 277.355469 " fill-opacity="1" fill-rule="nonzero"/></g><path fill="#1c1d28" d="M 135.109375 139.816406 C 135.980469 139.816406 136.863281 139.621094 137.679688 139.222656 L 187.332031 115.230469 C 189.386719 114.238281 190.660156 112.203125 190.660156 109.917969 C 190.660156 107.632812 189.386719 105.601562 187.332031 104.605469 L 137.679688 80.613281 C 135.839844 79.722656 133.707031 79.84375 131.976562 80.929688 C 130.242188 82.015625 129.210938 83.882812 129.210938 85.925781 L 129.210938 133.902344 C 129.210938 135.945312 130.242188 137.8125 131.976562 138.898438 C 132.941406 139.511719 134.019531 139.816406 135.109375 139.816406 Z M 133.9375 85.929688 C 133.9375 85.34375 134.320312 85.035156 134.488281 84.933594 C 134.617188 84.851562 134.839844 84.746094 135.117188 84.746094 C 135.273438 84.746094 135.449219 84.777344 135.628906 84.867188 L 185.28125 108.859375 C 185.882812 109.148438 185.949219 109.695312 185.949219 109.917969 C 185.949219 110.140625 185.882812 110.6875 185.28125 110.976562 L 135.628906 134.96875 C 135.097656 135.226562 134.660156 135.007812 134.488281 134.90625 C 134.28125 134.78125 133.9375 134.476562 133.9375 133.910156 Z M 133.9375 85.929688 " fill-opacity="1" fill-rule="nonzero"/><path fill="#1c1d28" d="M 214.957031 163.601562 C 214.957031 162.296875 213.898438 161.242188 212.597656 161.242188 L 85.660156 161.242188 C 84.359375 161.242188 83.300781 162.296875 83.300781 163.601562 C 83.300781 164.902344 84.359375 165.960938 85.660156 165.960938 L 212.597656 165.960938 C 213.898438 165.960938 214.957031 164.902344 214.957031 163.601562 Z M 214.957031 163.601562 " fill-opacity="1" fill-rule="nonzero"/><path fill="#1c1d28" d="M 128.316406 242.933594 L 89.746094 242.933594 C 88.445312 242.933594 87.386719 243.992188 87.386719 245.292969 C 87.386719 246.59375 88.445312 247.652344 89.746094 247.652344 L 128.316406 247.652344 C 129.617188 247.652344 130.675781 246.59375 130.675781 245.292969 C 130.675781 243.992188 129.617188 242.933594 128.316406 242.933594 Z M 128.316406 242.933594 " fill-opacity="1" fill-rule="nonzero"/><path fill="#1c1d28" d="M 89.746094 271.128906 L 128.316406 271.128906 C 129.617188 271.128906 130.675781 270.070312 130.675781 268.769531 C 130.675781 267.464844 129.617188 266.410156 128.316406 266.410156 L 89.746094 266.410156 C 88.445312 266.410156 87.386719 267.464844 87.386719 268.769531 C 87.386719 270.070312 88.445312 271.128906 89.746094 271.128906 Z M 89.746094 271.128906 " fill-opacity="1" fill-rule="nonzero"/><path fill="#1c1d28" d="M 162.738281 289.882812 L 89.746094 289.882812 C 88.445312 289.882812 87.386719 290.941406 87.386719 292.242188 C 87.386719 293.542969 88.445312 294.601562 89.746094 294.601562 L 162.738281 294.601562 C 164.039062 294.601562 165.097656 293.542969 165.097656 292.242188 C 165.097656 290.941406 164.039062 289.882812 162.738281 289.882812 Z M 162.738281 289.882812 " fill-opacity="1" fill-rule="nonzero"/><path fill="#1c1d28" d="M 87.386719 315.710938 C 87.386719 317.011719 88.445312 318.070312 89.746094 318.070312 L 208.503906 318.070312 C 209.804688 318.070312 210.863281 317.011719 210.863281 315.710938 C 210.863281 314.40625 209.804688 313.347656 208.503906 313.347656 L 89.746094 313.347656 C 88.445312 313.347656 87.386719 314.40625 87.386719 315.710938 Z M 87.386719 315.710938 " fill-opacity="1" fill-rule="nonzero"/><path fill="#1c1d28" d="M 94.464844 230.234375 L 123.597656 230.234375 C 126.203125 230.234375 128.316406 228.125 128.316406 225.515625 L 128.316406 196.382812 C 128.316406 193.773438 126.203125 191.664062 123.597656 191.664062 L 94.464844 191.664062 C 91.855469 191.664062 89.746094 193.773438 89.746094 196.382812 L 89.746094 225.515625 C 89.746094 228.125 91.863281 230.234375 94.464844 230.234375 Z M 94.464844 230.234375 " fill-opacity="1" fill-rule="nonzero"/><path fill="#1c1d28" d="M 186.496094 208.4375 C 185.859375 213.203125 184.222656 220.992188 182.316406 230.550781 L 191.011719 230.550781 C 189.078125 220.632812 187.53125 213.386719 186.71875 208.4375 Z M 186.496094 208.4375 " fill-opacity="1" fill-rule="nonzero"/><path fill="#1c1d28" d="M 228.878906 207.542969 L 225.488281 207.542969 L 225.488281 244.058594 L 228.804688 244.058594 C 236.058594 244.058594 238.550781 238.605469 238.550781 224.707031 C 238.546875 212.792969 236.335938 207.542969 228.878906 207.542969 Z M 228.878906 207.542969 " fill-opacity="1" fill-rule="nonzero"/><path fill="#1c1d28" d="M 305.089844 182.980469 L 154.800781 182.980469 C 151.082031 182.980469 148.0625 186.003906 148.0625 189.722656 L 148.0625 263.234375 C 148.0625 266.953125 151.082031 269.972656 154.800781 269.972656 L 176.046875 269.972656 L 176.046875 293.328125 C 176.046875 294.574219 177.589844 295.152344 178.410156 294.210938 L 199.503906 269.972656 L 305.089844 269.972656 C 308.8125 269.972656 311.832031 266.953125 311.832031 263.234375 L 311.832031 189.722656 C 311.832031 186.003906 308.8125 182.980469 305.089844 182.980469 Z M 203.273438 251.644531 L 196.34375 251.644531 C 195.703125 251.644531 195.144531 251.1875 195.023438 250.558594 L 192.65625 238.605469 L 180.667969 238.605469 L 178.308594 250.558594 C 178.1875 251.191406 177.628906 251.644531 176.988281 251.644531 L 170.496094 251.644531 C 169.628906 251.644531 168.988281 250.835938 169.183594 249.992188 L 180.554688 200.875 C 180.695312 200.261719 181.242188 199.828125 181.871094 199.828125 L 191.773438 199.828125 C 192.398438 199.828125 192.945312 200.261719 193.085938 200.867188 L 204.589844 249.984375 C 204.785156 250.835938 204.144531 251.644531 203.273438 251.644531 Z M 228.90625 251.644531 L 217.472656 251.644531 C 216.730469 251.644531 216.125 251.039062 216.125 250.296875 L 216.125 201.175781 C 216.125 200.4375 216.730469 199.828125 217.472656 199.828125 L 229.621094 199.828125 C 242.949219 199.828125 248.125 208.371094 248.125 224.671875 C 248.132812 242.171875 243.171875 251.644531 228.90625 251.644531 Z M 275.113281 252.527344 C 263.953125 252.527344 260.066406 245.839844 259.34375 238.613281 C 259.261719 237.816406 259.894531 237.128906 260.691406 237.128906 L 267.296875 237.128906 C 267.964844 237.128906 268.519531 237.613281 268.625 238.269531 C 269.261719 242.070312 271.074219 245.210938 275.386719 245.210938 C 279.953125 245.210938 281.652344 242.355469 281.652344 238.5 C 281.652344 234.246094 279.554688 231.761719 273 228.640625 C 264.128906 224.429688 260.65625 220.699219 260.65625 213 C 260.65625 204.691406 265.996094 199.011719 275.367188 199.011719 C 286.203125 199.011719 289.445312 205.820312 289.976562 212.191406 C 290.042969 212.976562 289.410156 213.640625 288.628906 213.640625 L 282.15625 213.640625 C 281.488281 213.640625 280.921875 213.15625 280.828125 212.496094 C 280.425781 209.671875 279.324219 206.320312 275.214844 206.320312 C 271.539062 206.320312 269.902344 208.699219 269.902344 212.21875 C 269.902344 215.949219 271.558594 217.695312 277.632812 220.519531 C 286.929688 224.820312 291.101562 228.984375 291.101562 237.664062 C 291.097656 245.800781 286.054688 252.527344 275.113281 252.527344 Z M 275.113281 252.527344 " fill-opacity="1" fill-rule="nonzero"/><g clip-path="url(#c546e49ad4)"><path fill="#1c1d28" d="M 49.554688 168.691406 C 49.890625 168.859375 50.25 168.933594 50.597656 168.933594 C 51.46875 168.933594 52.304688 168.453125 52.714844 167.617188 C 53.296875 166.453125 52.816406 165.035156 51.648438 164.457031 L 35.914062 156.667969 C 34.742188 156.089844 33.332031 156.570312 32.753906 157.734375 C 32.175781 158.902344 32.652344 160.316406 33.820312 160.898438 Z M 49.554688 168.691406 " fill-opacity="1" fill-rule="nonzero"/></g><path fill="#1c1d28" d="M 50.539062 217.894531 L 34.769531 225.621094 C 33.597656 226.195312 33.117188 227.609375 33.691406 228.777344 C 34.101562 229.613281 34.9375 230.097656 35.8125 230.097656 C 36.164062 230.097656 36.515625 230.015625 36.851562 229.855469 L 52.613281 222.128906 C 53.789062 221.558594 54.265625 220.140625 53.691406 218.976562 C 53.121094 217.808594 51.703125 217.324219 50.539062 217.894531 Z M 50.539062 217.894531 " fill-opacity="1" fill-rule="nonzero"/><path fill="#1c1d28" d="M 277.398438 172.503906 C 277.425781 172.503906 277.449219 172.503906 277.476562 172.503906 C 278.777344 172.464844 279.804688 171.371094 279.757812 170.070312 L 279.175781 152.523438 C 279.136719 151.222656 278.03125 150.21875 276.742188 150.246094 C 275.441406 150.285156 274.417969 151.378906 274.464844 152.679688 L 275.042969 170.226562 C 275.078125 171.496094 276.128906 172.503906 277.398438 172.503906 Z M 277.398438 172.503906 " fill-opacity="1" fill-rule="nonzero"/></svg>