<svg xmlns="http://www.w3.org/2000/svg" xmlns:xlink="http://www.w3.org/1999/xlink" width="500" zoomAndPan="magnify" viewBox="0 0 375 374.999991" height="500" preserveAspectRatio="xMidYMid meet" version="1.0"><defs><clipPath id="552c048b8e"><path d="M 37 32 L 341 32 L 341 349.9375 L 37 349.9375 Z M 37 32 " clip-rule="nonzero"/></clipPath><clipPath id="c145e8a32a"><path d="M 274 25.1875 L 317 25.1875 L 317 68 L 274 68 Z M 274 25.1875 " clip-rule="nonzero"/></clipPath><clipPath id="054976c24b"><path d="M 295 192 L 351.839844 192 L 351.839844 249 L 295 249 Z M 295 192 " clip-rule="nonzero"/></clipPath><clipPath id="81e62e3a43"><path d="M 23.339844 39 L 94 39 L 94 54 L 23.339844 54 Z M 23.339844 39 " clip-rule="nonzero"/></clipPath><clipPath id="b52f404fc7"><path d="M 23.339844 60 L 80 60 L 80 75 L 23.339844 75 Z M 23.339844 60 " clip-rule="nonzero"/></clipPath><clipPath id="ae2e35e883"><path d="M 23.339844 81 L 66 81 L 66 96 L 23.339844 96 Z M 23.339844 81 " clip-rule="nonzero"/></clipPath></defs><path fill="#1c1d28" d="M 258.703125 147.664062 C 258.703125 108.925781 227.148438 77.410156 188.363281 77.410156 C 149.625 77.410156 118.109375 108.925781 118.109375 147.664062 C 118.109375 186.449219 149.625 218.003906 188.363281 218.003906 C 227.148438 218.003906 258.703125 186.449219 258.703125 147.664062 Z M 132.078125 147.664062 C 132.078125 116.628906 157.324219 91.375 188.363281 91.375 C 219.445312 91.375 244.734375 116.628906 244.734375 147.664062 C 244.734375 178.746094 219.445312 204.035156 188.363281 204.035156 C 157.324219 204.035156 132.078125 178.746094 132.078125 147.664062 Z M 132.078125 147.664062 " fill-opacity="1" fill-rule="nonzero"/><path fill="#1c1d28" d="M 223.78125 147.6875 C 223.78125 143.832031 220.652344 140.703125 216.796875 140.703125 L 190.988281 140.703125 C 187.132812 140.703125 184.003906 143.832031 184.003906 147.6875 C 184.003906 151.542969 187.132812 154.671875 190.988281 154.671875 L 208.644531 154.671875 C 205.742188 163.070312 197.757812 169.117188 188.386719 169.117188 C 176.589844 169.117188 166.996094 159.503906 166.996094 147.6875 C 166.996094 135.894531 176.59375 126.296875 188.386719 126.296875 C 192.242188 126.296875 195.371094 123.171875 195.371094 119.3125 C 195.371094 115.457031 192.242188 112.328125 188.386719 112.328125 C 168.890625 112.328125 153.027344 128.191406 153.027344 147.6875 C 153.027344 167.203125 168.890625 183.082031 188.386719 183.082031 C 207.902344 183.082031 223.78125 167.203125 223.78125 147.6875 Z M 223.78125 147.6875 " fill-opacity="1" fill-rule="nonzero"/><g clip-path="url(#552c048b8e)"><path fill="#1c1d28" d="M 333.464844 335.824219 L 299.183594 335.824219 C 301.570312 331.710938 302.945312 326.941406 302.945312 321.855469 C 302.945312 306.449219 290.410156 293.917969 275.007812 293.917969 L 202.671875 293.917969 C 244.886719 243.289062 303.921875 216.660156 303.921875 147.65625 C 303.921875 83.988281 252.078125 32.1875 188.355469 32.1875 C 124.507812 32.1875 72.886719 83.796875 72.886719 147.65625 C 72.886719 216.65625 131.832031 243.285156 174.039062 293.917969 L 100.40625 293.917969 C 85 293.917969 72.46875 306.449219 72.46875 321.855469 C 72.46875 326.941406 73.84375 331.710938 76.226562 335.824219 L 44.324219 335.824219 C 40.464844 335.824219 37.339844 338.949219 37.339844 342.808594 C 37.339844 346.664062 40.464844 349.792969 44.324219 349.792969 C 57.199219 349.792969 320.84375 349.792969 333.464844 349.792969 C 337.320312 349.792969 340.449219 346.664062 340.449219 342.808594 C 340.449219 338.949219 337.320312 335.824219 333.464844 335.824219 Z M 86.855469 147.65625 C 86.855469 91.691406 132.386719 46.15625 188.355469 46.15625 C 244.378906 46.15625 289.953125 91.691406 289.953125 147.65625 C 289.953125 190.652344 263.3125 215.332031 232.464844 243.90625 C 217.554688 257.714844 202.203125 271.933594 188.355469 289.375 C 145.203125 235.015625 86.855469 211.210938 86.855469 147.65625 Z M 100.40625 335.824219 C 92.703125 335.824219 86.4375 329.558594 86.4375 321.855469 C 86.4375 314.152344 92.703125 307.886719 100.40625 307.886719 L 275.007812 307.886719 C 282.710938 307.886719 288.976562 314.152344 288.976562 321.855469 C 288.976562 329.558594 282.710938 335.824219 275.007812 335.824219 Z M 100.40625 335.824219 " fill-opacity="1" fill-rule="nonzero"/></g><path fill="#1c1d28" d="M 37.339844 255.679688 C 37.339844 267.234375 46.738281 276.632812 58.292969 276.632812 C 69.84375 276.632812 79.242188 267.234375 79.242188 255.679688 C 79.242188 244.128906 69.84375 234.726562 58.292969 234.726562 C 46.738281 234.726562 37.339844 244.128906 37.339844 255.679688 Z M 65.273438 255.679688 C 65.273438 259.53125 62.140625 262.664062 58.292969 262.664062 C 54.441406 262.664062 51.308594 259.53125 51.308594 255.679688 C 51.308594 251.828125 54.441406 248.695312 58.292969 248.695312 C 62.140625 248.695312 65.273438 251.828125 65.273438 255.679688 Z M 65.273438 255.679688 " fill-opacity="1" fill-rule="nonzero"/><g clip-path="url(#c145e8a32a)"><path fill="#1c1d28" d="M 295.75 67.109375 C 307.304688 67.109375 316.703125 57.710938 316.703125 46.15625 C 316.703125 34.605469 307.304688 25.207031 295.75 25.207031 C 284.199219 25.207031 274.796875 34.605469 274.796875 46.15625 C 274.796875 57.710938 284.199219 67.109375 295.75 67.109375 Z M 295.75 39.171875 C 299.601562 39.171875 302.734375 42.304688 302.734375 46.15625 C 302.734375 50.007812 299.601562 53.140625 295.75 53.140625 C 291.898438 53.140625 288.765625 50.007812 288.765625 46.15625 C 288.765625 42.304688 291.898438 39.171875 295.75 39.171875 Z M 295.75 39.171875 " fill-opacity="1" fill-rule="nonzero"/></g><g clip-path="url(#054976c24b)"><path fill="#1c1d28" d="M 323.6875 192.824219 C 308.28125 192.824219 295.75 205.355469 295.75 220.761719 C 295.75 236.164062 308.28125 248.695312 323.6875 248.695312 C 339.089844 248.695312 351.625 236.164062 351.625 220.761719 C 351.625 205.355469 339.089844 192.824219 323.6875 192.824219 Z M 323.6875 234.726562 C 315.984375 234.726562 309.71875 228.460938 309.71875 220.761719 C 309.71875 213.058594 315.984375 206.792969 323.6875 206.792969 C 331.390625 206.792969 337.65625 213.058594 337.65625 220.761719 C 337.65625 228.460938 331.390625 234.726562 323.6875 234.726562 Z M 323.6875 234.726562 " fill-opacity="1" fill-rule="nonzero"/></g><g clip-path="url(#81e62e3a43)"><path fill="#1c1d28" d="M 30.355469 53.140625 L 86.226562 53.140625 C 90.085938 53.140625 93.210938 50.015625 93.210938 46.15625 C 93.210938 42.300781 90.085938 39.171875 86.226562 39.171875 L 30.355469 39.171875 C 26.496094 39.171875 23.371094 42.300781 23.371094 46.15625 C 23.371094 50.015625 26.496094 53.140625 30.355469 53.140625 Z M 30.355469 53.140625 " fill-opacity="1" fill-rule="nonzero"/></g><g clip-path="url(#b52f404fc7)"><path fill="#1c1d28" d="M 30.355469 74.09375 L 72.257812 74.09375 C 76.117188 74.09375 79.242188 70.96875 79.242188 67.109375 C 79.242188 63.253906 76.117188 60.125 72.257812 60.125 L 30.355469 60.125 C 26.496094 60.125 23.371094 63.253906 23.371094 67.109375 C 23.371094 70.96875 26.496094 74.09375 30.355469 74.09375 Z M 30.355469 74.09375 " fill-opacity="1" fill-rule="nonzero"/></g><g clip-path="url(#ae2e35e883)"><path fill="#1c1d28" d="M 65.273438 88.0625 C 65.273438 84.203125 62.148438 81.078125 58.292969 81.078125 L 30.355469 81.078125 C 26.496094 81.078125 23.371094 84.203125 23.371094 88.0625 C 23.371094 91.917969 26.496094 95.046875 30.355469 95.046875 L 58.292969 95.046875 C 62.148438 95.046875 65.273438 91.917969 65.273438 88.0625 Z M 65.273438 88.0625 " fill-opacity="1" fill-rule="nonzero"/></g></svg>