<svg xmlns="http://www.w3.org/2000/svg" xmlns:xlink="http://www.w3.org/1999/xlink" width="500" zoomAndPan="magnify" viewBox="0 0 375 374.999991" height="500" preserveAspectRatio="xMidYMid meet" version="1.0"><defs><clipPath id="097f15412f"><path d="M 16 44.378906 L 337.582031 44.378906 L 337.582031 330 L 16 330 Z M 16 44.378906 " clip-rule="nonzero"/></clipPath></defs><g clip-path="url(#097f15412f)"><path fill="#1c1d28" d="M 177.429688 45.808594 L 185.539062 67.160156 C 185.78125 67.804688 186.347656 68.214844 187.035156 68.25 L 209.847656 69.363281 C 211.398438 69.4375 212.03125 71.390625 210.820312 72.363281 L 193.019531 86.671875 C 192.484375 87.101562 192.269531 87.769531 192.449219 88.433594 L 198.441406 110.472656 C 198.847656 111.96875 197.1875 113.179688 195.886719 112.328125 L 176.777344 99.816406 C 176.203125 99.441406 175.5 99.441406 174.925781 99.816406 L 155.816406 112.328125 C 154.519531 113.179688 152.855469 111.96875 153.261719 110.472656 L 159.253906 88.433594 C 159.433594 87.769531 159.21875 87.101562 158.683594 86.671875 L 140.882812 72.363281 C 139.671875 71.390625 140.304688 69.4375 141.859375 69.363281 L 164.667969 68.25 C 165.355469 68.214844 165.921875 67.804688 166.167969 67.160156 L 174.273438 45.808594 C 174.820312 44.367188 176.882812 44.367188 177.429688 45.808594 Z M 283.289062 221.503906 C 313.207031 221.503906 337.460938 245.757812 337.460938 275.675781 C 337.460938 305.59375 313.207031 329.847656 283.289062 329.847656 C 253.367188 329.847656 229.113281 305.59375 229.113281 275.675781 C 229.113281 245.757812 253.367188 221.503906 283.289062 221.503906 Z M 276.171875 280.453125 L 264.066406 268.347656 C 260.929688 265.210938 255.839844 265.210938 252.703125 268.347656 C 249.566406 271.484375 249.566406 276.574219 252.703125 279.710938 L 270.507812 297.515625 C 273.644531 300.652344 278.734375 300.652344 281.871094 297.515625 C 292.601562 286.785156 303.210938 275.933594 313.890625 265.152344 C 317.007812 262.007812 316.996094 256.9375 313.859375 253.8125 C 310.71875 250.691406 305.628906 250.699219 302.511719 253.847656 Z M 175.851562 131.824219 C 198.070312 131.824219 216.085938 149.835938 216.085938 172.054688 C 216.085938 194.273438 198.070312 212.285156 175.851562 212.285156 C 153.632812 212.285156 135.621094 194.273438 135.621094 172.054688 C 135.621094 149.835938 153.632812 131.824219 175.851562 131.824219 Z M 104.570312 289.984375 L 220 289.980469 C 218.964844 285.378906 218.414062 280.589844 218.414062 275.675781 C 218.414062 262.339844 222.441406 249.945312 229.339844 239.640625 C 215.210938 226.800781 196.449219 218.972656 175.851562 218.972656 C 137.613281 218.972656 105.679688 245.945312 98.027344 281.902344 C 97.136719 286.085938 100.292969 289.984375 104.570312 289.984375 Z M 334.851562 138.519531 L 320.414062 156.21875 C 319.980469 156.75 319.90625 157.445312 320.21875 158.058594 L 330.664062 178.367188 C 331.375 179.75 330 181.277344 328.550781 180.714844 L 307.257812 172.453125 C 306.617188 172.203125 305.933594 172.351562 305.449219 172.835938 L 289.359375 189.046875 C 288.265625 190.148438 286.386719 189.3125 286.472656 187.761719 L 287.753906 164.957031 C 287.792969 164.273438 287.441406 163.664062 286.828125 163.355469 L 266.441406 153.0625 C 265.054688 152.363281 265.269531 150.320312 266.769531 149.921875 L 288.851562 144.089844 C 289.515625 143.917969 289.984375 143.394531 290.089844 142.714844 L 293.582031 120.144531 C 293.816406 118.609375 295.828125 118.183594 296.667969 119.488281 L 309.039062 138.6875 C 309.410156 139.265625 310.050781 139.550781 310.726562 139.441406 L 333.273438 135.785156 C 334.796875 135.539062 335.828125 137.324219 334.851562 138.519531 Z M 268.5625 71.074219 C 268.808594 69.550781 267.023438 68.519531 265.828125 69.496094 L 248.128906 83.933594 C 247.597656 84.367188 246.902344 84.441406 246.292969 84.128906 L 225.980469 73.683594 C 224.597656 72.972656 223.070312 74.347656 223.632812 75.796875 L 231.894531 97.089844 C 232.144531 97.730469 231.996094 98.414062 231.511719 98.898438 L 215.300781 114.988281 C 214.199219 116.082031 215.035156 117.960938 216.585938 117.875 L 239.390625 116.59375 C 240.074219 116.554688 240.683594 116.90625 240.992188 117.519531 L 251.285156 137.90625 C 251.984375 139.292969 254.03125 139.078125 254.425781 137.578125 L 260.257812 115.496094 C 260.433594 114.832031 260.953125 114.363281 261.632812 114.257812 L 284.203125 110.769531 C 285.738281 110.53125 286.164062 108.519531 284.859375 107.679688 L 265.660156 95.308594 C 265.082031 94.9375 264.796875 94.296875 264.90625 93.621094 Z M 18.429688 135.785156 L 40.976562 139.441406 C 41.652344 139.550781 42.292969 139.265625 42.664062 138.6875 L 55.035156 119.488281 C 55.875 118.183594 57.886719 118.609375 58.125 120.144531 L 61.613281 142.71875 C 61.71875 143.394531 62.1875 143.917969 62.851562 144.09375 L 84.933594 149.921875 C 86.433594 150.320312 86.648438 152.363281 85.265625 153.0625 L 64.875 163.355469 C 64.265625 163.667969 63.914062 164.273438 63.953125 164.960938 L 65.230469 187.761719 C 65.316406 189.3125 63.441406 190.148438 62.347656 189.046875 L 46.253906 172.835938 C 45.769531 172.351562 45.085938 172.203125 44.445312 172.453125 L 23.152344 180.714844 C 21.707031 181.277344 20.328125 179.75 21.039062 178.367188 L 31.484375 158.054688 C 31.796875 157.445312 31.722656 156.75 31.289062 156.214844 L 16.851562 138.519531 C 15.875 137.324219 16.90625 135.539062 18.429688 135.785156 Z M 85.875 69.496094 C 84.679688 68.519531 82.894531 69.550781 83.140625 71.074219 L 86.796875 93.617188 C 86.90625 94.296875 86.621094 94.9375 86.046875 95.308594 L 66.84375 107.675781 C 65.539062 108.519531 65.964844 110.527344 67.5 110.765625 L 90.074219 114.257812 C 90.75 114.363281 91.273438 114.832031 91.449219 115.496094 L 97.277344 137.578125 C 97.675781 139.078125 99.71875 139.292969 100.417969 137.90625 L 110.710938 117.519531 C 111.023438 116.90625 111.628906 116.554688 112.316406 116.59375 L 135.117188 117.871094 C 136.667969 117.960938 137.503906 116.082031 136.402344 114.988281 L 120.191406 98.898438 C 119.707031 98.414062 119.558594 97.726562 119.808594 97.085938 L 128.070312 75.796875 C 128.632812 74.347656 127.105469 72.972656 125.726562 73.683594 L 105.414062 84.125 C 104.804688 84.4375 104.105469 84.367188 103.574219 83.933594 Z M 85.875 69.496094 " fill-opacity="1" fill-rule="evenodd"/></g></svg>