<svg xmlns="http://www.w3.org/2000/svg" xmlns:xlink="http://www.w3.org/1999/xlink" width="500" zoomAndPan="magnify" viewBox="0 0 375 374.999991" height="500" preserveAspectRatio="xMidYMid meet" version="1.0"><defs><filter x="0%" y="0%" width="100%" height="100%" id="d215e91d42"><feColorMatrix values="0 0 0 0 1 0 0 0 0 1 0 0 0 0 1 0 0 0 1 0" color-interpolation-filters="sRGB"/></filter><clipPath id="17bd2d806f"><path d="M 14 20 L 325 20 L 325 330.410156 L 14 330.410156 Z M 14 20 " clip-rule="nonzero"/></clipPath><mask id="b3d9f7b72a"><g filter="url(#d215e91d42)"><rect x="-37.5" width="450" fill="#000000" y="-37.499999" height="449.999989" fill-opacity="0.8"/></g></mask><clipPath id="f8709b96aa"><path d="M 0.359375 1 L 285 1 L 285 286 L 0.359375 286 Z M 0.359375 1 " clip-rule="nonzero"/></clipPath><clipPath id="bb1b450f00"><path d="M 281.164062 143.148438 C 281.164062 140.933594 281.132812 138.71875 280.832031 136.554688 C 280.53125 134.367188 279.964844 132.222656 279.371094 130.113281 C 278.773438 127.992188 277.949219 125.953125 277.070312 123.9375 C 276.1875 121.925781 275.367188 119.863281 274.210938 117.984375 C 273.066406 116.117188 271.695312 114.371094 270.289062 112.664062 C 268.902344 110.976562 267.511719 109.230469 265.882812 107.730469 C 265.878906 107.726562 265.933594 107.664062 265.929688 107.664062 C 263.859375 105.742188 261.667969 104.382812 260.242188 102.613281 C 258.539062 100.496094 257.722656 98.121094 256.789062 95.867188 C 255.859375 93.621094 255.019531 91.335938 254.730469 88.636719 C 254.488281 86.375 254.351562 83.882812 254.457031 81.058594 C 254.457031 81.054688 254.339844 81.050781 254.339844 81.046875 C 254.429688 78.753906 254.332031 76.519531 254.097656 74.277344 C 253.863281 72.003906 253.746094 69.738281 253.195312 67.542969 C 252.644531 65.332031 252.269531 63.03125 251.414062 60.933594 C 250.554688 58.828125 249.359375 56.839844 248.214844 54.878906 C 247.074219 52.921875 245.652344 51.132812 244.246094 49.351562 C 242.847656 47.578125 241.253906 45.972656 239.609375 44.402344 C 237.976562 42.847656 236.363281 41.238281 234.507812 39.917969 C 232.675781 38.613281 230.605469 37.65625 228.574219 36.613281 C 228.574219 36.609375 228.671875 36.421875 228.671875 36.421875 C 226.738281 35.5 224.914062 34.507812 223.035156 33.820312 C 221.0625 33.097656 219.035156 32.632812 217.046875 32.175781 C 215.058594 31.722656 213.039062 31.253906 210.945312 31.074219 C 208.964844 30.90625 206.910156 31.429688 204.765625 31.515625 C 204.761719 31.515625 204.738281 30.941406 204.734375 30.941406 C 201.910156 31.046875 199.410156 31.515625 197.152344 31.273438 C 194.449219 30.984375 192.183594 29.960938 189.933594 29.027344 C 187.679688 28.097656 185.726562 26.753906 183.613281 25.046875 C 181.839844 23.621094 179.949219 22.054688 178.027344 19.980469 C 178.023438 19.980469 177.832031 20.160156 177.828125 20.15625 C 176.324219 18.527344 174.851562 16.882812 173.160156 15.492188 C 171.453125 14.089844 169.472656 13.097656 167.605469 11.949219 C 165.726562 10.796875 163.871094 9.648438 161.855469 8.765625 C 159.84375 7.882812 157.875 6.8125 155.757812 6.214844 C 153.644531 5.617188 151.425781 5.410156 149.234375 5.105469 C 147.070312 4.808594 144.875 4.339844 142.65625 4.339844 C 140.441406 4.339844 138.214844 4.582031 136.050781 4.882812 C 133.863281 5.183594 131.660156 5.582031 129.550781 6.179688 C 127.429688 6.777344 125.515625 7.984375 123.503906 8.863281 C 121.488281 9.746094 119.335938 10.382812 117.457031 11.535156 C 115.589844 12.679688 113.773438 13.984375 112.066406 15.386719 C 110.378906 16.773438 108.992188 18.527344 107.488281 20.15625 C 107.488281 20.160156 107.457031 20.132812 107.457031 20.136719 C 105.53125 22.207031 103.773438 23.984375 102 25.414062 C 99.886719 27.117188 97.796875 28.488281 95.546875 29.421875 C 93.296875 30.355469 90.847656 30.8125 88.148438 31.101562 C 85.890625 31.34375 83.386719 31.503906 80.566406 31.398438 C 80.5625 31.398438 80.574219 31.097656 80.570312 31.097656 C 78.425781 31.011719 76.355469 30.933594 74.375 31.105469 C 72.28125 31.285156 70.300781 31.914062 68.3125 32.367188 C 66.324219 32.820312 64.398438 33.492188 62.425781 34.214844 C 60.546875 34.902344 58.632812 35.617188 56.699219 36.535156 C 56.699219 36.535156 56.601562 36.335938 56.597656 36.335938 C 54.566406 37.382812 52.722656 38.730469 50.890625 40.035156 C 49.035156 41.355469 47.117188 42.613281 45.484375 44.171875 C 43.839844 45.738281 42.320312 47.460938 40.921875 49.238281 C 39.515625 51.015625 38.542969 53.101562 37.402344 55.058594 C 36.261719 57.019531 34.976562 58.917969 34.117188 61.027344 C 33.265625 63.125 32.738281 65.351562 32.183594 67.5625 C 31.636719 69.753906 31.441406 72.003906 31.207031 74.277344 C 30.972656 76.519531 30.34375 78.777344 30.433594 81.070312 C 30.433594 81.070312 30.519531 81.066406 30.519531 81.070312 C 30.625 83.894531 30.765625 86.371094 30.523438 88.628906 C 30.234375 91.328125 29.753906 93.742188 28.824219 95.992188 C 27.890625 98.246094 26.445312 100.230469 24.742188 102.34375 C 23.3125 104.113281 21.808594 106.125 19.738281 108.046875 C 19.734375 108.046875 19.523438 107.820312 19.519531 107.820312 C 17.890625 109.324219 16.265625 110.851562 14.875 112.542969 C 13.472656 114.246094 12.570312 116.3125 11.421875 118.179688 C 10.269531 120.058594 9.253906 121.980469 8.371094 123.992188 C 7.488281 126.007812 6.683594 128.03125 6.085938 130.152344 C 5.488281 132.261719 4.609375 134.339844 4.308594 136.527344 C 4.007812 138.695312 4.433594 140.933594 4.433594 143.148438 C 4.433594 145.363281 4.636719 147.515625 4.9375 149.683594 C 5.242188 151.871094 5.476562 154.039062 6.074219 156.148438 C 6.671875 158.269531 7.199219 160.417969 8.082031 162.433594 C 8.964844 164.445312 9.929688 166.449219 11.085938 168.328125 C 12.230469 170.195312 13.40625 172.105469 14.808594 173.8125 C 16.199219 175.5 18.09375 176.753906 19.722656 178.253906 C 19.726562 178.257812 19.722656 178.265625 19.726562 178.269531 C 21.796875 180.1875 23.570312 181.976562 24.996094 183.746094 C 26.703125 185.859375 28.058594 187.980469 28.992188 190.234375 C 29.921875 192.484375 30.097656 194.980469 30.382812 197.683594 C 30.625 199.941406 30.71875 202.410156 30.617188 205.230469 C 30.617188 205.234375 30.875 205.246094 30.875 205.246094 C 30.78125 207.539062 30.675781 209.808594 30.90625 212.050781 C 31.144531 214.324219 31.859375 216.488281 32.40625 218.679688 C 32.960938 220.894531 33.515625 223.070312 34.371094 225.171875 C 35.226562 227.277344 36.164062 229.335938 37.308594 231.296875 C 38.449219 233.253906 39.40625 235.363281 40.8125 237.144531 C 42.210938 238.917969 43.867188 240.527344 45.511719 242.09375 C 47.148438 243.652344 48.824219 245.238281 50.679688 246.5625 C 52.511719 247.867188 54.597656 248.855469 56.628906 249.898438 C 56.632812 249.898438 56.636719 249.882812 56.640625 249.882812 C 58.574219 250.800781 60.417969 251.746094 62.296875 252.433594 C 64.269531 253.15625 66.347656 253.367188 68.335938 253.824219 C 70.324219 254.277344 72.324219 254.511719 74.417969 254.691406 C 76.398438 254.863281 78.410156 254.949219 80.554688 254.863281 C 80.558594 254.863281 80.566406 255.011719 80.570312 255.011719 C 83.390625 254.90625 85.917969 254.691406 88.175781 254.933594 C 90.875 255.222656 93.265625 256.019531 95.515625 256.953125 C 97.765625 257.882812 99.742188 259.355469 101.859375 261.0625 C 103.628906 262.488281 105.726562 263.910156 107.648438 265.980469 C 107.652344 265.984375 107.183594 266.417969 107.1875 266.421875 C 108.691406 268.050781 110.410156 269.484375 112.097656 270.871094 C 113.804688 272.273438 115.566406 273.652344 117.433594 274.800781 C 119.3125 275.953125 121.269531 277.050781 123.285156 277.933594 C 125.296875 278.8125 127.582031 278.980469 129.699219 279.582031 C 131.8125 280.175781 133.933594 280.597656 136.121094 280.902344 C 138.285156 281.199219 140.441406 281.863281 142.65625 281.863281 C 144.871094 281.863281 147.039062 281.28125 149.207031 280.980469 C 151.394531 280.679688 153.625 280.597656 155.734375 280.003906 C 157.855469 279.402344 159.84375 278.414062 161.855469 277.53125 C 163.867188 276.648438 165.707031 275.46875 167.582031 274.316406 C 169.453125 273.167969 171.347656 272.078125 173.054688 270.675781 C 174.742188 269.285156 176.367188 267.808594 177.871094 266.183594 C 177.871094 266.179688 178.101562 266.390625 178.105469 266.390625 C 180.027344 264.316406 181.839844 262.679688 183.613281 261.25 C 185.726562 259.546875 187.636719 258.09375 189.890625 257.164062 C 192.136719 256.230469 194.484375 255.636719 197.183594 255.347656 C 199.445312 255.105469 201.921875 255.003906 204.742188 255.109375 C 204.746094 255.109375 204.742188 255.167969 204.746094 255.167969 C 206.894531 255.253906 208.914062 254.828125 210.894531 254.65625 C 212.988281 254.476562 215.039062 254.484375 217.027344 254.03125 C 219.015625 253.578125 220.929688 252.84375 222.90625 252.121094 C 224.78125 251.433594 226.757812 250.835938 228.691406 249.917969 C 228.691406 249.917969 228.734375 250 228.734375 250 C 230.765625 248.953125 232.761719 247.804688 234.59375 246.5 C 236.449219 245.175781 238.242188 243.726562 239.875 242.171875 C 241.519531 240.601562 242.859375 238.726562 244.257812 236.949219 C 245.664062 235.171875 246.660156 233.128906 247.800781 231.171875 C 248.941406 229.210938 250.546875 227.460938 251.402344 225.355469 C 252.257812 223.257812 252.675781 220.972656 253.230469 218.757812 C 253.78125 216.566406 254.230469 214.328125 254.464844 212.054688 C 254.695312 209.8125 254.851562 207.523438 254.761719 205.234375 C 254.761719 205.230469 254.925781 205.222656 254.925781 205.222656 C 254.820312 202.398438 254.621094 199.933594 254.863281 197.671875 C 255.148438 194.972656 255.699219 192.609375 256.628906 190.359375 C 257.5625 188.105469 258.859375 186.058594 260.5625 183.945312 C 261.992188 182.171875 263.667969 180.351562 265.738281 178.429688 C 265.742188 178.425781 265.519531 178.1875 265.523438 178.183594 C 267.152344 176.679688 268.863281 175.292969 270.253906 173.605469 C 271.660156 171.898438 272.785156 170.007812 273.929688 168.140625 C 275.085938 166.261719 276.53125 164.523438 277.414062 162.511719 C 278.296875 160.5 278.90625 158.34375 279.503906 156.222656 C 280.097656 154.109375 280.441406 151.917969 280.746094 149.730469 C 281.042969 147.5625 280.972656 145.359375 280.972656 143.144531 C 280.976562 143.148438 281.164062 143.148438 281.164062 143.148438 Z M 20.601562 136.691406 C 22.382812 136.691406 23.914062 137.5 25.082031 138.667969 C 26.25 139.839844 27.050781 141.367188 27.050781 143.148438 C 27.050781 144.933594 26.390625 146.601562 25.21875 147.769531 C 24.050781 148.9375 22.382812 149.453125 20.601562 149.453125 C 18.816406 149.453125 17.238281 148.847656 16.070312 147.679688 C 14.902344 146.511719 14.378906 144.933594 14.378906 143.148438 C 14.378906 141.367188 15.089844 139.980469 16.261719 138.808594 C 17.429688 137.640625 18.816406 136.691406 20.601562 136.691406 Z M 268.863281 136.691406 C 270.648438 136.691406 272.175781 137.5 273.34375 138.667969 C 274.511719 139.839844 275.3125 141.367188 275.3125 143.148438 C 275.3125 144.933594 274.652344 146.601562 273.484375 147.769531 C 272.316406 148.9375 270.644531 149.453125 268.863281 149.453125 C 267.082031 149.453125 265.503906 148.847656 264.335938 147.679688 C 263.164062 146.511719 262.644531 144.933594 262.644531 143.148438 C 262.644531 141.367188 263.355469 139.976562 264.523438 138.808594 C 265.691406 137.640625 267.078125 136.691406 268.863281 136.691406 Z M 208.871094 199.5625 C 206.992188 198.246094 205.984375 196.617188 205.613281 194.722656 C 205.242188 192.828125 205.613281 190.949219 206.949219 189.039062 C 208.289062 187.128906 209.871094 185.230469 211.652344 183.488281 C 214.566406 184.597656 214.824219 184.964844 216.109375 187.804688 C 214.160156 189.554688 213.011719 190.726562 212.464844 191.507812 C 211.769531 192.5 211.730469 193.5 212.53125 194.0625 C 212.847656 194.285156 213.582031 194.363281 214.210938 194.089844 C 214.835938 193.824219 215.273438 192.894531 216.070312 192.449219 C 216.875 192.003906 217.976562 192.097656 218.902344 191.738281 C 219.828125 191.378906 220.800781 190.988281 221.976562 191.105469 C 223.15625 191.222656 224.371094 191.597656 225.46875 192.367188 C 227.476562 193.769531 228.824219 195.464844 229.167969 197.3125 C 229.511719 199.15625 228.972656 201.28125 227.589844 203.257812 C 226.207031 205.230469 224.308594 206.789062 222.382812 208.234375 C 219.652344 207.296875 219.332031 207.109375 218.234375 204.441406 C 220.472656 202.636719 221.699219 201.515625 222.324219 200.628906 C 222.945312 199.742188 222.730469 198.949219 221.949219 198.402344 C 221.550781 198.125 221.058594 198.191406 220.386719 198.429688 C 219.71875 198.671875 218.890625 198.816406 218.082031 199.25 C 217.269531 199.691406 216.511719 200.339844 215.589844 200.714844 C 214.664062 201.089844 213.558594 201.019531 212.382812 200.902344 C 211.203125 200.785156 210.175781 200.167969 209.015625 199.351562 C 209.015625 199.351562 208.871094 199.5625 208.871094 199.5625 Z M 191.820312 214.816406 C 190.375 213.035156 189.859375 211.191406 190.023438 209.265625 C 190.191406 207.34375 191.0625 205.644531 192.875 204.175781 C 194.6875 202.707031 196.734375 201.316406 198.925781 200.136719 C 201.417969 202.003906 201.570312 202.429688 202.019531 205.511719 C 199.664062 206.65625 198.234375 207.46875 197.496094 208.066406 C 196.554688 208.832031 196.238281 209.78125 196.855469 210.542969 C 197.097656 210.839844 197.785156 211.117188 198.460938 211.03125 C 199.136719 210.945312 199.8125 210.175781 200.703125 209.96875 C 201.597656 209.757812 202.628906 210.152344 203.621094 210.0625 C 204.609375 209.972656 205.652344 209.867188 206.75 210.304688 C 207.851562 210.738281 208.917969 211.4375 209.757812 212.476562 C 211.300781 214.378906 212.128906 216.382812 211.953125 218.25 C 211.773438 220.121094 210.667969 222.011719 208.796875 223.53125 C 206.925781 225.046875 204.671875 226.019531 202.417969 226.882812 C 200.050781 225.226562 199.796875 224.960938 199.480469 222.089844 C 202.125 220.976562 203.617188 220.234375 204.457031 219.554688 C 205.300781 218.871094 205.3125 218.054688 204.714844 217.3125 C 204.402344 216.929688 203.914062 216.863281 203.203125 216.90625 C 202.492188 216.953125 201.660156 216.863281 200.757812 217.058594 C 199.859375 217.257812 198.953125 217.675781 197.960938 217.78125 C 196.96875 217.886719 195.925781 217.511719 194.828125 217.074219 C 193.726562 216.636719 192.910156 215.761719 192.019531 214.65625 C 192.019531 214.65625 191.820312 214.816406 191.820312 214.816406 Z M 191.488281 234.40625 C 188.546875 235.777344 188.492188 235.667969 185.550781 237.039062 C 182.609375 238.414062 182.8125 240.875 179.71875 239.886719 C 176.863281 238.972656 178.378906 237.207031 177.113281 234.488281 C 175.84375 231.769531 176.054688 231.671875 174.785156 228.953125 C 173.519531 226.234375 173.425781 226.277344 172.15625 223.554688 C 170.886719 220.835938 168.613281 220.992188 169.789062 218.230469 C 171.101562 215.15625 172.738281 217.015625 175.769531 215.601562 C 178.796875 214.1875 178.617188 211.140625 181.792969 212.183594 C 184.609375 213.109375 184.828125 215.207031 183.628906 217.917969 C 182.339844 220.835938 179.960938 218.140625 178.105469 220.738281 C 177.058594 222.199219 177.820312 223.566406 179.601562 223.820312 C 182.339844 224.207031 182.039062 220.535156 184.671875 221.375 C 187.101562 222.152344 187.984375 224 187.015625 226.363281 C 185.96875 228.917969 183.097656 226.183594 181.75 228.59375 C 180.777344 230.332031 181.402344 232.355469 183.386719 232.546875 C 186.753906 232.871094 186.246094 228.59375 189.507812 229.488281 C 192.125 230.203125 190.53125 231.867188 191.5 234.398438 C 191.5 234.398438 191.488281 234.40625 191.488281 234.40625 Z M 165.90625 244.457031 C 162.761719 244.84375 162.53125 246.476562 159.664062 245.121094 C 156.898438 243.816406 158.042969 242.605469 156.464844 239.988281 C 154.886719 237.367188 154.933594 237.339844 153.238281 234.792969 C 153.152344 234.664062 152.832031 234.644531 152.84375 234.796875 C 153.027344 237.585938 153.285156 237.566406 153.625 240.339844 C 153.96875 243.109375 155.953125 243.570312 154.175781 245.726562 C 152.308594 247.992188 151.023438 248.171875 148.726562 246.339844 C 146.382812 244.46875 147.847656 243.652344 147.480469 240.671875 C 147.113281 237.695312 147.660156 237.628906 147.296875 234.652344 C 146.929688 231.675781 146.648438 231.707031 146.28125 228.730469 C 145.914062 225.75 143.542969 224.957031 145.488281 222.671875 C 147.609375 220.183594 149.261719 220.308594 152.199219 221.734375 C 155.003906 223.089844 153.871094 224.539062 155.402344 227.253906 C 156.929688 229.964844 156.566406 230.171875 158.21875 232.8125 C 158.300781 232.945312 158.875 232.914062 158.863281 232.761719 C 158.667969 229.886719 158.316406 229.90625 157.964844 227.050781 C 157.613281 224.191406 155.296875 223.589844 157.097656 221.34375 C 158.949219 219.039062 160.734375 218.710938 163.050781 220.546875 C 165.398438 222.410156 163.242188 223.621094 163.609375 226.601562 C 163.972656 229.578125 164.238281 229.546875 164.601562 232.519531 C 164.96875 235.5 164.753906 235.527344 165.121094 238.503906 C 165.484375 241.484375 165.285156 241.507812 165.652344 244.488281 C 165.652344 244.488281 165.90625 244.457031 165.90625 244.457031 Z M 133.488281 246.308594 C 130.808594 248.210938 129.195312 247.921875 127.058594 245.425781 C 125.105469 243.148438 127.339844 242.527344 127.707031 239.550781 C 128.070312 236.574219 127.988281 236.566406 128.351562 233.585938 C 128.71875 230.609375 128.945312 230.636719 129.3125 227.660156 C 129.679688 224.679688 127.476562 223.464844 129.921875 221.722656 C 132.597656 219.820312 134.09375 220.140625 136.234375 222.636719 C 138.1875 224.914062 135.730469 225.421875 135.363281 228.398438 C 135 231.375 135.632812 231.453125 135.265625 234.429688 C 134.898438 237.40625 133.699219 237.382812 133.988281 240.371094 C 134.296875 243.582031 135.933594 244.570312 133.488281 246.308594 Z M 105.472656 221.550781 C 106.371094 219.433594 107.753906 218.113281 109.53125 217.355469 C 111.308594 216.597656 113.222656 216.570312 115.367188 217.484375 C 117.515625 218.390625 119.703125 219.546875 121.773438 220.929688 C 121.292969 224.007812 120.992188 224.339844 118.480469 226.183594 C 116.363281 224.640625 114.976562 223.761719 114.101562 223.390625 C 112.984375 222.914062 111.996094 223.082031 111.613281 223.984375 C 111.464844 224.34375 111.542969 225.074219 111.9375 225.636719 C 112.328125 226.191406 113.328125 226.421875 113.929688 227.117188 C 114.535156 227.804688 114.667969 228.902344 115.214844 229.734375 C 115.757812 230.566406 116.339844 231.4375 116.472656 232.613281 C 116.601562 233.789062 116.488281 235.054688 115.964844 236.289062 C 115.007812 238.542969 113.628906 240.214844 111.898438 240.933594 C 110.164062 241.65625 107.972656 241.570312 105.753906 240.625 C 103.539062 239.6875 101.621094 238.152344 99.800781 236.566406 C 100.152344 233.703125 100.269531 233.351562 102.652344 231.722656 C 104.878906 233.535156 106.230469 234.503906 107.230469 234.929688 C 108.226562 235.351562 108.957031 234.976562 109.328125 234.097656 C 109.519531 233.648438 109.347656 233.183594 108.976562 232.578125 C 108.605469 231.972656 108.292969 231.191406 107.691406 230.492188 C 107.09375 229.789062 106.304688 229.1875 105.746094 228.359375 C 105.1875 227.535156 105.027344 226.4375 104.894531 225.261719 C 104.765625 224.085938 105.15625 222.953125 105.710938 221.648438 Z M 83.082031 218.152344 C 82.601562 218.785156 82.257812 219.371094 82.292969 219.882812 C 82.328125 220.390625 82.761719 220.871094 83.371094 221.332031 C 83.976562 221.789062 84.496094 221.878906 84.957031 221.757812 C 85.421875 221.636719 86.050781 221.40625 86.5625 220.726562 C 88.171875 218.585938 88.089844 218.523438 89.703125 216.386719 C 91.316406 214.242188 91.464844 214.355469 93.078125 212.214844 C 94.691406 210.074219 93.445312 208.195312 96.125 208.109375 C 99.449219 208 100.960938 208.484375 101.734375 211.71875 C 102.375 214.386719 99.589844 213.84375 97.9375 216.035156 C 96.285156 218.226562 96.511719 218.398438 94.859375 220.589844 C 93.207031 222.785156 93.285156 222.839844 91.632812 225.03125 C 89.972656 227.230469 88.058594 228.558594 86.09375 228.660156 C 84.128906 228.761719 81.789062 227.902344 79.457031 226.140625 C 77.121094 224.382812 75.917969 222.34375 75.527344 220.480469 C 75.140625 218.625 76.058594 216.8125 77.703125 214.628906 C 79.359375 212.429688 79.203125 212.308594 80.863281 210.109375 C 82.519531 207.90625 82.386719 207.804688 84.046875 205.601562 C 85.707031 203.402344 84.617188 201.203125 87.375 201.097656 C 90.753906 200.96875 91.828125 202.03125 92.679688 205.304688 C 93.355469 207.902344 91.292969 207.519531 89.675781 209.664062 C 88.058594 211.8125 87.886719 211.679688 86.269531 213.828125 C 84.652344 215.972656 84.492188 215.851562 82.875 218 Z M 69.171875 206.648438 C 67.230469 208.011719 65.4375 208.367188 63.742188 207.953125 C 62.144531 207.566406 60.632812 206.5 59.253906 204.535156 C 56.539062 200.652344 53.960938 201.515625 53.738281 196.78125 C 53.601562 193.789062 56.359375 195.1875 58.816406 193.46875 C 61.273438 191.746094 61.214844 191.660156 63.671875 189.941406 C 66.128906 188.21875 66.238281 188.371094 68.695312 186.648438 C 71.15625 184.925781 70.578125 182.175781 73.359375 183.304688 C 77.65625 185.050781 76.398438 186.628906 79.0625 190.429688 C 80.464844 192.433594 80.609375 194.371094 80.476562 195.910156 C 80.34375 197.449219 79.652344 198.90625 77.878906 200.148438 C 76.105469 201.386719 74.171875 201.703125 72.222656 200.894531 C 72.109375 200.859375 72.320312 200.734375 72.335938 200.851562 C 72.851562 202.976562 71.789062 205.175781 69.339844 206.886719 C 69.339844 206.890625 69.171875 206.648438 69.171875 206.648438 Z M 61.875 200.8125 C 62.320312 201.441406 62.753906 201.894531 63.195312 201.914062 C 63.632812 201.9375 64.316406 201.515625 65.210938 200.890625 C 66.109375 200.261719 66.585938 199.664062 66.792969 199.175781 C 67 198.683594 67.085938 198.074219 66.65625 197.460938 C 66.300781 196.957031 66.371094 196.25 65.800781 196.488281 C 63.179688 197.589844 62.917969 197.550781 60.992188 199.636719 C 60.574219 200.09375 61.257812 200.488281 61.613281 200.992188 C 61.613281 200.996094 61.875 200.8125 61.875 200.8125 Z M 69.621094 195.433594 C 69.964844 195.917969 70.351562 196.273438 70.78125 196.257812 C 71.207031 196.242188 71.796875 195.855469 72.546875 195.332031 C 73.296875 194.808594 73.679688 194.300781 73.84375 193.886719 C 74.007812 193.46875 74.121094 192.960938 73.78125 192.472656 C 73.425781 191.96875 73.5 191.28125 72.925781 191.503906 C 70.617188 192.386719 70.320312 192.355469 68.710938 194.234375 C 68.296875 194.71875 68.996094 195.09375 69.359375 195.617188 C 69.363281 195.617188 69.621094 195.433594 69.621094 195.433594 Z M 224.417969 89.5 C 223.003906 87.757812 223.828125 85.800781 221.589844 85.894531 C 218.566406 86.027344 219.238281 87.914062 216.886719 89.820312 C 214.53125 91.722656 214.585938 91.789062 212.230469 93.695312 C 209.878906 95.601562 210.492188 97.742188 207.5 97.292969 C 204.230469 96.804688 203.167969 95.613281 203.367188 92.3125 C 203.550781 89.292969 205.816406 90.589844 208.167969 88.683594 C 210.523438 86.78125 210.574219 86.84375 212.929688 84.9375 C 215.28125 83.03125 216.449219 83.761719 217.125 80.808594 C 217.65625 78.492188 214.085938 79.546875 214.667969 77.242188 C 215.382812 74.40625 216.3125 73.496094 219.226562 73.757812 C 221.855469 73.992188 220.996094 75.769531 222.65625 77.820312 C 224.320312 79.875 224.410156 79.800781 226.074219 81.855469 C 227.738281 83.90625 229.984375 83.589844 229.480469 86.183594 C 228.925781 89.054688 226.8125 87.824219 224.421875 89.511719 C 224.425781 89.511719 224.417969 89.5 224.417969 89.5 Z M 205.683594 70.664062 C 204.859375 71.847656 203.929688 72.597656 203.023438 73.125 C 202.117188 73.65625 201.117188 74.074219 199.914062 74.171875 C 198.640625 76.523438 199.1875 76.75 198.382812 79.300781 C 197.578125 81.847656 199.328125 83.871094 196.679688 84.222656 C 193.132812 84.695312 191.679688 83.75 190.890625 80.265625 C 189.894531 75.882812 192.96875 76.222656 194.070312 71.867188 C 194.183594 71.4375 193.164062 70.753906 192.871094 71.089844 C 190.039062 74.363281 192.359375 77.347656 188.246094 78.695312 C 185.160156 79.703125 183.746094 77.789062 183.058594 74.617188 C 182.417969 71.6875 184.503906 72.183594 186.222656 69.726562 C 187.945312 67.269531 187.867188 67.214844 189.589844 64.757812 C 191.308594 62.296875 191.214844 62.230469 192.9375 59.769531 C 194.65625 57.308594 193.601562 54.648438 196.601562 54.710938 C 201.085938 54.804688 200.273438 57.566406 203.949219 60.136719 C 206.058594 61.613281 206.90625 63.261719 207.195312 64.941406 C 207.484375 66.621094 207.210938 68.492188 205.683594 70.664062 Z M 196.265625 68.550781 C 196.816406 68.933594 197.355469 69.164062 197.808594 69.011719 C 198.261719 68.855469 198.746094 68.253906 199.332031 67.417969 C 199.917969 66.585938 200.125 65.917969 200.121094 65.429688 C 200.117188 64.941406 200.019531 64.382812 199.492188 64.011719 C 199.0625 63.714844 198.886719 63.140625 198.511719 63.503906 C 196.566406 65.386719 196.347656 65.414062 195.226562 67.875 C 195.019531 68.332031 195.671875 68.523438 196.082031 68.8125 C 196.082031 68.8125 196.265625 68.550781 196.265625 68.550781 Z M 166.496094 44.949219 C 168.503906 43.570312 171.074219 43.515625 174.285156 44.558594 C 177.496094 45.601562 179.527344 47.140625 180.324219 49.40625 C 180.78125 50.707031 180.96875 52.3125 180.726562 54.210938 C 180.546875 55.621094 179.953125 57.132812 179.386719 58.871094 C 178.8125 60.636719 178.273438 62.1875 177.5625 63.46875 C 176.632812 65.148438 175.488281 66.246094 174.320312 67.097656 C 172.261719 68.59375 169.878906 68.71875 166.691406 67.683594 C 163.503906 66.644531 161.128906 65.332031 160.359375 62.945312 C 159.921875 61.585938 160.359375 59.882812 160.597656 57.976562 C 160.78125 56.53125 160.875 54.886719 161.449219 53.125 C 162.015625 51.378906 162.566406 49.828125 163.257812 48.578125 C 164.183594 46.902344 165.347656 45.738281 166.496094 44.949219 Z M 173.207031 56.882812 C 173.9375 54.628906 174.378906 53.03125 174.28125 52.121094 C 174.183594 51.207031 173.472656 50.578125 172.382812 50.226562 C 171.289062 49.871094 170.511719 50.097656 169.9375 50.789062 C 169.359375 51.480469 168.503906 52.847656 167.777344 55.078125 C 167.636719 55.519531 167.730469 55.550781 167.589844 55.992188 C 166.816406 58.371094 166.300781 60.035156 166.414062 60.898438 C 166.527344 61.761719 167.261719 62.644531 168.351562 62.996094 C 169.445312 63.351562 170.128906 62.710938 170.675781 62.101562 C 171.226562 61.496094 172.320312 60.359375 173.046875 58.128906 C 173.234375 57.542969 172.964844 57.453125 173.15625 56.867188 C 173.15625 56.867188 173.207031 56.882812 173.207031 56.882812 Z M 143.433594 56.007812 C 142.542969 56.023438 141.71875 55.144531 141.535156 56.015625 C 140.734375 59.855469 144.234375 60.8125 141.785156 63.878906 C 139.757812 66.414062 137.667969 66.214844 135.246094 64.054688 C 133.007812 62.058594 135.398438 60.996094 135.347656 57.996094 C 135.292969 54.996094 135.191406 55 135.140625 52 C 135.085938 49 135.273438 48.996094 135.21875 45.996094 C 135.167969 42.996094 132.726562 42.113281 135.074219 40.25 C 138.148438 37.8125 138.796875 39.613281 142.71875 39.542969 C 145.476562 39.496094 147.382812 40.582031 148.742188 41.820312 C 150.105469 43.058594 151.019531 44.949219 151.074219 47.835938 C 151.121094 50.722656 150.578125 52.898438 149.339844 54.15625 C 148.097656 55.414062 146.0625 56.226562 143.4375 56.273438 C 143.4375 56.273438 143.433594 56.007812 143.433594 56.007812 Z M 144.074219 50.777344 C 144.296875 50.335938 144.523438 49.546875 144.503906 48.414062 C 144.480469 47.277344 144.226562 46.480469 143.960938 46.019531 C 143.695312 45.5625 143.167969 45.417969 142.394531 45.433594 C 141.933594 45.441406 141.375 44.894531 141.316406 45.351562 C 140.910156 48.378906 140.9375 48.492188 141.523438 51.488281 C 141.628906 52.019531 142.121094 51.707031 142.660156 51.695312 C 143.382812 51.683594 143.851562 51.21875 144.074219 50.777344 Z M 118.324219 59.664062 C 117.464844 59.894531 116.449219 59.242188 116.484375 60.128906 C 116.636719 64.050781 120.261719 64.132812 118.628906 67.699219 C 117.277344 70.652344 115.203125 70.964844 112.328125 69.453125 C 109.671875 68.058594 111.734375 66.449219 110.960938 63.550781 C 110.183594 60.652344 110.085938 60.679688 109.308594 57.78125 C 108.53125 54.882812 108.710938 54.835938 107.933594 51.9375 C 107.15625 49.039062 104.574219 48.773438 106.402344 46.394531 C 108.796875 43.285156 109.859375 44.878906 113.648438 43.863281 C 116.3125 43.148438 118.425781 43.738281 120.046875 44.613281 C 121.667969 45.484375 123.011719 47.097656 123.761719 49.886719 C 124.507812 52.671875 124.503906 54.914062 123.605469 56.4375 C 122.707031 57.957031 120.863281 58.984375 118.324219 59.664062 Z M 117.679688 54.433594 C 117.792969 53.953125 117.820312 53.132812 117.527344 52.035156 C 117.230469 50.941406 116.789062 50.226562 116.421875 49.847656 C 116.050781 49.464844 115.507812 49.453125 114.761719 49.652344 C 114.3125 49.773438 113.640625 49.375 113.691406 49.835938 C 114.03125 52.871094 114.085938 52.976562 115.378906 55.742188 C 115.609375 56.230469 116.007812 55.808594 116.53125 55.667969 C 117.230469 55.480469 117.570312 54.917969 117.679688 54.433594 Z M 91.070312 72.8125 C 91.527344 73.46875 91.976562 73.972656 92.46875 74.101562 C 92.96875 74.222656 93.5625 73.957031 94.183594 73.523438 C 94.808594 73.085938 95.050781 72.617188 95.078125 72.144531 C 95.105469 71.664062 95.082031 70.996094 94.59375 70.296875 C 93.054688 68.101562 92.972656 68.164062 91.4375 65.96875 C 89.898438 63.773438 90.050781 63.667969 88.511719 61.472656 C 86.976562 59.273438 84.804688 59.878906 85.550781 57.304688 C 86.472656 54.109375 87.402344 52.824219 90.714844 53.085938 C 93.449219 53.304688 92.070312 55.78125 93.644531 58.03125 C 95.21875 60.277344 95.453125 60.113281 97.027344 62.363281 C 98.601562 64.609375 98.679688 64.554688 100.253906 66.804688 C 101.835938 69.0625 102.507812 71.292969 101.996094 73.195312 C 101.484375 75.09375 99.945312 77.050781 97.546875 78.730469 C 95.152344 80.410156 92.839844 80.917969 90.953125 80.714844 C 89.066406 80.511719 87.625 79.078125 86.058594 76.839844 C 84.476562 74.582031 84.316406 74.695312 82.734375 72.4375 C 81.152344 70.179688 81.015625 70.273438 79.433594 68.015625 C 77.851562 65.757812 75.425781 66.113281 76.175781 63.460938 C 77.097656 60.203125 78.441406 59.511719 81.820312 59.714844 C 84.5 59.875 83.496094 61.714844 85.035156 63.914062 C 86.578125 66.117188 86.402344 66.242188 87.941406 68.441406 C 89.484375 70.644531 89.320312 70.757812 90.859375 72.957031 C 90.859375 72.957031 91.070312 72.8125 91.070312 72.8125 Z M 62.292969 90.097656 C 60.511719 88.65625 59.621094 86.960938 59.382812 85.039062 C 59.144531 83.125 59.648438 81.28125 61.113281 79.46875 C 62.582031 77.65625 64.292969 75.867188 66.195312 74.257812 C 69.019531 75.570312 69.257812 75.949219 70.335938 78.875 C 68.269531 80.484375 67.042969 81.574219 66.441406 82.316406 C 65.679688 83.257812 65.570312 84.25 66.332031 84.867188 C 66.632812 85.109375 67.359375 85.238281 68.003906 85.015625 C 68.648438 84.792969 69.148438 83.898438 69.976562 83.507812 C 70.804688 83.117188 71.898438 83.285156 72.847656 82.992188 C 73.796875 82.703125 74.796875 82.378906 75.960938 82.578125 C 77.128906 82.777344 78.316406 83.234375 79.355469 84.074219 C 81.257812 85.617188 82.488281 87.402344 82.699219 89.269531 C 82.914062 91.132812 82.226562 93.21875 80.710938 95.089844 C 79.195312 96.960938 77.195312 98.382812 75.167969 99.691406 C 72.511719 98.566406 72.207031 98.359375 71.296875 95.617188 C 73.652344 93.976562 74.960938 92.941406 75.640625 92.101562 C 76.320312 91.257812 76.164062 90.453125 75.421875 89.855469 C 75.042969 89.542969 74.546875 89.578125 73.863281 89.773438 C 73.175781 89.964844 72.339844 90.050781 71.503906 90.429688 C 70.664062 90.8125 69.863281 91.40625 68.914062 91.71875 C 67.96875 92.027344 66.871094 91.875 65.703125 91.679688 C 64.539062 91.480469 63.554688 90.789062 62.453125 89.898438 C 62.457031 89.898438 62.292969 90.097656 62.292969 90.097656 Z M 142.660156 75.097656 C 144.683594 75.097656 146.679688 75.304688 148.660156 75.480469 C 150.675781 75.65625 152.675781 75.808594 154.636719 76.15625 C 156.628906 76.511719 158.609375 76.867188 160.535156 77.390625 C 162.480469 77.917969 164.320312 78.75 166.191406 79.441406 C 168.082031 80.140625 169.964844 80.820312 171.773438 81.679688 C 173.589844 82.542969 175.265625 83.640625 176.992188 84.65625 C 178.726562 85.675781 180.34375 86.824219 181.976562 87.988281 C 183.609375 89.15625 185.582031 89.894531 187.105469 91.199219 C 188.632812 92.503906 189.726562 94.28125 191.128906 95.714844 C 192.53125 97.148438 194.054688 98.53125 195.328125 100.085938 C 192.375 101.015625 192.214844 100.183594 189.121094 100.183594 C 186.023438 100.183594 186.023438 100.300781 182.929688 100.300781 C 179.832031 100.300781 179.832031 100.328125 176.734375 100.328125 C 173.636719 100.328125 173.636719 100.046875 170.539062 100.046875 C 167.445312 100.046875 167.445312 99.683594 164.347656 99.683594 C 161.25 99.683594 161.25 99.882812 158.152344 99.882812 C 155.058594 99.882812 155.058594 100.050781 151.960938 100.050781 C 148.863281 100.050781 148.863281 100.144531 145.765625 100.144531 C 142.667969 100.144531 142.667969 99.929688 139.570312 99.929688 C 136.472656 99.929688 136.472656 100.195312 133.378906 100.195312 C 130.28125 100.195312 130.28125 99.980469 127.183594 99.980469 C 124.085938 99.980469 124.085938 99.777344 120.992188 99.777344 C 117.894531 99.777344 117.894531 99.921875 114.796875 99.921875 C 111.699219 99.921875 111.699219 99.777344 108.597656 99.777344 C 105.5 99.777344 105.5 100.347656 102.402344 100.347656 C 99.304688 100.347656 99.304688 99.769531 96.203125 99.769531 C 93.105469 99.769531 92.886719 101.207031 89.929688 100.273438 C 91.203125 98.71875 92.773438 97.140625 94.179688 95.707031 C 95.582031 94.269531 97.117188 93.007812 98.640625 91.703125 C 100.164062 90.398438 101.613281 89.027344 103.25 87.859375 C 104.878906 86.695312 106.417969 85.378906 108.152344 84.359375 C 109.875 83.347656 111.738281 82.566406 113.554688 81.703125 C 115.363281 80.847656 117.089844 79.75 118.980469 79.050781 C 120.851562 78.359375 122.828125 77.890625 124.777344 77.363281 C 126.703125 76.839844 128.730469 76.738281 130.71875 76.382812 C 132.679688 76.035156 134.628906 75.523438 136.644531 75.347656 C 138.625 75.175781 140.632812 75.402344 142.65625 75.402344 C 142.660156 75.402344 142.660156 75.097656 142.660156 75.097656 Z M 195.3125 186.261719 C 194.042969 187.816406 192.613281 189.226562 191.210938 190.660156 C 189.804688 192.09375 188.421875 193.546875 186.894531 194.851562 C 185.375 196.15625 183.84375 197.460938 182.207031 198.628906 C 180.578125 199.792969 178.769531 200.695312 177.035156 201.714844 C 175.308594 202.730469 173.59375 203.757812 171.773438 204.621094 C 169.96875 205.476562 168.058594 206.082031 166.167969 206.78125 C 164.292969 207.472656 162.378906 208 160.433594 208.527344 C 158.507812 209.050781 156.6875 210.109375 154.699219 210.464844 C 152.734375 210.8125 150.667969 210.53125 148.652344 210.707031 C 146.671875 210.882812 144.6875 211.253906 142.660156 211.253906 C 140.632812 211.253906 138.613281 211.261719 136.632812 211.085938 C 134.617188 210.910156 132.59375 210.761719 130.632812 210.410156 C 128.644531 210.058594 126.652344 209.640625 124.726562 209.117188 C 122.78125 208.589844 120.941406 207.707031 119.066406 207.015625 C 117.175781 206.316406 115.480469 205.207031 113.671875 204.351562 C 111.855469 203.488281 110.007812 202.730469 108.28125 201.714844 C 106.550781 200.695312 104.777344 199.746094 103.148438 198.582031 C 101.511719 197.414062 99.871094 196.246094 98.347656 194.941406 C 96.820312 193.636719 95.503906 192.105469 94.097656 190.671875 C 92.695312 189.238281 91.230469 187.660156 89.957031 186.109375 C 92.910156 185.175781 93.101562 186.316406 96.199219 186.316406 C 99.296875 186.316406 99.296875 186.515625 102.390625 186.515625 C 105.488281 186.515625 105.488281 186.375 108.585938 186.375 C 111.679688 186.375 111.679688 186.519531 114.777344 186.519531 C 117.875 186.519531 117.875 185.949219 120.972656 185.949219 C 124.070312 185.949219 124.070312 186.523438 127.164062 186.523438 C 130.261719 186.523438 130.261719 186.011719 133.359375 186.011719 C 136.457031 186.011719 136.457031 186.484375 139.554688 186.484375 C 142.652344 186.484375 142.652344 186.609375 145.75 186.609375 C 148.84375 186.609375 148.84375 186.421875 151.941406 186.421875 C 155.039062 186.421875 155.039062 186.15625 158.136719 186.15625 C 161.234375 186.15625 161.230469 186.34375 164.328125 186.34375 C 167.425781 186.34375 167.425781 186 170.523438 186 C 173.621094 186 173.621094 186.15625 176.722656 186.15625 C 179.820312 186.15625 179.820312 186.5 182.917969 186.5 C 186.015625 186.5 186.015625 186.25 189.117188 186.25 C 192.214844 186.25 192.214844 186.566406 195.316406 186.566406 C 195.3125 186.566406 195.3125 186.261719 195.3125 186.261719 Z M 67.871094 174.929688 C 65.605469 177.234375 64.636719 174.804688 61.40625 174.804688 C 58.171875 174.804688 58.171875 174.917969 54.9375 174.917969 C 51.703125 174.917969 51.703125 175.003906 48.472656 175.003906 C 45.238281 175.003906 45.238281 174.773438 42.003906 174.773438 C 38.765625 174.773438 37.875 177.15625 35.566406 174.890625 C 33.300781 172.664062 35.769531 171.75 35.769531 168.570312 C 35.769531 165.394531 35.851562 165.394531 35.851562 162.21875 C 35.851562 159.042969 35.214844 159.042969 35.214844 155.867188 C 35.214844 152.691406 35.765625 152.6875 35.765625 149.511719 C 35.765625 146.335938 35.480469 146.335938 35.480469 143.160156 C 35.480469 139.980469 35.382812 139.980469 35.382812 136.804688 C 35.382812 133.625 35.265625 133.625 35.265625 130.449219 C 35.265625 127.269531 35.238281 127.269531 35.238281 124.09375 C 35.238281 120.914062 35.519531 120.914062 35.519531 117.734375 C 35.519531 114.554688 33.640625 113.953125 35.789062 111.609375 C 37.757812 109.460938 38.445312 111.527344 41.363281 111.527344 C 44.277344 111.527344 44.277344 111.359375 47.195312 111.359375 C 50.113281 111.359375 51.105469 109.179688 53.113281 111.296875 C 55.230469 113.535156 52.925781 114.457031 52.925781 117.539062 C 52.925781 120.621094 53.191406 120.621094 53.191406 123.703125 C 53.191406 126.78125 52.976562 126.78125 52.976562 129.863281 C 52.976562 132.949219 52.777344 132.949219 52.777344 136.03125 C 52.777344 139.113281 52.917969 139.113281 52.917969 142.199219 C 52.917969 145.28125 52.773438 145.28125 52.773438 148.363281 C 52.773438 151.449219 53.34375 151.449219 53.34375 154.535156 C 53.34375 157.621094 50.824219 158.53125 52.832031 160.875 C 54.550781 162.882812 55.671875 160.453125 58.316406 160.453125 C 60.960938 160.453125 60.960938 160.925781 63.605469 160.925781 C 66.25 160.925781 67.132812 158.703125 68.605469 160.898438 C 70.59375 163.855469 67.777344 164.300781 68.222656 167.835938 C 68.695312 171.574219 70.367188 172.382812 67.871094 174.929688 Z M 76.417969 118.023438 C 77.875 116.121094 79.738281 114.679688 81.886719 113.484375 C 83.84375 112.394531 86.035156 111.503906 88.570312 111 C 90.738281 110.570312 93.117188 110.269531 95.710938 110.269531 C 98.285156 110.269531 100.621094 110.707031 102.777344 111.128906 C 105.304688 111.621094 107.546875 112.292969 109.492188 113.363281 C 111.640625 114.546875 113.269531 116.179688 114.710938 118.0625 C 115.910156 119.636719 116.8125 121.484375 117.640625 123.667969 C 118.339844 125.511719 119.515625 127.402344 119.945312 129.683594 C 120.316406 131.644531 120.042969 133.847656 120.21875 136.128906 C 120.371094 138.144531 120.734375 140.269531 120.734375 142.535156 C 120.734375 144.851562 120.746094 147.054688 120.582031 149.121094 C 120.394531 151.453125 120.21875 153.664062 119.828125 155.679688 C 119.375 157.996094 118.800781 160.160156 118.078125 162.066406 C 117.242188 164.273438 115.957031 166.109375 114.753906 167.773438 C 113.3125 169.757812 111.355469 171.078125 109.261719 172.339844 C 107.304688 173.523438 105.207031 174.539062 102.675781 175.085938 C 100.488281 175.5625 98.121094 175.960938 95.503906 175.960938 C 92.902344 175.960938 90.492188 175.824219 88.320312 175.359375 C 85.796875 174.820312 83.636719 173.773438 81.691406 172.609375 C 79.601562 171.359375 77.660156 169.929688 76.234375 167.957031 C 75.046875 166.308594 74.21875 164.265625 73.394531 162.058594 C 72.683594 160.164062 72.308594 158.03125 71.867188 155.722656 C 71.484375 153.714844 71.066406 151.59375 70.886719 149.273438 C 70.726562 147.214844 70.789062 145.042969 70.789062 142.738281 C 70.789062 140.464844 70.300781 138.289062 70.457031 136.261719 C 70.636719 133.96875 71.484375 131.90625 71.867188 129.933594 C 72.304688 127.648438 72.390625 125.4375 73.105469 123.582031 C 73.941406 121.398438 75.378906 119.738281 76.59375 118.15625 C 76.59375 118.15625 76.417969 118.023438 76.417969 118.023438 Z M 103.074219 142.585938 C 103.074219 140.125 103.121094 137.96875 102.96875 136.132812 C 102.734375 133.28125 102.203125 131.191406 101.601562 129.84375 C 100.609375 127.625 98.589844 126.59375 95.554688 126.59375 C 92.519531 126.59375 90.414062 127.574219 89.527344 129.789062 C 88.988281 131.136719 88.703125 133.277344 88.492188 136.101562 C 88.359375 137.921875 88.105469 140.050781 88.105469 142.484375 C 88.105469 143.714844 88.023438 143.714844 88.023438 144.941406 C 88.023438 147.472656 88.730469 149.648438 88.875 151.515625 C 89.109375 154.53125 89.003906 156.804688 89.613281 158.089844 C 90.601562 160.171875 92.828125 161.058594 95.863281 161.058594 C 98.898438 161.058594 100.726562 160.0625 101.613281 158.082031 C 102.160156 156.863281 102.410156 154.878906 102.617188 152.046875 C 102.75 150.289062 102.785156 148.242188 102.785156 145.863281 C 102.785156 144.222656 103.074219 144.222656 103.074219 142.585938 Z M 143.402344 143.765625 C 143.402344 146.238281 143.382812 148.433594 143.582031 150.324219 C 143.871094 153.046875 144.480469 155.152344 145.183594 156.664062 C 146.378906 159.222656 148.347656 160.421875 151.078125 160.421875 C 152.648438 160.421875 154.621094 160.433594 156.9375 160.003906 C 158.644531 159.6875 160.480469 159.125 162.59375 158.574219 C 164.277344 161.835938 163.074219 162.203125 163.738281 165.808594 C 164.40625 169.417969 165.183594 169.304688 164.984375 172.96875 C 163.222656 173.613281 161.851562 174.480469 160.082031 174.914062 C 158.269531 175.359375 156.347656 175.15625 154.527344 175.378906 C 152.691406 175.605469 150.875 176.003906 149.027344 176.003906 C 146.570312 176.003906 144.277344 175.847656 142.222656 175.359375 C 139.871094 174.800781 137.675781 174 135.851562 172.800781 C 133.960938 171.554688 132.253906 169.910156 130.929688 167.976562 C 129.8125 166.347656 129.089844 164.316406 128.308594 162.203125 C 127.625 160.359375 127.425781 158.261719 127 156.054688 C 126.625 154.109375 126.160156 152.078125 125.980469 149.851562 C 125.824219 147.863281 125.578125 145.773438 125.578125 143.558594 C 125.578125 141.304688 125.570312 139.15625 125.738281 137.125 C 125.929688 134.867188 126.4375 132.773438 126.839844 130.789062 C 127.289062 128.558594 127.621094 126.421875 128.34375 124.539062 C 129.152344 122.417969 130.324219 120.605469 131.472656 118.925781 C 132.871094 116.875 134.679688 115.378906 136.714844 114.066406 C 138.652344 112.816406 140.765625 111.796875 143.28125 111.214844 C 145.464844 110.710938 147.84375 110.605469 150.460938 110.605469 C 153.054688 110.605469 155.65625 110.316406 158.132812 110.859375 C 160.601562 111.40625 162.691406 112.589844 165.046875 113.683594 C 165.632812 116.296875 165.089844 116.308594 164.628906 118.949219 C 164.167969 121.59375 163.703125 121.515625 163.242188 124.160156 C 162.78125 126.800781 163.71875 127.046875 162.25 129.296875 C 160.167969 128.601562 158.664062 128.078125 157.074219 127.65625 C 154.597656 127 152.671875 126.929688 151.382812 126.929688 C 148.382812 126.929688 146.226562 128.105469 145.066406 130.734375 C 144.386719 132.277344 144.238281 134.472656 143.957031 137.199219 C 143.761719 139.105469 143.507812 141.277344 143.507812 143.765625 C 143.507812 143.765625 143.402344 143.765625 143.402344 143.765625 Z M 215.246094 174.929688 C 212.398438 174.929688 212.398438 174.804688 209.550781 174.804688 C 206.703125 174.804688 206.703125 174.917969 203.855469 174.917969 C 201.003906 174.917969 200.386719 176.699219 198.109375 174.988281 C 196.066406 173.453125 197.820312 172.390625 197.335938 169.882812 C 196.847656 167.375 198.320312 166.339844 196.242188 164.851562 C 193.785156 163.097656 193.191406 164.660156 190.171875 164.660156 C 187.152344 164.660156 186.402344 162.878906 183.949219 164.636719 C 181.871094 166.121094 183.960938 167.464844 183.472656 169.972656 C 182.988281 172.480469 184.054688 173.167969 182.046875 174.742188 C 179.914062 176.417969 179.480469 174.980469 176.769531 174.980469 C 174.054688 174.980469 174.054688 175.074219 171.34375 175.074219 C 168.628906 175.074219 167.207031 177.328125 165.695312 175.074219 C 163.898438 172.390625 166.214844 171.695312 166.796875 168.519531 C 167.378906 165.34375 167.652344 165.394531 168.238281 162.214844 C 168.820312 159.039062 169.175781 159.105469 169.761719 155.929688 C 170.34375 152.75 170.148438 152.714844 170.734375 149.539062 C 171.316406 146.363281 171.152344 146.332031 171.734375 143.15625 C 172.316406 139.980469 172.222656 139.960938 172.808594 136.785156 C 173.390625 133.605469 173.601562 133.644531 174.183594 130.464844 C 174.769531 127.289062 174.507812 127.238281 175.089844 124.0625 C 175.675781 120.882812 175.886719 120.921875 176.472656 117.742188 C 177.054688 114.5625 175.257812 113.632812 177.746094 111.570312 C 180.246094 109.496094 180.832031 111.484375 184.082031 111.484375 C 187.328125 111.484375 187.328125 111.628906 190.578125 111.628906 C 193.828125 111.628906 193.828125 111.058594 197.078125 111.058594 C 200.328125 111.058594 200.90625 109.5 203.410156 111.574219 C 205.898438 113.636719 204.40625 114.503906 204.988281 117.683594 C 205.574219 120.859375 205.109375 120.945312 205.691406 124.121094 C 206.277344 127.296875 206.152344 127.320312 206.738281 130.496094 C 207.320312 133.675781 207.503906 133.640625 208.085938 136.816406 C 208.667969 139.992188 208.929688 139.945312 209.511719 143.121094 C 210.09375 146.300781 209.914062 146.332031 210.496094 149.511719 C 211.082031 152.6875 211.417969 152.628906 212 155.804688 C 212.585938 158.984375 212.429688 159.011719 213.011719 162.1875 C 213.597656 165.367188 213.257812 165.429688 213.84375 168.609375 C 214.425781 171.789062 214.671875 171.746094 215.257812 174.925781 C 215.257812 174.925781 215.246094 174.929688 215.246094 174.929688 Z M 194.265625 152.921875 C 196.496094 151.109375 193.9375 150.066406 193.492188 147.226562 C 193.042969 144.386719 192.933594 144.402344 192.484375 141.566406 C 192.035156 138.722656 191.953125 138.738281 191.503906 135.898438 C 191.054688 133.054688 191.617188 132.925781 190.832031 130.160156 C 190.734375 129.816406 190.015625 129.84375 189.917969 130.1875 C 189.132812 132.953125 189.289062 133.003906 188.839844 135.847656 C 188.390625 138.683594 188.308594 138.671875 187.863281 141.511719 C 187.414062 144.351562 188.042969 144.449219 187.597656 147.292969 C 187.148438 150.132812 184.929688 150.433594 186.175781 153.023438 C 187.976562 156.769531 191.210938 155.410156 194.265625 152.921875 Z M 252.910156 174.929688 C 250.644531 177.234375 249.675781 174.804688 246.441406 174.804688 C 243.207031 174.804688 243.207031 174.917969 239.976562 174.917969 C 236.742188 174.917969 236.742188 175.003906 233.507812 175.003906 C 230.273438 175.003906 230.273438 174.773438 227.039062 174.773438 C 223.804688 174.773438 222.914062 177.15625 220.605469 174.890625 C 218.335938 172.664062 220.804688 171.75 220.804688 168.570312 C 220.804688 165.394531 220.886719 165.394531 220.886719 162.21875 C 220.886719 159.042969 220.25 159.042969 220.25 155.867188 C 220.25 152.691406 220.800781 152.6875 220.800781 149.511719 C 220.800781 146.335938 220.515625 146.335938 220.515625 143.160156 C 220.515625 139.980469 220.421875 139.980469 220.421875 136.804688 C 220.421875 133.625 220.304688 133.625 220.304688 130.449219 C 220.304688 127.269531 220.277344 127.269531 220.277344 124.09375 C 220.277344 120.914062 220.558594 120.914062 220.558594 117.734375 C 220.558594 114.554688 218.679688 113.953125 220.828125 111.609375 C 222.796875 109.460938 223.484375 111.527344 226.402344 111.527344 C 229.316406 111.527344 229.316406 111.359375 232.234375 111.359375 C 235.152344 111.359375 236.144531 109.179688 238.148438 111.296875 C 240.269531 113.535156 237.964844 114.457031 237.964844 117.539062 C 237.964844 120.621094 238.230469 120.621094 238.230469 123.703125 C 238.230469 126.78125 238.015625 126.78125 238.015625 129.863281 C 238.015625 132.949219 237.816406 132.949219 237.816406 136.03125 C 237.816406 139.113281 237.957031 139.113281 237.957031 142.199219 C 237.957031 145.28125 237.8125 145.28125 237.8125 148.363281 C 237.8125 151.449219 238.382812 151.449219 238.382812 154.535156 C 238.382812 157.621094 235.863281 158.53125 237.871094 160.875 C 239.589844 162.882812 240.710938 160.453125 243.355469 160.453125 C 246 160.453125 246 160.925781 248.644531 160.925781 C 251.289062 160.925781 252.171875 158.703125 253.644531 160.898438 C 255.632812 163.855469 252.816406 164.300781 253.261719 167.835938 C 253.734375 171.574219 255.40625 172.382812 252.910156 174.929688 Z M 280.351562 122.507812 C 281.296875 124.667969 281.980469 126.929688 282.621094 129.199219 C 283.261719 131.464844 283.859375 133.746094 284.183594 136.09375 C 284.503906 138.417969 284.753906 140.773438 284.753906 143.148438 C 284.753906 145.523438 284.359375 147.859375 284.039062 150.1875 C 283.710938 152.53125 283.328125 154.851562 282.691406 157.117188 C 282.046875 159.390625 281.082031 161.535156 280.132812 163.695312 C 279.1875 165.859375 278.035156 167.882812 276.796875 169.898438 C 275.566406 171.90625 274.710938 174.199219 273.207031 176.03125 C 271.714844 177.84375 269.6875 179.191406 267.941406 180.804688 L 268.132812 181.015625 C 266.261719 182.753906 264.777344 184.414062 263.492188 185.984375 C 261.914062 187.910156 260.882812 189.785156 260.058594 191.773438 C 259.234375 193.761719 258.78125 195.835938 258.535156 198.3125 C 258.335938 200.335938 258.023438 202.546875 258.117188 205.105469 C 258.195312 207.066406 257.800781 208.992188 257.65625 210.925781 C 257.511719 212.878906 257.453125 214.8125 257.09375 216.714844 C 256.726562 218.636719 256.417969 220.566406 255.839844 222.417969 C 255.257812 224.285156 254.660156 226.152344 253.875 227.933594 C 253.089844 229.71875 252.011719 231.359375 251.03125 233.042969 C 250.046875 234.730469 249.191406 236.507812 248.023438 238.070312 C 246.859375 239.632812 245.4375 240.996094 244.101562 242.421875 C 242.769531 243.839844 241.230469 245.027344 239.738281 246.292969 C 238.257812 247.546875 236.800781 248.824219 235.171875 249.914062 C 233.558594 250.988281 231.824219 251.84375 230.074219 252.742188 C 230.050781 252.753906 230.304688 253.269531 230.28125 253.28125 C 228.230469 254.253906 226.003906 254.578125 224.003906 255.308594 C 221.917969 256.070312 219.980469 257.1875 217.859375 257.671875 C 215.726562 258.164062 213.480469 258.042969 211.230469 258.238281 C 209.101562 258.421875 206.9375 258.34375 204.628906 258.25 C 202.070312 258.152344 199.800781 258.375 197.78125 258.574219 C 195.300781 258.824219 193.210938 259.578125 191.222656 260.40625 C 189.234375 261.226562 187.277344 262.230469 185.351562 263.808594 C 183.78125 265.097656 182.417969 266.898438 180.679688 268.773438 L 180.5625 268.664062 C 178.949219 270.410156 177 271.777344 175.1875 273.269531 C 173.355469 274.777344 171.585938 276.339844 169.578125 277.574219 C 167.5625 278.8125 165.339844 279.617188 163.175781 280.5625 C 161.015625 281.511719 158.855469 282.382812 156.582031 283.027344 C 154.316406 283.667969 152.023438 284.085938 149.679688 284.410156 C 147.351562 284.730469 145.03125 285.386719 142.660156 285.386719 C 140.285156 285.386719 137.957031 284.785156 135.632812 284.460938 C 133.285156 284.136719 131 283.660156 128.734375 283.023438 C 126.464844 282.378906 124.136719 281.886719 121.976562 280.941406 C 119.816406 279.992188 117.726562 278.859375 115.707031 277.621094 C 113.703125 276.390625 111.730469 275.054688 109.898438 273.550781 C 108.085938 272.058594 106.292969 270.476562 104.679688 268.730469 C 104.679688 268.730469 104.777344 268.648438 104.777344 268.644531 C 103.035156 266.773438 101.367188 265.308594 99.796875 264.023438 C 97.871094 262.445312 96.164062 261.027344 94.179688 260.207031 C 92.1875 259.382812 90.023438 258.753906 87.546875 258.507812 C 85.527344 258.304688 83.265625 258.582031 80.707031 258.675781 C 78.402344 258.769531 76.183594 258.808594 74.054688 258.625 C 71.804688 258.429688 69.632812 257.988281 67.496094 257.5 C 65.378906 257.015625 63.363281 256.179688 61.273438 255.414062 C 59.273438 254.6875 57.203125 254.007812 55.15625 253.035156 C 55.128906 253.023438 55.246094 252.792969 55.222656 252.78125 C 53.476562 251.886719 51.792969 250.941406 50.179688 249.863281 C 48.550781 248.777344 46.769531 247.894531 45.289062 246.640625 C 43.796875 245.375 42.59375 243.800781 41.261719 242.382812 C 39.925781 240.957031 38.523438 239.585938 37.359375 238.023438 C 36.195312 236.460938 34.941406 234.925781 33.957031 233.242188 C 32.976562 231.558594 32.585938 229.566406 31.800781 227.777344 C 31.015625 226 30.261719 224.226562 29.679688 222.359375 C 29.105469 220.503906 28.453125 218.667969 28.089844 216.746094 C 27.726562 214.839844 27.371094 212.914062 27.226562 210.960938 C 27.082031 209.027344 27.246094 207.074219 27.324219 205.113281 C 27.417969 202.554688 27.074219 200.328125 26.871094 198.308594 C 26.625 195.832031 26.429688 193.621094 25.605469 191.632812 C 24.78125 189.644531 23.707031 187.664062 22.128906 185.738281 C 20.84375 184.171875 18.945312 182.878906 17.070312 181.140625 L 17.078125 181.136719 C 15.328125 179.523438 13.746094 177.734375 12.253906 175.917969 C 10.746094 174.085938 9.734375 171.917969 8.503906 169.910156 C 7.265625 167.894531 5.660156 166.066406 4.710938 163.90625 C 3.765625 161.746094 2.898438 159.5 2.257812 157.226562 C 1.617188 154.960938 1.332031 152.574219 1.007812 150.226562 C 0.683594 147.902344 0.746094 145.527344 0.746094 143.152344 C 0.746094 140.777344 0.980469 138.445312 1.300781 136.121094 C 1.628906 133.773438 2.257812 131.527344 2.898438 129.261719 C 3.542969 126.988281 3.847656 124.597656 4.792969 122.4375 C 5.742188 120.277344 6.855469 118.160156 8.09375 116.144531 C 9.324219 114.136719 10.683594 112.164062 12.1875 110.332031 C 13.679688 108.519531 15.292969 106.742188 17.039062 105.128906 L 17.324219 105.4375 C 19.195312 103.695312 20.730469 102.042969 22.015625 100.472656 C 23.59375 98.546875 24.535156 96.554688 25.359375 94.570312 C 26.183594 92.582031 26.847656 90.496094 27.09375 88.019531 C 27.296875 86 27.003906 83.769531 26.90625 81.210938 C 26.828125 79.246094 27.015625 77.273438 27.160156 75.34375 C 27.304688 73.386719 27.632812 71.449219 27.996094 69.542969 C 28.363281 67.621094 29.21875 65.835938 29.796875 63.980469 C 30.375 62.113281 30.917969 60.261719 31.703125 58.480469 C 32.488281 56.695312 33.5 55.050781 34.484375 53.367188 C 35.464844 51.683594 36.324219 49.9375 37.492188 48.375 C 38.652344 46.8125 39.890625 45.3125 41.226562 43.890625 C 42.558594 42.472656 44.0625 41.242188 45.554688 39.976562 C 47.035156 38.722656 48.351562 37.226562 49.980469 36.140625 C 51.59375 35.0625 53.253906 33.988281 55.003906 33.089844 C 55.027344 33.078125 55.050781 33.109375 55.074219 33.097656 C 57.125 32.125 59.199219 31.402344 61.195312 30.671875 C 63.285156 29.90625 65.320312 29.027344 67.441406 28.539062 C 69.578125 28.050781 71.8125 27.917969 74.058594 27.722656 C 76.191406 27.539062 78.398438 27.71875 80.703125 27.8125 C 83.257812 27.90625 85.472656 27.4375 87.492188 27.238281 C 89.96875 26.992188 92.265625 27.105469 94.257812 26.28125 C 96.242188 25.457031 98.097656 24.140625 100.023438 22.5625 C 101.59375 21.277344 103.292969 19.769531 105.03125 17.894531 C 105.03125 17.894531 105.074219 17.9375 105.078125 17.9375 C 106.6875 16.191406 107.988281 14.125 109.800781 12.632812 C 111.632812 11.125 113.578125 9.714844 115.585938 8.484375 C 117.601562 7.246094 119.941406 6.597656 122.101562 5.652344 C 124.261719 4.703125 126.34375 3.5 128.617188 2.859375 C 130.882812 2.21875 133.277344 2.101562 135.621094 1.773438 C 137.949219 1.453125 140.285156 1.027344 142.660156 1.027344 C 145.035156 1.027344 147.433594 0.996094 149.757812 1.320312 C 152.105469 1.644531 154.402344 2.347656 156.664062 2.988281 C 158.9375 3.628906 161.160156 4.46875 163.320312 5.417969 C 165.480469 6.363281 167.417969 7.730469 169.433594 8.96875 C 171.441406 10.199219 173.289062 11.613281 175.121094 13.117188 C 176.933594 14.609375 178.796875 16.035156 180.410156 17.785156 L 180.433594 17.761719 C 182.171875 19.636719 183.824219 21.160156 185.390625 22.445312 C 187.316406 24.023438 189.167969 25.242188 191.15625 26.066406 C 193.144531 26.890625 195.351562 27.015625 197.828125 27.261719 C 199.847656 27.464844 202.0625 27.828125 204.617188 27.730469 C 206.921875 27.640625 209.132812 27.539062 211.261719 27.722656 C 213.507812 27.917969 215.644531 28.488281 217.78125 28.976562 C 219.898438 29.460938 221.941406 30.167969 224.03125 30.929688 C 226.027344 31.660156 227.988281 32.558594 230.039062 33.53125 C 230.0625 33.542969 230.042969 33.5625 230.066406 33.578125 C 231.8125 34.472656 233.621094 35.21875 235.234375 36.296875 C 236.863281 37.386719 238.632812 38.3125 240.113281 39.566406 C 241.605469 40.832031 242.5625 42.660156 243.890625 44.078125 C 245.230469 45.5 246.710938 46.777344 247.875 48.339844 C 249.042969 49.90625 250.070312 51.558594 251.054688 53.242188 C 252.035156 54.925781 252.839844 56.691406 253.628906 58.476562 C 254.414062 60.257812 254.933594 62.117188 255.515625 63.984375 C 256.09375 65.839844 256.796875 67.648438 257.164062 69.574219 C 257.527344 71.476562 257.800781 73.402344 257.945312 75.359375 C 258.089844 77.289062 258.085938 79.230469 258.007812 81.195312 C 257.914062 83.75 258.003906 86 258.207031 88.019531 C 258.453125 90.5 259.257812 92.53125 260.082031 94.519531 C 260.90625 96.503906 261.796875 98.488281 263.375 100.414062 C 264.660156 101.984375 266.34375 103.460938 268.21875 105.199219 L 267.894531 105.546875 C 269.644531 107.160156 271.355469 108.753906 272.847656 110.566406 C 274.355469 112.398438 275.808594 114.25 277.039062 116.257812 C 278.277344 118.273438 279.578125 120.273438 280.527344 122.433594 C 280.523438 122.433594 280.351562 122.507812 280.351562 122.507812 Z M 280.351562 122.507812 " clip-rule="nonzero"/></clipPath><clipPath id="164f5187d5"><rect x="0" width="285" y="0" height="287"/></clipPath></defs><g clip-path="url(#17bd2d806f)"><path fill="#1c1d28" d="M 262.890625 296.566406 C 260.871094 297.566406 259.015625 298.785156 257.007812 299.570312 C 254.925781 300.382812 252.742188 300.746094 250.644531 301.328125 C 248.515625 301.921875 246.425781 302.539062 244.25 302.898438 C 242.101562 303.25 239.921875 303.394531 237.691406 303.523438 C 235.542969 303.644531 233.355469 303.933594 231.097656 303.847656 C 228.882812 303.761719 227.179688 303.480469 225.773438 303.65625 C 223.859375 303.894531 222.398438 304.5625 220.875 305.746094 C 219.757812 306.617188 218.535156 307.808594 217.03125 309.433594 C 215.515625 311.074219 214.15625 312.867188 212.496094 314.328125 C 210.820312 315.804688 208.945312 317.03125 207.140625 318.316406 C 205.324219 319.609375 203.601562 321.070312 201.671875 322.164062 C 199.738281 323.261719 197.675781 324.167969 195.640625 325.058594 C 193.605469 325.949219 191.558594 326.890625 189.4375 327.570312 C 187.324219 328.246094 185.054688 328.386719 182.871094 328.84375 C 180.703125 329.300781 178.542969 329.890625 176.324219 330.121094 C 174.125 330.347656 171.890625 330.523438 169.65625 330.523438 C 167.421875 330.523438 165.222656 330.003906 163.023438 329.777344 C 160.800781 329.546875 158.53125 329.660156 156.363281 329.203125 C 154.183594 328.746094 151.980469 328.265625 149.867188 327.585938 C 147.746094 326.910156 145.792969 325.75 143.757812 324.855469 C 141.722656 323.964844 139.867188 322.742188 137.933594 321.644531 C 136.003906 320.546875 134.105469 319.4375 132.292969 318.144531 C 130.488281 316.859375 128.621094 315.65625 126.945312 314.179688 C 125.285156 312.71875 123.417969 311.421875 121.902344 309.78125 C 120.398438 308.15625 119.582031 306.574219 118.464844 305.703125 C 116.945312 304.519531 115.414062 304.199219 113.5 303.960938 C 112.09375 303.785156 110.429688 303.867188 108.21875 303.953125 C 105.960938 304.039062 103.777344 303.503906 101.625 303.382812 C 99.394531 303.253906 97.203125 303.292969 95.054688 302.941406 C 92.878906 302.582031 90.722656 302.179688 88.597656 301.585938 C 86.5 301.003906 84.304688 300.589844 82.222656 299.777344 C 80.214844 298.992188 78.414062 297.617188 76.390625 296.621094 C 74.542969 295.707031 72.636719 294.933594 70.910156 293.855469 C 69.164062 292.761719 67.59375 291.441406 65.980469 290.195312 C 64.355469 288.9375 62.84375 287.574219 61.359375 286.171875 C 59.867188 284.761719 58.121094 283.59375 56.777344 282.050781 C 55.429688 280.503906 54.519531 278.605469 53.332031 276.941406 C 52.140625 275.273438 51.019531 273.578125 49.992188 271.804688 C 48.960938 270.035156 47.894531 268.289062 47.039062 266.429688 C 46.179688 264.570312 45.605469 262.605469 44.925781 260.671875 C 44.246094 258.742188 43.261719 256.902344 42.761719 254.910156 C 42.269531 252.925781 41.855469 250.902344 41.550781 248.871094 C 41.242188 246.851562 40.949219 244.800781 40.832031 242.75 C 40.71875 240.710938 40.984375 238.652344 41.0625 236.59375 C 41.148438 234.378906 41.324219 232.671875 41.148438 231.265625 C 40.910156 229.351562 40.351562 227.808594 39.167969 226.285156 C 38.296875 225.167969 36.675781 224.378906 35.050781 222.875 C 33.410156 221.355469 32.054688 219.546875 30.59375 217.886719 C 29.117188 216.210938 27.605469 214.558594 26.316406 212.753906 C 25.023438 210.941406 23.898438 209.003906 22.804688 207.074219 C 21.707031 205.136719 20.898438 203.058594 20.003906 201.023438 C 19.109375 198.988281 18.160156 196.972656 17.480469 194.851562 C 16.804688 192.738281 16.625 190.5 16.167969 188.320312 C 15.714844 186.152344 15.210938 184.007812 14.980469 181.789062 C 14.75 179.585938 14.140625 177.382812 14.140625 175.148438 C 14.140625 172.914062 14.3125 170.664062 14.539062 168.464844 C 14.769531 166.246094 15.183594 164.03125 15.636719 161.863281 C 16.09375 159.683594 17.179688 157.675781 17.855469 155.5625 C 18.535156 153.445312 19.0625 151.285156 19.953125 149.25 C 20.847656 147.214844 21.992188 145.320312 23.089844 143.382812 C 24.183594 141.453125 25.304688 139.554688 26.597656 137.738281 C 27.882812 135.933594 29.257812 134.207031 30.730469 132.535156 C 32.195312 130.871094 33.636719 129.183594 35.277344 127.667969 C 36.902344 126.164062 38.195312 125.046875 39.0625 123.929688 C 40.246094 122.40625 41.039062 120.960938 41.28125 119.046875 C 41.457031 117.640625 40.839844 115.925781 40.753906 113.714844 C 40.675781 111.65625 40.632812 109.578125 40.746094 107.542969 C 40.863281 105.488281 41.289062 103.449219 41.59375 101.429688 C 41.902344 99.402344 42.660156 97.464844 43.15625 95.484375 C 43.652344 93.492188 43.746094 91.378906 44.425781 89.449219 C 45.109375 87.515625 45.828125 85.5625 46.683594 83.707031 C 47.542969 81.84375 48.730469 80.128906 49.757812 78.355469 C 50.789062 76.585938 51.839844 74.8125 53.03125 73.144531 C 54.222656 71.480469 55.835938 70.148438 57.183594 68.605469 C 58.527344 67.0625 59.878906 65.550781 61.371094 64.140625 C 62.855469 62.738281 64.375 61.390625 66 60.132812 C 67.613281 58.886719 69.023438 57.3125 70.769531 56.21875 C 72.496094 55.140625 74.464844 54.4375 76.3125 53.523438 C 78.335938 52.523438 80.253906 51.40625 82.261719 50.621094 C 84.34375 49.808594 86.535156 49.429688 88.632812 48.847656 C 90.757812 48.253906 92.898438 47.855469 95.078125 47.496094 C 97.226562 47.144531 99.355469 46.359375 101.585938 46.230469 C 103.738281 46.109375 105.957031 46.308594 108.214844 46.398438 C 110.429688 46.484375 112.128906 46.800781 113.535156 46.625 C 115.449219 46.386719 116.824219 45.621094 118.34375 44.4375 C 119.460938 43.570312 120.597656 42.328125 122.101562 40.703125 C 123.617188 39.0625 125.433594 37.753906 127.097656 36.289062 C 128.769531 34.816406 130.171875 33 131.976562 31.714844 C 133.792969 30.421875 135.976562 29.707031 137.90625 28.613281 C 139.84375 27.515625 141.632812 26.140625 143.667969 25.246094 C 145.703125 24.355469 147.761719 23.4375 149.878906 22.757812 C 151.992188 22.082031 154.214844 21.714844 156.394531 21.257812 C 158.566406 20.804688 160.792969 20.699219 163.015625 20.46875 C 165.214844 20.242188 167.417969 20.226562 169.652344 20.226562 C 171.886719 20.226562 174.128906 19.882812 176.332031 20.109375 C 178.550781 20.339844 180.6875 21.070312 182.855469 21.527344 C 185.035156 21.984375 187.28125 22.195312 189.394531 22.871094 C 191.511719 23.550781 193.425781 24.757812 195.460938 25.648438 C 197.496094 26.542969 199.671875 27.148438 201.609375 28.246094 C 203.539062 29.34375 205.449219 30.511719 207.265625 31.804688 C 209.070312 33.089844 210.925781 34.375 212.597656 35.851562 C 214.261719 37.3125 215.871094 38.894531 217.390625 40.535156 C 218.894531 42.160156 219.839844 43.582031 220.957031 44.449219 C 222.480469 45.632812 223.917969 45.929688 225.832031 46.171875 C 227.234375 46.347656 228.882812 46.578125 231.097656 46.492188 C 233.355469 46.402344 235.539062 46.691406 237.6875 46.8125 C 239.917969 46.9375 242.167969 46.625 244.316406 46.976562 C 246.492188 47.335938 248.539062 48.285156 250.664062 48.878906 C 252.765625 49.464844 254.984375 49.757812 257.066406 50.570312 C 259.074219 51.355469 260.890625 52.683594 262.914062 53.683594 C 264.761719 54.597656 266.773438 55.199219 268.5 56.277344 C 270.246094 57.371094 271.59375 59.015625 273.207031 60.261719 C 274.832031 61.519531 276.726562 62.449219 278.210938 63.851562 C 279.703125 65.261719 280.902344 66.957031 282.246094 68.5 C 283.589844 70.046875 284.828125 71.664062 286.019531 73.328125 C 287.210938 74.996094 288.664062 76.503906 289.691406 78.273438 C 290.71875 80.046875 291.632812 81.90625 292.492188 83.765625 C 293.347656 85.625 293.894531 87.625 294.574219 89.558594 C 295.253906 91.488281 296.179688 93.363281 296.679688 95.351562 C 297.175781 97.335938 297.585938 99.371094 297.894531 101.402344 C 298.203125 103.421875 297.800781 105.523438 297.917969 107.578125 C 298.03125 109.613281 298.070312 111.636719 297.988281 113.691406 C 297.902344 115.90625 298.476562 117.5625 298.652344 118.96875 C 298.894531 120.882812 299.078125 122.398438 300.261719 123.921875 C 301.128906 125.039062 302.371094 126.203125 303.996094 127.707031 C 305.636719 129.222656 307.449219 130.578125 308.910156 132.238281 C 310.386719 133.914062 311.476562 135.898438 312.761719 137.707031 C 314.054688 139.519531 315.589844 141.191406 316.6875 143.121094 C 317.785156 145.054688 318.46875 147.214844 319.363281 149.25 C 320.253906 151.285156 321.078125 153.347656 321.757812 155.46875 C 322.433594 157.582031 323.203125 159.6875 323.660156 161.867188 C 324.113281 164.035156 324.550781 166.246094 324.78125 168.464844 C 325.007812 170.664062 324.945312 172.914062 324.945312 175.148438 C 324.945312 177.382812 324.429688 179.574219 324.203125 181.773438 C 323.972656 183.992188 323.75 186.183594 323.296875 188.355469 C 322.835938 190.535156 322.359375 192.691406 321.679688 194.808594 C 321.003906 196.925781 320.035156 198.917969 319.144531 200.953125 C 318.25 202.988281 317.839844 205.269531 316.738281 207.207031 C 315.644531 209.136719 314.109375 210.8125 312.816406 212.628906 C 311.527344 214.433594 310.082031 216.113281 308.605469 217.789062 C 307.144531 219.449219 305.597656 221.027344 303.957031 222.542969 C 302.328125 224.050781 301.027344 225.179688 300.15625 226.296875 C 298.972656 227.820312 298.585938 229.375 298.347656 231.289062 C 298.167969 232.695312 298.335938 234.375 298.421875 236.585938 C 298.5 238.644531 298.480469 240.707031 298.363281 242.742188 C 298.246094 244.796875 297.847656 246.820312 297.539062 248.839844 C 297.230469 250.871094 296.976562 252.910156 296.480469 254.894531 C 295.984375 256.882812 295.316406 258.832031 294.636719 260.761719 C 293.957031 262.695312 293.261719 264.632812 292.40625 266.492188 C 291.546875 268.351562 290.742188 270.265625 289.714844 272.035156 C 288.6875 273.808594 287.09375 275.214844 285.902344 276.882812 C 284.710938 278.546875 283.902344 280.523438 282.554688 282.066406 C 281.210938 283.609375 279.597656 284.925781 278.105469 286.332031 C 276.621094 287.734375 275.226562 289.28125 273.597656 290.542969 C 271.984375 291.789062 270.097656 292.6875 268.351562 293.78125 C 266.625 294.859375 264.96875 296.210938 263.121094 297.125 C 262.992188 297.167969 262.890625 296.566406 262.890625 296.566406 Z M 262.890625 296.566406 " fill-opacity="1" fill-rule="nonzero"/></g><g mask="url(#b3d9f7b72a)"><g transform="matrix(1, 0, 0, 1, 27, 32)"><g clip-path="url(#164f5187d5)"><g clip-path="url(#f8709b96aa)"><g clip-path="url(#bb1b450f00)"><path fill="#ffffff" d="M 0.683594 0.996094 L 0.683594 285.386719 L 284.753906 285.386719 L 284.753906 0.996094 Z M 0.683594 0.996094 " fill-opacity="1" fill-rule="nonzero"/></g></g></g></g></g></svg>