<svg xmlns="http://www.w3.org/2000/svg" xmlns:xlink="http://www.w3.org/1999/xlink" width="500" zoomAndPan="magnify" viewBox="0 0 375 374.999991" height="500" preserveAspectRatio="xMidYMid meet" version="1.0"><defs><clipPath id="97a2b83d4d"><path d="M 10 161 L 361.742188 161 L 361.742188 328.574219 L 10 328.574219 Z M 10 161 " clip-rule="nonzero"/></clipPath><clipPath id="32051ac837"><path d="M 125 27.074219 L 275 27.074219 L 275 284 L 125 284 Z M 125 27.074219 " clip-rule="nonzero"/></clipPath></defs><path fill="#1c1d28" d="M 180 98.015625 C 180 97.296875 179.925781 96.585938 179.785156 95.882812 C 179.640625 95.179688 179.429688 94.496094 179.152344 93.832031 C 178.875 93.167969 178.539062 92.539062 178.136719 91.945312 C 177.734375 91.347656 177.28125 90.796875 176.773438 90.289062 C 176.261719 89.785156 175.707031 89.332031 175.109375 88.933594 C 174.511719 88.535156 173.878906 88.199219 173.214844 87.925781 C 172.550781 87.652344 171.867188 87.449219 171.164062 87.308594 C 170.457031 87.167969 169.746094 87.101562 169.027344 87.101562 L 158.054688 87.101562 C 157.335938 87.101562 156.625 87.167969 155.917969 87.308594 C 155.214844 87.449219 154.53125 87.652344 153.867188 87.925781 C 153.203125 88.199219 152.570312 88.535156 151.972656 88.933594 C 151.375 89.332031 150.820312 89.785156 150.308594 90.289062 C 149.800781 90.796875 149.347656 91.347656 148.945312 91.945312 C 148.542969 92.539062 148.207031 93.167969 147.929688 93.832031 C 147.652344 94.496094 147.441406 95.179688 147.296875 95.882812 C 147.15625 96.585938 147.082031 97.296875 147.082031 98.015625 L 147.082031 108.929688 C 147.082031 109.648438 147.15625 110.359375 147.296875 111.0625 C 147.441406 111.769531 147.652344 112.453125 147.929688 113.113281 C 148.207031 113.777344 148.542969 114.40625 148.945312 115.003906 C 149.347656 115.597656 149.800781 116.148438 150.308594 116.65625 C 150.820312 117.164062 151.375 117.617188 151.972656 118.011719 C 152.570312 118.410156 153.203125 118.746094 153.867188 119.019531 C 154.53125 119.292969 155.214844 119.5 155.917969 119.636719 C 156.625 119.777344 157.335938 119.847656 158.054688 119.84375 L 169.027344 119.84375 C 169.746094 119.847656 170.457031 119.777344 171.164062 119.636719 C 171.867188 119.5 172.550781 119.292969 173.214844 119.019531 C 173.878906 118.746094 174.511719 118.410156 175.109375 118.011719 C 175.707031 117.617188 176.261719 117.164062 176.773438 116.65625 C 177.28125 116.148438 177.734375 115.597656 178.136719 115.003906 C 178.539062 114.40625 178.875 113.777344 179.152344 113.113281 C 179.429688 112.453125 179.640625 111.769531 179.785156 111.0625 C 179.925781 110.359375 180 109.648438 180 108.929688 Z M 158.054688 108.929688 L 158.054688 98.015625 L 169.027344 98.015625 L 169.035156 108.929688 Z M 158.054688 108.929688 " fill-opacity="1" fill-rule="nonzero"/><path fill="#1c1d28" d="M 223.898438 98.015625 C 223.894531 97.296875 223.820312 96.585938 223.679688 95.882812 C 223.535156 95.179688 223.328125 94.496094 223.050781 93.832031 C 222.773438 93.167969 222.433594 92.539062 222.03125 91.945312 C 221.632812 91.347656 221.175781 90.796875 220.667969 90.289062 C 220.15625 89.785156 219.605469 89.332031 219.003906 88.933594 C 218.40625 88.535156 217.777344 88.199219 217.113281 87.925781 C 216.449219 87.652344 215.761719 87.449219 215.058594 87.308594 C 214.351562 87.167969 213.640625 87.101562 212.921875 87.101562 L 201.949219 87.101562 C 201.230469 87.101562 200.519531 87.167969 199.816406 87.308594 C 199.109375 87.449219 198.425781 87.652344 197.761719 87.925781 C 197.097656 88.199219 196.464844 88.535156 195.867188 88.933594 C 195.269531 89.332031 194.714844 89.785156 194.207031 90.289062 C 193.695312 90.796875 193.242188 91.347656 192.839844 91.945312 C 192.441406 92.539062 192.101562 93.167969 191.824219 93.832031 C 191.546875 94.496094 191.335938 95.179688 191.195312 95.882812 C 191.050781 96.585938 190.976562 97.296875 190.976562 98.015625 L 190.976562 108.929688 C 190.976562 109.648438 191.050781 110.359375 191.195312 111.0625 C 191.335938 111.769531 191.546875 112.453125 191.824219 113.113281 C 192.101562 113.777344 192.441406 114.40625 192.839844 115.003906 C 193.242188 115.597656 193.695312 116.148438 194.207031 116.65625 C 194.714844 117.164062 195.269531 117.617188 195.867188 118.011719 C 196.464844 118.410156 197.097656 118.746094 197.761719 119.019531 C 198.425781 119.292969 199.109375 119.5 199.816406 119.636719 C 200.519531 119.777344 201.230469 119.847656 201.949219 119.84375 L 212.921875 119.84375 C 213.640625 119.847656 214.351562 119.777344 215.058594 119.636719 C 215.761719 119.5 216.449219 119.292969 217.113281 119.019531 C 217.777344 118.746094 218.40625 118.410156 219.003906 118.011719 C 219.605469 117.617188 220.15625 117.164062 220.667969 116.65625 C 221.175781 116.148438 221.632812 115.597656 222.03125 115.003906 C 222.433594 114.40625 222.773438 113.777344 223.050781 113.113281 C 223.328125 112.453125 223.535156 111.769531 223.679688 111.0625 C 223.820312 110.359375 223.894531 109.648438 223.898438 108.929688 Z M 201.949219 108.929688 L 201.949219 98.015625 L 212.921875 98.015625 L 212.929688 108.929688 Z M 201.949219 108.929688 " fill-opacity="1" fill-rule="nonzero"/><path fill="#1c1d28" d="M 180 141.671875 C 180 140.957031 179.925781 140.246094 179.785156 139.539062 C 179.640625 138.835938 179.429688 138.152344 179.152344 137.488281 C 178.875 136.828125 178.539062 136.199219 178.136719 135.601562 C 177.734375 135.003906 177.28125 134.453125 176.773438 133.949219 C 176.261719 133.441406 175.707031 132.988281 175.109375 132.589844 C 174.511719 132.195312 173.878906 131.859375 173.214844 131.585938 C 172.550781 131.3125 171.867188 131.105469 171.164062 130.964844 C 170.457031 130.828125 169.746094 130.757812 169.027344 130.757812 L 158.054688 130.757812 C 157.335938 130.757812 156.625 130.828125 155.917969 130.964844 C 155.214844 131.105469 154.53125 131.3125 153.867188 131.585938 C 153.203125 131.859375 152.570312 132.195312 151.972656 132.589844 C 151.375 132.988281 150.820312 133.441406 150.308594 133.949219 C 149.800781 134.453125 149.347656 135.003906 148.945312 135.601562 C 148.542969 136.199219 148.207031 136.828125 147.929688 137.488281 C 147.652344 138.152344 147.441406 138.835938 147.296875 139.539062 C 147.15625 140.246094 147.082031 140.957031 147.082031 141.671875 L 147.082031 152.589844 C 147.082031 153.304688 147.15625 154.019531 147.296875 154.722656 C 147.441406 155.425781 147.652344 156.109375 147.929688 156.773438 C 148.207031 157.433594 148.542969 158.0625 148.945312 158.660156 C 149.347656 159.257812 149.800781 159.808594 150.308594 160.316406 C 150.820312 160.820312 151.375 161.273438 151.972656 161.671875 C 152.570312 162.070312 153.203125 162.402344 153.867188 162.675781 C 154.53125 162.949219 155.214844 163.15625 155.917969 163.296875 C 156.625 163.433594 157.335938 163.503906 158.054688 163.503906 L 169.027344 163.503906 C 169.746094 163.503906 170.457031 163.433594 171.164062 163.296875 C 171.867188 163.15625 172.550781 162.949219 173.214844 162.675781 C 173.878906 162.402344 174.511719 162.070312 175.109375 161.671875 C 175.707031 161.273438 176.261719 160.820312 176.773438 160.316406 C 177.28125 159.808594 177.734375 159.257812 178.136719 158.660156 C 178.539062 158.0625 178.875 157.433594 179.152344 156.773438 C 179.429688 156.109375 179.640625 155.425781 179.785156 154.722656 C 179.925781 154.019531 180 153.304688 180 152.589844 Z M 158.054688 152.589844 L 158.054688 141.671875 L 169.027344 141.671875 L 169.035156 152.589844 Z M 158.054688 152.589844 " fill-opacity="1" fill-rule="nonzero"/><path fill="#1c1d28" d="M 223.898438 141.671875 C 223.894531 140.957031 223.820312 140.246094 223.679688 139.539062 C 223.535156 138.835938 223.328125 138.152344 223.050781 137.488281 C 222.773438 136.828125 222.433594 136.199219 222.03125 135.601562 C 221.632812 135.003906 221.175781 134.453125 220.667969 133.949219 C 220.15625 133.441406 219.605469 132.988281 219.003906 132.589844 C 218.40625 132.195312 217.777344 131.859375 217.113281 131.585938 C 216.449219 131.3125 215.761719 131.105469 215.058594 130.964844 C 214.351562 130.828125 213.640625 130.757812 212.921875 130.757812 L 201.949219 130.757812 C 201.230469 130.757812 200.519531 130.828125 199.816406 130.964844 C 199.109375 131.105469 198.425781 131.3125 197.761719 131.585938 C 197.097656 131.859375 196.464844 132.195312 195.867188 132.589844 C 195.269531 132.988281 194.714844 133.441406 194.207031 133.949219 C 193.695312 134.453125 193.242188 135.003906 192.839844 135.601562 C 192.441406 136.199219 192.101562 136.828125 191.824219 137.488281 C 191.546875 138.152344 191.335938 138.835938 191.195312 139.539062 C 191.050781 140.246094 190.976562 140.957031 190.976562 141.671875 L 190.976562 152.589844 C 190.976562 153.304688 191.050781 154.019531 191.195312 154.722656 C 191.335938 155.425781 191.546875 156.109375 191.824219 156.773438 C 192.101562 157.433594 192.441406 158.0625 192.839844 158.660156 C 193.242188 159.257812 193.695312 159.808594 194.207031 160.316406 C 194.714844 160.820312 195.269531 161.273438 195.867188 161.671875 C 196.464844 162.070312 197.097656 162.402344 197.761719 162.675781 C 198.425781 162.949219 199.109375 163.15625 199.816406 163.296875 C 200.519531 163.433594 201.230469 163.503906 201.949219 163.503906 L 212.921875 163.503906 C 213.640625 163.503906 214.351562 163.433594 215.058594 163.296875 C 215.761719 163.15625 216.449219 162.949219 217.113281 162.675781 C 217.777344 162.402344 218.40625 162.070312 219.003906 161.671875 C 219.605469 161.273438 220.15625 160.820312 220.667969 160.316406 C 221.175781 159.808594 221.632812 159.257812 222.03125 158.660156 C 222.433594 158.0625 222.773438 157.433594 223.050781 156.773438 C 223.328125 156.109375 223.535156 155.425781 223.679688 154.722656 C 223.820312 154.019531 223.894531 153.304688 223.898438 152.589844 Z M 201.949219 152.589844 L 201.949219 141.671875 L 212.921875 141.671875 L 212.929688 152.589844 Z M 201.949219 152.589844 " fill-opacity="1" fill-rule="nonzero"/><path fill="#1c1d28" d="M 180 185.332031 C 180 184.613281 179.925781 183.902344 179.785156 183.199219 C 179.640625 182.492188 179.429688 181.808594 179.152344 181.148438 C 178.875 180.484375 178.539062 179.855469 178.136719 179.257812 C 177.734375 178.664062 177.28125 178.113281 176.773438 177.605469 C 176.261719 177.097656 175.707031 176.644531 175.109375 176.25 C 174.511719 175.851562 173.878906 175.515625 173.214844 175.242188 C 172.550781 174.96875 171.867188 174.761719 171.164062 174.625 C 170.457031 174.484375 169.746094 174.414062 169.027344 174.417969 L 158.054688 174.417969 C 157.335938 174.414062 156.625 174.484375 155.917969 174.625 C 155.214844 174.761719 154.53125 174.96875 153.867188 175.242188 C 153.203125 175.515625 152.570312 175.851562 151.972656 176.25 C 151.375 176.644531 150.820312 177.097656 150.308594 177.605469 C 149.800781 178.113281 149.347656 178.664062 148.945312 179.257812 C 148.542969 179.855469 148.207031 180.484375 147.929688 181.148438 C 147.652344 181.808594 147.441406 182.492188 147.296875 183.199219 C 147.15625 183.902344 147.082031 184.613281 147.082031 185.332031 L 147.082031 196.246094 C 147.082031 196.964844 147.15625 197.675781 147.296875 198.378906 C 147.441406 199.082031 147.652344 199.765625 147.929688 200.429688 C 148.203125 201.09375 148.542969 201.722656 148.945312 202.316406 C 149.347656 202.914062 149.800781 203.464844 150.308594 203.972656 C 150.820312 204.480469 151.375 204.929688 151.972656 205.328125 C 152.570312 205.726562 153.203125 206.0625 153.867188 206.335938 C 154.53125 206.609375 155.214844 206.816406 155.917969 206.953125 C 156.625 207.09375 157.335938 207.160156 158.054688 207.160156 L 169.027344 207.160156 C 169.746094 207.160156 170.457031 207.09375 171.164062 206.953125 C 171.867188 206.816406 172.550781 206.609375 173.214844 206.335938 C 173.882812 206.0625 174.511719 205.726562 175.109375 205.328125 C 175.707031 204.929688 176.261719 204.480469 176.773438 203.972656 C 177.28125 203.464844 177.738281 202.914062 178.136719 202.316406 C 178.539062 201.722656 178.878906 201.09375 179.152344 200.429688 C 179.429688 199.765625 179.640625 199.082031 179.785156 198.378906 C 179.925781 197.675781 180 196.964844 180 196.246094 Z M 158.054688 196.246094 L 158.054688 185.332031 L 169.027344 185.332031 L 169.035156 196.246094 Z M 158.054688 196.246094 " fill-opacity="1" fill-rule="nonzero"/><path fill="#1c1d28" d="M 223.898438 185.332031 C 223.894531 184.613281 223.820312 183.902344 223.679688 183.199219 C 223.535156 182.492188 223.328125 181.808594 223.050781 181.148438 C 222.773438 180.484375 222.433594 179.855469 222.03125 179.257812 C 221.632812 178.664062 221.175781 178.113281 220.667969 177.605469 C 220.15625 177.097656 219.605469 176.644531 219.003906 176.25 C 218.40625 175.851562 217.777344 175.515625 217.113281 175.242188 C 216.449219 174.96875 215.761719 174.761719 215.058594 174.625 C 214.351562 174.484375 213.640625 174.414062 212.921875 174.417969 L 201.949219 174.417969 C 201.230469 174.414062 200.519531 174.484375 199.816406 174.625 C 199.109375 174.761719 198.425781 174.96875 197.761719 175.242188 C 197.097656 175.515625 196.464844 175.851562 195.867188 176.25 C 195.269531 176.644531 194.714844 177.097656 194.207031 177.605469 C 193.695312 178.113281 193.242188 178.664062 192.839844 179.257812 C 192.441406 179.855469 192.101562 180.484375 191.824219 181.148438 C 191.546875 181.808594 191.335938 182.492188 191.195312 183.199219 C 191.050781 183.902344 190.976562 184.613281 190.976562 185.332031 L 190.976562 196.246094 C 190.976562 196.964844 191.050781 197.675781 191.195312 198.378906 C 191.335938 199.082031 191.546875 199.765625 191.824219 200.429688 C 192.101562 201.09375 192.4375 201.722656 192.839844 202.316406 C 193.242188 202.914062 193.695312 203.464844 194.207031 203.972656 C 194.714844 204.480469 195.269531 204.929688 195.867188 205.328125 C 196.464844 205.726562 197.097656 206.0625 197.761719 206.335938 C 198.425781 206.609375 199.109375 206.816406 199.816406 206.953125 C 200.519531 207.09375 201.230469 207.160156 201.949219 207.160156 L 212.921875 207.160156 C 213.640625 207.160156 214.351562 207.09375 215.058594 206.953125 C 215.761719 206.816406 216.449219 206.609375 217.113281 206.335938 C 217.777344 206.0625 218.40625 205.726562 219.007812 205.328125 C 219.605469 204.929688 220.15625 204.480469 220.667969 203.972656 C 221.175781 203.464844 221.632812 202.914062 222.03125 202.316406 C 222.433594 201.722656 222.773438 201.09375 223.050781 200.429688 C 223.328125 199.765625 223.535156 199.082031 223.679688 198.378906 C 223.820312 197.675781 223.894531 196.964844 223.898438 196.246094 Z M 201.949219 196.246094 L 201.949219 185.332031 L 212.921875 185.332031 L 212.929688 196.246094 Z M 201.949219 196.246094 " fill-opacity="1" fill-rule="nonzero"/><path fill="#1c1d28" d="M 212.921875 218.074219 L 201.949219 218.074219 C 201.230469 218.074219 200.519531 218.140625 199.816406 218.28125 C 199.109375 218.417969 198.425781 218.625 197.761719 218.898438 C 197.097656 219.171875 196.464844 219.507812 195.867188 219.90625 C 195.269531 220.304688 194.714844 220.753906 194.207031 221.261719 C 193.695312 221.769531 193.242188 222.320312 192.839844 222.917969 C 192.4375 223.511719 192.101562 224.140625 191.824219 224.804688 C 191.546875 225.46875 191.335938 226.152344 191.195312 226.855469 C 191.050781 227.558594 190.976562 228.269531 190.976562 228.988281 L 190.976562 239.902344 C 190.976562 240.621094 191.050781 241.332031 191.195312 242.035156 C 191.335938 242.742188 191.546875 243.425781 191.824219 244.085938 C 192.101562 244.75 192.4375 245.378906 192.839844 245.976562 C 193.242188 246.570312 193.695312 247.121094 194.207031 247.628906 C 194.714844 248.136719 195.269531 248.589844 195.867188 248.984375 C 196.464844 249.382812 197.097656 249.71875 197.761719 249.992188 C 198.425781 250.265625 199.109375 250.472656 199.816406 250.609375 C 200.519531 250.75 201.230469 250.820312 201.949219 250.816406 L 212.921875 250.816406 C 213.640625 250.820312 214.351562 250.75 215.058594 250.609375 C 215.761719 250.472656 216.449219 250.265625 217.113281 249.992188 C 217.777344 249.71875 218.40625 249.382812 219.007812 248.984375 C 219.605469 248.589844 220.15625 248.136719 220.667969 247.628906 C 221.175781 247.121094 221.632812 246.570312 222.03125 245.976562 C 222.433594 245.378906 222.773438 244.75 223.050781 244.085938 C 223.328125 243.425781 223.535156 242.742188 223.679688 242.035156 C 223.820312 241.332031 223.894531 240.621094 223.898438 239.902344 L 223.898438 228.988281 C 223.894531 228.269531 223.820312 227.558594 223.679688 226.855469 C 223.535156 226.152344 223.328125 225.46875 223.050781 224.804688 C 222.773438 224.140625 222.433594 223.511719 222.03125 222.917969 C 221.632812 222.320312 221.175781 221.769531 220.667969 221.261719 C 220.15625 220.753906 219.605469 220.304688 219.007812 219.90625 C 218.40625 219.507812 217.777344 219.171875 217.113281 218.898438 C 216.449219 218.625 215.761719 218.417969 215.058594 218.28125 C 214.351562 218.140625 213.640625 218.074219 212.921875 218.074219 Z M 201.949219 239.902344 L 201.949219 228.988281 L 212.921875 228.988281 L 212.929688 239.902344 Z M 201.949219 239.902344 " fill-opacity="1" fill-rule="nonzero"/><path fill="#1c1d28" d="M 64.988281 199.875 C 64.992188 199.335938 64.96875 198.796875 64.917969 198.257812 C 64.867188 197.722656 64.792969 197.1875 64.691406 196.65625 C 64.585938 196.128906 64.460938 195.605469 64.304688 195.085938 C 64.152344 194.570312 63.972656 194.0625 63.769531 193.5625 C 63.5625 193.0625 63.335938 192.574219 63.082031 192.097656 C 62.832031 191.617188 62.558594 191.15625 62.257812 190.703125 C 61.960938 190.253906 61.640625 189.820312 61.300781 189.402344 C 60.960938 188.980469 60.601562 188.582031 60.222656 188.199219 C 59.839844 187.816406 59.445312 187.449219 59.027344 187.105469 C 58.613281 186.761719 58.179688 186.4375 57.734375 186.136719 C 57.285156 185.835938 56.824219 185.554688 56.347656 185.300781 C 55.875 185.042969 55.386719 184.8125 54.890625 184.601562 C 54.390625 184.394531 53.886719 184.210938 53.371094 184.050781 C 52.855469 183.894531 52.332031 183.761719 51.800781 183.652344 C 51.273438 183.546875 50.742188 183.464844 50.203125 183.410156 C 49.667969 183.355469 49.128906 183.324219 48.589844 183.324219 C 48.046875 183.320312 47.511719 183.347656 46.972656 183.398438 C 46.4375 183.449219 45.902344 183.527344 45.371094 183.628906 C 44.84375 183.734375 44.320312 183.863281 43.800781 184.015625 C 43.285156 184.171875 42.777344 184.351562 42.277344 184.558594 C 41.777344 184.761719 41.289062 184.992188 40.8125 185.242188 C 40.335938 185.496094 39.875 185.773438 39.425781 186.070312 C 38.972656 186.371094 38.539062 186.691406 38.121094 187.03125 C 37.703125 187.371094 37.304688 187.734375 36.921875 188.113281 C 36.539062 188.496094 36.175781 188.894531 35.832031 189.308594 C 35.488281 189.726562 35.164062 190.15625 34.863281 190.605469 C 34.5625 191.054688 34.285156 191.515625 34.03125 191.992188 C 33.773438 192.464844 33.542969 192.953125 33.335938 193.453125 C 33.128906 193.949219 32.945312 194.457031 32.785156 194.972656 C 32.628906 195.488281 32.496094 196.011719 32.390625 196.539062 C 32.285156 197.070312 32.203125 197.601562 32.148438 198.140625 C 32.097656 198.675781 32.070312 199.214844 32.066406 199.753906 C 32.066406 200.292969 32.09375 200.832031 32.144531 201.371094 C 32.195312 201.90625 32.273438 202.441406 32.378906 202.972656 C 32.484375 203.5 32.613281 204.023438 32.769531 204.539062 C 32.925781 205.058594 33.105469 205.566406 33.3125 206.0625 C 33.519531 206.5625 33.75 207.050781 34.003906 207.527344 C 34.253906 208.003906 34.53125 208.464844 34.832031 208.914062 C 35.132812 209.363281 35.453125 209.796875 35.792969 210.214844 C 36.136719 210.632812 36.496094 211.03125 36.878906 211.414062 C 37.261719 211.796875 37.660156 212.160156 38.074219 212.5 C 38.492188 212.84375 38.925781 213.164062 39.375 213.464844 C 39.824219 213.765625 40.285156 214.042969 40.761719 214.296875 C 41.238281 214.550781 41.722656 214.785156 42.222656 214.988281 C 42.722656 215.195312 43.230469 215.378906 43.746094 215.535156 C 44.261719 215.691406 44.785156 215.824219 45.3125 215.929688 C 45.84375 216.035156 46.375 216.113281 46.914062 216.167969 C 47.449219 216.21875 47.988281 216.246094 48.527344 216.246094 C 49.066406 216.246094 49.601562 216.222656 50.136719 216.167969 C 50.671875 216.117188 51.203125 216.039062 51.730469 215.9375 C 52.257812 215.832031 52.78125 215.703125 53.292969 215.546875 C 53.808594 215.394531 54.316406 215.214844 54.8125 215.007812 C 55.308594 214.804688 55.792969 214.574219 56.269531 214.324219 C 56.742188 214.070312 57.203125 213.796875 57.652344 213.5 C 58.101562 213.199219 58.53125 212.882812 58.949219 212.542969 C 59.363281 212.203125 59.761719 211.84375 60.144531 211.464844 C 60.527344 211.085938 60.886719 210.6875 61.230469 210.273438 C 61.570312 209.859375 61.894531 209.429688 62.191406 208.984375 C 62.492188 208.535156 62.769531 208.078125 63.023438 207.605469 C 63.28125 207.128906 63.511719 206.644531 63.71875 206.148438 C 63.925781 205.652344 64.109375 205.148438 64.265625 204.636719 C 64.421875 204.121094 64.554688 203.601562 64.664062 203.074219 C 64.769531 202.546875 64.851562 202.015625 64.90625 201.484375 C 64.960938 200.949219 64.988281 200.410156 64.988281 199.875 Z M 43.042969 199.875 C 43.039062 199.511719 43.074219 199.15625 43.140625 198.800781 C 43.210938 198.449219 43.3125 198.105469 43.449219 197.769531 C 43.585938 197.4375 43.753906 197.117188 43.953125 196.816406 C 44.152344 196.515625 44.378906 196.238281 44.632812 195.980469 C 44.886719 195.726562 45.160156 195.496094 45.460938 195.296875 C 45.761719 195.09375 46.074219 194.921875 46.410156 194.785156 C 46.742188 194.644531 47.085938 194.539062 47.4375 194.46875 C 47.792969 194.394531 48.148438 194.359375 48.507812 194.359375 C 48.871094 194.355469 49.226562 194.390625 49.582031 194.460938 C 49.933594 194.527344 50.277344 194.632812 50.613281 194.769531 C 50.945312 194.90625 51.261719 195.074219 51.5625 195.273438 C 51.863281 195.472656 52.140625 195.699219 52.398438 195.953125 C 52.652344 196.207031 52.882812 196.484375 53.082031 196.785156 C 53.285156 197.085938 53.453125 197.402344 53.59375 197.734375 C 53.730469 198.066406 53.835938 198.410156 53.910156 198.761719 C 53.980469 199.117188 54.015625 199.472656 54.015625 199.835938 C 54.015625 200.195312 53.980469 200.550781 53.910156 200.90625 C 53.84375 201.261719 53.738281 201.605469 53.601562 201.9375 C 53.464844 202.269531 53.292969 202.585938 53.09375 202.886719 C 52.894531 203.1875 52.667969 203.464844 52.414062 203.722656 C 52.15625 203.976562 51.878906 204.203125 51.582031 204.40625 C 51.28125 204.605469 50.964844 204.773438 50.632812 204.914062 C 50.296875 205.050781 49.953125 205.15625 49.601562 205.226562 C 49.246094 205.296875 48.890625 205.332031 48.527344 205.332031 C 48.167969 205.332031 47.8125 205.296875 47.460938 205.230469 C 47.109375 205.160156 46.765625 205.058594 46.433594 204.921875 C 46.101562 204.785156 45.785156 204.617188 45.488281 204.417969 C 45.1875 204.21875 44.910156 203.992188 44.65625 203.738281 C 44.402344 203.484375 44.171875 203.210938 43.972656 202.910156 C 43.773438 202.613281 43.601562 202.296875 43.464844 201.96875 C 43.324219 201.636719 43.222656 201.292969 43.148438 200.941406 C 43.078125 200.589844 43.042969 200.234375 43.042969 199.875 Z M 43.042969 199.875 " fill-opacity="1" fill-rule="nonzero"/><g clip-path="url(#97a2b83d4d)"><path fill="#1c1d28" d="M 322.875 210.789062 C 301.695312 210.789062 284.46875 227.261719 284.46875 247.511719 C 284.46875 262.789062 303.628906 290.476562 312.117188 301.992188 C 284.820312 310.914062 241.265625 317.941406 185.390625 317.941406 C 170.324219 317.941406 156.160156 317.425781 142.953125 316.503906 C 151.972656 304.074219 169.242188 278.375 169.242188 263.882812 C 169.242188 243.632812 152.011719 227.160156 130.832031 227.160156 C 109.65625 227.160156 92.425781 243.632812 92.425781 263.882812 C 92.425781 277.476562 107.609375 300.914062 116.9375 314.03125 C 59.664062 307.054688 26.433594 292.097656 26.433594 280.519531 C 26.433594 271.476562 46.726562 260.371094 82.910156 252.621094 C 83.976562 248.371094 85.609375 244.355469 87.816406 240.570312 C 79.4375 242.160156 71.523438 243.976562 64.210938 246.003906 C 73.566406 232.574219 86.9375 211.15625 86.9375 198.398438 C 86.9375 178.148438 69.707031 161.675781 48.527344 161.675781 C 27.351562 161.675781 10.121094 178.148438 10.121094 198.398438 C 10.121094 214.679688 31.890625 245.070312 39.292969 254.929688 C 24.425781 261.929688 15.460938 270.484375 15.460938 280.519531 C 15.460938 311.914062 103.011719 328.855469 185.390625 328.855469 C 238.042969 328.855469 292.742188 321.914062 325.410156 308.722656 C 326.65625 308.429688 327.8125 307.933594 328.886719 307.234375 C 329.957031 306.539062 330.878906 305.679688 331.652344 304.65625 C 338.601562 295.449219 361.285156 264.117188 361.285156 247.511719 C 361.285156 227.261719 344.054688 210.789062 322.875 210.789062 Z M 21.09375 198.398438 C 21.09375 184.144531 33.378906 172.589844 48.527344 172.589844 C 63.679688 172.589844 75.964844 184.144531 75.964844 198.398438 C 75.964844 212.652344 48.527344 248.988281 48.527344 248.988281 C 48.527344 248.988281 21.09375 212.652344 21.09375 198.398438 Z M 103.398438 263.882812 C 103.398438 249.628906 115.679688 238.074219 130.832031 238.074219 C 145.984375 238.074219 158.269531 249.628906 158.269531 263.882812 C 158.269531 278.136719 130.832031 314.476562 130.832031 314.476562 C 130.832031 314.476562 103.398438 278.136719 103.398438 263.882812 Z M 322.945312 298.011719 L 322.839844 298.054688 C 322.078125 297.042969 295.441406 261.5625 295.441406 247.511719 C 295.441406 233.257812 307.722656 221.703125 322.875 221.703125 C 338.027344 221.703125 350.308594 233.257812 350.308594 247.511719 C 350.308594 261.371094 324.390625 296.085938 322.945312 298.011719 Z M 322.945312 298.011719 " fill-opacity="1" fill-rule="nonzero"/></g><path fill="#1c1d28" d="M 322.875 235.347656 C 322.339844 235.347656 321.804688 235.378906 321.273438 235.433594 C 320.742188 235.488281 320.210938 235.570312 319.6875 235.675781 C 319.164062 235.785156 318.644531 235.917969 318.132812 236.074219 C 317.621094 236.234375 317.117188 236.414062 316.625 236.625 C 316.128906 236.832031 315.648438 237.0625 315.175781 237.316406 C 314.707031 237.570312 314.25 237.847656 313.804688 238.148438 C 313.359375 238.449219 312.933594 238.769531 312.519531 239.109375 C 312.105469 239.453125 311.710938 239.8125 311.335938 240.195312 C 310.957031 240.574219 310.601562 240.972656 310.261719 241.386719 C 309.925781 241.804688 309.609375 242.234375 309.3125 242.679688 C 309.015625 243.128906 308.746094 243.585938 308.492188 244.058594 C 308.242188 244.535156 308.015625 245.019531 307.8125 245.515625 C 307.609375 246.007812 307.433594 246.515625 307.277344 247.027344 C 307.125 247.539062 306.996094 248.058594 306.894531 248.585938 C 306.792969 249.109375 306.714844 249.640625 306.664062 250.171875 C 306.613281 250.707031 306.589844 251.242188 306.59375 251.777344 C 306.59375 252.3125 306.621094 252.847656 306.675781 253.378906 C 306.730469 253.914062 306.8125 254.441406 306.917969 254.964844 C 307.023438 255.492188 307.15625 256.007812 307.3125 256.519531 C 307.46875 257.035156 307.652344 257.535156 307.859375 258.03125 C 308.066406 258.523438 308.296875 259.007812 308.550781 259.480469 C 308.804688 259.949219 309.078125 260.410156 309.378906 260.851562 C 309.675781 261.296875 309.996094 261.726562 310.339844 262.140625 C 310.679688 262.550781 311.039062 262.949219 311.417969 263.324219 C 311.800781 263.703125 312.195312 264.0625 312.613281 264.398438 C 313.027344 264.738281 313.457031 265.054688 313.902344 265.351562 C 314.347656 265.648438 314.808594 265.921875 315.28125 266.175781 C 315.753906 266.425781 316.238281 266.652344 316.734375 266.855469 C 317.230469 267.0625 317.734375 267.238281 318.246094 267.394531 C 318.757812 267.550781 319.277344 267.679688 319.804688 267.78125 C 320.328125 267.882812 320.859375 267.960938 321.390625 268.011719 C 321.925781 268.066406 322.457031 268.089844 322.996094 268.089844 C 323.53125 268.089844 324.0625 268.0625 324.597656 268.007812 C 325.128906 267.953125 325.660156 267.875 326.183594 267.769531 C 326.710938 267.664062 327.226562 267.535156 327.738281 267.378906 C 328.253906 267.222656 328.753906 267.039062 329.25 266.835938 C 329.746094 266.628906 330.226562 266.398438 330.699219 266.148438 C 331.171875 265.894531 331.628906 265.617188 332.074219 265.320312 C 332.519531 265.023438 332.949219 264.703125 333.363281 264.363281 C 333.777344 264.023438 334.171875 263.664062 334.550781 263.285156 C 334.929688 262.90625 335.289062 262.507812 335.628906 262.09375 C 335.96875 261.679688 336.285156 261.25 336.582031 260.804688 C 336.878906 260.359375 337.15625 259.898438 337.40625 259.425781 C 337.660156 258.953125 337.886719 258.472656 338.09375 257.976562 C 338.296875 257.480469 338.476562 256.976562 338.632812 256.464844 C 338.789062 255.953125 338.917969 255.433594 339.023438 254.90625 C 339.125 254.382812 339.207031 253.851562 339.257812 253.320312 C 339.308594 252.789062 339.335938 252.253906 339.335938 251.71875 C 339.335938 251.179688 339.304688 250.644531 339.25 250.109375 C 339.195312 249.574219 339.117188 249.042969 339.007812 248.515625 C 338.902344 247.992188 338.769531 247.46875 338.613281 246.957031 C 338.453125 246.441406 338.273438 245.9375 338.066406 245.441406 C 337.855469 244.945312 337.625 244.460938 337.371094 243.988281 C 337.117188 243.515625 336.839844 243.054688 336.539062 242.609375 C 336.238281 242.164062 335.917969 241.734375 335.574219 241.320312 C 335.234375 240.902344 334.871094 240.507812 334.492188 240.128906 C 334.109375 239.75 333.710938 239.390625 333.296875 239.050781 C 332.878906 238.710938 332.445312 238.390625 332 238.09375 C 331.550781 237.796875 331.089844 237.519531 330.617188 237.269531 C 330.140625 237.015625 329.65625 236.789062 329.160156 236.582031 C 328.660156 236.378906 328.15625 236.199219 327.640625 236.042969 C 327.125 235.890625 326.605469 235.757812 326.078125 235.65625 C 325.550781 235.550781 325.019531 235.472656 324.484375 235.421875 C 323.949219 235.371094 323.414062 235.34375 322.875 235.347656 Z M 322.875 257.175781 C 322.519531 257.171875 322.164062 257.136719 321.8125 257.0625 C 321.460938 256.992188 321.121094 256.886719 320.792969 256.75 C 320.460938 256.609375 320.148438 256.441406 319.851562 256.242188 C 319.554688 256.039062 319.28125 255.8125 319.027344 255.558594 C 318.777344 255.304688 318.550781 255.027344 318.355469 254.730469 C 318.15625 254.429688 317.992188 254.117188 317.855469 253.785156 C 317.71875 253.453125 317.617188 253.113281 317.546875 252.761719 C 317.480469 252.410156 317.445312 252.054688 317.449219 251.699219 C 317.449219 251.339844 317.484375 250.984375 317.554688 250.632812 C 317.628906 250.285156 317.730469 249.941406 317.871094 249.613281 C 318.007812 249.28125 318.175781 248.96875 318.375 248.671875 C 318.578125 248.375 318.804688 248.101562 319.058594 247.847656 C 319.308594 247.59375 319.585938 247.371094 319.882812 247.171875 C 320.183594 246.972656 320.496094 246.808594 320.828125 246.671875 C 321.160156 246.535156 321.5 246.433594 321.851562 246.363281 C 322.203125 246.292969 322.558594 246.257812 322.914062 246.261719 C 323.273438 246.261719 323.628906 246.296875 323.976562 246.367188 C 324.328125 246.4375 324.671875 246.539062 325 246.679688 C 325.332031 246.816406 325.644531 246.984375 325.941406 247.183594 C 326.238281 247.382812 326.515625 247.609375 326.769531 247.863281 C 327.019531 248.117188 327.246094 248.390625 327.445312 248.6875 C 327.644531 248.984375 327.8125 249.300781 327.949219 249.632812 C 328.085938 249.960938 328.1875 250.304688 328.257812 250.652344 C 328.328125 251.003906 328.363281 251.359375 328.363281 251.71875 C 328.363281 252.078125 328.324219 252.433594 328.253906 252.785156 C 328.183594 253.136719 328.078125 253.480469 327.941406 253.808594 C 327.800781 254.140625 327.632812 254.457031 327.433594 254.753906 C 327.230469 255.054688 327.003906 255.328125 326.75 255.582031 C 326.496094 255.835938 326.21875 256.0625 325.917969 256.261719 C 325.617188 256.460938 325.304688 256.628906 324.96875 256.765625 C 324.636719 256.898438 324.296875 257.003906 323.945312 257.074219 C 323.589844 257.140625 323.234375 257.175781 322.875 257.175781 Z M 322.875 257.175781 " fill-opacity="1" fill-rule="nonzero"/><path fill="#1c1d28" d="M 169.027344 218.074219 L 158.054688 218.074219 C 156.804688 218.078125 155.589844 218.292969 154.414062 218.714844 C 153.238281 219.136719 152.164062 219.746094 151.199219 220.535156 C 156.027344 222.65625 160.40625 225.472656 164.339844 228.988281 L 169.027344 228.988281 L 169.03125 233.734375 C 172.472656 237.796875 175.148438 242.3125 177.0625 247.28125 C 178.003906 246.28125 178.726562 245.144531 179.234375 243.871094 C 179.742188 242.597656 179.996094 241.273438 180 239.902344 L 180 228.988281 C 180 228.269531 179.925781 227.558594 179.785156 226.855469 C 179.640625 226.152344 179.429688 225.46875 179.152344 224.804688 C 178.878906 224.140625 178.539062 223.511719 178.136719 222.917969 C 177.738281 222.320312 177.28125 221.769531 176.773438 221.261719 C 176.261719 220.753906 175.707031 220.304688 175.109375 219.90625 C 174.511719 219.507812 173.882812 219.171875 173.214844 218.898438 C 172.550781 218.625 171.867188 218.417969 171.164062 218.28125 C 170.457031 218.140625 169.746094 218.074219 169.027344 218.074219 Z M 169.027344 218.074219 " fill-opacity="1" fill-rule="nonzero"/><path fill="#1c1d28" d="M 130.832031 248.988281 C 130.296875 248.992188 129.761719 249.019531 129.230469 249.078125 C 128.699219 249.132812 128.167969 249.214844 127.644531 249.320312 C 127.121094 249.425781 126.601562 249.558594 126.089844 249.71875 C 125.578125 249.875 125.074219 250.058594 124.582031 250.265625 C 124.085938 250.472656 123.605469 250.703125 123.132812 250.960938 C 122.664062 251.214844 122.207031 251.492188 121.761719 251.792969 C 121.316406 252.089844 120.890625 252.410156 120.476562 252.753906 C 120.066406 253.09375 119.671875 253.457031 119.292969 253.835938 C 118.917969 254.21875 118.558594 254.613281 118.21875 255.03125 C 117.882812 255.445312 117.566406 255.878906 117.269531 256.324219 C 116.976562 256.769531 116.703125 257.230469 116.449219 257.703125 C 116.199219 258.175781 115.972656 258.660156 115.769531 259.15625 C 115.566406 259.652344 115.390625 260.15625 115.238281 260.671875 C 115.082031 261.183594 114.953125 261.703125 114.851562 262.226562 C 114.75 262.753906 114.671875 263.285156 114.625 263.816406 C 114.574219 264.351562 114.546875 264.882812 114.550781 265.417969 C 114.550781 265.957031 114.582031 266.488281 114.632812 267.023438 C 114.6875 267.554688 114.769531 268.085938 114.875 268.609375 C 114.980469 269.132812 115.113281 269.652344 115.269531 270.164062 C 115.429688 270.675781 115.609375 271.179688 115.816406 271.671875 C 116.023438 272.167969 116.253906 272.652344 116.507812 273.121094 C 116.761719 273.59375 117.039062 274.050781 117.335938 274.496094 C 117.636719 274.941406 117.953125 275.371094 118.296875 275.78125 C 118.636719 276.195312 118.996094 276.589844 119.375 276.96875 C 119.757812 277.347656 120.152344 277.703125 120.570312 278.042969 C 120.984375 278.382812 121.414062 278.699219 121.859375 278.996094 C 122.304688 279.292969 122.765625 279.566406 123.238281 279.816406 C 123.710938 280.070312 124.195312 280.296875 124.691406 280.5 C 125.1875 280.703125 125.691406 280.882812 126.203125 281.039062 C 126.714844 281.191406 127.234375 281.320312 127.761719 281.425781 C 128.285156 281.527344 128.816406 281.605469 129.347656 281.65625 C 129.882812 281.707031 130.417969 281.734375 130.953125 281.730469 C 131.488281 281.730469 132.019531 281.703125 132.554688 281.652344 C 133.085938 281.597656 133.617188 281.519531 134.140625 281.414062 C 134.667969 281.308594 135.183594 281.175781 135.699219 281.019531 C 136.210938 280.863281 136.714844 280.683594 137.207031 280.476562 C 137.703125 280.273438 138.183594 280.042969 138.65625 279.789062 C 139.128906 279.535156 139.589844 279.261719 140.03125 278.960938 C 140.476562 278.664062 140.90625 278.34375 141.320312 278.003906 C 141.734375 277.664062 142.128906 277.304688 142.507812 276.925781 C 142.886719 276.546875 143.246094 276.152344 143.585938 275.738281 C 143.925781 275.324219 144.242188 274.890625 144.539062 274.445312 C 144.839844 274 145.113281 273.542969 145.363281 273.070312 C 145.617188 272.597656 145.84375 272.113281 146.050781 271.617188 C 146.253906 271.125 146.433594 270.621094 146.589844 270.109375 C 146.746094 269.59375 146.875 269.078125 146.980469 268.550781 C 147.085938 268.027344 147.164062 267.496094 147.214844 266.964844 C 147.265625 266.429688 147.292969 265.894531 147.292969 265.359375 C 147.292969 264.824219 147.261719 264.285156 147.207031 263.753906 C 147.152344 263.21875 147.074219 262.6875 146.964844 262.160156 C 146.859375 261.632812 146.726562 261.113281 146.570312 260.597656 C 146.410156 260.085938 146.230469 259.582031 146.023438 259.085938 C 145.816406 258.589844 145.582031 258.105469 145.328125 257.632812 C 145.074219 257.15625 144.796875 256.699219 144.496094 256.253906 C 144.195312 255.804688 143.875 255.375 143.535156 254.960938 C 143.191406 254.546875 142.828125 254.148438 142.449219 253.769531 C 142.066406 253.390625 141.667969 253.03125 141.253906 252.691406 C 140.835938 252.351562 140.402344 252.035156 139.957031 251.738281 C 139.507812 251.4375 139.046875 251.164062 138.574219 250.910156 C 138.097656 250.660156 137.613281 250.429688 137.117188 250.226562 C 136.617188 250.023438 136.113281 249.84375 135.597656 249.6875 C 135.082031 249.53125 134.5625 249.402344 134.035156 249.296875 C 133.507812 249.195312 132.976562 249.117188 132.441406 249.066406 C 131.90625 249.011719 131.371094 248.988281 130.832031 248.988281 Z M 130.832031 270.816406 C 130.476562 270.816406 130.121094 270.777344 129.769531 270.707031 C 129.417969 270.636719 129.078125 270.53125 128.75 270.390625 C 128.417969 270.253906 128.105469 270.082031 127.808594 269.882812 C 127.511719 269.683594 127.238281 269.457031 126.984375 269.203125 C 126.734375 268.949219 126.507812 268.671875 126.3125 268.371094 C 126.113281 268.074219 125.949219 267.757812 125.8125 267.429688 C 125.675781 267.097656 125.574219 266.753906 125.507812 266.40625 C 125.4375 266.054688 125.402344 265.699219 125.40625 265.339844 C 125.40625 264.984375 125.441406 264.628906 125.515625 264.277344 C 125.585938 263.925781 125.6875 263.585938 125.828125 263.257812 C 125.964844 262.925781 126.132812 262.613281 126.332031 262.316406 C 126.535156 262.019531 126.761719 261.742188 127.015625 261.492188 C 127.269531 261.238281 127.542969 261.011719 127.84375 260.816406 C 128.140625 260.617188 128.453125 260.449219 128.785156 260.3125 C 129.117188 260.175781 129.457031 260.074219 129.808594 260.003906 C 130.160156 259.9375 130.515625 259.902344 130.871094 259.902344 C 131.230469 259.902344 131.585938 259.9375 131.9375 260.007812 C 132.285156 260.078125 132.628906 260.183594 132.957031 260.320312 C 133.289062 260.457031 133.601562 260.628906 133.898438 260.828125 C 134.195312 261.027344 134.472656 261.25 134.726562 261.503906 C 134.976562 261.757812 135.203125 262.035156 135.402344 262.332031 C 135.601562 262.628906 135.769531 262.945312 135.90625 263.273438 C 136.042969 263.605469 136.144531 263.945312 136.214844 264.296875 C 136.285156 264.648438 136.320312 265.003906 136.320312 265.359375 C 136.320312 265.71875 136.28125 266.074219 136.210938 266.429688 C 136.140625 266.78125 136.035156 267.121094 135.898438 267.453125 C 135.757812 267.785156 135.589844 268.101562 135.390625 268.398438 C 135.1875 268.695312 134.960938 268.972656 134.707031 269.226562 C 134.453125 269.480469 134.175781 269.703125 133.875 269.902344 C 133.578125 270.101562 133.261719 270.269531 132.929688 270.40625 C 132.597656 270.542969 132.253906 270.644531 131.902344 270.714844 C 131.546875 270.785156 131.191406 270.820312 130.832031 270.816406 Z M 130.832031 270.816406 " fill-opacity="1" fill-rule="nonzero"/><g clip-path="url(#32051ac837)"><path fill="#1c1d28" d="M 240.359375 283.5625 C 240.71875 283.5625 241.074219 283.527344 241.425781 283.457031 C 241.777344 283.390625 242.121094 283.285156 242.453125 283.148438 C 242.785156 283.011719 243.101562 282.84375 243.402344 282.648438 C 243.699219 282.449219 243.976562 282.222656 244.230469 281.96875 C 244.488281 281.714844 244.714844 281.4375 244.914062 281.140625 C 245.113281 280.84375 245.285156 280.527344 245.421875 280.195312 C 245.5625 279.863281 245.664062 279.523438 245.738281 279.171875 C 245.808594 278.820312 245.84375 278.460938 245.84375 278.101562 L 245.84375 246.109375 C 255.742188 247.144531 264.972656 248.417969 273.519531 249.871094 C 273.558594 246.238281 274.019531 242.664062 274.90625 239.140625 C 265.625 237.585938 255.882812 236.277344 245.84375 235.242188 L 245.84375 76.1875 C 245.84375 75.46875 245.769531 74.757812 245.625 74.054688 C 245.484375 73.351562 245.273438 72.667969 244.996094 72.003906 C 244.71875 71.339844 244.382812 70.710938 243.980469 70.117188 C 243.578125 69.519531 243.125 68.96875 242.613281 68.460938 C 242.105469 67.953125 241.550781 67.503906 240.953125 67.105469 C 240.355469 66.707031 239.722656 66.371094 239.058594 66.097656 C 238.394531 65.824219 237.710938 65.617188 237.007812 65.480469 C 236.300781 65.339844 235.589844 65.273438 234.871094 65.273438 L 229.382812 65.273438 L 229.382812 54.359375 C 229.382812 53.640625 229.308594 52.929688 229.167969 52.226562 C 229.023438 51.519531 228.8125 50.835938 228.535156 50.175781 C 228.257812 49.511719 227.921875 48.882812 227.519531 48.285156 C 227.117188 47.691406 226.664062 47.140625 226.152344 46.632812 C 225.644531 46.125 225.089844 45.675781 224.492188 45.277344 C 223.894531 44.878906 223.261719 44.542969 222.597656 44.269531 C 221.933594 43.996094 221.25 43.789062 220.546875 43.652344 C 219.839844 43.511719 219.128906 43.445312 218.410156 43.445312 L 215.667969 43.445312 L 215.667969 32.53125 C 215.667969 32.167969 215.632812 31.8125 215.5625 31.460938 C 215.492188 31.105469 215.386719 30.761719 215.25 30.429688 C 215.113281 30.097656 214.941406 29.78125 214.742188 29.480469 C 214.542969 29.183594 214.316406 28.90625 214.058594 28.648438 C 213.804688 28.394531 213.527344 28.167969 213.226562 27.96875 C 212.929688 27.769531 212.613281 27.597656 212.28125 27.460938 C 211.945312 27.324219 211.605469 27.21875 211.25 27.148438 C 210.898438 27.078125 210.539062 27.042969 210.179688 27.042969 C 209.820312 27.042969 209.464844 27.078125 209.109375 27.148438 C 208.757812 27.21875 208.414062 27.324219 208.082031 27.460938 C 207.746094 27.597656 207.429688 27.769531 207.132812 27.96875 C 206.832031 28.167969 206.554688 28.394531 206.300781 28.648438 C 206.046875 28.90625 205.816406 29.183594 205.617188 29.480469 C 205.417969 29.78125 205.25 30.097656 205.109375 30.429688 C 204.972656 30.761719 204.867188 31.105469 204.796875 31.460938 C 204.726562 31.8125 204.691406 32.167969 204.691406 32.53125 L 204.691406 43.445312 L 201.949219 43.445312 C 201.230469 43.445312 200.519531 43.511719 199.816406 43.652344 C 199.109375 43.789062 198.425781 43.996094 197.761719 44.269531 C 197.097656 44.542969 196.464844 44.878906 195.867188 45.277344 C 195.269531 45.675781 194.714844 46.125 194.207031 46.632812 C 193.695312 47.140625 193.242188 47.691406 192.839844 48.285156 C 192.441406 48.882812 192.101562 49.511719 191.824219 50.175781 C 191.546875 50.835938 191.335938 51.519531 191.195312 52.226562 C 191.050781 52.929688 190.976562 53.640625 190.976562 54.359375 L 190.976562 65.273438 L 180 65.273438 L 180 54.359375 C 180 53.640625 179.925781 52.929688 179.785156 52.226562 C 179.640625 51.519531 179.429688 50.835938 179.152344 50.175781 C 178.878906 49.511719 178.539062 48.882812 178.136719 48.285156 C 177.734375 47.691406 177.28125 47.140625 176.773438 46.632812 C 176.261719 46.125 175.707031 45.675781 175.109375 45.277344 C 174.511719 44.878906 173.878906 44.542969 173.214844 44.269531 C 172.550781 43.996094 171.867188 43.789062 171.164062 43.652344 C 170.457031 43.511719 169.746094 43.445312 169.027344 43.445312 L 166.285156 43.445312 L 166.285156 32.53125 C 166.285156 32.167969 166.25 31.8125 166.179688 31.460938 C 166.109375 31.105469 166.003906 30.761719 165.867188 30.429688 C 165.730469 30.097656 165.558594 29.78125 165.359375 29.480469 C 165.160156 29.183594 164.933594 28.90625 164.675781 28.648438 C 164.421875 28.394531 164.144531 28.167969 163.847656 27.96875 C 163.546875 27.769531 163.230469 27.597656 162.898438 27.460938 C 162.566406 27.324219 162.222656 27.21875 161.867188 27.148438 C 161.515625 27.078125 161.15625 27.042969 160.796875 27.042969 C 160.4375 27.042969 160.082031 27.078125 159.726562 27.148438 C 159.375 27.21875 159.03125 27.324219 158.699219 27.460938 C 158.363281 27.597656 158.046875 27.769531 157.75 27.96875 C 157.449219 28.167969 157.171875 28.394531 156.917969 28.648438 C 156.664062 28.90625 156.4375 29.183594 156.234375 29.480469 C 156.035156 29.78125 155.867188 30.097656 155.726562 30.429688 C 155.589844 30.761719 155.488281 31.105469 155.417969 31.460938 C 155.347656 31.8125 155.3125 32.167969 155.3125 32.53125 L 155.3125 43.445312 L 152.566406 43.445312 C 151.847656 43.445312 151.136719 43.511719 150.433594 43.652344 C 149.726562 43.789062 149.042969 43.996094 148.378906 44.269531 C 147.714844 44.542969 147.082031 44.878906 146.484375 45.277344 C 145.886719 45.675781 145.332031 46.125 144.824219 46.632812 C 144.3125 47.140625 143.859375 47.691406 143.457031 48.285156 C 143.058594 48.882812 142.71875 49.511719 142.441406 50.175781 C 142.164062 50.835938 141.953125 51.519531 141.8125 52.226562 C 141.667969 52.929688 141.597656 53.640625 141.59375 54.359375 L 141.59375 65.273438 L 136.105469 65.273438 C 135.386719 65.273438 134.675781 65.339844 133.972656 65.480469 C 133.265625 65.617188 132.582031 65.824219 131.917969 66.097656 C 131.253906 66.371094 130.621094 66.707031 130.023438 67.105469 C 129.425781 67.503906 128.871094 67.953125 128.363281 68.460938 C 127.851562 68.96875 127.398438 69.519531 126.996094 70.117188 C 126.597656 70.710938 126.257812 71.339844 125.980469 72.003906 C 125.703125 72.667969 125.492188 73.351562 125.351562 74.054688 C 125.207031 74.757812 125.136719 75.46875 125.132812 76.1875 L 125.132812 216.589844 C 128.789062 216.152344 132.445312 216.132812 136.105469 216.527344 L 136.105469 76.1875 L 234.871094 76.1875 L 234.871094 278.101562 C 234.871094 278.460938 234.910156 278.820312 234.980469 279.171875 C 235.050781 279.523438 235.15625 279.863281 235.292969 280.195312 C 235.433594 280.527344 235.601562 280.84375 235.800781 281.140625 C 236.003906 281.4375 236.230469 281.714844 236.484375 281.96875 C 236.738281 282.222656 237.015625 282.449219 237.316406 282.648438 C 237.613281 282.84375 237.929688 283.011719 238.261719 283.148438 C 238.59375 283.285156 238.9375 283.390625 239.289062 283.457031 C 239.644531 283.527344 240 283.5625 240.359375 283.5625 Z M 169.027344 65.273438 L 152.566406 65.273438 L 152.566406 54.359375 L 169.027344 54.359375 Z M 218.410156 65.273438 L 201.949219 65.273438 L 201.949219 54.359375 L 218.410156 54.359375 Z M 218.410156 65.273438 " fill-opacity="1" fill-rule="nonzero"/></g></svg>