<svg xmlns="http://www.w3.org/2000/svg" xmlns:xlink="http://www.w3.org/1999/xlink" width="500" zoomAndPan="magnify" viewBox="0 0 375 374.999991" height="500" preserveAspectRatio="xMidYMid meet" version="1.0"><defs><clipPath id="2a90874500"><path d="M 47 178 L 340.753906 178 L 340.753906 344.519531 L 47 344.519531 Z M 47 178 " clip-rule="nonzero"/></clipPath><clipPath id="008ce2db43"><path d="M 47 178 L 340 178 L 340 344.519531 L 47 344.519531 Z M 47 178 " clip-rule="nonzero"/></clipPath><clipPath id="79d5fc45c5"><path d="M 34.003906 30.269531 L 209 30.269531 L 209 171 L 34.003906 171 Z M 34.003906 30.269531 " clip-rule="nonzero"/></clipPath><clipPath id="df81ccc747"><path d="M 34.003906 42 L 98 42 L 98 124 L 34.003906 124 Z M 34.003906 42 " clip-rule="nonzero"/></clipPath><clipPath id="1fb0391c39"><path d="M 46 30.269531 L 128 30.269531 L 128 94 L 46 94 Z M 46 30.269531 " clip-rule="nonzero"/></clipPath><clipPath id="1b12948c36"><path d="M 80 30.269531 L 175 30.269531 L 175 72 L 80 72 Z M 80 30.269531 " clip-rule="nonzero"/></clipPath><clipPath id="7ba02af6b7"><path d="M 127 30.269531 L 209 30.269531 L 209 94 L 127 94 Z M 127 30.269531 " clip-rule="nonzero"/></clipPath></defs><g clip-path="url(#2a90874500)"><path fill="#b4d2d7" d="M 331.96875 305.550781 C 336.410156 305.550781 340.011719 309.152344 340.011719 313.59375 C 340.011719 318.035156 336.410156 321.636719 331.96875 321.636719 L 86.058594 321.636719 L 86.058594 336.476562 C 86.058594 340.917969 82.457031 344.519531 78.015625 344.519531 C 73.574219 344.519531 69.972656 340.917969 69.972656 336.476562 L 69.972656 321.636719 L 55.132812 321.636719 C 50.691406 321.636719 47.089844 318.035156 47.089844 313.59375 C 47.089844 309.152344 50.691406 305.550781 55.132812 305.550781 L 69.972656 305.550781 L 69.972656 186.191406 C 69.972656 181.75 73.574219 178.148438 78.015625 178.148438 C 82.453125 178.148438 86.054688 181.75 86.054688 186.191406 L 86.054688 305.550781 Z M 331.96875 305.550781 " fill-opacity="1" fill-rule="evenodd"/></g><g clip-path="url(#008ce2db43)"><path fill="#9bb9c3" d="M 339.785156 315.480469 C 338.9375 319.011719 335.757812 321.636719 331.96875 321.636719 L 86.058594 321.636719 L 86.058594 315.707031 L 337.898438 315.707031 C 338.546875 315.707031 339.179688 315.628906 339.785156 315.480469 Z M 85.832031 338.367188 C 84.984375 341.894531 81.804688 344.519531 78.015625 344.519531 C 73.574219 344.519531 69.972656 340.917969 69.972656 336.476562 L 69.972656 321.636719 L 55.132812 321.636719 C 50.691406 321.636719 47.089844 318.035156 47.089844 313.59375 C 47.089844 309.800781 49.714844 306.625 53.246094 305.773438 C 53.097656 306.378906 53.023438 307.011719 53.023438 307.664062 C 53.023438 312.105469 56.621094 315.707031 61.0625 315.707031 L 75.902344 315.707031 L 75.902344 330.546875 C 75.902344 334.988281 79.503906 338.589844 83.945312 338.589844 C 84.59375 338.589844 85.226562 338.511719 85.832031 338.367188 Z M 69.972656 305.550781 L 69.972656 186.1875 C 69.972656 182.398438 72.59375 179.21875 76.125 178.371094 C 75.980469 178.976562 75.902344 179.609375 75.902344 180.257812 L 75.902344 305.550781 Z M 69.972656 305.550781 " fill-opacity="1" fill-rule="evenodd"/></g><path fill="#fc685b" d="M 110.363281 231.722656 L 138.449219 231.722656 C 140.40625 231.722656 142.003906 233.320312 142.003906 235.28125 L 142.003906 277.070312 C 142.003906 279.03125 140.40625 280.628906 138.449219 280.628906 L 110.363281 280.628906 C 108.402344 280.628906 106.804688 279.03125 106.804688 277.070312 L 106.804688 235.28125 C 106.804688 233.320312 108.402344 231.722656 110.363281 231.722656 Z M 110.363281 231.722656 " fill-opacity="1" fill-rule="evenodd"/><path fill="#f35244" d="M 110.363281 231.722656 L 138.449219 231.722656 C 140.40625 231.722656 142.003906 233.320312 142.003906 235.28125 L 142.003906 238.371094 L 117.132812 238.371094 C 115.171875 238.371094 113.574219 239.96875 113.574219 241.929688 L 113.574219 280.628906 L 110.363281 280.628906 C 108.402344 280.628906 106.804688 279.03125 106.804688 277.070312 L 106.804688 235.28125 C 106.804688 233.320312 108.402344 231.722656 110.363281 231.722656 Z M 110.363281 231.722656 " fill-opacity="1" fill-rule="evenodd"/><path fill="#ffda2d" d="M 171.832031 199.496094 L 199.917969 199.496094 C 201.875 199.496094 203.472656 201.09375 203.472656 203.054688 L 203.472656 277.070312 C 203.472656 279.03125 201.875 280.628906 199.917969 280.628906 L 171.832031 280.628906 C 169.871094 280.628906 168.273438 279.03125 168.273438 277.070312 L 168.273438 203.054688 C 168.273438 201.09375 169.871094 199.496094 171.832031 199.496094 Z M 171.832031 199.496094 " fill-opacity="1" fill-rule="evenodd"/><path fill="#ffc700" d="M 171.832031 199.496094 L 199.917969 199.496094 C 201.875 199.496094 203.472656 201.09375 203.472656 203.054688 L 203.472656 206.148438 L 178.601562 206.148438 C 176.640625 206.148438 175.042969 207.746094 175.042969 209.703125 L 175.042969 280.628906 L 171.832031 280.628906 C 169.871094 280.628906 168.273438 279.03125 168.273438 277.070312 L 168.273438 203.054688 C 168.273438 201.09375 169.871094 199.496094 171.832031 199.496094 Z M 171.832031 199.496094 " fill-opacity="1" fill-rule="evenodd"/><path fill="#72d561" d="M 233.300781 167.269531 L 261.386719 167.269531 C 263.347656 167.269531 264.945312 168.867188 264.945312 170.828125 L 264.945312 277.070312 C 264.945312 279.027344 263.347656 280.628906 261.386719 280.628906 L 233.300781 280.628906 C 231.34375 280.628906 229.746094 279.027344 229.746094 277.070312 L 229.746094 170.828125 C 229.746094 168.867188 231.34375 167.269531 233.300781 167.269531 Z M 233.300781 167.269531 " fill-opacity="1" fill-rule="evenodd"/><path fill="#3cbe52" d="M 233.300781 167.269531 L 261.386719 167.269531 C 263.347656 167.269531 264.945312 168.867188 264.945312 170.828125 L 264.945312 173.917969 L 240.070312 173.917969 C 238.113281 173.917969 236.511719 175.515625 236.511719 177.476562 L 236.511719 280.628906 L 233.300781 280.628906 C 231.34375 280.628906 229.746094 279.027344 229.746094 277.070312 L 229.746094 170.828125 C 229.746094 168.867188 231.34375 167.269531 233.300781 167.269531 Z M 233.300781 167.269531 " fill-opacity="1" fill-rule="evenodd"/><path fill="#64b5f6" d="M 326.414062 143.265625 L 326.414062 277.070312 C 326.414062 279.027344 324.816406 280.628906 322.855469 280.628906 L 294.769531 280.628906 C 292.8125 280.628906 291.214844 279.027344 291.214844 277.070312 L 291.214844 143.265625 L 279.96875 143.265625 C 277.960938 143.265625 276.921875 140.875 278.292969 139.40625 L 306.089844 109.621094 C 307.5625 108.039062 310.066406 108.039062 311.539062 109.621094 L 339.335938 139.40625 C 340.707031 140.875 339.667969 143.265625 337.660156 143.265625 Z M 326.414062 143.265625 " fill-opacity="1" fill-rule="evenodd"/><path fill="#42a5f5" d="M 287.664062 143.265625 L 279.96875 143.265625 C 277.960938 143.265625 276.921875 140.875 278.292969 139.40625 L 306.089844 109.621094 C 307.5625 108.039062 310.066406 108.039062 311.539062 109.621094 L 316.84375 115.304688 C 315.488281 114.820312 313.910156 115.140625 312.859375 116.269531 Z M 297.984375 280.628906 L 297.984375 143.265625 L 291.214844 143.265625 L 291.214844 277.070312 C 291.214844 279.027344 292.8125 280.628906 294.769531 280.628906 Z M 297.984375 280.628906 " fill-opacity="1" fill-rule="evenodd"/><path fill="#ffd6bd" d="M 243.011719 91.882812 L 237.21875 81.851562 C 235.9375 79.632812 237.710938 76.796875 240.367188 77.15625 L 278.34375 82.289062 C 280.390625 82.566406 281.617188 84.695312 280.835938 86.601562 L 266.289062 122.0625 C 265.273438 124.542969 261.933594 124.660156 260.652344 122.441406 L 254.859375 112.410156 L 119.574219 190.523438 C 117.609375 191.660156 115.078125 190.980469 113.941406 189.015625 L 106.214844 175.628906 C 105.078125 173.664062 105.757812 171.132812 107.722656 169.996094 Z M 243.011719 91.882812 " fill-opacity="1" fill-rule="evenodd"/><path fill="#f9c6aa" d="M 277.6875 82.199219 L 278.34375 82.289062 C 280.390625 82.566406 281.617188 84.695312 280.835938 86.601562 L 266.289062 122.0625 C 265.273438 124.542969 261.929688 124.660156 260.652344 122.441406 L 257.757812 117.425781 C 259.035156 119.644531 262.378906 119.527344 263.394531 117.046875 Z M 254.859375 112.410156 L 119.574219 190.523438 C 117.609375 191.660156 115.078125 190.980469 113.941406 189.015625 L 111.046875 184 C 112.183594 185.96875 114.710938 186.644531 116.679688 185.507812 L 251.964844 107.394531 Z M 254.859375 112.410156 " fill-opacity="1" fill-rule="evenodd"/><g clip-path="url(#79d5fc45c5)"><path fill="#fc685b" d="M 127.605469 30.269531 C 162.210938 30.269531 192.421875 49.070312 208.589844 77.015625 L 179.851562 93.605469 C 169.421875 75.578125 149.929688 63.449219 127.605469 63.449219 C 94.292969 63.449219 67.285156 90.457031 67.285156 123.773438 C 67.285156 134.765625 70.226562 145.066406 75.359375 153.941406 L 46.625 170.535156 C 38.664062 156.777344 34.109375 140.808594 34.109375 123.773438 C 34.109375 72.132812 75.96875 30.269531 127.605469 30.269531 Z M 127.605469 30.269531 " fill-opacity="1" fill-rule="evenodd"/></g><path fill="#f35244" d="M 179.851562 93.605469 C 169.421875 75.578125 149.929688 63.449219 127.605469 63.449219 C 94.292969 63.449219 67.285156 90.457031 67.285156 123.773438 C 67.285156 134.765625 70.226562 145.066406 75.359375 153.941406 L 67.296875 158.597656 C 61.371094 148.351562 57.976562 136.460938 57.976562 123.773438 C 57.976562 85.316406 89.152344 54.136719 127.605469 54.136719 C 153.375 54.136719 175.875 68.140625 187.914062 88.953125 Z M 179.851562 93.605469 " fill-opacity="1" fill-rule="evenodd"/><g clip-path="url(#df81ccc747)"><path fill="#f35244" d="M 97.441406 71.519531 C 91.910156 61.941406 86.378906 52.363281 80.847656 42.78125 C 66.660156 50.992188 54.832031 62.824219 46.621094 77.011719 C 38.664062 90.769531 34.109375 106.738281 34.109375 123.773438 C 45.167969 123.773438 56.226562 123.773438 67.285156 123.773438 C 67.285156 112.785156 70.222656 102.480469 75.359375 93.605469 C 80.652344 84.453125 88.285156 76.816406 97.441406 71.519531 Z M 97.441406 71.519531 " fill-opacity="1" fill-rule="evenodd"/></g><path fill="#eb423f" d="M 97.441406 71.519531 L 92.785156 63.460938 C 71.976562 75.5 57.976562 98 57.976562 123.773438 L 67.285156 123.773438 C 67.285156 112.785156 70.222656 102.480469 75.359375 93.605469 C 80.652344 84.453125 88.285156 76.816406 97.441406 71.519531 Z M 97.441406 71.519531 " fill-opacity="1" fill-rule="evenodd"/><g clip-path="url(#1fb0391c39)"><path fill="#72d561" d="M 80.847656 42.78125 C 66.660156 50.992188 54.832031 62.824219 46.621094 77.011719 C 56.199219 82.542969 65.777344 88.074219 75.359375 93.605469 C 80.652344 84.453125 88.285156 76.816406 97.441406 71.519531 C 106.3125 66.386719 116.617188 63.449219 127.605469 63.449219 C 127.605469 52.386719 127.605469 41.328125 127.605469 30.269531 C 110.574219 30.269531 94.605469 34.824219 80.847656 42.78125 Z M 80.847656 42.78125 " fill-opacity="1" fill-rule="evenodd"/></g><path fill="#57ca5a" d="M 67.296875 88.953125 L 75.359375 93.605469 C 80.652344 84.449219 88.285156 76.816406 97.441406 71.519531 C 106.316406 66.386719 116.617188 63.445312 127.605469 63.445312 L 127.605469 54.140625 C 101.835938 54.140625 79.335938 68.140625 67.296875 88.953125 Z M 67.296875 88.953125 " fill-opacity="1" fill-rule="evenodd"/><g clip-path="url(#1b12948c36)"><path fill="#57ca5a" d="M 127.605469 37.527344 L 127.605469 30.269531 C 110.574219 30.269531 94.605469 34.824219 80.851562 42.78125 C 86.378906 52.363281 91.910156 61.941406 97.441406 71.519531 C 106.316406 66.386719 116.617188 63.449219 127.605469 63.449219 C 138.597656 63.449219 148.898438 66.386719 157.773438 71.519531 C 163.300781 61.941406 168.832031 52.363281 174.363281 42.78125 C 160.609375 34.824219 144.640625 30.269531 127.605469 30.269531 Z M 127.605469 37.527344 " fill-opacity="1" fill-rule="evenodd"/></g><path fill="#3cbe52" d="M 92.785156 63.460938 L 97.441406 71.519531 C 106.3125 66.386719 116.617188 63.449219 127.605469 63.449219 C 138.597656 63.449219 148.898438 66.386719 157.773438 71.519531 L 162.425781 63.460938 C 152.183594 57.53125 140.292969 54.136719 127.605469 54.136719 C 114.921875 54.136719 103.03125 57.53125 92.785156 63.460938 Z M 92.785156 63.460938 " fill-opacity="1" fill-rule="evenodd"/><g clip-path="url(#7ba02af6b7)"><path fill="#ffda2d" d="M 174.363281 42.78125 C 160.609375 34.824219 144.640625 30.269531 127.605469 30.269531 C 127.605469 41.328125 127.605469 52.386719 127.605469 63.449219 C 138.597656 63.449219 148.898438 66.386719 157.773438 71.519531 C 166.925781 76.816406 174.558594 84.453125 179.855469 93.605469 L 180.304688 93.347656 L 180.359375 93.3125 L 180.753906 93.085938 L 181.0625 92.90625 L 181.203125 92.828125 L 181.652344 92.566406 L 181.765625 92.5 L 182.101562 92.308594 L 182.46875 92.09375 L 182.546875 92.050781 L 182.996094 91.789062 L 183.171875 91.6875 L 183.445312 91.53125 L 184.34375 91.011719 L 184.582031 90.875 L 184.792969 90.753906 L 185.242188 90.492188 L 185.285156 90.46875 L 185.691406 90.234375 L 185.988281 90.0625 L 186.140625 89.976562 L 186.589844 89.714844 L 186.691406 89.65625 L 187.039062 89.457031 L 187.394531 89.253906 L 187.488281 89.199219 L 187.9375 88.9375 L 188.097656 88.847656 L 188.386719 88.679688 L 188.800781 88.441406 L 188.835938 88.421875 L 189.285156 88.160156 L 189.503906 88.035156 L 189.734375 87.902344 L 190.179688 87.640625 L 190.207031 87.628906 L 190.628906 87.382812 L 190.910156 87.222656 L 191.078125 87.125 L 191.527344 86.863281 L 191.613281 86.816406 L 191.976562 86.605469 L 192.316406 86.410156 L 192.425781 86.34375 L 192.875 86.085938 L 193.023438 86.003906 L 193.324219 85.828125 L 193.726562 85.59375 L 193.773438 85.566406 L 194.222656 85.308594 L 194.429688 85.1875 L 194.671875 85.046875 L 195.121094 84.789062 L 195.132812 84.785156 L 195.570312 84.53125 L 195.835938 84.375 L 196.019531 84.269531 L 196.46875 84.011719 L 196.539062 83.96875 L 196.917969 83.753906 L 197.242188 83.566406 L 197.367188 83.492188 L 197.816406 83.234375 L 197.945312 83.160156 L 198.265625 82.976562 L 198.648438 82.753906 L 198.714844 82.714844 L 199.164062 82.457031 L 199.355469 82.34375 L 199.613281 82.195312 L 200.054688 81.9375 L 200.0625 81.9375 L 200.511719 81.675781 L 200.761719 81.53125 L 200.960938 81.417969 L 201.40625 81.160156 L 201.464844 81.125 L 201.855469 80.898438 L 202.167969 80.71875 L 202.304688 80.640625 L 202.753906 80.378906 L 202.871094 80.3125 L 203.203125 80.121094 L 203.574219 79.90625 L 203.652344 79.863281 L 204.101562 79.601562 L 204.277344 79.5 L 204.550781 79.34375 L 204.980469 79.09375 L 205 79.082031 L 205.449219 78.824219 L 205.683594 78.6875 L 205.898438 78.566406 L 206.347656 78.304688 L 206.386719 78.28125 L 206.796875 78.046875 L 207.089844 77.875 L 207.246094 77.785156 L 207.695312 77.527344 L 207.792969 77.46875 L 208.496094 77.0625 L 208.59375 77.007812 C 200.382812 62.824219 188.550781 50.992188 174.363281 42.78125 Z M 174.363281 42.78125 " fill-opacity="1" fill-rule="evenodd"/></g><path fill="#ffc700" d="M 127.605469 54.140625 L 127.605469 63.449219 C 138.597656 63.449219 148.898438 66.386719 157.773438 71.523438 C 166.925781 76.816406 174.558594 84.453125 179.855469 93.605469 L 180.359375 93.316406 L 183.875 91.285156 L 184.582031 90.878906 L 187.394531 89.253906 L 187.914062 88.953125 C 175.875 68.140625 153.375 54.140625 127.605469 54.140625 Z M 127.605469 54.140625 " fill-opacity="1" fill-rule="evenodd"/><path fill="#ffc700" d="M 208.589844 77.011719 C 200.382812 62.824219 188.550781 50.992188 174.363281 42.78125 C 168.832031 52.363281 163.300781 61.941406 157.773438 71.519531 C 166.925781 76.816406 174.558594 84.453125 179.855469 93.605469 Z M 208.589844 77.011719 " fill-opacity="1" fill-rule="evenodd"/><path fill="#fdb800" d="M 162.425781 63.460938 L 157.773438 71.519531 C 166.925781 76.816406 174.558594 84.453125 179.855469 93.605469 L 187.914062 88.953125 C 181.800781 78.386719 172.992188 69.574219 162.425781 63.460938 Z M 162.425781 63.460938 " fill-opacity="1" fill-rule="evenodd"/><path fill="#8d9ca8" d="M 159.722656 99.367188 C 162.148438 97.960938 165.253906 98.789062 166.660156 101.214844 C 168.066406 103.640625 167.238281 106.75 164.8125 108.152344 L 130.148438 128.167969 C 127.722656 129.574219 124.617188 128.746094 123.214844 126.320312 C 121.808594 123.894531 122.636719 120.785156 125.0625 119.382812 Z M 159.722656 99.367188 " fill-opacity="1" fill-rule="evenodd"/><path fill="#64b5f6" d="M 127.605469 137.914062 C 135.394531 137.914062 141.746094 131.5625 141.746094 123.773438 C 141.746094 115.984375 135.394531 109.632812 127.605469 109.632812 C 119.816406 109.632812 113.464844 115.984375 113.464844 123.773438 C 113.464844 131.5625 119.816406 137.914062 127.605469 137.914062 Z M 127.605469 137.914062 " fill-opacity="1" fill-rule="evenodd"/><path fill="#42a5f5" d="M 134.632812 111.5 C 138.882812 113.941406 141.746094 118.523438 141.746094 123.773438 C 141.746094 131.585938 135.414062 137.914062 127.605469 137.914062 C 123.40625 137.914062 119.636719 136.085938 117.046875 133.179688 C 119.117188 134.367188 121.515625 135.046875 124.074219 135.046875 C 131.882812 135.046875 138.214844 128.714844 138.214844 120.90625 C 138.214844 117.292969 136.859375 114 134.632812 111.5 Z M 134.632812 111.5 " fill-opacity="1" fill-rule="evenodd"/></svg>