<svg xmlns="http://www.w3.org/2000/svg" xmlns:xlink="http://www.w3.org/1999/xlink" width="500" zoomAndPan="magnify" viewBox="0 0 375 374.999991" height="500" preserveAspectRatio="xMidYMid meet" version="1.0"><defs><clipPath id="eeed166bc5"><path d="M 16.480469 16.480469 L 358.480469 16.480469 L 358.480469 358.480469 L 16.480469 358.480469 Z M 16.480469 16.480469 " clip-rule="nonzero"/></clipPath></defs><g clip-path="url(#eeed166bc5)"><path fill="#1c1d28" d="M 333.28125 30.300781 C 317.753906 21.390625 297.195312 16.480469 275.402344 16.480469 C 253.613281 16.480469 233.054688 21.390625 217.527344 30.300781 C 201.257812 39.640625 192.292969 52.316406 192.292969 65.996094 C 192.292969 82.132812 204.824219 96.703125 225.824219 105.871094 L 198.078125 105.871094 L 198.078125 95.113281 C 198.078125 87.753906 192.089844 81.765625 184.730469 81.765625 C 177.371094 81.765625 171.382812 87.753906 171.382812 95.113281 L 171.382812 96.785156 L 143.238281 105.871094 L 37.703125 105.871094 C 26.003906 105.871094 16.480469 115.394531 16.480469 127.09375 L 16.480469 268.605469 C 16.480469 280.308594 26.003906 289.832031 37.703125 289.832031 L 110.375 289.832031 L 105.019531 319.25 L 73.949219 319.25 C 63.121094 319.25 54.316406 328.058594 54.316406 338.886719 C 54.316406 349.714844 63.121094 358.519531 73.949219 358.519531 L 210.863281 358.519531 C 221.691406 358.519531 230.5 349.714844 230.5 338.886719 C 230.5 328.058594 221.691406 319.25 210.863281 319.25 L 179.796875 319.25 L 174.441406 289.832031 L 250.097656 289.832031 C 261.800781 289.832031 271.324219 280.308594 271.324219 268.605469 L 271.324219 127.085938 C 271.324219 124.488281 270.839844 121.964844 269.933594 119.578125 L 280.589844 115.40625 C 301.175781 114.660156 320.394531 109.488281 334.769531 100.804688 C 350.078125 91.5625 358.515625 79.195312 358.515625 65.988281 C 358.515625 52.316406 349.550781 39.640625 333.28125 30.300781 Z M 179.890625 95.113281 C 179.890625 92.445312 182.0625 90.28125 184.722656 90.28125 C 187.382812 90.28125 189.554688 92.449219 189.554688 95.113281 L 189.554688 198.628906 C 189.554688 201.300781 187.382812 203.464844 184.722656 203.464844 C 182.0625 203.464844 179.890625 201.292969 179.890625 198.628906 Z M 171.375 188.007812 L 81.488281 159.003906 L 81.488281 134.742188 L 171.375 105.742188 Z M 127.003906 184.410156 C 127.003906 192.761719 120.203125 199.558594 111.851562 199.558594 C 103.492188 199.558594 96.703125 192.761719 96.703125 184.410156 C 96.703125 180.5625 98.140625 176.929688 100.710938 174.148438 L 126.894531 182.601562 C 126.964844 183.195312 127.003906 183.808594 127.003906 184.410156 Z M 221.984375 338.878906 C 221.984375 345.011719 216.996094 350 210.863281 350 L 73.949219 350 C 67.820312 350 62.832031 345.011719 62.832031 338.878906 C 62.832031 332.75 67.820312 327.757812 73.949219 327.757812 L 210.863281 327.757812 C 216.996094 327.757812 221.984375 332.75 221.984375 338.878906 Z M 171.140625 319.246094 L 113.667969 319.246094 L 119.027344 289.824219 L 165.777344 289.824219 Z M 250.09375 281.308594 L 37.703125 281.308594 C 30.699219 281.308594 24.996094 275.609375 24.996094 268.597656 L 24.996094 258.609375 L 262.800781 258.609375 L 262.800781 268.597656 C 262.800781 275.609375 257.101562 281.308594 250.09375 281.308594 Z M 262.800781 127.085938 L 262.800781 250.09375 L 24.996094 250.09375 L 24.996094 127.085938 C 24.996094 120.082031 30.691406 114.378906 37.703125 114.378906 L 116.839844 114.378906 L 81.289062 125.851562 C 80.222656 119.550781 74.738281 114.734375 68.140625 114.734375 C 60.78125 114.734375 54.792969 120.722656 54.792969 128.082031 L 54.792969 165.648438 C 54.792969 173.007812 60.78125 178.996094 68.140625 178.996094 C 74.738281 178.996094 80.222656 174.175781 81.289062 167.875 L 92.101562 171.367188 C 89.578125 175.191406 88.1875 179.691406 88.1875 184.402344 C 88.1875 197.453125 98.800781 208.070312 111.851562 208.070312 C 124.582031 208.070312 134.984375 197.972656 135.496094 185.367188 L 171.375 196.941406 L 171.375 198.617188 C 171.375 205.976562 177.363281 211.964844 184.722656 211.964844 C 192.082031 211.964844 198.070312 205.976562 198.070312 198.617188 L 198.070312 114.386719 L 228.207031 114.386719 L 210.472656 134.199219 C 209.160156 135.667969 209.027344 137.84375 210.148438 139.460938 C 210.964844 140.632812 212.285156 141.292969 213.644531 141.292969 C 214.164062 141.292969 214.6875 141.203125 215.191406 141.003906 L 261.992188 122.6875 C 262.523438 124.085938 262.800781 125.570312 262.800781 127.085938 Z M 72.972656 128.085938 L 72.972656 165.65625 C 72.972656 168.324219 70.800781 170.488281 68.140625 170.488281 C 65.476562 170.488281 63.308594 168.316406 63.308594 165.65625 L 63.308594 128.085938 C 63.308594 125.417969 65.476562 123.253906 68.140625 123.253906 C 70.800781 123.253906 72.972656 125.417969 72.972656 128.085938 Z M 330.363281 93.523438 C 317.042969 101.5625 299.007812 106.324219 279.582031 106.925781 C 279.09375 106.941406 278.617188 107.039062 278.164062 107.21875 L 228.746094 126.554688 L 244.003906 109.515625 C 244.984375 108.425781 245.332031 106.898438 244.917969 105.488281 C 244.507812 104.074219 243.394531 102.972656 241.980469 102.578125 C 216.972656 95.566406 200.816406 81.203125 200.816406 65.996094 C 200.816406 55.5 208.261719 45.445312 221.769531 37.691406 C 236.027344 29.5 255.074219 24.996094 275.402344 24.996094 C 295.734375 24.996094 314.78125 29.5 329.042969 37.683594 C 342.554688 45.4375 350 55.492188 350 65.988281 C 350 76.101562 343.023438 85.871094 330.363281 93.523438 Z M 236.757812 46.15625 C 236.097656 44.566406 234.542969 43.535156 232.828125 43.535156 C 231.109375 43.535156 229.554688 44.574219 228.894531 46.15625 L 215.9375 77.25 C 215.035156 79.421875 216.058594 81.914062 218.230469 82.820312 C 220.402344 83.730469 222.890625 82.699219 223.800781 80.527344 L 227.597656 71.425781 L 238.0625 71.425781 L 241.859375 80.527344 C 242.542969 82.160156 244.125 83.148438 245.792969 83.148438 C 246.339844 83.148438 246.890625 83.042969 247.429688 82.820312 C 249.601562 81.921875 250.632812 79.421875 249.722656 77.25 Z M 231.144531 62.902344 L 232.828125 58.859375 L 234.507812 62.902344 Z M 275.402344 43.535156 L 262.445312 43.535156 C 260.097656 43.535156 258.1875 45.445312 258.1875 47.792969 L 258.1875 78.890625 C 258.1875 81.238281 260.097656 83.148438 262.445312 83.148438 L 275.402344 83.148438 C 284.898438 83.148438 292.621094 75.425781 292.621094 65.933594 L 292.621094 60.753906 C 292.621094 51.257812 284.898438 43.535156 275.402344 43.535156 Z M 284.105469 65.933594 C 284.105469 70.730469 280.199219 74.632812 275.402344 74.632812 L 266.703125 74.632812 L 266.703125 52.050781 L 275.402344 52.050781 C 280.199219 52.050781 284.105469 55.957031 284.105469 60.753906 Z M 309.28125 55.570312 C 309.28125 56.644531 312.574219 59.085938 317.988281 59.085938 C 327.632812 59.085938 335.1875 64.363281 335.1875 71.113281 C 335.1875 77.859375 327.625 83.148438 317.972656 83.148438 C 308.324219 83.148438 300.757812 77.859375 300.757812 71.113281 C 300.757812 68.765625 302.667969 66.855469 305.015625 66.855469 C 307.363281 66.855469 309.273438 68.765625 309.273438 71.113281 C 309.273438 72.183594 312.558594 74.632812 317.972656 74.632812 C 323.386719 74.632812 326.675781 72.183594 326.675781 71.113281 C 326.675781 70.042969 323.386719 67.601562 317.988281 67.601562 C 308.332031 67.601562 300.765625 62.320312 300.765625 55.570312 C 300.765625 48.824219 308.332031 43.535156 317.980469 43.535156 C 327.632812 43.535156 335.195312 48.824219 335.195312 55.570312 C 335.195312 57.921875 333.289062 59.828125 330.9375 59.828125 C 328.589844 59.828125 326.679688 57.921875 326.679688 55.570312 C 326.679688 54.5 323.394531 52.050781 317.980469 52.050781 C 312.574219 52.050781 309.28125 54.492188 309.28125 55.570312 Z M 309.28125 55.570312 " fill-opacity="1" fill-rule="nonzero"/></g></svg>