<svg xmlns="http://www.w3.org/2000/svg" xmlns:xlink="http://www.w3.org/1999/xlink" width="500" zoomAndPan="magnify" viewBox="0 0 375 374.999991" height="500" preserveAspectRatio="xMidYMid meet" version="1.0"><defs><clipPath id="c6bad8b171"><path d="M 27 36 L 358.039062 36 L 358.039062 337.59375 L 27 337.59375 Z M 27 36 " clip-rule="nonzero"/></clipPath></defs><g clip-path="url(#c6bad8b171)"><path fill="#1c1d28" d="M 133.175781 93.351562 C 131.296875 93.351562 129.421875 93.445312 127.554688 93.628906 C 125.683594 93.8125 123.828125 94.085938 121.984375 94.453125 C 120.144531 94.820312 118.324219 95.277344 116.527344 95.820312 C 114.730469 96.367188 112.964844 97 111.226562 97.71875 C 109.492188 98.4375 107.796875 99.238281 106.140625 100.125 C 104.484375 101.007812 102.875 101.972656 101.3125 103.015625 C 99.75 104.058594 98.246094 105.179688 96.792969 106.371094 C 95.339844 107.5625 93.949219 108.820312 92.621094 110.148438 C 91.292969 111.476562 90.035156 112.867188 88.84375 114.320312 C 87.652344 115.769531 86.535156 117.277344 85.488281 118.839844 C 84.445312 120.402344 83.480469 122.011719 82.597656 123.667969 C 81.710938 125.324219 80.910156 127.019531 80.191406 128.753906 C 79.472656 130.488281 78.839844 132.257812 78.292969 134.054688 C 77.75 135.851562 77.292969 137.671875 76.925781 139.511719 C 76.5625 141.355469 76.285156 143.210938 76.101562 145.078125 C 75.917969 146.949219 75.824219 148.824219 75.824219 150.699219 C 75.824219 152.578125 75.917969 154.453125 76.101562 156.320312 C 76.285156 158.191406 76.5625 160.046875 76.925781 161.890625 C 77.292969 163.730469 77.75 165.550781 78.292969 167.347656 C 78.839844 169.144531 79.472656 170.914062 80.191406 172.648438 C 80.910156 174.382812 81.710938 176.078125 82.597656 177.734375 C 83.480469 179.390625 84.445312 181 85.488281 182.5625 C 86.535156 184.125 87.652344 185.628906 88.84375 187.082031 C 90.035156 188.535156 91.292969 189.925781 92.621094 191.253906 C 93.949219 192.582031 95.339844 193.839844 96.792969 195.03125 C 98.246094 196.222656 99.75 197.339844 101.3125 198.386719 C 102.875 199.429688 104.484375 200.394531 106.140625 201.277344 C 107.796875 202.164062 109.492188 202.964844 111.226562 203.683594 C 112.964844 204.402344 114.730469 205.035156 116.527344 205.582031 C 118.324219 206.125 120.144531 206.582031 121.984375 206.949219 C 123.828125 207.3125 125.683594 207.589844 127.554688 207.773438 C 129.421875 207.957031 131.296875 208.050781 133.175781 208.050781 C 135.050781 208.050781 136.925781 207.957031 138.796875 207.773438 C 140.664062 207.589844 142.519531 207.3125 144.363281 206.949219 C 146.203125 206.582031 148.023438 206.125 149.820312 205.582031 C 151.621094 205.035156 153.386719 204.402344 155.121094 203.683594 C 156.855469 202.964844 158.550781 202.164062 160.207031 201.277344 C 161.863281 200.394531 163.472656 199.429688 165.035156 198.386719 C 166.597656 197.339844 168.105469 196.222656 169.554688 195.03125 C 171.007812 193.839844 172.398438 192.582031 173.726562 191.253906 C 175.054688 189.925781 176.3125 188.535156 177.503906 187.082031 C 178.699219 185.628906 179.816406 184.125 180.859375 182.5625 C 181.902344 181 182.867188 179.390625 183.75 177.734375 C 184.636719 176.078125 185.4375 174.382812 186.15625 172.648438 C 186.875 170.914062 187.507812 169.144531 188.054688 167.347656 C 188.597656 165.550781 189.054688 163.730469 189.421875 161.890625 C 189.789062 160.046875 190.0625 158.191406 190.246094 156.320312 C 190.429688 154.453125 190.523438 152.578125 190.523438 150.699219 C 190.523438 148.824219 190.429688 146.949219 190.242188 145.082031 C 190.058594 143.210938 189.78125 141.359375 189.414062 139.515625 C 189.042969 137.675781 188.585938 135.855469 188.042969 134.058594 C 187.496094 132.261719 186.863281 130.496094 186.144531 128.761719 C 185.425781 127.027344 184.621094 125.332031 183.734375 123.675781 C 182.851562 122.023438 181.886719 120.414062 180.839844 118.851562 C 179.796875 117.292969 178.679688 115.785156 177.488281 114.332031 C 176.296875 112.882812 175.039062 111.492188 173.710938 110.164062 C 172.382812 108.835938 170.992188 107.578125 169.542969 106.386719 C 168.089844 105.195312 166.582031 104.078125 165.023438 103.035156 C 163.460938 101.988281 161.851562 101.023438 160.199219 100.140625 C 158.542969 99.253906 156.847656 98.453125 155.113281 97.730469 C 153.378906 97.011719 151.613281 96.378906 149.816406 95.832031 C 148.019531 95.289062 146.199219 94.832031 144.359375 94.460938 C 142.515625 94.09375 140.664062 93.820312 138.792969 93.632812 C 136.925781 93.445312 135.050781 93.351562 133.175781 93.351562 Z M 133.175781 197.042969 C 131.65625 197.042969 130.140625 196.96875 128.632812 196.820312 C 127.121094 196.671875 125.621094 196.449219 124.132812 196.152344 C 122.644531 195.855469 121.175781 195.488281 119.722656 195.046875 C 118.269531 194.605469 116.84375 194.097656 115.441406 193.515625 C 114.039062 192.933594 112.667969 192.285156 111.328125 191.570312 C 109.992188 190.855469 108.691406 190.074219 107.429688 189.234375 C 106.167969 188.390625 104.949219 187.484375 103.777344 186.523438 C 102.601562 185.5625 101.480469 184.542969 100.40625 183.46875 C 99.332031 182.394531 98.316406 181.273438 97.351562 180.101562 C 96.390625 178.925781 95.484375 177.707031 94.644531 176.445312 C 93.800781 175.183594 93.019531 173.882812 92.304688 172.546875 C 91.589844 171.207031 90.941406 169.835938 90.359375 168.433594 C 89.78125 167.03125 89.269531 165.605469 88.828125 164.152344 C 88.386719 162.699219 88.019531 161.230469 87.722656 159.742188 C 87.425781 158.253906 87.203125 156.753906 87.054688 155.242188 C 86.90625 153.734375 86.832031 152.21875 86.832031 150.699219 C 86.832031 149.183594 86.90625 147.667969 87.054688 146.160156 C 87.203125 144.648438 87.425781 143.148438 87.722656 141.660156 C 88.019531 140.171875 88.386719 138.699219 88.828125 137.25 C 89.269531 135.796875 89.78125 134.367188 90.359375 132.964844 C 90.941406 131.5625 91.589844 130.195312 92.304688 128.855469 C 93.019531 127.515625 93.800781 126.214844 94.644531 124.953125 C 95.484375 123.691406 96.390625 122.476562 97.351562 121.300781 C 98.316406 120.128906 99.332031 119.003906 100.40625 117.933594 C 101.480469 116.859375 102.601562 115.839844 103.777344 114.878906 C 104.949219 113.914062 106.167969 113.011719 107.429688 112.167969 C 108.691406 111.324219 109.992188 110.546875 111.328125 109.832031 C 112.667969 109.117188 114.039062 108.46875 115.441406 107.886719 C 116.84375 107.304688 118.269531 106.796875 119.722656 106.355469 C 121.175781 105.914062 122.644531 105.546875 124.132812 105.25 C 125.621094 104.953125 127.121094 104.730469 128.632812 104.582031 C 130.140625 104.433594 131.65625 104.359375 133.175781 104.359375 C 134.691406 104.359375 136.207031 104.433594 137.714844 104.582031 C 139.226562 104.730469 140.726562 104.953125 142.214844 105.25 C 143.703125 105.546875 145.175781 105.914062 146.625 106.355469 C 148.078125 106.796875 149.507812 107.304688 150.910156 107.886719 C 152.3125 108.46875 153.679688 109.117188 155.019531 109.832031 C 156.359375 110.546875 157.660156 111.324219 158.921875 112.167969 C 160.183594 113.011719 161.398438 113.914062 162.574219 114.878906 C 163.746094 115.839844 164.871094 116.859375 165.941406 117.933594 C 167.015625 119.003906 168.035156 120.128906 168.996094 121.300781 C 169.960938 122.476562 170.863281 123.691406 171.707031 124.953125 C 172.550781 126.214844 173.328125 127.515625 174.042969 128.855469 C 174.757812 130.195312 175.40625 131.5625 175.988281 132.964844 C 176.570312 134.367188 177.078125 135.796875 177.519531 137.25 C 177.960938 138.699219 178.328125 140.171875 178.625 141.660156 C 178.921875 143.148438 179.144531 144.648438 179.292969 146.160156 C 179.441406 147.667969 179.515625 149.183594 179.515625 150.699219 C 179.515625 152.21875 179.4375 153.730469 179.289062 155.242188 C 179.136719 156.75 178.914062 158.25 178.617188 159.738281 C 178.320312 161.226562 177.949219 162.695312 177.507812 164.148438 C 177.066406 165.597656 176.554688 167.023438 175.972656 168.425781 C 175.390625 169.828125 174.742188 171.199219 174.027344 172.535156 C 173.3125 173.871094 172.53125 175.171875 171.6875 176.433594 C 170.847656 177.695312 169.941406 178.914062 168.980469 180.085938 C 168.015625 181.257812 167 182.378906 165.925781 183.453125 C 164.855469 184.527344 163.730469 185.542969 162.558594 186.507812 C 161.386719 187.46875 160.167969 188.371094 158.90625 189.214844 C 157.644531 190.058594 156.347656 190.839844 155.007812 191.554688 C 153.671875 192.269531 152.300781 192.917969 150.898438 193.5 C 149.5 194.082031 148.070312 194.59375 146.621094 195.035156 C 145.167969 195.476562 143.699219 195.84375 142.210938 196.144531 C 140.722656 196.441406 139.226562 196.664062 137.714844 196.8125 C 136.203125 196.964844 134.691406 197.039062 133.175781 197.042969 Z M 339.894531 155.214844 C 331.988281 150.761719 324.652344 145.515625 317.878906 139.472656 L 316.339844 138.042969 L 314.082031 135.949219 C 315.574219 133.484375 316.898438 130.933594 318.050781 128.292969 C 319.207031 125.652344 320.179688 122.945312 320.976562 120.175781 C 321.769531 117.40625 322.378906 114.59375 322.804688 111.746094 C 323.226562 108.894531 323.460938 106.027344 323.503906 103.148438 C 323.546875 100.265625 323.402344 97.394531 323.0625 94.53125 C 322.726562 91.667969 322.203125 88.84375 321.492188 86.050781 C 320.78125 83.257812 319.890625 80.523438 318.816406 77.847656 C 317.742188 75.175781 316.496094 72.582031 315.082031 70.070312 C 313.664062 67.5625 312.089844 65.15625 310.351562 62.855469 C 308.617188 60.554688 306.738281 58.378906 304.714844 56.328125 C 302.691406 54.273438 300.542969 52.367188 298.265625 50.597656 C 295.988281 48.832031 293.605469 47.222656 291.117188 45.769531 C 288.628906 44.316406 286.054688 43.035156 283.394531 41.925781 C 280.734375 40.816406 278.015625 39.886719 275.230469 39.132812 C 272.449219 38.382812 269.628906 37.820312 266.773438 37.445312 C 263.914062 37.066406 261.046875 36.878906 258.164062 36.882812 C 253.875 36.871094 249.628906 37.28125 245.421875 38.109375 C 241.214844 38.941406 237.128906 40.175781 233.164062 41.8125 C 229.203125 43.453125 225.441406 45.464844 221.875 47.847656 C 218.3125 50.234375 215.015625 52.945312 211.988281 55.980469 C 207.691406 60.226562 204.023438 64.960938 200.980469 70.179688 C 199.75 69.136719 198.496094 68.121094 197.214844 67.136719 C 195.9375 66.152344 194.636719 65.195312 193.316406 64.269531 C 191.992188 63.34375 190.652344 62.449219 189.289062 61.585938 C 187.925781 60.71875 186.542969 59.886719 185.140625 59.085938 C 183.738281 58.285156 182.320312 57.519531 180.882812 56.785156 C 179.445312 56.046875 177.992188 55.347656 176.523438 54.679688 C 175.054688 54.007812 173.570312 53.375 172.074219 52.773438 C 170.574219 52.175781 169.0625 51.609375 167.539062 51.078125 C 166.015625 50.546875 164.476562 50.054688 162.929688 49.59375 C 161.382812 49.132812 159.828125 48.710938 158.261719 48.320312 C 156.695312 47.933594 155.117188 47.582031 153.535156 47.265625 C 151.953125 46.949219 150.363281 46.671875 148.769531 46.425781 C 147.171875 46.183594 145.570312 45.980469 143.964844 45.808594 C 142.359375 45.640625 140.753906 45.507812 139.140625 45.414062 C 137.53125 45.320312 135.917969 45.261719 134.304688 45.238281 C 132.691406 45.21875 131.078125 45.234375 129.464844 45.289062 C 127.851562 45.34375 126.238281 45.433594 124.628906 45.558594 C 123.019531 45.6875 121.414062 45.851562 119.8125 46.054688 C 118.210938 46.253906 116.617188 46.492188 115.027344 46.769531 C 113.433594 47.042969 111.851562 47.355469 110.277344 47.703125 C 108.699219 48.050781 107.132812 48.433594 105.574219 48.855469 C 104.015625 49.273438 102.46875 49.730469 100.929688 50.21875 C 99.390625 50.710938 97.867188 51.238281 96.351562 51.800781 C 94.839844 52.359375 93.339844 52.957031 91.855469 53.585938 C 90.367188 54.214844 88.898438 54.878906 87.441406 55.578125 C 85.988281 56.277344 84.546875 57.007812 83.125 57.773438 C 81.703125 58.535156 80.300781 59.332031 78.917969 60.160156 C 77.53125 60.988281 76.167969 61.851562 74.820312 62.742188 C 73.476562 63.632812 72.152344 64.554688 70.847656 65.507812 C 69.542969 66.460938 68.265625 67.441406 67.007812 68.453125 C 65.75 69.464844 64.515625 70.503906 63.304688 71.574219 C 62.09375 72.640625 60.910156 73.738281 59.75 74.859375 C 58.589844 75.984375 57.457031 77.132812 56.351562 78.304688 C 55.242188 79.480469 54.164062 80.679688 53.113281 81.90625 C 52.0625 83.128906 51.039062 84.378906 50.042969 85.648438 C 49.050781 86.921875 48.085938 88.214844 47.152344 89.53125 C 46.214844 90.847656 45.3125 92.183594 44.441406 93.542969 C 43.566406 94.898438 42.726562 96.277344 41.914062 97.671875 C 41.105469 99.066406 40.328125 100.484375 39.582031 101.914062 C 38.839844 103.347656 38.128906 104.796875 37.449219 106.261719 C 36.773438 107.722656 36.128906 109.203125 35.519531 110.699219 C 34.90625 112.191406 34.332031 113.699219 33.792969 115.222656 C 33.25 116.742188 32.746094 118.273438 32.277344 119.820312 C 31.804688 121.363281 31.371094 122.917969 30.972656 124.480469 C 30.574219 126.046875 30.210938 127.617188 29.886719 129.199219 C 29.558594 130.78125 29.269531 132.367188 29.015625 133.960938 C 28.765625 135.554688 28.546875 137.15625 28.367188 138.757812 C 28.1875 140.363281 28.046875 141.96875 27.941406 143.582031 C 27.835938 145.191406 27.765625 146.804688 27.734375 148.417969 C 27.703125 150.03125 27.710938 151.644531 27.753906 153.257812 C 27.796875 154.871094 27.875 156.484375 27.992188 158.09375 C 28.109375 159.703125 28.261719 161.308594 28.453125 162.910156 C 28.644531 164.515625 28.875 166.113281 29.136719 167.703125 C 29.402344 169.296875 29.703125 170.882812 30.039062 172.460938 C 30.378906 174.039062 30.75 175.609375 31.160156 177.171875 C 31.570312 178.730469 32.015625 180.28125 32.496094 181.824219 C 32.976562 183.363281 33.496094 184.894531 34.046875 186.410156 C 34.597656 187.925781 35.183594 189.429688 35.804688 190.921875 C 36.425781 192.410156 37.078125 193.886719 37.765625 195.34375 C 38.457031 196.804688 39.175781 198.25 39.933594 199.675781 C 40.6875 201.101562 41.472656 202.511719 42.292969 203.902344 C 43.113281 205.292969 43.964844 206.664062 44.847656 208.015625 C 45.730469 209.363281 46.644531 210.695312 47.585938 212.003906 C 48.53125 213.3125 49.503906 214.601562 50.507812 215.867188 L 50.949219 216.527344 L 99.328125 277.066406 C 74.890625 282.242188 60.085938 292.808594 60.085938 305.632812 C 60.085938 326.324219 97.070312 337.5 131.632812 337.5 C 166.195312 337.5 203.183594 326.492188 203.183594 305.632812 C 203.183594 293.304688 189.203125 282.902344 166.085938 277.5625 L 214.90625 216.582031 C 215.125 216.28125 215.328125 215.96875 215.511719 215.644531 C 218.421875 211.960938 221.070312 208.097656 223.457031 204.050781 C 225.84375 200.007812 227.945312 195.820312 229.761719 191.492188 C 231.582031 187.164062 233.097656 182.730469 234.316406 178.195312 C 235.53125 173.660156 236.4375 169.0625 237.03125 164.40625 C 243.675781 166.617188 250.5 167.734375 257.503906 167.761719 C 262.648438 167.75 267.722656 167.140625 272.722656 165.941406 C 277.726562 164.742188 282.523438 162.984375 287.113281 160.664062 C 288.214844 161.929688 289.316406 163.25 290.472656 164.515625 L 291.460938 165.617188 C 297.453125 172.410156 302.679688 179.75 307.148438 187.632812 C 309.1875 190.960938 311.574219 194.027344 314.304688 196.824219 C 315.460938 198.152344 316.738281 199.351562 318.136719 200.425781 C 319.535156 201.5 321.027344 202.425781 322.609375 203.199219 C 324.191406 203.976562 325.835938 204.585938 327.542969 205.03125 C 329.246094 205.476562 330.980469 205.75 332.742188 205.847656 C 334.34375 205.78125 335.925781 205.554688 337.480469 205.171875 C 339.039062 204.785156 340.542969 204.25 341.996094 203.566406 C 343.445312 202.882812 344.816406 202.058594 346.101562 201.097656 C 347.386719 200.140625 348.566406 199.0625 349.636719 197.867188 C 350.824219 196.855469 351.90625 195.742188 352.882812 194.523438 C 353.855469 193.304688 354.707031 192.003906 355.433594 190.625 C 356.160156 189.242188 356.75 187.804688 357.199219 186.3125 C 357.648438 184.816406 357.953125 183.292969 358.113281 181.742188 C 358.085938 179.902344 357.867188 178.085938 357.453125 176.292969 C 357.039062 174.496094 356.441406 172.769531 355.65625 171.101562 C 354.875 169.4375 353.925781 167.871094 352.808594 166.410156 C 351.691406 164.945312 350.433594 163.617188 349.03125 162.425781 C 346.300781 159.621094 343.253906 157.21875 339.894531 155.214844 Z M 192.667969 305.578125 C 192.667969 314.273438 169.554688 326.4375 132.128906 326.4375 C 94.703125 326.4375 71.585938 314.273438 71.585938 305.578125 C 71.585938 299.191406 84.191406 290.605469 107.582031 286.753906 L 110.445312 290.277344 C 111.839844 292.007812 113.414062 293.5625 115.164062 294.9375 C 116.910156 296.3125 118.789062 297.476562 120.800781 298.429688 C 122.8125 299.382812 124.902344 300.101562 127.074219 300.582031 C 129.246094 301.0625 131.445312 301.296875 133.667969 301.285156 C 135.886719 301.289062 138.074219 301.050781 140.234375 300.5625 C 142.398438 300.078125 144.476562 299.359375 146.480469 298.40625 C 148.480469 297.453125 150.347656 296.292969 152.089844 294.921875 C 153.828125 293.546875 155.394531 292 156.785156 290.277344 L 159.261719 287.195312 C 180.78125 291.265625 192.667969 299.523438 192.667969 305.578125 Z M 206.703125 209.589844 C 206.5 209.871094 206.316406 210.164062 206.152344 210.472656 L 147.757812 283.394531 C 146.882812 284.492188 145.898438 285.476562 144.800781 286.347656 C 143.707031 287.222656 142.527344 287.964844 141.265625 288.574219 C 140.003906 289.183594 138.691406 289.644531 137.324219 289.960938 C 135.960938 290.277344 134.574219 290.4375 133.175781 290.441406 C 131.769531 290.441406 130.378906 290.285156 129.007812 289.972656 C 127.636719 289.660156 126.316406 289.199219 125.050781 288.589844 C 123.78125 287.980469 122.597656 287.238281 121.5 286.359375 C 120.398438 285.484375 119.410156 284.496094 118.535156 283.394531 L 114.1875 277.894531 L 60.03125 210.25 C 59.894531 210.039062 59.75 209.835938 59.589844 209.644531 C 58.667969 208.503906 57.777344 207.34375 56.910156 206.160156 C 56.046875 204.976562 55.207031 203.773438 54.398438 202.550781 C 53.589844 201.328125 52.808594 200.089844 52.058594 198.828125 C 51.304688 197.570312 50.585938 196.296875 49.890625 195.003906 C 49.199219 193.710938 48.539062 192.402344 47.90625 191.078125 C 47.277344 189.757812 46.675781 188.417969 46.109375 187.066406 C 45.539062 185.714844 45.003906 184.351562 44.5 182.976562 C 43.996094 181.601562 43.523438 180.210938 43.082031 178.8125 C 42.644531 177.414062 42.234375 176.007812 41.863281 174.589844 C 41.488281 173.171875 41.148438 171.746094 40.839844 170.316406 C 40.53125 168.882812 40.257812 167.441406 40.015625 165.996094 C 39.777344 164.550781 39.570312 163.097656 39.398438 161.640625 C 39.226562 160.1875 39.085938 158.726562 38.984375 157.265625 C 38.878906 155.804688 38.808594 154.339844 38.773438 152.875 C 38.734375 151.410156 38.734375 149.941406 38.765625 148.476562 C 38.800781 147.011719 38.867188 145.546875 38.964844 144.085938 C 39.066406 142.621094 39.203125 141.164062 39.371094 139.707031 C 39.539062 138.25 39.742188 136.800781 39.980469 135.351562 C 40.214844 133.90625 40.484375 132.464844 40.789062 131.03125 C 41.09375 129.597656 41.429688 128.171875 41.800781 126.753906 C 42.171875 125.335938 42.574219 123.925781 43.011719 122.527344 C 43.449219 121.125 43.917969 119.738281 44.417969 118.359375 C 44.917969 116.984375 45.453125 115.617188 46.019531 114.265625 C 46.582031 112.914062 47.179688 111.574219 47.804688 110.25 C 48.433594 108.925781 49.09375 107.613281 49.78125 106.320312 C 50.46875 105.027344 51.1875 103.75 51.9375 102.488281 C 52.683594 101.226562 53.460938 99.984375 54.269531 98.761719 C 55.074219 97.535156 55.910156 96.332031 56.769531 95.148438 C 57.632812 93.960938 58.523438 92.796875 59.441406 91.652344 C 60.359375 90.507812 61.300781 89.386719 62.269531 88.289062 C 63.238281 87.1875 64.234375 86.113281 65.253906 85.058594 C 66.273438 84.003906 67.316406 82.976562 68.382812 81.972656 C 69.453125 80.96875 70.542969 79.988281 71.65625 79.035156 C 72.769531 78.082031 73.90625 77.152344 75.0625 76.253906 C 76.21875 75.351562 77.394531 74.480469 78.59375 73.632812 C 79.789062 72.789062 81.007812 71.972656 82.242188 71.183594 C 83.476562 70.394531 84.730469 69.632812 86.003906 68.902344 C 87.273438 68.171875 88.5625 67.472656 89.863281 66.804688 C 91.167969 66.132812 92.488281 65.492188 93.820312 64.886719 C 95.15625 64.277344 96.5 63.699219 97.863281 63.152344 C 99.222656 62.609375 100.59375 62.09375 101.980469 61.613281 C 103.363281 61.132812 104.761719 60.683594 106.164062 60.265625 C 107.570312 59.851562 108.984375 59.464844 110.410156 59.117188 C 111.832031 58.765625 113.261719 58.449219 114.703125 58.164062 C 116.140625 57.882812 117.582031 57.632812 119.035156 57.417969 C 120.484375 57.199219 121.9375 57.019531 123.398438 56.871094 C 124.855469 56.722656 126.316406 56.609375 127.78125 56.527344 C 129.242188 56.449219 130.707031 56.402344 132.175781 56.390625 C 133.640625 56.378906 135.105469 56.402344 136.570312 56.460938 C 138.035156 56.515625 139.496094 56.605469 140.957031 56.730469 C 142.417969 56.859375 143.875 57.015625 145.328125 57.210938 C 146.78125 57.402344 148.230469 57.628906 149.671875 57.890625 C 151.113281 58.152344 152.550781 58.445312 153.980469 58.773438 C 155.410156 59.101562 156.828125 59.464844 158.242188 59.859375 C 159.652344 60.253906 161.054688 60.679688 162.445312 61.140625 C 163.839844 61.597656 165.21875 62.089844 166.589844 62.613281 C 167.957031 63.140625 169.3125 63.695312 170.65625 64.28125 C 172 64.871094 173.328125 65.488281 174.640625 66.136719 C 175.957031 66.789062 177.253906 67.46875 178.535156 68.179688 C 179.820312 68.886719 181.085938 69.628906 182.332031 70.398438 C 183.578125 71.167969 184.808594 71.964844 186.019531 72.792969 C 187.230469 73.617188 188.421875 74.472656 189.589844 75.355469 C 190.761719 76.238281 191.910156 77.148438 193.039062 78.082031 C 194.167969 79.019531 195.273438 79.980469 196.355469 80.96875 C 195.335938 83.851562 194.519531 86.796875 193.914062 89.796875 C 193.308594 92.796875 192.914062 95.824219 192.738281 98.878906 C 192.558594 101.933594 192.597656 104.988281 192.851562 108.039062 C 193.105469 111.085938 193.574219 114.105469 194.257812 117.089844 C 194.9375 120.074219 195.824219 122.992188 196.917969 125.851562 C 198.015625 128.710938 199.304688 131.476562 200.789062 134.152344 C 202.277344 136.828125 203.941406 139.386719 205.792969 141.828125 C 207.640625 144.265625 209.648438 146.5625 211.824219 148.71875 C 216.324219 153.105469 221.351562 156.777344 226.902344 159.726562 C 226.484375 164.265625 225.738281 168.746094 224.660156 173.171875 C 223.585938 177.601562 222.191406 181.925781 220.480469 186.148438 C 218.769531 190.371094 216.761719 194.445312 214.453125 198.375 C 212.144531 202.304688 209.5625 206.042969 206.703125 209.589844 Z M 258 156.699219 C 256.886719 156.699219 255.777344 156.664062 254.667969 156.59375 C 253.558594 156.523438 252.453125 156.421875 251.351562 156.285156 C 250.25 156.144531 249.152344 155.976562 248.058594 155.769531 C 246.96875 155.566406 245.882812 155.328125 244.804688 155.058594 C 243.726562 154.785156 242.660156 154.484375 241.601562 154.148438 C 240.542969 153.808594 239.492188 153.441406 238.457031 153.039062 C 237.421875 152.640625 236.398438 152.207031 235.386719 151.746094 C 234.378906 151.28125 233.382812 150.785156 232.402344 150.261719 C 231.425781 149.738281 230.460938 149.183594 229.515625 148.601562 C 228.570312 148.015625 227.644531 147.40625 226.734375 146.765625 C 225.828125 146.125 224.941406 145.457031 224.070312 144.761719 C 223.203125 144.066406 222.359375 143.347656 221.535156 142.601562 C 220.714844 141.855469 219.914062 141.082031 219.136719 140.289062 C 218.363281 139.492188 217.613281 138.675781 216.886719 137.832031 C 216.160156 136.992188 215.460938 136.128906 214.789062 135.242188 C 214.117188 134.359375 213.472656 133.457031 212.855469 132.53125 C 212.238281 131.609375 211.648438 130.664062 211.089844 129.707031 C 210.527344 128.746094 210 127.769531 209.5 126.777344 C 209 125.785156 208.53125 124.777344 208.09375 123.757812 C 207.65625 122.734375 207.25 121.703125 206.875 120.65625 C 206.5 119.609375 206.15625 118.554688 205.847656 117.484375 C 205.539062 116.417969 205.261719 115.34375 205.015625 114.257812 C 204.773438 113.175781 204.5625 112.085938 204.386719 110.988281 C 204.207031 109.890625 204.066406 108.789062 203.957031 107.683594 C 203.847656 106.578125 203.769531 105.46875 203.730469 104.359375 C 203.6875 103.25 203.679688 102.140625 203.707031 101.027344 C 203.734375 99.917969 203.792969 98.808594 203.886719 97.703125 C 203.980469 96.59375 204.109375 95.492188 204.273438 94.390625 C 204.433594 93.292969 204.628906 92.199219 204.859375 91.113281 C 205.089844 90.023438 205.351562 88.945312 205.644531 87.875 C 205.941406 86.804688 206.269531 85.742188 206.628906 84.691406 C 206.988281 83.640625 207.382812 82.601562 207.804688 81.574219 L 207.804688 81.1875 C 208.851562 78.753906 210.066406 76.410156 211.453125 74.152344 C 212.839844 71.894531 214.382812 69.75 216.082031 67.71875 C 217.78125 65.6875 219.621094 63.789062 221.597656 62.023438 C 223.570312 60.257812 225.664062 58.648438 227.875 57.1875 C 230.085938 55.730469 232.390625 54.4375 234.792969 53.3125 C 237.191406 52.191406 239.65625 51.246094 242.195312 50.484375 C 244.730469 49.71875 247.308594 49.144531 249.929688 48.753906 C 252.550781 48.367188 255.183594 48.171875 257.835938 48.164062 C 259.613281 48.164062 261.386719 48.253906 263.160156 48.425781 C 264.929688 48.601562 266.6875 48.863281 268.433594 49.210938 C 270.175781 49.558594 271.902344 49.988281 273.601562 50.503906 C 275.304688 51.019531 276.980469 51.621094 278.621094 52.300781 C 280.265625 52.980469 281.871094 53.742188 283.441406 54.582031 C 285.011719 55.417969 286.535156 56.332031 288.015625 57.320312 C 289.492188 58.308594 290.921875 59.367188 292.296875 60.496094 C 293.671875 61.625 294.988281 62.820312 296.246094 64.078125 C 297.503906 65.335938 298.695312 66.652344 299.824219 68.027344 C 300.953125 69.402344 302.011719 70.828125 303 72.308594 C 303.988281 73.789062 304.902344 75.3125 305.742188 76.878906 C 306.582031 78.449219 307.339844 80.054688 308.019531 81.699219 C 308.703125 83.34375 309.300781 85.015625 309.816406 86.71875 C 310.332031 88.421875 310.765625 90.144531 311.113281 91.890625 C 311.460938 93.636719 311.71875 95.394531 311.894531 97.164062 C 312.070312 98.933594 312.15625 100.707031 312.15625 102.488281 C 312.15625 104.265625 312.070312 106.042969 311.894531 107.8125 C 311.71875 109.582031 311.460938 111.339844 311.113281 113.085938 C 310.765625 114.832031 310.332031 116.554688 309.816406 118.257812 C 309.300781 119.960938 308.703125 121.632812 308.019531 123.277344 C 307.339844 124.917969 306.582031 126.527344 305.742188 128.09375 C 304.902344 129.664062 303.988281 131.1875 303 132.667969 C 302.011719 134.148438 300.953125 135.574219 299.824219 136.949219 C 298.695312 138.324219 297.503906 139.640625 296.246094 140.898438 C 294.988281 142.15625 293.671875 143.351562 292.296875 144.480469 C 290.921875 145.609375 289.492188 146.667969 288.015625 147.65625 C 286.535156 148.644531 285.011719 149.558594 283.441406 150.394531 C 281.871094 151.234375 280.265625 151.996094 278.621094 152.675781 C 276.980469 153.355469 275.304688 153.953125 273.601562 154.472656 C 271.902344 154.988281 270.175781 155.417969 268.433594 155.765625 C 266.6875 156.113281 264.929688 156.375 263.160156 156.546875 C 261.386719 156.722656 259.613281 156.808594 257.835938 156.808594 Z M 342.371094 189.722656 C 335.65625 196.382812 329.933594 196.105469 322.613281 188.730469 C 320.480469 186.59375 318.648438 184.230469 317.109375 181.632812 C 312.246094 173.183594 306.578125 165.3125 300.101562 158.019531 L 299.113281 156.921875 C 298.398438 156.148438 297.738281 155.324219 297.019531 154.5 C 299.558594 152.761719 301.945312 150.835938 304.175781 148.71875 C 305.386719 147.5625 306.433594 146.296875 307.535156 145.03125 C 308.039062 145.519531 308.570312 145.980469 309.128906 146.40625 L 310.671875 147.785156 C 317.949219 154.359375 325.855469 160.066406 334.390625 164.902344 C 336.929688 166.429688 339.222656 168.261719 341.269531 170.402344 C 342.96875 171.753906 344.320312 173.386719 345.335938 175.300781 C 346.351562 177.214844 346.941406 179.25 347.105469 181.410156 C 346.859375 183.066406 346.328125 184.621094 345.515625 186.082031 C 344.699219 187.542969 343.652344 188.8125 342.371094 189.886719 Z M 286.894531 73.484375 C 285.472656 72.066406 283.953125 70.765625 282.339844 69.574219 C 280.722656 68.382812 279.03125 67.3125 277.257812 66.371094 C 275.488281 65.429688 273.65625 64.621094 271.765625 63.949219 C 269.875 63.277344 267.945312 62.746094 265.976562 62.355469 C 264.007812 61.96875 262.023438 61.726562 260.015625 61.628906 C 258.011719 61.53125 256.011719 61.582031 254.015625 61.78125 C 252.019531 61.980469 250.046875 62.324219 248.101562 62.8125 C 246.15625 63.300781 244.253906 63.929688 242.402344 64.695312 C 240.546875 65.464844 238.757812 66.363281 237.039062 67.394531 C 235.316406 68.425781 233.679688 69.578125 232.128906 70.851562 C 230.574219 72.125 229.125 73.503906 227.777344 74.988281 C 226.429688 76.472656 225.195312 78.050781 224.078125 79.71875 C 222.960938 81.386719 221.972656 83.125 221.113281 84.9375 C 220.253906 86.75 219.527344 88.617188 218.941406 90.535156 C 218.355469 92.457031 217.914062 94.40625 217.617188 96.390625 C 217.316406 98.375 217.167969 100.371094 217.160156 102.378906 C 217.164062 103.714844 217.234375 105.046875 217.367188 106.378906 C 217.503906 107.707031 217.699219 109.027344 217.964844 110.335938 C 218.226562 111.648438 218.554688 112.941406 218.945312 114.21875 C 219.335938 115.5 219.785156 116.753906 220.300781 117.988281 C 220.8125 119.222656 221.382812 120.429688 222.015625 121.605469 C 222.648438 122.785156 223.335938 123.929688 224.078125 125.039062 C 224.820312 126.152344 225.617188 127.222656 226.464844 128.253906 C 227.3125 129.289062 228.210938 130.277344 229.15625 131.222656 C 230.101562 132.167969 231.089844 133.0625 232.121094 133.914062 C 233.15625 134.761719 234.226562 135.554688 235.335938 136.300781 C 236.449219 137.042969 237.59375 137.730469 238.769531 138.363281 C 239.949219 138.992188 241.15625 139.566406 242.386719 140.078125 C 243.621094 140.589844 244.878906 141.042969 246.15625 141.433594 C 247.433594 141.824219 248.730469 142.148438 250.039062 142.414062 C 251.351562 142.675781 252.671875 142.875 254 143.007812 C 255.328125 143.144531 256.664062 143.210938 258 143.214844 C 260.007812 143.21875 262.007812 143.070312 263.996094 142.777344 C 265.984375 142.484375 267.941406 142.046875 269.863281 141.464844 C 271.785156 140.882812 273.65625 140.164062 275.472656 139.304688 C 277.289062 138.445312 279.035156 137.460938 280.707031 136.34375 C 282.378906 135.230469 283.957031 133.996094 285.449219 132.648438 C 286.9375 131.300781 288.320312 129.847656 289.59375 128.296875 C 290.871094 126.742188 292.023438 125.105469 293.058594 123.378906 C 294.09375 121.65625 294.992188 119.867188 295.761719 118.011719 C 296.53125 116.152344 297.160156 114.25 297.648438 112.300781 C 298.136719 110.351562 298.480469 108.378906 298.675781 106.378906 C 298.875 104.378906 298.921875 102.375 298.824219 100.367188 C 298.726562 98.359375 298.480469 96.371094 298.085938 94.402344 C 297.695312 92.429688 297.160156 90.5 296.480469 88.605469 C 295.804688 86.714844 294.992188 84.882812 294.042969 83.113281 C 293.09375 81.339844 292.023438 79.648438 290.824219 78.035156 C 289.625 76.421875 288.316406 74.902344 286.894531 73.484375 Z M 279.078125 123.457031 C 277.699219 124.847656 276.195312 126.085938 274.566406 127.179688 C 272.941406 128.269531 271.222656 129.191406 269.414062 129.941406 C 267.605469 130.691406 265.742188 131.257812 263.820312 131.640625 C 261.898438 132.023438 259.957031 132.210938 258 132.207031 C 256.855469 132.210938 255.71875 132.148438 254.582031 132.019531 C 253.445312 131.890625 252.324219 131.695312 251.210938 131.4375 C 250.097656 131.179688 249 130.859375 247.925781 130.476562 C 246.847656 130.09375 245.796875 129.652344 244.773438 129.148438 C 243.746094 128.644531 242.753906 128.082031 241.792969 127.464844 C 240.832031 126.847656 239.90625 126.175781 239.023438 125.453125 C 238.140625 124.730469 237.300781 123.957031 236.503906 123.136719 C 235.707031 122.316406 234.960938 121.453125 234.265625 120.550781 C 233.566406 119.644531 232.925781 118.699219 232.335938 117.722656 C 231.746094 116.742188 231.214844 115.734375 230.742188 114.691406 C 230.269531 113.652344 229.859375 112.589844 229.507812 111.5 C 229.15625 110.414062 228.871094 109.308594 228.644531 108.191406 C 228.421875 107.070312 228.261719 105.941406 228.167969 104.800781 C 228.070312 103.664062 228.042969 102.523438 228.078125 101.378906 C 228.113281 100.238281 228.214844 99.101562 228.382812 97.972656 C 228.546875 96.839844 228.777344 95.722656 229.074219 94.621094 C 229.367188 93.515625 229.722656 92.433594 230.144531 91.367188 C 230.5625 90.304688 231.039062 89.269531 231.578125 88.261719 C 232.117188 87.253906 232.710938 86.28125 233.359375 85.339844 C 234.007812 84.398438 234.707031 83.5 235.460938 82.640625 C 236.214844 81.78125 237.011719 80.964844 237.859375 80.199219 C 238.703125 79.429688 239.59375 78.710938 240.519531 78.046875 C 241.449219 77.378906 242.410156 76.769531 243.410156 76.210938 C 244.410156 75.65625 245.433594 75.160156 246.492188 74.722656 C 247.546875 74.285156 248.621094 73.90625 249.722656 73.59375 C 250.820312 73.277344 251.933594 73.027344 253.058594 72.839844 C 254.1875 72.652344 255.320312 72.53125 256.460938 72.472656 C 257.601562 72.417969 258.742188 72.425781 259.882812 72.5 C 261.023438 72.574219 262.15625 72.714844 263.28125 72.917969 C 264.40625 73.121094 265.515625 73.386719 266.609375 73.71875 C 267.703125 74.050781 268.773438 74.441406 269.820312 74.898438 C 270.871094 75.351562 271.890625 75.863281 272.878906 76.433594 C 273.867188 77.003906 274.824219 77.628906 275.742188 78.3125 C 276.660156 78.992188 277.535156 79.722656 278.371094 80.503906 C 279.203125 81.28125 279.992188 82.109375 280.730469 82.980469 C 281.46875 83.851562 282.15625 84.761719 282.792969 85.710938 C 283.425781 86.660156 284.003906 87.644531 284.527344 88.660156 C 285.050781 89.675781 285.511719 90.71875 285.914062 91.789062 C 286.320312 92.859375 286.660156 93.945312 286.9375 95.054688 C 287.214844 96.164062 287.429688 97.285156 287.578125 98.417969 C 287.726562 99.550781 287.8125 100.6875 287.832031 101.828125 C 287.847656 102.972656 287.800781 104.113281 287.691406 105.25 C 287.578125 106.386719 287.402344 107.511719 287.160156 108.628906 C 286.921875 109.746094 286.617188 110.847656 286.25 111.929688 C 285.882812 113.011719 285.453125 114.066406 284.964844 115.101562 C 284.476562 116.132812 283.929688 117.136719 283.328125 118.105469 C 282.722656 119.074219 282.066406 120.007812 281.355469 120.902344 C 280.644531 121.796875 279.886719 122.648438 279.078125 123.457031 Z M 279.078125 123.457031 " fill-opacity="1" fill-rule="nonzero"/></g></svg>