<svg xmlns="http://www.w3.org/2000/svg" xmlns:xlink="http://www.w3.org/1999/xlink" width="500" zoomAndPan="magnify" viewBox="0 0 375 374.999991" height="500" preserveAspectRatio="xMidYMid meet" version="1.0"><defs><clipPath id="273669b7e9"><path d="M 19.445312 61 L 308 61 L 308 306 L 19.445312 306 Z M 19.445312 61 " clip-rule="nonzero"/></clipPath><clipPath id="330c2a6b84"><path d="M 121 22.804688 L 206 22.804688 L 206 104 L 121 104 Z M 121 22.804688 " clip-rule="nonzero"/></clipPath></defs><g clip-path="url(#273669b7e9)"><path fill="#1c1d28" d="M 195.480469 115.3125 L 131.015625 115.3125 L 131.015625 107.449219 L 195.480469 107.449219 Z M 195.480469 107.449219 C 197.65625 107.449219 199.414062 109.210938 199.414062 111.378906 C 199.414062 113.550781 197.65625 115.3125 195.480469 115.3125 Z M 208.160156 120.128906 L 200.300781 120.128906 L 200.292969 119.875 L 200.277344 119.632812 L 200.246094 119.390625 L 200.203125 119.164062 L 200.148438 118.929688 L 200.085938 118.699219 L 200.007812 118.480469 L 199.925781 118.265625 L 199.828125 118.050781 L 199.71875 117.84375 L 199.601562 117.636719 L 199.476562 117.445312 L 199.339844 117.25 L 199.203125 117.070312 L 199.050781 116.890625 L 198.882812 116.726562 L 198.71875 116.5625 L 198.539062 116.410156 L 198.359375 116.269531 L 198.167969 116.132812 L 197.972656 116.007812 L 197.765625 115.890625 L 197.558594 115.78125 L 197.34375 115.683594 L 197.132812 115.601562 L 196.910156 115.527344 L 196.683594 115.464844 L 196.449219 115.40625 L 196.21875 115.367188 L 195.980469 115.332031 L 195.738281 115.320312 L 195.480469 115.3125 L 195.480469 107.449219 L 196.128906 107.464844 L 196.78125 107.511719 L 197.40625 107.59375 L 198.035156 107.707031 L 198.648438 107.851562 L 199.25 108.015625 L 199.84375 108.214844 L 200.421875 108.453125 L 200.984375 108.699219 L 201.527344 108.984375 L 202.058594 109.285156 L 202.570312 109.617188 L 203.066406 109.96875 L 203.550781 110.347656 L 204.003906 110.75 L 204.445312 111.164062 L 204.859375 111.605469 L 205.261719 112.0625 L 205.640625 112.542969 L 205.992188 113.039062 L 206.316406 113.550781 L 206.628906 114.082031 L 206.910156 114.628906 L 207.160156 115.195312 L 207.386719 115.765625 L 207.59375 116.359375 L 207.761719 116.960938 L 207.90625 117.574219 L 208.015625 118.203125 L 208.097656 118.839844 L 208.144531 119.480469 Z M 208.160156 120.128906 C 208.160156 122.296875 206.398438 124.054688 204.234375 124.054688 C 202.058594 124.054688 200.300781 122.296875 200.300781 120.128906 Z M 200.300781 296.789062 L 200.300781 120.128906 L 208.160156 120.128906 L 208.160156 296.789062 L 207.015625 299.570312 Z M 208.160156 296.789062 C 208.160156 298.960938 206.398438 300.722656 204.234375 300.722656 C 202.058594 300.722656 200.300781 298.960938 200.300781 296.789062 Z M 196.34375 299.113281 L 201.453125 294.007812 L 207.015625 299.570312 L 201.90625 304.675781 L 199.125 305.820312 Z M 201.90625 304.675781 C 200.375 306.207031 197.882812 306.207031 196.34375 304.675781 C 194.8125 303.136719 194.8125 300.644531 196.34375 299.113281 Z M 122.269531 297.960938 L 199.125 297.960938 L 199.125 305.820312 L 122.269531 305.820312 L 118.335938 301.894531 Z M 122.269531 305.820312 C 120.097656 305.820312 118.335938 304.0625 118.335938 301.894531 C 118.335938 299.722656 120.097656 297.960938 122.269531 297.960938 Z M 126.199219 120.128906 L 126.199219 301.894531 L 118.335938 301.894531 L 118.335938 120.128906 Z M 118.335938 120.128906 C 118.335938 117.953125 120.097656 116.195312 122.269531 116.195312 C 124.4375 116.195312 126.199219 117.953125 126.199219 120.128906 Z M 131.015625 107.449219 L 131.015625 115.3125 L 130.765625 115.320312 L 130.523438 115.332031 L 130.28125 115.367188 L 130.046875 115.40625 L 129.8125 115.464844 L 129.585938 115.527344 L 129.367188 115.601562 L 129.152344 115.683594 L 128.9375 115.78125 L 128.730469 115.890625 L 128.53125 116.007812 L 128.328125 116.132812 L 128.136719 116.269531 L 127.964844 116.410156 L 127.785156 116.5625 L 127.613281 116.726562 L 127.453125 116.890625 L 127.300781 117.070312 L 127.15625 117.25 L 127.027344 117.445312 L 126.894531 117.636719 L 126.777344 117.84375 L 126.671875 118.050781 L 126.578125 118.265625 L 126.488281 118.480469 L 126.417969 118.699219 L 126.347656 118.929688 L 126.292969 119.164062 L 126.253906 119.390625 L 126.226562 119.632812 L 126.203125 119.875 L 126.199219 120.128906 L 118.335938 120.128906 L 118.351562 119.480469 L 118.398438 118.839844 L 118.480469 118.203125 L 118.59375 117.574219 L 118.738281 116.960938 L 118.910156 116.359375 L 119.109375 115.765625 L 119.335938 115.195312 L 119.59375 114.628906 L 119.875 114.082031 L 120.179688 113.550781 L 120.511719 113.039062 L 120.863281 112.542969 L 121.242188 112.0625 L 121.636719 111.605469 L 122.054688 111.164062 L 122.492188 110.75 L 122.953125 110.347656 L 123.429688 109.96875 L 123.925781 109.617188 L 124.445312 109.285156 L 124.96875 108.984375 L 125.519531 108.699219 L 126.082031 108.453125 L 126.660156 108.214844 L 127.253906 108.015625 L 127.855469 107.851562 L 128.46875 107.707031 L 129.089844 107.59375 L 129.722656 107.511719 L 130.367188 107.464844 Z M 131.015625 107.449219 C 133.1875 107.449219 134.949219 109.210938 134.949219 111.378906 C 134.949219 113.550781 133.1875 115.3125 131.015625 115.3125 Z M 268.464844 107.859375 L 261.179688 85.28125 L 268.660156 82.867188 L 275.945312 105.441406 L 272.214844 110.578125 Z M 275.945312 105.441406 C 276.617188 107.507812 275.476562 109.722656 273.414062 110.390625 C 271.34375 111.054688 269.128906 109.921875 268.464844 107.859375 Z M 295.933594 110.535156 L 272.214844 110.578125 L 272.199219 102.714844 L 295.914062 102.675781 L 295.921875 102.675781 Z M 295.914062 102.675781 C 298.085938 102.667969 299.847656 104.421875 299.855469 106.59375 C 299.859375 108.769531 298.101562 110.527344 295.933594 110.535156 Z M 302.441406 107.402344 L 294.96875 109.832031 L 294.976562 109.859375 L 294.988281 109.894531 L 295.007812 109.933594 L 295.015625 109.957031 L 295.035156 109.992188 L 295.058594 110.023438 L 295.078125 110.058594 L 295.105469 110.101562 L 295.132812 110.136719 L 295.152344 110.164062 L 295.183594 110.191406 L 295.210938 110.226562 L 295.238281 110.246094 L 295.265625 110.273438 L 295.3125 110.308594 L 295.347656 110.335938 L 295.382812 110.355469 L 295.410156 110.375 L 295.449219 110.40625 L 295.535156 110.445312 L 295.5625 110.460938 L 295.589844 110.464844 L 295.644531 110.488281 L 295.679688 110.5 L 295.726562 110.507812 L 295.78125 110.523438 L 295.835938 110.527344 L 295.863281 110.527344 L 295.898438 110.535156 L 295.925781 110.535156 L 295.921875 102.675781 L 296.191406 102.675781 L 296.457031 102.6875 L 296.726562 102.714844 L 297.011719 102.757812 L 297.265625 102.800781 L 297.523438 102.855469 L 297.789062 102.921875 L 298.046875 103 L 298.316406 103.097656 L 298.558594 103.183594 L 298.792969 103.289062 L 299.039062 103.40625 L 299.28125 103.539062 L 299.515625 103.675781 L 299.738281 103.8125 L 299.949219 103.964844 L 300.164062 104.125 L 300.386719 104.304688 L 300.585938 104.484375 L 300.773438 104.664062 L 300.957031 104.855469 L 301.132812 105.054688 L 301.296875 105.257812 L 301.460938 105.476562 L 301.621094 105.703125 L 301.765625 105.925781 L 301.902344 106.167969 L 302.027344 106.402344 L 302.144531 106.636719 L 302.257812 106.890625 L 302.359375 107.148438 Z M 302.441406 107.402344 C 303.117188 109.464844 301.988281 111.6875 299.921875 112.359375 C 297.859375 113.027344 295.636719 111.902344 294.96875 109.832031 Z M 299.945312 115.070312 L 295.332031 108.699219 L 295.3125 108.71875 L 295.277344 108.75 L 295.257812 108.761719 L 295.238281 108.789062 L 295.203125 108.816406 L 295.183594 108.84375 L 295.15625 108.878906 L 295.125 108.90625 L 295.085938 108.976562 L 295.058594 109.015625 L 295.035156 109.058594 L 295.023438 109.09375 L 295.007812 109.121094 L 294.988281 109.167969 L 294.976562 109.222656 L 294.953125 109.292969 L 294.941406 109.335938 L 294.933594 109.371094 L 294.933594 109.417969 L 294.925781 109.472656 L 294.917969 109.515625 L 294.917969 109.578125 L 294.925781 109.625 L 294.925781 109.660156 L 294.933594 109.695312 L 294.941406 109.734375 L 294.949219 109.777344 L 294.960938 109.8125 L 294.96875 109.832031 L 302.441406 107.402344 L 302.523438 107.65625 L 302.59375 107.925781 L 302.648438 108.195312 L 302.699219 108.464844 L 302.738281 108.726562 L 302.761719 108.996094 L 302.78125 109.273438 L 302.789062 109.542969 L 302.78125 109.796875 L 302.765625 110.066406 L 302.738281 110.34375 L 302.699219 110.613281 L 302.65625 110.867188 L 302.59375 111.136719 L 302.523438 111.398438 L 302.457031 111.640625 L 302.367188 111.902344 L 302.261719 112.15625 L 302.160156 112.390625 L 302.042969 112.625 L 301.910156 112.867188 L 301.773438 113.109375 L 301.628906 113.332031 L 301.476562 113.550781 L 301.3125 113.765625 L 301.144531 113.972656 L 300.957031 114.171875 L 300.773438 114.371094 L 300.578125 114.550781 L 300.378906 114.730469 L 300.15625 114.910156 Z M 299.945312 115.070312 C 298.183594 116.347656 295.726562 115.945312 294.457031 114.195312 C 293.179688 112.433594 293.582031 109.96875 295.332031 108.699219 Z M 276.121094 122.605469 L 295.332031 108.699219 L 299.945312 115.070312 L 280.730469 128.976562 L 274.691406 127.015625 Z M 280.730469 128.976562 C 278.96875 130.253906 276.511719 129.851562 275.238281 128.101562 C 273.964844 126.339844 274.359375 123.882812 276.121094 122.605469 Z M 282.0625 149.558594 L 274.691406 127.015625 L 282.160156 124.574219 L 289.535156 147.113281 Z M 289.535156 147.113281 C 290.207031 149.175781 289.082031 151.398438 287.015625 152.070312 C 284.953125 152.746094 282.738281 151.621094 282.0625 149.558594 Z M 287.046875 154.789062 L 282.429688 148.425781 L 282.40625 148.445312 L 282.378906 148.464844 L 282.351562 148.488281 L 282.269531 148.570312 L 282.242188 148.613281 L 282.222656 148.640625 L 282.199219 148.667969 L 282.179688 148.695312 L 282.160156 148.734375 L 282.136719 148.777344 L 282.117188 148.820312 L 282.101562 148.847656 L 282.082031 148.894531 L 282.070312 148.9375 L 282.054688 148.976562 L 282.046875 149.019531 L 282.042969 149.054688 L 282.027344 149.101562 L 282.019531 149.144531 L 282.019531 149.191406 L 282.015625 149.226562 L 282.015625 149.308594 L 282.019531 149.34375 L 282.027344 149.390625 L 282.027344 149.425781 L 282.035156 149.460938 L 282.046875 149.5 L 282.054688 149.53125 L 282.0625 149.558594 L 289.535156 147.113281 L 289.613281 147.375 L 289.679688 147.632812 L 289.742188 147.902344 L 289.792969 148.167969 L 289.828125 148.433594 L 289.855469 148.707031 L 289.875 148.976562 L 289.882812 149.246094 L 289.875 149.507812 L 289.859375 149.777344 L 289.832031 150.046875 L 289.796875 150.316406 L 289.75 150.585938 L 289.695312 150.839844 L 289.625 151.101562 L 289.550781 151.351562 L 289.460938 151.605469 L 289.363281 151.863281 L 289.261719 152.105469 L 289.144531 152.34375 L 289.011719 152.585938 L 288.875 152.820312 L 288.730469 153.042969 L 288.578125 153.257812 L 288.417969 153.46875 L 288.246094 153.683594 L 288.058594 153.890625 L 287.875 154.085938 L 287.679688 154.269531 L 287.472656 154.449219 L 287.265625 154.621094 L 287.050781 154.789062 Z M 287.050781 154.789062 C 285.292969 156.058594 282.835938 155.671875 281.558594 153.917969 C 280.28125 152.160156 280.675781 149.703125 282.429688 148.425781 Z M 278.984375 154.78125 L 283.621094 148.425781 L 283.585938 148.40625 L 283.558594 148.382812 L 283.539062 148.371094 L 283.503906 148.355469 L 283.46875 148.34375 L 283.433594 148.320312 L 283.394531 148.308594 L 283.3125 148.28125 L 283.277344 148.273438 L 283.234375 148.257812 L 283.195312 148.253906 L 283.152344 148.246094 L 283.078125 148.246094 L 283.019531 148.238281 L 282.972656 148.246094 L 282.890625 148.246094 L 282.855469 148.253906 L 282.820312 148.257812 L 282.765625 148.273438 L 282.722656 148.28125 L 282.691406 148.292969 L 282.648438 148.308594 L 282.613281 148.320312 L 282.585938 148.335938 L 282.539062 148.355469 L 282.511719 148.371094 L 282.484375 148.390625 L 282.457031 148.40625 L 282.425781 148.425781 L 287.042969 154.789062 L 286.824219 154.941406 L 286.597656 155.085938 L 286.363281 155.222656 L 286.132812 155.347656 L 285.878906 155.472656 L 285.628906 155.582031 L 285.382812 155.679688 L 285.125 155.769531 L 284.878906 155.84375 L 284.617188 155.914062 L 284.339844 155.976562 L 284.078125 156.023438 L 283.820312 156.058594 L 283.558594 156.085938 L 283.289062 156.101562 L 283.019531 156.105469 L 282.738281 156.101562 L 282.46875 156.078125 L 282.214844 156.058594 L 281.953125 156.015625 L 281.6875 155.96875 L 281.421875 155.914062 L 281.171875 155.84375 L 280.917969 155.769531 L 280.652344 155.679688 L 280.398438 155.574219 L 280.148438 155.464844 L 279.910156 155.347656 L 279.667969 155.214844 L 279.445312 155.085938 L 279.210938 154.941406 L 278.984375 154.773438 Z M 278.984375 154.773438 C 277.230469 153.496094 276.84375 151.039062 278.128906 149.289062 C 279.40625 147.535156 281.867188 147.148438 283.621094 148.425781 Z M 264.457031 134.449219 L 283.621094 148.425781 L 278.984375 154.78125 L 259.824219 140.800781 L 259.824219 134.449219 Z M 259.824219 140.800781 C 258.070312 139.523438 257.6875 137.058594 258.960938 135.304688 C 260.246094 133.550781 262.703125 133.164062 264.457031 134.449219 Z M 240.660156 148.425781 L 259.824219 134.449219 L 264.457031 140.800781 L 245.296875 154.78125 L 245.289062 154.78125 Z M 245.296875 154.78125 C 243.539062 156.058594 241.082031 155.671875 239.804688 153.917969 C 238.519531 152.164062 238.90625 149.707031 240.660156 148.425781 Z M 237.230469 154.789062 L 241.855469 148.425781 L 241.824219 148.40625 L 241.796875 148.390625 L 241.769531 148.371094 L 241.734375 148.355469 L 241.703125 148.335938 L 241.675781 148.320312 L 241.625 148.308594 L 241.589844 148.292969 L 241.550781 148.28125 L 241.507812 148.265625 L 241.472656 148.257812 L 241.433594 148.253906 L 241.382812 148.246094 L 241.335938 148.246094 L 241.308594 148.238281 L 241.21875 148.238281 L 241.175781 148.246094 L 241.113281 148.253906 L 241.074219 148.253906 L 241.054688 148.257812 L 241.019531 148.265625 L 240.964844 148.28125 L 240.921875 148.292969 L 240.878906 148.308594 L 240.847656 148.320312 L 240.8125 148.335938 L 240.785156 148.347656 L 240.75 148.371094 L 240.722656 148.382812 L 240.6875 148.40625 L 240.660156 148.425781 L 245.289062 154.78125 L 245.070312 154.941406 L 244.835938 155.085938 L 244.605469 155.222656 L 244.367188 155.347656 L 244.125 155.464844 L 243.882812 155.574219 L 243.632812 155.671875 L 243.378906 155.761719 L 243.125 155.84375 L 242.847656 155.914062 L 242.585938 155.96875 L 242.34375 156.015625 L 242.082031 156.050781 L 241.796875 156.078125 L 241.527344 156.101562 L 240.992188 156.101562 L 240.734375 156.085938 L 240.472656 156.058594 L 240.191406 156.015625 L 239.929688 155.96875 L 239.679688 155.914062 L 239.410156 155.84375 L 239.15625 155.769531 L 238.90625 155.679688 L 238.644531 155.574219 L 238.402344 155.472656 L 238.160156 155.355469 L 237.917969 155.222656 L 237.683594 155.085938 L 237.457031 154.941406 L 237.238281 154.789062 Z M 237.238281 154.789062 C 235.476562 153.511719 235.082031 151.054688 236.359375 149.292969 C 237.636719 147.542969 240.09375 147.148438 241.855469 148.425781 Z M 234.746094 147.113281 L 242.21875 149.558594 L 242.234375 149.523438 L 242.238281 149.5 L 242.246094 149.460938 L 242.253906 149.417969 L 242.261719 149.390625 L 242.261719 149.34375 L 242.269531 149.308594 L 242.269531 149.234375 L 242.261719 149.191406 L 242.261719 149.144531 L 242.253906 149.101562 L 242.246094 149.054688 L 242.238281 149.019531 L 242.226562 148.96875 L 242.210938 148.9375 L 242.199219 148.894531 L 242.179688 148.847656 L 242.164062 148.8125 L 242.144531 148.769531 L 242.128906 148.742188 L 242.117188 148.714844 L 242.082031 148.667969 L 242.054688 148.632812 L 242.03125 148.597656 L 242.011719 148.570312 L 241.929688 148.488281 L 241.902344 148.464844 L 241.875 148.445312 L 241.855469 148.425781 L 237.230469 154.789062 L 237.015625 154.621094 L 236.808594 154.449219 L 236.601562 154.269531 L 236.410156 154.085938 L 236.214844 153.882812 L 236.035156 153.683594 L 235.863281 153.476562 L 235.703125 153.261719 L 235.550781 153.042969 L 235.402344 152.800781 L 235.269531 152.578125 L 235.144531 152.351562 L 235.027344 152.109375 L 234.917969 151.863281 L 234.820312 151.605469 L 234.730469 151.351562 L 234.65625 151.101562 L 234.585938 150.839844 L 234.53125 150.585938 L 234.484375 150.316406 L 234.449219 150.046875 L 234.421875 149.777344 L 234.40625 149.515625 L 234.40625 148.976562 L 234.425781 148.714844 L 234.457031 148.433594 L 234.488281 148.167969 L 234.539062 147.902344 L 234.601562 147.632812 L 234.667969 147.375 Z M 234.746094 147.113281 C 235.421875 145.050781 237.644531 143.925781 239.707031 144.601562 C 241.769531 145.269531 242.894531 147.492188 242.21875 149.558594 Z M 249.589844 127.015625 L 242.21875 149.558594 L 234.746094 147.113281 L 242.121094 124.574219 L 248.160156 122.605469 Z M 242.121094 124.574219 C 242.792969 122.511719 245.015625 121.386719 247.078125 122.054688 C 249.140625 122.730469 250.265625 124.953125 249.589844 127.015625 Z M 228.949219 108.699219 L 248.160156 122.605469 L 243.550781 128.976562 L 224.335938 115.070312 L 224.332031 115.070312 Z M 224.335938 115.070312 C 222.578125 113.800781 222.183594 111.34375 223.453125 109.582031 C 224.730469 107.824219 227.1875 107.429688 228.949219 108.699219 Z M 221.839844 107.402344 L 229.3125 109.832031 L 229.3125 109.839844 L 229.320312 109.8125 L 229.335938 109.777344 L 229.339844 109.734375 L 229.347656 109.707031 L 229.355469 109.660156 L 229.355469 109.425781 L 229.347656 109.382812 L 229.335938 109.328125 L 229.328125 109.285156 L 229.304688 109.203125 L 229.292969 109.167969 L 229.277344 109.128906 L 229.257812 109.09375 L 229.246094 109.058594 L 229.21875 109.015625 L 229.195312 108.976562 L 229.15625 108.90625 L 229.128906 108.878906 L 229.097656 108.84375 L 229.078125 108.816406 L 229.050781 108.796875 L 229.023438 108.761719 L 229.003906 108.75 L 228.976562 108.726562 L 228.949219 108.699219 L 224.332031 115.070312 L 224.117188 114.90625 L 223.902344 114.730469 L 223.703125 114.550781 L 223.503906 114.367188 L 223.316406 114.171875 L 223.136719 113.972656 L 222.972656 113.765625 L 222.804688 113.550781 L 222.652344 113.332031 L 222.507812 113.109375 L 222.371094 112.867188 L 222.238281 112.625 L 222.121094 112.390625 L 222.019531 112.152344 L 221.914062 111.894531 L 221.832031 111.652344 L 221.75 111.382812 L 221.6875 111.136719 L 221.632812 110.878906 L 221.578125 110.597656 L 221.542969 110.335938 L 221.515625 110.074219 L 221.5 109.8125 L 221.492188 109.542969 L 221.5 109.257812 L 221.523438 108.996094 L 221.542969 108.726562 L 221.582031 108.457031 L 221.632812 108.195312 L 221.6875 107.925781 L 221.757812 107.65625 Z M 221.839844 107.402344 C 222.507812 105.339844 224.730469 104.207031 226.792969 104.882812 C 228.859375 105.554688 229.984375 107.773438 229.3125 109.839844 Z M 228.367188 102.675781 L 228.347656 110.535156 L 228.382812 110.535156 L 228.417969 110.527344 L 228.445312 110.527344 L 228.5 110.523438 L 228.519531 110.515625 L 228.554688 110.507812 L 228.601562 110.5 L 228.636719 110.488281 L 228.691406 110.464844 L 228.71875 110.460938 L 228.746094 110.445312 L 228.789062 110.425781 L 228.835938 110.398438 L 228.871094 110.375 L 228.898438 110.363281 L 228.941406 110.335938 L 228.976562 110.308594 L 229.015625 110.273438 L 229.042969 110.246094 L 229.066406 110.230469 L 229.09375 110.199219 L 229.132812 110.15625 L 229.15625 110.128906 L 229.175781 110.101562 L 229.203125 110.058594 L 229.222656 110.023438 L 229.246094 109.992188 L 229.265625 109.957031 L 229.273438 109.933594 L 229.292969 109.894531 L 229.304688 109.859375 L 229.3125 109.832031 L 221.839844 107.402344 L 221.921875 107.148438 L 222.027344 106.890625 L 222.136719 106.636719 L 222.253906 106.402344 L 222.378906 106.167969 L 222.515625 105.925781 L 222.660156 105.703125 L 222.820312 105.476562 L 222.976562 105.261719 L 223.144531 105.0625 L 223.328125 104.847656 L 223.515625 104.65625 L 223.695312 104.484375 L 223.902344 104.304688 L 224.109375 104.132812 L 224.324219 103.972656 L 224.550781 103.808594 L 224.765625 103.675781 L 224.992188 103.539062 L 225.242188 103.40625 L 225.488281 103.289062 L 225.726562 103.183594 L 225.964844 103.097656 L 226.234375 103 L 226.492188 102.921875 L 226.761719 102.855469 L 227.015625 102.800781 L 227.269531 102.757812 L 227.554688 102.714844 L 227.824219 102.6875 L 228.09375 102.675781 Z M 228.359375 102.675781 C 230.535156 102.675781 232.289062 104.433594 232.289062 106.609375 C 232.289062 108.777344 230.519531 110.535156 228.355469 110.535156 Z M 252.066406 110.578125 L 228.347656 110.535156 L 228.367188 102.675781 L 252.082031 102.714844 L 255.816406 107.859375 Z M 252.082031 102.714844 C 254.253906 102.722656 256.007812 104.484375 256.007812 106.65625 C 256 108.824219 254.242188 110.582031 252.066406 110.578125 Z M 263.101562 85.28125 L 255.816406 107.859375 L 248.335938 105.441406 L 255.621094 82.867188 L 255.621094 82.859375 Z M 255.621094 82.867188 C 256.285156 80.804688 258.507812 79.664062 260.570312 80.335938 C 262.632812 81.003906 263.773438 83.21875 263.101562 85.28125 Z M 262.136719 78.125 L 262.136719 85.988281 L 262.164062 85.988281 L 262.207031 85.980469 L 262.242188 85.980469 L 262.28125 85.972656 L 262.316406 85.964844 L 262.351562 85.960938 L 262.386719 85.953125 L 262.421875 85.9375 L 262.46875 85.925781 L 262.511719 85.910156 L 262.542969 85.890625 L 262.585938 85.871094 L 262.621094 85.855469 L 262.65625 85.835938 L 262.695312 85.808594 L 262.722656 85.785156 L 262.765625 85.757812 L 262.835938 85.703125 L 262.863281 85.667969 L 262.890625 85.640625 L 262.910156 85.613281 L 262.945312 85.578125 L 262.964844 85.546875 L 262.992188 85.515625 L 263.015625 85.476562 L 263.035156 85.449219 L 263.046875 85.414062 L 263.0625 85.378906 L 263.082031 85.34375 L 263.089844 85.316406 L 263.105469 85.289062 L 255.621094 82.859375 L 255.710938 82.605469 L 255.808594 82.355469 L 255.917969 82.101562 L 256.035156 81.859375 L 256.160156 81.625 L 256.296875 81.390625 L 256.445312 81.164062 L 256.59375 80.941406 L 256.761719 80.726562 L 256.933594 80.515625 L 257.105469 80.320312 L 257.292969 80.128906 L 257.484375 79.941406 L 257.6875 79.761719 L 257.894531 79.589844 L 258.105469 79.421875 L 258.320312 79.277344 L 258.546875 79.125 L 258.777344 78.996094 L 259.011719 78.871094 L 259.257812 78.753906 L 259.5 78.644531 L 259.757812 78.546875 L 260.011719 78.457031 L 260.265625 78.382812 L 260.527344 78.3125 L 260.785156 78.257812 L 261.054688 78.207031 L 261.324219 78.175781 L 261.59375 78.148438 L 261.875 78.125 Z M 262.136719 78.125 C 264.3125 78.125 266.070312 79.886719 266.070312 82.054688 C 266.070312 84.226562 264.3125 85.988281 262.136719 85.988281 Z M 268.660156 82.867188 L 261.179688 85.28125 L 261.191406 85.324219 L 261.199219 85.34375 L 261.210938 85.371094 L 261.234375 85.414062 L 261.253906 85.457031 L 261.269531 85.476562 L 261.289062 85.511719 L 261.316406 85.546875 L 261.34375 85.585938 L 261.371094 85.621094 L 261.480469 85.730469 L 261.507812 85.753906 L 261.550781 85.78125 L 261.59375 85.8125 L 261.625 85.835938 L 261.695312 85.875 L 261.738281 85.898438 L 261.773438 85.910156 L 261.8125 85.925781 L 261.847656 85.9375 L 261.882812 85.953125 L 261.929688 85.960938 L 261.957031 85.964844 L 262 85.972656 L 262.039062 85.980469 L 262.066406 85.980469 L 262.117188 85.988281 L 262.136719 85.988281 L 262.136719 78.125 L 262.40625 78.125 L 262.691406 78.148438 L 262.953125 78.175781 L 263.226562 78.207031 L 263.496094 78.257812 L 263.753906 78.3125 L 264.019531 78.382812 L 264.277344 78.457031 L 264.523438 78.546875 L 264.78125 78.644531 L 265.023438 78.753906 L 265.265625 78.871094 L 265.503906 78.996094 L 265.734375 79.125 L 265.953125 79.273438 L 266.183594 79.429688 L 266.394531 79.597656 L 266.597656 79.761719 L 266.796875 79.941406 L 266.988281 80.128906 L 267.175781 80.320312 L 267.347656 80.515625 L 267.519531 80.722656 L 267.6875 80.941406 L 267.839844 81.167969 L 267.984375 81.398438 L 268.113281 81.617188 L 268.246094 81.859375 L 268.371094 82.113281 L 268.472656 82.355469 L 268.570312 82.605469 Z M 268.660156 82.867188 C 269.328125 84.929688 268.195312 87.144531 266.125 87.816406 C 264.0625 88.484375 261.847656 87.351562 261.179688 85.28125 Z M 70.679688 90.753906 L 63.394531 68.1875 L 70.875 65.773438 L 78.164062 88.339844 L 74.429688 93.480469 Z M 78.164062 88.339844 C 78.832031 90.410156 77.699219 92.625 75.628906 93.289062 C 73.566406 93.957031 71.351562 92.828125 70.679688 90.753906 Z M 98.148438 93.433594 L 74.429688 93.480469 L 74.414062 85.621094 L 98.136719 85.574219 Z M 98.136719 85.574219 C 100.304688 85.574219 102.070312 87.324219 102.070312 89.5 C 102.078125 91.667969 100.316406 93.433594 98.148438 93.433594 Z M 104.664062 90.308594 L 97.183594 92.738281 L 97.195312 92.765625 L 97.210938 92.796875 L 97.226562 92.839844 L 97.230469 92.855469 L 97.253906 92.894531 L 97.292969 92.964844 L 97.347656 93.035156 L 97.371094 93.0625 L 97.398438 93.09375 L 97.425781 93.121094 L 97.453125 93.152344 L 97.492188 93.183594 L 97.527344 93.210938 L 97.554688 93.234375 L 97.640625 93.289062 L 97.671875 93.308594 L 97.707031 93.328125 L 97.742188 93.34375 L 97.785156 93.363281 L 97.816406 93.378906 L 97.867188 93.390625 L 97.902344 93.398438 L 97.929688 93.414062 L 97.976562 93.417969 L 98.019531 93.425781 L 98.054688 93.433594 L 98.148438 93.433594 L 98.136719 85.574219 L 98.40625 85.578125 L 98.675781 85.59375 L 98.941406 85.621094 L 99.210938 85.65625 L 99.480469 85.703125 L 99.757812 85.757812 L 100.007812 85.828125 L 100.261719 85.902344 L 100.523438 85.992188 L 100.773438 86.089844 L 101.019531 86.195312 L 101.253906 86.3125 L 101.488281 86.433594 L 101.722656 86.574219 L 101.953125 86.71875 L 102.179688 86.871094 L 102.386719 87.027344 L 102.59375 87.203125 L 102.800781 87.386719 L 102.988281 87.566406 L 103.175781 87.761719 L 103.351562 87.960938 L 103.519531 88.167969 L 103.683594 88.382812 L 103.84375 88.601562 L 103.980469 88.832031 L 104.121094 89.066406 L 104.25 89.3125 L 104.359375 89.542969 L 104.472656 89.796875 L 104.574219 90.050781 Z M 104.664062 90.308594 C 105.335938 92.371094 104.203125 94.585938 102.136719 95.261719 C 100.074219 95.933594 97.851562 94.800781 97.183594 92.738281 Z M 102.167969 97.976562 L 97.554688 91.605469 L 97.535156 91.617188 L 97.5 91.644531 L 97.472656 91.667969 L 97.453125 91.6875 L 97.417969 91.730469 L 97.371094 91.777344 L 97.34375 91.820312 L 97.328125 91.847656 L 97.300781 91.878906 L 97.28125 91.921875 L 97.257812 91.949219 L 97.246094 91.984375 L 97.226562 92.03125 L 97.203125 92.074219 L 97.195312 92.109375 L 97.183594 92.15625 L 97.167969 92.199219 L 97.15625 92.28125 L 97.148438 92.328125 L 97.140625 92.363281 L 97.140625 92.53125 L 97.148438 92.5625 L 97.148438 92.589844 L 97.164062 92.640625 L 97.167969 92.675781 L 97.183594 92.738281 L 104.664062 90.308594 L 104.742188 90.5625 L 104.808594 90.824219 L 104.871094 91.09375 L 104.921875 91.371094 L 104.953125 91.632812 L 104.980469 91.894531 L 104.996094 92.175781 L 105.003906 92.441406 L 104.996094 92.707031 L 104.980469 92.976562 L 104.953125 93.234375 L 104.921875 93.503906 L 104.871094 93.785156 L 104.816406 94.035156 L 104.746094 94.289062 L 104.664062 94.558594 L 104.582031 94.800781 L 104.484375 95.046875 L 104.375 95.304688 L 104.257812 95.539062 L 104.132812 95.773438 L 103.996094 96.007812 L 103.84375 96.234375 L 103.699219 96.441406 L 103.53125 96.671875 L 103.359375 96.878906 L 103.1875 97.070312 L 102.988281 97.277344 L 102.792969 97.457031 L 102.59375 97.636719 L 102.378906 97.808594 Z M 102.167969 97.976562 C 100.40625 99.246094 97.949219 98.851562 96.671875 97.089844 C 95.402344 95.332031 95.796875 92.875 97.554688 91.605469 Z M 78.335938 105.511719 L 97.554688 91.605469 L 102.167969 97.976562 L 82.945312 111.882812 L 76.90625 109.914062 Z M 82.945312 111.882812 C 81.183594 113.152344 78.730469 112.757812 77.457031 111 C 76.183594 109.238281 76.582031 106.78125 78.335938 105.511719 Z M 84.277344 132.460938 L 76.90625 109.914062 L 84.382812 107.472656 L 91.75 130.019531 Z M 91.75 130.019531 C 92.429688 132.082031 91.304688 134.304688 89.238281 134.972656 C 87.175781 135.652344 84.953125 134.527344 84.277344 132.460938 Z M 89.265625 137.6875 L 84.644531 131.328125 L 84.621094 131.34375 L 84.59375 131.363281 L 84.566406 131.390625 L 84.546875 131.414062 L 84.484375 131.476562 L 84.464844 131.503906 L 84.4375 131.535156 L 84.414062 131.570312 L 84.386719 131.605469 L 84.367188 131.640625 L 84.351562 131.675781 L 84.332031 131.710938 L 84.320312 131.75 L 84.296875 131.800781 L 84.285156 131.839844 L 84.277344 131.875 L 84.261719 131.921875 L 84.257812 131.957031 L 84.242188 132 L 84.242188 132.046875 L 84.234375 132.074219 L 84.234375 132.246094 L 84.242188 132.28125 L 84.242188 132.324219 L 84.257812 132.363281 L 84.261719 132.40625 L 84.269531 132.425781 L 84.277344 132.460938 L 91.75 130.019531 L 91.828125 130.273438 L 91.898438 130.535156 L 91.957031 130.796875 L 92.007812 131.074219 L 92.046875 131.351562 L 92.074219 131.613281 L 92.089844 131.882812 L 92.097656 132.144531 L 92.089844 132.414062 L 92.074219 132.695312 L 92.046875 132.953125 L 92.015625 133.222656 L 91.964844 133.488281 L 91.910156 133.746094 L 91.839844 134.007812 L 91.765625 134.257812 L 91.675781 134.511719 L 91.578125 134.765625 L 91.46875 135.007812 L 91.351562 135.25 L 91.226562 135.484375 L 91.097656 135.710938 L 90.953125 135.941406 L 90.800781 136.160156 L 90.632812 136.375 L 90.460938 136.589844 L 90.28125 136.789062 L 90.089844 136.980469 L 89.894531 137.167969 L 89.695312 137.355469 L 89.480469 137.519531 Z M 89.265625 137.6875 C 87.515625 138.964844 85.050781 138.578125 83.773438 136.816406 C 82.496094 135.0625 82.890625 132.605469 84.644531 131.328125 Z M 81.207031 137.679688 L 85.835938 131.328125 L 85.816406 131.316406 L 85.773438 131.289062 L 85.746094 131.269531 L 85.71875 131.253906 L 85.691406 131.242188 L 85.65625 131.226562 L 85.617188 131.210938 L 85.574219 131.199219 L 85.539062 131.183594 L 85.492188 131.171875 L 85.457031 131.164062 L 85.410156 131.15625 L 85.367188 131.152344 L 85.328125 131.144531 L 85.148438 131.144531 L 85.105469 131.152344 L 85.0625 131.15625 L 85.03125 131.164062 L 84.996094 131.171875 L 84.941406 131.183594 L 84.898438 131.199219 L 84.871094 131.207031 L 84.835938 131.21875 L 84.789062 131.246094 L 84.761719 131.253906 L 84.734375 131.273438 L 84.699219 131.289062 L 84.644531 131.328125 L 89.265625 137.6875 L 89.039062 137.84375 L 88.8125 137.988281 L 88.578125 138.128906 L 88.34375 138.257812 L 88.109375 138.371094 L 87.84375 138.488281 L 87.597656 138.582031 L 87.355469 138.667969 L 87.09375 138.75 L 86.816406 138.816406 L 86.5625 138.875 L 86.304688 138.921875 L 86.039062 138.957031 L 85.773438 138.984375 L 85.507812 138.996094 L 85.238281 139.003906 L 84.96875 138.996094 L 84.699219 138.984375 L 84.4375 138.957031 L 84.167969 138.921875 L 83.90625 138.875 L 83.640625 138.816406 L 83.378906 138.742188 L 83.125 138.667969 L 82.871094 138.578125 L 82.613281 138.472656 L 82.367188 138.371094 L 82.125 138.253906 L 81.894531 138.128906 L 81.660156 137.988281 L 81.421875 137.832031 L 81.199219 137.679688 Z M 81.199219 137.679688 C 79.445312 136.402344 79.066406 133.9375 80.34375 132.1875 C 81.628906 130.433594 84.085938 130.054688 85.835938 131.328125 Z M 66.679688 117.347656 L 85.835938 131.328125 L 81.207031 137.679688 L 62.039062 123.703125 L 62.039062 117.347656 Z M 62.039062 123.703125 C 60.289062 122.421875 59.902344 119.964844 61.183594 118.210938 C 62.460938 116.457031 64.917969 116.070312 66.679688 117.347656 Z M 42.882812 131.328125 L 62.039062 117.347656 L 66.679688 123.703125 L 47.511719 137.679688 L 42.875 131.328125 Z M 47.511719 137.679688 C 45.761719 138.964844 43.296875 138.578125 42.019531 136.824219 C 40.742188 135.070312 41.121094 132.605469 42.882812 131.328125 Z M 39.453125 137.6875 L 44.070312 131.328125 L 44.015625 131.289062 L 43.984375 131.273438 L 43.953125 131.253906 L 43.925781 131.242188 L 43.882812 131.21875 L 43.839844 131.207031 L 43.820312 131.199219 L 43.765625 131.183594 L 43.722656 131.171875 L 43.695312 131.164062 L 43.65625 131.15625 L 43.601562 131.152344 L 43.550781 131.144531 L 43.394531 131.144531 L 43.351562 131.152344 L 43.304688 131.15625 L 43.21875 131.171875 L 43.179688 131.183594 L 43.136719 131.199219 L 43.101562 131.207031 L 43.074219 131.21875 L 43.035156 131.242188 L 42.992188 131.253906 L 42.957031 131.273438 L 42.9375 131.289062 L 42.910156 131.308594 L 42.875 131.328125 L 47.511719 137.679688 L 47.285156 137.839844 L 47.058594 137.984375 L 46.835938 138.113281 L 46.589844 138.253906 L 46.339844 138.371094 L 46.089844 138.480469 L 45.847656 138.578125 L 45.59375 138.667969 L 45.339844 138.742188 L 45.078125 138.8125 L 44.8125 138.875 L 44.550781 138.921875 L 44.28125 138.957031 L 44.015625 138.984375 L 43.746094 138.996094 L 43.480469 139.003906 L 43.214844 138.996094 L 42.957031 138.984375 L 42.6875 138.957031 L 42.414062 138.921875 L 42.144531 138.875 L 41.894531 138.816406 L 41.632812 138.75 L 41.363281 138.667969 L 41.121094 138.582031 L 40.867188 138.488281 L 40.609375 138.371094 L 40.375 138.257812 L 40.136719 138.128906 L 39.902344 137.988281 L 39.671875 137.84375 Z M 39.453125 137.6875 C 37.691406 136.410156 37.304688 133.953125 38.582031 132.191406 C 39.859375 130.441406 42.316406 130.054688 44.070312 131.328125 Z M 36.96875 130.019531 L 44.433594 132.460938 L 44.449219 132.425781 L 44.457031 132.40625 L 44.460938 132.367188 L 44.46875 132.324219 L 44.476562 132.296875 L 44.476562 132.246094 L 44.484375 132.214844 L 44.484375 132.117188 L 44.476562 132.089844 L 44.476562 132.046875 L 44.46875 132.007812 L 44.460938 131.972656 L 44.457031 131.921875 L 44.441406 131.867188 L 44.429688 131.828125 L 44.414062 131.792969 L 44.40625 131.765625 L 44.378906 131.714844 L 44.367188 131.675781 L 44.34375 131.648438 L 44.316406 131.597656 L 44.296875 131.566406 L 44.277344 131.53125 L 44.25 131.496094 L 44.226562 131.476562 L 44.199219 131.449219 L 44.171875 131.414062 L 44.152344 131.390625 L 44.125 131.363281 L 44.097656 131.34375 L 44.070312 131.328125 L 39.453125 137.6875 L 39.230469 137.519531 L 39.023438 137.355469 L 38.816406 137.167969 L 38.625 136.980469 L 38.429688 136.789062 L 38.257812 136.589844 L 38.09375 136.382812 L 37.925781 136.167969 L 37.769531 135.945312 L 37.621094 135.71875 L 37.484375 135.476562 L 37.359375 135.25 L 37.242188 135.007812 L 37.132812 134.753906 L 37.042969 134.519531 L 36.953125 134.269531 L 36.878906 134.007812 L 36.800781 133.746094 L 36.746094 133.476562 L 36.703125 133.222656 L 36.664062 132.953125 L 36.644531 132.683594 L 36.621094 132.425781 L 36.621094 132.144531 L 36.628906 131.882812 L 36.644531 131.613281 L 36.671875 131.335938 L 36.703125 131.074219 L 36.761719 130.796875 L 36.816406 130.535156 L 36.882812 130.28125 Z M 36.96875 130.019531 C 37.636719 127.957031 39.859375 126.832031 41.921875 127.507812 C 43.984375 128.175781 45.109375 130.398438 44.433594 132.460938 Z M 51.8125 109.914062 L 44.433594 132.460938 L 36.96875 130.019531 L 44.339844 107.472656 L 50.378906 105.511719 Z M 44.339844 107.472656 C 45.015625 105.40625 47.238281 104.28125 49.292969 104.960938 C 51.355469 105.636719 52.480469 107.859375 51.8125 109.914062 Z M 31.164062 91.605469 L 50.378906 105.511719 L 45.765625 111.882812 L 26.554688 97.976562 Z M 26.554688 97.976562 C 24.792969 96.699219 24.398438 94.242188 25.675781 92.480469 C 26.945312 90.726562 29.402344 90.328125 31.164062 91.605469 Z M 24.054688 90.308594 L 31.527344 92.738281 L 31.542969 92.707031 L 31.550781 92.675781 L 31.554688 92.640625 L 31.5625 92.589844 L 31.570312 92.5625 L 31.570312 92.53125 L 31.578125 92.480469 L 31.578125 92.414062 L 31.570312 92.371094 L 31.570312 92.316406 L 31.5625 92.273438 L 31.554688 92.238281 L 31.542969 92.191406 L 31.535156 92.144531 L 31.527344 92.121094 L 31.507812 92.066406 L 31.488281 92.019531 L 31.480469 92 L 31.460938 91.957031 L 31.4375 91.921875 L 31.417969 91.878906 L 31.398438 91.847656 L 31.363281 91.804688 L 31.34375 91.777344 L 31.320312 91.757812 L 31.289062 91.714844 L 31.265625 91.6875 L 31.238281 91.667969 L 31.21875 91.644531 L 31.164062 91.605469 L 26.554688 97.976562 L 26.332031 97.808594 L 26.117188 97.628906 L 25.925781 97.457031 L 25.730469 97.269531 L 25.546875 97.085938 L 25.351562 96.871094 L 25.1875 96.664062 L 25.027344 96.457031 L 24.863281 96.230469 L 24.722656 96 L 24.585938 95.773438 L 24.453125 95.539062 L 24.335938 95.296875 L 24.242188 95.0625 L 24.136719 94.808594 L 24.046875 94.539062 L 23.972656 94.304688 L 23.902344 94.039062 L 23.847656 93.773438 L 23.800781 93.515625 L 23.765625 93.246094 L 23.738281 92.964844 L 23.714844 92.695312 L 23.714844 92.175781 L 23.738281 91.894531 L 23.765625 91.632812 L 23.800781 91.371094 L 23.847656 91.09375 L 23.910156 90.824219 L 23.980469 90.5625 Z M 24.054688 90.308594 C 24.722656 88.242188 26.945312 87.113281 29.011719 87.78125 C 31.074219 88.457031 32.207031 90.671875 31.527344 92.738281 Z M 30.582031 85.574219 L 30.570312 93.433594 L 30.667969 93.433594 L 30.714844 93.425781 L 30.742188 93.417969 L 30.769531 93.414062 L 30.816406 93.398438 L 30.859375 93.390625 L 30.894531 93.378906 L 30.933594 93.363281 L 30.976562 93.34375 L 31.003906 93.332031 L 31.039062 93.308594 L 31.085938 93.28125 L 31.128906 93.253906 L 31.15625 93.242188 L 31.191406 93.210938 L 31.226562 93.183594 L 31.257812 93.15625 L 31.292969 93.117188 L 31.320312 93.09375 L 31.347656 93.0625 L 31.371094 93.035156 L 31.390625 93.003906 L 31.417969 92.964844 L 31.445312 92.921875 L 31.464844 92.894531 L 31.480469 92.859375 L 31.496094 92.839844 L 31.507812 92.796875 L 31.523438 92.765625 L 31.527344 92.738281 L 24.054688 90.308594 L 24.144531 90.050781 L 24.242188 89.796875 L 24.351562 89.542969 L 24.46875 89.304688 L 24.59375 89.070312 L 24.730469 88.835938 L 24.875 88.601562 L 25.042969 88.375 L 25.199219 88.167969 L 25.367188 87.960938 L 25.546875 87.761719 L 25.726562 87.574219 L 25.925781 87.382812 L 26.125 87.203125 L 26.332031 87.027344 L 26.546875 86.871094 L 26.753906 86.726562 L 26.988281 86.574219 L 27.230469 86.433594 L 27.464844 86.3125 L 27.691406 86.199219 L 27.941406 86.089844 L 28.203125 85.992188 L 28.449219 85.902344 L 28.707031 85.828125 L 28.976562 85.757812 L 29.230469 85.703125 L 29.484375 85.65625 L 29.769531 85.621094 L 30.039062 85.59375 L 30.308594 85.578125 L 30.578125 85.574219 Z M 30.578125 85.574219 C 32.75 85.578125 34.511719 87.339844 34.503906 89.507812 C 34.503906 91.679688 32.742188 93.441406 30.570312 93.433594 Z M 54.285156 93.480469 L 30.570312 93.433594 L 30.582031 85.574219 L 54.304688 85.621094 L 58.039062 90.753906 Z M 54.304688 85.621094 C 56.472656 85.621094 58.230469 87.386719 58.222656 89.554688 C 58.222656 91.730469 56.457031 93.480469 54.285156 93.480469 Z M 65.324219 68.1875 L 58.039062 90.753906 L 50.550781 88.339844 L 57.835938 65.773438 Z M 57.835938 65.773438 C 58.507812 63.703125 60.722656 62.570312 62.785156 63.238281 C 64.855469 63.902344 65.988281 66.125 65.324219 68.1875 Z M 64.359375 61.023438 L 64.359375 68.886719 L 64.464844 68.886719 L 64.496094 68.878906 L 64.539062 68.871094 L 64.566406 68.863281 L 64.601562 68.851562 L 64.640625 68.84375 L 64.683594 68.828125 L 64.730469 68.808594 L 64.761719 68.796875 L 64.808594 68.773438 L 64.878906 68.734375 L 64.910156 68.710938 L 64.953125 68.683594 L 64.988281 68.65625 L 65.007812 68.636719 L 65.050781 68.601562 L 65.140625 68.511719 L 65.160156 68.476562 L 65.1875 68.449219 L 65.207031 68.414062 L 65.234375 68.375 L 65.257812 68.339844 L 65.269531 68.3125 L 65.285156 68.277344 L 65.296875 68.25 L 65.3125 68.222656 L 65.320312 68.1875 L 57.835938 65.773438 L 57.925781 65.511719 L 58.023438 65.261719 L 58.132812 65.011719 L 58.25 64.765625 L 58.375 64.535156 L 58.507812 64.300781 L 58.664062 64.0625 L 58.816406 63.847656 L 58.976562 63.632812 L 59.148438 63.417969 L 59.320312 63.21875 L 59.507812 63.027344 L 59.699219 62.839844 L 59.90625 62.652344 L 60.101562 62.492188 L 60.316406 62.335938 L 60.542969 62.175781 L 60.769531 62.03125 L 61 61.902344 L 61.226562 61.769531 L 61.476562 61.652344 L 61.714844 61.546875 L 61.972656 61.445312 L 62.234375 61.355469 L 62.488281 61.28125 L 62.746094 61.21875 L 63.007812 61.15625 L 63.277344 61.105469 L 63.539062 61.070312 L 63.808594 61.042969 L 64.089844 61.03125 Z M 64.359375 61.023438 C 66.527344 61.023438 68.285156 62.785156 68.285156 64.957031 C 68.285156 67.125 66.527344 68.886719 64.359375 68.886719 Z M 70.875 65.773438 L 63.394531 68.1875 L 63.398438 68.207031 L 63.421875 68.25 L 63.433594 68.285156 L 63.441406 68.304688 L 63.46875 68.351562 L 63.488281 68.386719 L 63.503906 68.414062 L 63.53125 68.449219 L 63.546875 68.476562 L 63.574219 68.503906 L 63.605469 68.546875 L 63.640625 68.582031 L 63.675781 68.609375 L 63.695312 68.628906 L 63.738281 68.664062 L 63.773438 68.691406 L 63.792969 68.707031 L 63.84375 68.738281 L 63.875 68.753906 L 63.910156 68.773438 L 63.960938 68.800781 L 63.988281 68.808594 L 64.027344 68.824219 L 64.070312 68.84375 L 64.105469 68.851562 L 64.144531 68.863281 L 64.179688 68.871094 L 64.222656 68.878906 L 64.257812 68.886719 L 64.359375 68.886719 L 64.359375 61.023438 L 64.621094 61.03125 L 64.90625 61.042969 L 65.175781 61.070312 L 65.441406 61.105469 L 65.710938 61.15625 L 65.96875 61.21875 L 66.238281 61.285156 L 66.492188 61.363281 L 66.746094 61.453125 L 67.003906 61.546875 L 67.238281 61.652344 L 67.484375 61.777344 L 67.71875 61.902344 L 67.949219 62.03125 L 68.183594 62.183594 L 68.390625 62.328125 L 68.605469 62.492188 L 68.824219 62.667969 L 69.011719 62.839844 L 69.203125 63.019531 L 69.398438 63.226562 L 69.578125 63.433594 L 69.75 63.640625 L 69.902344 63.847656 L 70.058594 64.066406 L 70.199219 64.289062 L 70.335938 64.523438 L 70.46875 64.777344 L 70.578125 65.007812 L 70.6875 65.261719 L 70.792969 65.515625 Z M 70.875 65.773438 C 71.542969 67.835938 70.414062 70.050781 68.339844 70.71875 C 66.277344 71.390625 64.0625 70.25 63.394531 68.1875 Z M 225.089844 279.863281 C 225.089844 282.03125 223.328125 283.792969 221.15625 283.792969 C 218.988281 283.792969 217.230469 282.03125 217.230469 279.863281 Z M 225.089844 173.265625 L 225.089844 279.863281 L 217.230469 279.863281 L 217.230469 173.265625 Z M 217.230469 173.265625 C 217.230469 171.097656 218.988281 169.335938 221.15625 169.335938 C 223.328125 169.335938 225.089844 171.097656 225.089844 173.265625 Z M 229.90625 160.585938 L 229.90625 168.445312 L 229.660156 168.453125 L 229.417969 168.472656 L 229.175781 168.5 L 228.941406 168.542969 L 228.707031 168.597656 L 228.476562 168.667969 L 228.257812 168.738281 L 228.042969 168.824219 L 227.828125 168.921875 L 227.621094 169.027344 L 227.421875 169.144531 L 227.222656 169.273438 L 227.027344 169.40625 L 226.851562 169.550781 L 226.675781 169.703125 L 226.503906 169.863281 L 226.347656 170.035156 L 226.1875 170.214844 L 226.050781 170.394531 L 225.910156 170.578125 L 225.785156 170.777344 L 225.667969 170.980469 L 225.566406 171.1875 L 225.46875 171.398438 L 225.378906 171.621094 L 225.304688 171.835938 L 225.242188 172.0625 L 225.1875 172.296875 L 225.144531 172.53125 L 225.117188 172.773438 L 225.097656 173.015625 L 225.089844 173.265625 L 217.230469 173.265625 L 217.242188 172.613281 L 217.289062 171.972656 L 217.375 171.339844 L 217.484375 170.71875 L 217.628906 170.101562 L 217.800781 169.503906 L 218 168.910156 L 218.230469 168.328125 L 218.484375 167.769531 L 218.761719 167.21875 L 219.070312 166.695312 L 219.394531 166.175781 L 219.746094 165.6875 L 220.128906 165.203125 L 220.527344 164.742188 L 220.941406 164.304688 L 221.382812 163.882812 L 221.839844 163.492188 L 222.320312 163.113281 L 222.820312 162.757812 L 223.328125 162.429688 L 223.859375 162.125 L 224.40625 161.839844 L 224.972656 161.585938 L 225.546875 161.359375 L 226.140625 161.160156 L 226.738281 160.984375 L 227.351562 160.847656 L 227.980469 160.730469 L 228.617188 160.65625 L 229.257812 160.597656 Z M 229.90625 160.585938 C 232.074219 160.585938 233.835938 162.34375 233.835938 164.519531 C 233.835938 166.6875 232.074219 168.445312 229.90625 168.445312 Z M 294.375 168.445312 L 229.90625 168.445312 L 229.90625 160.585938 L 294.375 160.585938 Z M 294.375 160.585938 C 296.546875 160.585938 298.308594 162.34375 298.308594 164.519531 C 298.308594 166.6875 296.546875 168.445312 294.375 168.445312 Z M 307.050781 173.265625 L 299.191406 173.265625 L 299.183594 173.015625 L 299.164062 172.773438 L 299.136719 172.53125 L 299.09375 172.296875 L 299.039062 172.070312 L 298.976562 171.835938 L 298.902344 171.621094 L 298.8125 171.402344 L 298.714844 171.1875 L 298.613281 170.980469 L 298.496094 170.777344 L 298.371094 170.578125 L 298.230469 170.394531 L 298.085938 170.214844 L 297.9375 170.035156 L 297.777344 169.867188 L 297.605469 169.703125 L 297.433594 169.550781 L 297.246094 169.40625 L 297.058594 169.273438 L 296.859375 169.144531 L 296.660156 169.027344 L 296.453125 168.921875 L 296.238281 168.828125 L 296.023438 168.738281 L 295.804688 168.660156 L 295.574219 168.597656 L 295.339844 168.542969 L 295.105469 168.5 L 294.863281 168.472656 L 294.621094 168.453125 L 294.375 168.445312 L 294.375 160.585938 L 295.023438 160.597656 L 295.664062 160.65625 L 296.300781 160.730469 L 296.929688 160.847656 L 297.542969 160.984375 L 298.144531 161.160156 L 298.734375 161.359375 L 299.308594 161.585938 L 299.867188 161.84375 L 300.421875 162.125 L 300.953125 162.429688 L 301.460938 162.757812 L 301.960938 163.113281 L 302.433594 163.492188 L 302.898438 163.882812 L 303.339844 164.304688 L 303.753906 164.746094 L 304.152344 165.203125 L 304.535156 165.6875 L 304.886719 166.183594 L 305.210938 166.695312 L 305.511719 167.226562 L 305.796875 167.769531 L 306.050781 168.328125 L 306.28125 168.910156 L 306.480469 169.503906 L 306.652344 170.101562 L 306.796875 170.71875 L 306.90625 171.339844 L 306.992188 171.972656 L 307.039062 172.613281 Z M 307.050781 173.265625 C 307.050781 175.4375 305.292969 177.199219 303.125 177.199219 C 300.953125 177.199219 299.191406 175.4375 299.191406 173.265625 Z M 299.191406 186.078125 L 299.191406 173.265625 L 307.050781 173.265625 L 307.050781 186.078125 Z M 307.050781 186.078125 C 307.050781 188.246094 305.292969 190.007812 303.125 190.007812 C 300.953125 190.007812 299.191406 188.246094 299.191406 186.078125 Z M 96.589844 151.171875 L 32.121094 151.171875 L 32.121094 143.3125 L 96.589844 143.3125 Z M 96.589844 143.3125 C 98.765625 143.3125 100.523438 145.070312 100.523438 147.246094 C 100.523438 149.410156 98.765625 151.171875 96.589844 151.171875 Z M 109.269531 155.988281 L 101.40625 155.988281 L 101.398438 155.742188 L 101.386719 155.5 L 101.351562 155.257812 L 101.308594 155.023438 L 101.253906 154.789062 L 101.191406 154.5625 L 101.117188 154.347656 L 101.035156 154.125 L 100.9375 153.910156 L 100.828125 153.703125 L 100.710938 153.503906 L 100.585938 153.304688 L 100.453125 153.117188 L 100.308594 152.9375 L 100.15625 152.757812 L 99.992188 152.585938 L 99.828125 152.429688 L 99.648438 152.277344 L 99.46875 152.132812 L 99.273438 152 L 99.074219 151.867188 L 98.875 151.75 L 98.667969 151.648438 L 98.460938 151.550781 L 98.238281 151.460938 L 98.019531 151.386719 L 97.789062 151.324219 L 97.5625 151.269531 L 97.328125 151.226562 L 97.085938 151.199219 L 96.84375 151.179688 L 96.589844 151.171875 L 96.589844 143.3125 L 97.238281 143.324219 L 97.886719 143.375 L 98.515625 143.457031 L 99.144531 143.566406 L 99.757812 143.710938 L 100.363281 143.882812 L 100.953125 144.085938 L 101.53125 144.3125 L 102.089844 144.566406 L 102.636719 144.851562 L 103.167969 145.152344 L 103.675781 145.484375 L 104.175781 145.835938 L 104.65625 146.214844 L 105.113281 146.609375 L 105.554688 147.03125 L 105.96875 147.464844 L 106.371094 147.929688 L 106.75 148.40625 L 107.101562 148.910156 L 107.433594 149.417969 L 107.734375 149.945312 L 108.019531 150.496094 L 108.265625 151.054688 L 108.5 151.632812 L 108.703125 152.222656 L 108.867188 152.828125 L 109.011719 153.4375 L 109.121094 154.0625 L 109.207031 154.699219 L 109.253906 155.339844 Z M 109.269531 155.988281 C 109.269531 158.164062 107.507812 159.921875 105.339844 159.921875 C 103.167969 159.921875 101.40625 158.164062 101.40625 155.988281 Z M 101.40625 301.894531 L 101.40625 155.988281 L 109.269531 155.988281 L 109.269531 301.894531 L 105.339844 305.820312 Z M 109.269531 301.894531 C 109.269531 304.0625 107.507812 305.820312 105.339844 305.820312 C 103.167969 305.820312 101.40625 304.0625 101.40625 301.894531 Z M 23.378906 297.960938 L 105.339844 297.960938 L 105.339844 305.820312 L 23.378906 305.820312 L 19.445312 301.894531 Z M 23.378906 305.820312 C 21.203125 305.820312 19.445312 304.0625 19.445312 301.894531 C 19.445312 299.722656 21.203125 297.960938 23.378906 297.960938 Z M 27.304688 155.988281 L 27.304688 301.894531 L 19.445312 301.894531 L 19.445312 155.988281 Z M 19.445312 155.988281 C 19.445312 153.820312 21.203125 152.054688 23.378906 152.054688 C 25.546875 152.054688 27.304688 153.820312 27.304688 155.988281 Z M 32.121094 143.3125 L 32.121094 151.171875 L 31.875 151.179688 L 31.632812 151.199219 L 31.390625 151.226562 L 31.15625 151.269531 L 30.921875 151.324219 L 30.699219 151.386719 L 30.472656 151.460938 L 30.257812 151.550781 L 30.046875 151.648438 L 29.839844 151.75 L 29.636719 151.867188 L 29.4375 151.992188 L 29.25 152.132812 L 29.066406 152.277344 L 28.890625 152.429688 L 28.71875 152.585938 L 28.5625 152.757812 L 28.410156 152.933594 L 28.265625 153.117188 L 28.125 153.304688 L 28.003906 153.503906 L 27.886719 153.703125 L 27.78125 153.910156 L 27.683594 154.125 L 27.59375 154.339844 L 27.527344 154.5625 L 27.457031 154.789062 L 27.402344 155.023438 L 27.359375 155.257812 L 27.332031 155.5 L 27.3125 155.742188 L 27.304688 155.988281 L 19.445312 155.988281 L 19.457031 155.339844 L 19.511719 154.699219 L 19.589844 154.0625 L 19.707031 153.4375 L 19.84375 152.820312 L 20.015625 152.222656 L 20.21875 151.632812 L 20.445312 151.054688 L 20.699219 150.496094 L 20.984375 149.945312 L 21.285156 149.414062 L 21.617188 148.902344 L 21.96875 148.40625 L 22.34375 147.929688 L 22.742188 147.464844 L 23.164062 147.03125 L 23.597656 146.609375 L 24.0625 146.210938 L 24.539062 145.835938 L 25.035156 145.484375 L 25.550781 145.152344 L 26.082031 144.851562 L 26.628906 144.566406 L 27.1875 144.3125 L 27.765625 144.085938 L 28.355469 143.882812 L 28.960938 143.710938 L 29.574219 143.566406 L 30.195312 143.457031 L 30.832031 143.375 L 31.472656 143.324219 Z M 32.121094 143.3125 C 34.296875 143.3125 36.054688 145.070312 36.054688 147.246094 C 36.054688 149.410156 34.296875 151.171875 32.121094 151.171875 Z M 32.121094 143.3125 " fill-opacity="1" fill-rule="nonzero"/></g><g clip-path="url(#330c2a6b84)"><path fill="#1c1d28" d="M 166.433594 25.066406 L 174.792969 50.941406 L 201.976562 50.890625 C 203.453125 50.886719 204.714844 51.796875 205.171875 53.199219 C 205.628906 54.605469 205.144531 56.082031 203.949219 56.945312 L 181.921875 72.886719 L 190.367188 98.734375 C 190.832031 100.136719 190.355469 101.613281 189.160156 102.480469 C 187.960938 103.351562 186.414062 103.351562 185.21875 102.476562 L 163.25 86.449219 L 141.285156 102.476562 C 140.089844 103.351562 138.539062 103.351562 137.34375 102.480469 C 136.148438 101.613281 135.667969 100.136719 136.128906 98.734375 L 144.582031 72.886719 L 122.554688 56.945312 C 121.351562 56.082031 120.875 54.605469 121.332031 53.199219 C 121.789062 51.796875 123.042969 50.886719 124.519531 50.890625 L 151.710938 50.941406 L 160.0625 25.066406 C 160.519531 23.660156 161.773438 22.746094 163.25 22.746094 C 164.730469 22.746094 165.976562 23.660156 166.433594 25.066406 Z M 166.433594 25.066406 " fill-opacity="1" fill-rule="evenodd"/></g><path fill="#1c1d28" d="M 336.644531 210.644531 C 317.523438 191.519531 286.511719 191.519531 267.390625 210.644531 C 253.992188 224.039062 249.984375 243.257812 255.351562 260.148438 L 195.839844 319.660156 L 195.558594 349.550781 C 195.550781 350.136719 195.757812 350.640625 196.171875 351.054688 C 196.585938 351.46875 197.097656 351.675781 197.683594 351.675781 L 227.628906 351.449219 L 228.023438 351.046875 L 226.765625 335.859375 C 226.703125 335.140625 226.972656 334.449219 227.527344 333.898438 C 228.085938 333.34375 228.769531 333.074219 229.492188 333.136719 L 244.097656 334.347656 C 244.484375 334.375 244.828125 334.25 245.097656 333.980469 L 245.351562 333.726562 C 245.621094 333.457031 245.746094 333.109375 245.71875 332.722656 L 244.511719 318.121094 C 244.449219 317.394531 244.71875 316.710938 245.269531 316.152344 C 245.820312 315.601562 246.511719 315.332031 247.230469 315.394531 L 261.839844 316.601562 C 262.21875 316.636719 262.566406 316.511719 262.835938 316.234375 L 263.089844 315.988281 C 263.367188 315.710938 263.488281 315.367188 263.457031 314.988281 L 262.246094 300.375 C 262.1875 299.660156 262.453125 298.96875 263.007812 298.417969 C 263.566406 297.859375 264.25 297.59375 264.972656 297.65625 L 280.164062 298.914062 L 287.140625 291.9375 C 304.03125 297.304688 323.25 293.289062 336.644531 279.898438 C 355.769531 260.777344 355.769531 229.765625 336.644531 210.644531 Z M 320.945312 226.34375 C 310.488281 215.894531 293.546875 215.894531 283.089844 226.34375 C 272.640625 236.800781 272.640625 253.742188 283.089844 264.199219 C 293.546875 274.648438 310.488281 274.648438 320.945312 264.199219 C 331.394531 253.742188 331.394531 236.800781 320.945312 226.34375 Z M 320.945312 226.34375 " fill-opacity="1" fill-rule="evenodd"/></svg>