<svg xmlns="http://www.w3.org/2000/svg" xmlns:xlink="http://www.w3.org/1999/xlink" width="500" zoomAndPan="magnify" viewBox="0 0 375 374.999991" height="500" preserveAspectRatio="xMidYMid meet" version="1.0"><path fill="#1c1d28" d="M 135.398438 192.25 C 153.921875 192.25 168.996094 177.179688 168.996094 158.652344 C 168.996094 140.125 153.921875 125.050781 135.398438 125.050781 C 116.871094 125.050781 101.800781 140.125 101.800781 158.652344 C 101.800781 177.179688 116.871094 192.25 135.398438 192.25 Z M 135.398438 144.773438 C 143.050781 144.773438 149.273438 150.996094 149.273438 158.652344 C 149.273438 166.308594 143.050781 172.527344 135.398438 172.527344 C 127.75 172.527344 121.523438 166.308594 121.523438 158.652344 C 121.523438 150.996094 127.75 144.773438 135.398438 144.773438 Z M 135.398438 144.773438 " fill-opacity="1" fill-rule="nonzero"/><path fill="#1c1d28" d="M 288.402344 137.253906 C 357.917969 135.097656 358.019531 34.140625 288.402344 31.949219 C 252.210938 31.203125 225.496094 70.242188 239.425781 103.566406 C 239.425781 103.566406 206.222656 124.21875 206.222656 124.21875 C 189.203125 102.507812 163.40625 89.738281 135.351562 89.738281 C 15.761719 94.523438 16.019531 265.269531 135.351562 269.992188 C 163.398438 270 189.167969 256.988281 206.222656 235.515625 C 206.222656 235.515625 239.425781 256.167969 239.425781 256.167969 C 237.128906 262.070312 235.75 268.429688 235.75 275.136719 C 237.910156 344.648438 338.855469 344.746094 341.054688 275.132812 C 341.621094 227.753906 281.058594 204.429688 249.90625 239.472656 C 249.90625 239.46875 216.59375 218.746094 216.59375 218.746094 C 228.496094 194.644531 228.496094 165.089844 216.59375 140.984375 C 216.59375 140.984375 249.90625 120.261719 249.90625 120.261719 C 259.53125 130.644531 273.164062 137.253906 288.402344 137.253906 Z M 288.402344 242.199219 C 331.816406 243.339844 331.820312 306.925781 288.402344 308.0625 C 244.976562 306.917969 244.992188 243.332031 288.402344 242.199219 Z M 64.941406 179.867188 C 64.886719 109.648438 158.328125 83.023438 195.222656 142.6875 C 211.089844 167.4375 208.886719 201.777344 190.023438 224.320312 C 179.78125 207.921875 161.601562 197.265625 141.511719 197.265625 C 122.417969 196.015625 102.285156 199.59375 88.6875 214.0625 C 85.636719 217.109375 83.003906 220.539062 80.722656 224.199219 C 70.871094 212.085938 64.941406 196.660156 64.941406 179.867188 Z M 95.769531 238.046875 C 101.609375 225.097656 115.15625 216.886719 129.285156 216.988281 C 129.285156 216.988281 141.511719 216.988281 141.511719 216.988281 C 155.980469 216.988281 169.007812 225.335938 175.1875 237.894531 C 152.644531 254.21875 118.171875 254.1875 95.769531 238.046875 Z M 288.402344 51.671875 C 331.828125 52.8125 331.808594 116.398438 288.402344 117.53125 C 244.984375 116.394531 244.984375 52.804688 288.402344 51.671875 Z M 288.402344 51.671875 " fill-opacity="1" fill-rule="nonzero"/></svg>