<svg xmlns="http://www.w3.org/2000/svg" xmlns:xlink="http://www.w3.org/1999/xlink" width="500" zoomAndPan="magnify" viewBox="0 0 375 374.999991" height="500" preserveAspectRatio="xMidYMid meet" version="1.0"><defs><clipPath id="3f6632ed60"><path d="M 14.183594 32.929688 L 360.683594 32.929688 L 360.683594 319.429688 L 14.183594 319.429688 Z M 14.183594 32.929688 " clip-rule="nonzero"/></clipPath></defs><g clip-path="url(#3f6632ed60)"><path fill="#1c1d28" d="M 108.683594 82.527344 C 108.683594 82.148438 108.71875 81.773438 108.792969 81.402344 C 108.867188 81.03125 108.976562 80.671875 109.121094 80.320312 C 109.265625 79.96875 109.445312 79.636719 109.65625 79.320312 C 109.867188 79.007812 110.105469 78.714844 110.375 78.445312 C 110.640625 78.179688 110.933594 77.9375 111.25 77.726562 C 111.5625 77.519531 111.898438 77.339844 112.246094 77.195312 C 112.597656 77.050781 112.957031 76.941406 113.332031 76.867188 C 113.703125 76.792969 114.078125 76.753906 114.457031 76.753906 L 207.652344 76.753906 C 208.03125 76.753906 208.40625 76.792969 208.777344 76.867188 C 209.148438 76.941406 209.511719 77.050781 209.859375 77.195312 C 210.210938 77.339844 210.542969 77.519531 210.859375 77.726562 C 211.171875 77.9375 211.464844 78.179688 211.734375 78.445312 C 212 78.714844 212.242188 79.007812 212.453125 79.320312 C 212.664062 79.636719 212.839844 79.96875 212.984375 80.320312 C 213.128906 80.667969 213.238281 81.03125 213.3125 81.402344 C 213.386719 81.773438 213.425781 82.148438 213.425781 82.53125 C 213.425781 82.910156 213.386719 83.285156 213.3125 83.65625 C 213.238281 84.027344 213.128906 84.386719 212.984375 84.738281 C 212.839844 85.089844 212.664062 85.421875 212.453125 85.738281 C 212.242188 86.050781 212 86.34375 211.734375 86.613281 C 211.464844 86.878906 211.171875 87.121094 210.859375 87.332031 C 210.542969 87.539062 210.210938 87.71875 209.859375 87.863281 C 209.511719 88.007812 209.148438 88.117188 208.777344 88.191406 C 208.40625 88.265625 208.03125 88.304688 207.652344 88.304688 L 114.457031 88.304688 C 114.078125 88.304688 113.703125 88.265625 113.332031 88.191406 C 112.957031 88.117188 112.597656 88.007812 112.246094 87.863281 C 111.898438 87.71875 111.5625 87.539062 111.25 87.332031 C 110.933594 87.121094 110.640625 86.878906 110.375 86.613281 C 110.105469 86.34375 109.867188 86.050781 109.65625 85.738281 C 109.445312 85.421875 109.265625 85.089844 109.121094 84.738281 C 108.976562 84.386719 108.867188 84.027344 108.792969 83.65625 C 108.71875 83.285156 108.683594 82.910156 108.683594 82.527344 Z M 114.457031 132.300781 L 255.171875 132.300781 C 255.550781 132.300781 255.925781 132.265625 256.296875 132.191406 C 256.667969 132.117188 257.03125 132.007812 257.382812 131.863281 C 257.730469 131.71875 258.0625 131.539062 258.378906 131.328125 C 258.695312 131.117188 258.984375 130.878906 259.253906 130.609375 C 259.523438 130.34375 259.761719 130.050781 259.972656 129.734375 C 260.183594 129.421875 260.359375 129.085938 260.503906 128.738281 C 260.652344 128.386719 260.761719 128.027344 260.835938 127.652344 C 260.910156 127.28125 260.945312 126.90625 260.945312 126.527344 C 260.945312 126.148438 260.910156 125.773438 260.835938 125.402344 C 260.761719 125.03125 260.652344 124.667969 260.503906 124.316406 C 260.359375 123.96875 260.183594 123.636719 259.972656 123.320312 C 259.761719 123.003906 259.523438 122.714844 259.253906 122.445312 C 258.984375 122.175781 258.695312 121.9375 258.378906 121.726562 C 258.0625 121.515625 257.730469 121.339844 257.382812 121.191406 C 257.03125 121.046875 256.667969 120.9375 256.296875 120.863281 C 255.925781 120.789062 255.550781 120.753906 255.171875 120.753906 L 114.398438 120.753906 C 114.019531 120.753906 113.644531 120.789062 113.273438 120.863281 C 112.902344 120.9375 112.539062 121.046875 112.191406 121.191406 C 111.839844 121.339844 111.507812 121.515625 111.191406 121.726562 C 110.875 121.9375 110.585938 122.175781 110.316406 122.445312 C 110.046875 122.714844 109.808594 123.003906 109.597656 123.320312 C 109.386719 123.636719 109.210938 123.96875 109.066406 124.316406 C 108.917969 124.667969 108.808594 125.03125 108.734375 125.402344 C 108.660156 125.773438 108.625 126.148438 108.625 126.527344 C 108.625 126.90625 108.660156 127.28125 108.734375 127.652344 C 108.808594 128.027344 108.917969 128.386719 109.066406 128.738281 C 109.210938 129.085938 109.386719 129.421875 109.597656 129.734375 C 109.808594 130.050781 110.046875 130.34375 110.316406 130.609375 C 110.585938 130.878906 110.875 131.117188 111.191406 131.328125 C 111.507812 131.539062 111.839844 131.71875 112.191406 131.863281 C 112.539062 132.007812 112.902344 132.117188 113.273438 132.191406 C 113.644531 132.265625 114.019531 132.300781 114.398438 132.300781 Z M 255.113281 164.578125 L 172.082031 164.578125 C 171.703125 164.578125 171.328125 164.617188 170.957031 164.691406 C 170.582031 164.765625 170.222656 164.875 169.871094 165.019531 C 169.523438 165.164062 169.191406 165.339844 168.875 165.550781 C 168.558594 165.761719 168.265625 166.003906 168 166.269531 C 167.730469 166.539062 167.492188 166.828125 167.28125 167.144531 C 167.070312 167.460938 166.894531 167.792969 166.746094 168.144531 C 166.601562 168.492188 166.492188 168.855469 166.417969 169.226562 C 166.34375 169.597656 166.308594 169.972656 166.308594 170.351562 C 166.308594 170.730469 166.34375 171.109375 166.417969 171.480469 C 166.492188 171.851562 166.601562 172.210938 166.746094 172.5625 C 166.894531 172.914062 167.070312 173.246094 167.28125 173.5625 C 167.492188 173.875 167.730469 174.167969 168 174.4375 C 168.265625 174.703125 168.558594 174.945312 168.875 175.152344 C 169.191406 175.363281 169.523438 175.542969 169.871094 175.6875 C 170.222656 175.832031 170.582031 175.941406 170.957031 176.015625 C 171.328125 176.089844 171.703125 176.128906 172.082031 176.128906 L 255.113281 176.128906 C 255.492188 176.128906 255.867188 176.089844 256.238281 176.015625 C 256.613281 175.941406 256.972656 175.832031 257.324219 175.6875 C 257.671875 175.542969 258.007812 175.363281 258.320312 175.152344 C 258.636719 174.945312 258.929688 174.703125 259.195312 174.4375 C 259.464844 174.167969 259.703125 173.875 259.914062 173.5625 C 260.125 173.246094 260.304688 172.914062 260.449219 172.5625 C 260.59375 172.210938 260.703125 171.851562 260.777344 171.480469 C 260.851562 171.109375 260.886719 170.730469 260.886719 170.351562 C 260.886719 169.972656 260.851562 169.597656 260.777344 169.226562 C 260.703125 168.855469 260.59375 168.492188 260.449219 168.144531 C 260.304688 167.792969 260.125 167.460938 259.914062 167.144531 C 259.703125 166.828125 259.464844 166.539062 259.195312 166.269531 C 258.929688 166.003906 258.636719 165.761719 258.320312 165.550781 C 258.007812 165.339844 257.671875 165.164062 257.324219 165.019531 C 256.972656 164.875 256.613281 164.765625 256.238281 164.691406 C 255.867188 164.617188 255.492188 164.578125 255.113281 164.578125 Z M 339.011719 121.503906 C 340.4375 121.503906 341.855469 121.644531 343.253906 121.925781 C 344.65625 122.203125 346.015625 122.621094 347.332031 123.171875 C 348.652344 123.71875 349.902344 124.394531 351.085938 125.191406 C 352.269531 125.992188 353.367188 126.898438 354.371094 127.914062 C 355.390625 128.941406 356.300781 130.0625 357.101562 131.269531 C 357.898438 132.480469 358.570312 133.757812 359.117188 135.101562 C 359.660156 136.441406 360.070312 137.828125 360.339844 139.25 C 360.609375 140.675781 360.738281 142.113281 360.722656 143.5625 L 360.722656 195.066406 C 360.722656 195.066406 360.722656 195.46875 360.722656 195.644531 C 360.722656 195.816406 360.722656 196.046875 360.722656 196.277344 L 360.722656 258.292969 C 360.722656 258.292969 360.722656 258.753906 360.722656 258.984375 C 360.722656 259.214844 360.722656 259.445312 360.722656 259.679688 L 348.191406 308.355469 C 348.003906 309.136719 347.75 309.902344 347.4375 310.644531 C 347.121094 311.386719 346.742188 312.09375 346.308594 312.773438 C 345.871094 313.453125 345.382812 314.089844 344.839844 314.6875 C 344.296875 315.28125 343.707031 315.828125 343.070312 316.328125 C 342.4375 316.824219 341.765625 317.265625 341.054688 317.648438 C 340.347656 318.03125 339.609375 318.355469 338.847656 318.613281 C 338.082031 318.875 337.304688 319.070312 336.507812 319.199219 C 335.710938 319.328125 334.910156 319.386719 334.101562 319.382812 C 333.292969 319.390625 332.488281 319.328125 331.691406 319.203125 C 330.890625 319.074219 330.109375 318.878906 329.34375 318.617188 C 328.578125 318.355469 327.839844 318.03125 327.128906 317.644531 C 326.417969 317.261719 325.746094 316.816406 325.109375 316.316406 C 324.472656 315.816406 323.882812 315.265625 323.339844 314.664062 C 322.800781 314.066406 322.3125 313.425781 321.878906 312.742188 C 321.441406 312.058594 321.070312 311.34375 320.757812 310.597656 C 320.445312 309.851562 320.195312 309.085938 320.015625 308.296875 L 308.464844 259.96875 C 308.4375 259.734375 308.4375 259.503906 308.464844 259.273438 C 308.464844 259.273438 308.464844 258.8125 308.464844 258.582031 L 308.871094 143.097656 C 308.871094 142.386719 308.910156 141.679688 308.980469 140.96875 C 309.050781 140.261719 309.15625 139.558594 309.296875 138.859375 C 309.4375 138.164062 309.613281 137.472656 309.820312 136.792969 C 310.027344 136.113281 310.269531 135.445312 310.542969 134.785156 C 310.816406 134.128906 311.121094 133.488281 311.460938 132.859375 C 311.796875 132.234375 312.164062 131.625 312.558594 131.035156 C 312.957031 130.441406 313.378906 129.871094 313.832031 129.324219 C 314.285156 128.773438 314.761719 128.246094 315.265625 127.746094 C 315.769531 127.242188 316.296875 126.765625 316.847656 126.3125 C 317.398438 125.863281 317.96875 125.441406 318.5625 125.046875 C 319.15625 124.652344 319.765625 124.285156 320.394531 123.949219 C 321.019531 123.617188 321.664062 123.3125 322.320312 123.039062 C 322.980469 122.769531 323.648438 122.53125 324.328125 122.324219 C 325.011719 122.117188 325.699219 121.945312 326.398438 121.804688 C 327.097656 121.667969 327.800781 121.5625 328.507812 121.492188 C 329.21875 121.421875 329.925781 121.390625 330.636719 121.390625 L 339.300781 121.390625 Z M 347.152344 264.296875 L 321.285156 264.296875 L 331.214844 305.464844 C 331.277344 305.792969 331.394531 306.097656 331.566406 306.382812 C 331.738281 306.664062 331.953125 306.910156 332.210938 307.117188 C 332.472656 307.324219 332.761719 307.480469 333.074219 307.582031 C 333.390625 307.6875 333.714844 307.730469 334.046875 307.71875 C 334.378906 307.730469 334.707031 307.6875 335.027344 307.585938 C 335.347656 307.484375 335.636719 307.328125 335.902344 307.121094 C 336.167969 306.917969 336.386719 306.671875 336.5625 306.386719 C 336.742188 306.101562 336.863281 305.796875 336.933594 305.464844 Z M 349.171875 201.878906 L 320.304688 201.878906 L 320.304688 252.863281 L 349.171875 252.863281 Z M 349.171875 178.785156 L 320.304688 178.785156 L 320.304688 190.332031 L 349.171875 190.332031 Z M 346.34375 136.113281 C 345.382812 135.140625 344.273438 134.394531 343.011719 133.875 C 341.75 133.351562 340.433594 133.097656 339.070312 133.109375 L 330.351562 133.109375 C 329.683594 133.125 329.023438 133.203125 328.371094 133.347656 C 327.71875 133.492188 327.085938 133.695312 326.472656 133.964844 C 325.863281 134.230469 325.28125 134.554688 324.734375 134.933594 C 324.183594 135.3125 323.675781 135.742188 323.210938 136.222656 C 322.746094 136.699219 322.332031 137.21875 321.964844 137.777344 C 321.601562 138.339844 321.296875 138.929688 321.046875 139.546875 C 320.796875 140.167969 320.609375 140.804688 320.484375 141.460938 C 320.359375 142.117188 320.300781 142.777344 320.304688 143.445312 L 320.304688 167.410156 L 349.171875 167.410156 L 349.171875 143.5625 C 349.179688 142.203125 348.929688 140.894531 348.417969 139.632812 C 347.910156 138.375 347.179688 137.257812 346.230469 136.285156 Z M 14.277344 235.832031 L 14.277344 211.175781 C 14.277344 210.621094 14.308594 210.070312 14.363281 209.519531 C 14.417969 208.972656 14.5 208.425781 14.613281 207.882812 C 14.722656 207.339844 14.855469 206.804688 15.019531 206.277344 C 15.179688 205.75 15.367188 205.230469 15.582031 204.71875 C 15.792969 204.210938 16.03125 203.710938 16.292969 203.222656 C 16.554688 202.738281 16.839844 202.261719 17.148438 201.804688 C 17.457031 201.34375 17.785156 200.902344 18.136719 200.476562 C 18.488281 200.050781 18.859375 199.640625 19.253906 199.25 C 19.644531 198.859375 20.054688 198.488281 20.480469 198.140625 C 20.910156 197.789062 21.351562 197.460938 21.8125 197.15625 C 22.273438 196.847656 22.746094 196.566406 23.234375 196.304688 C 23.722656 196.042969 24.222656 195.808594 24.734375 195.597656 C 25.246094 195.386719 25.765625 195.199219 26.292969 195.039062 C 26.824219 194.878906 27.359375 194.746094 27.902344 194.640625 C 28.445312 194.53125 28.988281 194.449219 29.539062 194.398438 C 30.089844 194.34375 30.640625 194.316406 31.195312 194.316406 L 71.613281 194.316406 C 73.230469 194.316406 74.152344 192.699219 74.328125 191.253906 C 74.65625 188.089844 75.8125 185.261719 77.792969 182.765625 L 77.792969 53.773438 C 77.792969 53.089844 77.824219 52.410156 77.890625 51.730469 C 77.957031 51.050781 78.058594 50.375 78.191406 49.703125 C 78.324219 49.035156 78.492188 48.371094 78.6875 47.71875 C 78.886719 47.0625 79.117188 46.421875 79.378906 45.789062 C 79.636719 45.15625 79.929688 44.539062 80.25 43.9375 C 80.574219 43.335938 80.921875 42.75 81.300781 42.179688 C 81.679688 41.609375 82.085938 41.0625 82.519531 40.535156 C 82.953125 40.003906 83.410156 39.5 83.894531 39.015625 C 84.375 38.53125 84.878906 38.070312 85.410156 37.636719 C 85.9375 37.203125 86.484375 36.796875 87.050781 36.414062 C 87.617188 36.035156 88.203125 35.683594 88.804688 35.359375 C 89.40625 35.035156 90.023438 34.742188 90.65625 34.480469 C 91.285156 34.21875 91.925781 33.984375 92.582031 33.785156 C 93.234375 33.585938 93.894531 33.417969 94.566406 33.285156 C 95.234375 33.148438 95.910156 33.046875 96.589844 32.976562 C 97.269531 32.910156 97.953125 32.875 98.636719 32.871094 L 225.664062 32.871094 C 228.410156 32.851562 231.128906 33.125 233.8125 33.703125 C 236.5 34.28125 239.089844 35.140625 241.582031 36.289062 C 244.078125 37.4375 246.417969 38.84375 248.605469 40.507812 C 250.789062 42.171875 252.765625 44.050781 254.535156 46.152344 L 282.308594 73.117188 L 282.714844 73.636719 C 285.089844 76.558594 287.015625 79.753906 288.488281 83.222656 C 288.695312 83.652344 288.867188 84.09375 289.007812 84.550781 L 289.007812 84.953125 C 290.5625 89.085938 291.371094 93.359375 291.433594 97.773438 L 291.433594 294.898438 C 291.433594 295.664062 291.398438 296.425781 291.328125 297.1875 C 291.253906 297.949219 291.148438 298.703125 291.003906 299.453125 C 290.855469 300.203125 290.675781 300.945312 290.457031 301.675781 C 290.242188 302.410156 289.988281 303.128906 289.703125 303.835938 C 289.414062 304.542969 289.09375 305.238281 288.742188 305.914062 C 288.386719 306.589844 288 307.25 287.582031 307.886719 C 287.164062 308.527344 286.714844 309.144531 286.238281 309.742188 C 285.757812 310.335938 285.253906 310.910156 284.71875 311.457031 C 284.1875 312 283.628906 312.523438 283.042969 313.015625 C 282.460938 313.507812 281.855469 313.96875 281.226562 314.402344 C 280.597656 314.835938 279.949219 315.238281 279.28125 315.609375 C 278.613281 315.980469 277.929688 316.320312 277.226562 316.625 C 276.527344 316.929688 275.8125 317.199219 275.085938 317.433594 C 274.359375 317.667969 273.621094 317.867188 272.875 318.03125 C 272.128906 318.195312 271.378906 318.320312 270.621094 318.414062 C 269.859375 318.503906 269.101562 318.558594 268.335938 318.574219 L 31.597656 318.574219 C 31.035156 318.585938 30.472656 318.574219 29.914062 318.53125 C 29.351562 318.488281 28.796875 318.417969 28.242188 318.320312 C 27.6875 318.21875 27.140625 318.09375 26.597656 317.941406 C 26.054688 317.789062 25.523438 317.609375 25 317.402344 C 24.476562 317.199219 23.964844 316.964844 23.464844 316.710938 C 22.964844 316.453125 22.476562 316.171875 22.003906 315.867188 C 21.53125 315.558594 21.078125 315.230469 20.636719 314.878906 C 20.199219 314.527344 19.777344 314.15625 19.375 313.765625 C 18.972656 313.371094 18.589844 312.957031 18.226562 312.527344 C 17.867188 312.097656 17.527344 311.648438 17.210938 311.183594 C 16.894531 310.71875 16.601562 310.238281 16.332031 309.742188 C 16.0625 309.25 15.820312 308.742188 15.601562 308.226562 C 15.382812 307.707031 15.191406 307.179688 15.027344 306.640625 C 14.859375 306.101562 14.722656 305.558594 14.609375 305.007812 C 14.5 304.453125 14.414062 303.898438 14.359375 303.339844 C 14.304688 302.78125 14.277344 302.21875 14.277344 301.65625 Z M 240.734375 74.5625 C 240.734375 74.992188 240.777344 75.421875 240.863281 75.84375 C 240.945312 76.269531 241.070312 76.679688 241.238281 77.078125 C 241.402344 77.480469 241.605469 77.859375 241.84375 78.21875 C 242.085938 78.578125 242.359375 78.910156 242.664062 79.214844 C 242.96875 79.519531 243.300781 79.792969 243.660156 80.035156 C 244.019531 80.273438 244.398438 80.476562 244.800781 80.640625 C 245.199219 80.808594 245.609375 80.933594 246.035156 81.015625 C 246.457031 81.101562 246.886719 81.144531 247.320312 81.144531 L 274.109375 81.144531 L 246.277344 54.003906 C 244.566406 52.117188 242.640625 50.484375 240.503906 49.097656 Z M 89.339844 176.53125 C 90.109375 176.472656 90.878906 176.472656 91.648438 176.53125 L 118.210938 176.53125 C 119.242188 176.519531 120.265625 176.597656 121.285156 176.769531 C 122.300781 176.9375 123.296875 177.199219 124.269531 177.546875 C 125.238281 177.894531 126.171875 178.324219 127.066406 178.839844 C 127.960938 179.355469 128.800781 179.945312 129.589844 180.609375 C 130.378906 181.277344 131.105469 182.003906 131.761719 182.800781 C 132.421875 183.59375 133.003906 184.441406 133.511719 185.339844 C 134.015625 186.238281 134.441406 187.175781 134.78125 188.148438 C 135.121094 189.125 135.371094 190.121094 135.53125 191.140625 C 135.53125 192.871094 136.628906 194.488281 138.246094 194.488281 L 178.203125 194.488281 C 179.207031 194.488281 180.207031 194.578125 181.195312 194.757812 C 182.183594 194.941406 183.148438 195.207031 184.089844 195.558594 C 185.03125 195.910156 185.933594 196.347656 186.796875 196.859375 C 187.660156 197.375 188.472656 197.964844 189.230469 198.625 C 189.988281 199.285156 190.679688 200.007812 191.308594 200.792969 C 191.9375 201.578125 192.488281 202.410156 192.96875 203.296875 C 193.445312 204.179688 193.839844 205.101562 194.15625 206.054688 C 194.46875 207.011719 194.695312 207.984375 194.832031 208.980469 L 255.054688 208.980469 C 255.433594 208.980469 255.808594 209.019531 256.183594 209.09375 C 256.554688 209.167969 256.914062 209.277344 257.265625 209.421875 C 257.617188 209.566406 257.949219 209.746094 258.265625 209.953125 C 258.578125 210.164062 258.871094 210.40625 259.140625 210.671875 C 259.40625 210.941406 259.644531 211.234375 259.855469 211.546875 C 260.066406 211.863281 260.246094 212.195312 260.390625 212.546875 C 260.535156 212.894531 260.644531 213.257812 260.71875 213.628906 C 260.792969 214 260.828125 214.375 260.828125 214.753906 C 260.828125 215.136719 260.792969 215.511719 260.71875 215.882812 C 260.644531 216.253906 260.535156 216.613281 260.390625 216.964844 C 260.246094 217.316406 260.066406 217.648438 259.855469 217.964844 C 259.644531 218.277344 259.40625 218.570312 259.140625 218.839844 C 258.871094 219.105469 258.578125 219.347656 258.261719 219.558594 C 257.949219 219.765625 257.617188 219.945312 257.265625 220.089844 C 256.914062 220.234375 256.554688 220.34375 256.183594 220.417969 C 255.808594 220.492188 255.433594 220.53125 255.054688 220.53125 L 195.46875 220.53125 L 195.46875 253.039062 L 255.054688 253.039062 C 255.433594 253.039062 255.808594 253.074219 256.183594 253.148438 C 256.554688 253.222656 256.914062 253.332031 257.265625 253.476562 C 257.617188 253.621094 257.949219 253.800781 258.265625 254.011719 C 258.578125 254.222656 258.871094 254.460938 259.140625 254.730469 C 259.40625 254.996094 259.644531 255.289062 259.855469 255.605469 C 260.066406 255.917969 260.246094 256.253906 260.390625 256.601562 C 260.535156 256.953125 260.644531 257.3125 260.71875 257.6875 C 260.792969 258.058594 260.828125 258.433594 260.828125 258.8125 C 260.828125 259.191406 260.792969 259.566406 260.71875 259.9375 C 260.644531 260.308594 260.535156 260.671875 260.390625 261.023438 C 260.246094 261.371094 260.066406 261.703125 259.855469 262.019531 C 259.644531 262.335938 259.40625 262.625 259.140625 262.894531 C 258.871094 263.164062 258.578125 263.402344 258.261719 263.613281 C 257.949219 263.824219 257.617188 264 257.265625 264.148438 C 256.914062 264.292969 256.554688 264.402344 256.183594 264.476562 C 255.808594 264.550781 255.433594 264.585938 255.054688 264.585938 L 195.46875 264.585938 L 195.46875 301.828125 C 195.421875 303.664062 195.113281 305.453125 194.542969 307.199219 L 268.335938 307.199219 C 269.113281 307.160156 269.882812 307.050781 270.640625 306.867188 C 271.398438 306.679688 272.132812 306.425781 272.839844 306.097656 C 273.546875 305.769531 274.21875 305.378906 274.851562 304.921875 C 275.484375 304.46875 276.066406 303.957031 276.601562 303.386719 C 277.132812 302.820312 277.609375 302.203125 278.023438 301.542969 C 278.4375 300.882812 278.785156 300.191406 279.070312 299.464844 C 279.351562 298.734375 279.558594 297.988281 279.695312 297.222656 C 279.832031 296.453125 279.894531 295.679688 279.882812 294.898438 L 279.882812 97.773438 C 279.886719 96.0625 279.710938 94.367188 279.363281 92.691406 L 247.320312 92.691406 C 246.726562 92.691406 246.132812 92.660156 245.542969 92.597656 C 244.953125 92.539062 244.367188 92.449219 243.785156 92.332031 C 243.203125 92.214844 242.628906 92.070312 242.0625 91.898438 C 241.496094 91.726562 240.9375 91.523438 240.390625 91.296875 C 239.839844 91.066406 239.304688 90.8125 238.78125 90.535156 C 238.261719 90.253906 237.753906 89.949219 237.257812 89.617188 C 236.765625 89.289062 236.289062 88.933594 235.832031 88.558594 C 235.375 88.183594 234.933594 87.785156 234.515625 87.363281 C 234.09375 86.945312 233.699219 86.507812 233.320312 86.046875 C 232.945312 85.589844 232.589844 85.113281 232.261719 84.621094 C 231.929688 84.128906 231.625 83.621094 231.34375 83.097656 C 231.066406 82.574219 230.8125 82.039062 230.582031 81.492188 C 230.355469 80.941406 230.15625 80.386719 229.980469 79.816406 C 229.808594 79.25 229.664062 78.675781 229.546875 78.09375 C 229.429688 77.511719 229.339844 76.925781 229.28125 76.335938 C 229.21875 75.746094 229.191406 75.15625 229.1875 74.5625 L 229.1875 44.765625 C 228.15625 44.59375 227.117188 44.480469 226.070312 44.421875 L 99.039062 44.421875 C 98.410156 44.394531 97.785156 44.429688 97.164062 44.527344 C 96.539062 44.628906 95.933594 44.789062 95.34375 45.011719 C 94.753906 45.238281 94.195312 45.515625 93.660156 45.855469 C 93.128906 46.191406 92.636719 46.578125 92.183594 47.015625 C 91.730469 47.453125 91.324219 47.933594 90.96875 48.453125 C 90.613281 48.972656 90.3125 49.523438 90.066406 50.101562 C 89.824219 50.683594 89.640625 51.285156 89.515625 51.902344 C 89.394531 52.519531 89.335938 53.144531 89.339844 53.773438 Z M 25.824219 229.941406 L 75.367188 229.941406 C 76.289062 228.914062 77.265625 227.9375 78.292969 227.015625 C 79.320312 226.089844 80.394531 225.222656 81.511719 224.410156 C 82.628906 223.597656 83.785156 222.847656 84.984375 222.15625 C 86.179688 221.464844 87.410156 220.839844 88.671875 220.277344 C 89.933594 219.714844 91.222656 219.21875 92.535156 218.792969 C 93.851562 218.367188 95.183594 218.007812 96.535156 217.722656 C 97.886719 217.433594 99.25 217.21875 100.621094 217.074219 C 101.996094 216.929688 103.375 216.859375 104.757812 216.859375 C 106.136719 216.859375 107.515625 216.929688 108.890625 217.074219 C 110.265625 217.21875 111.628906 217.433594 112.980469 217.722656 C 114.332031 218.007812 115.664062 218.367188 116.976562 218.792969 C 118.292969 219.21875 119.578125 219.714844 120.839844 220.277344 C 122.105469 220.839844 123.332031 221.464844 124.53125 222.15625 C 125.726562 222.847656 126.882812 223.597656 128 224.410156 C 129.121094 225.222656 130.191406 226.089844 131.21875 227.015625 C 132.246094 227.9375 133.222656 228.914062 134.148438 229.941406 L 183.917969 229.941406 L 183.917969 211.175781 C 183.917969 210.828125 183.886719 210.480469 183.816406 210.140625 C 183.75 209.796875 183.648438 209.464844 183.515625 209.144531 C 183.382812 208.820312 183.21875 208.515625 183.023438 208.222656 C 182.828125 207.933594 182.609375 207.667969 182.363281 207.417969 C 182.117188 207.171875 181.847656 206.953125 181.558594 206.757812 C 181.269531 206.566406 180.960938 206.402344 180.640625 206.269531 C 180.316406 206.132812 179.984375 206.035156 179.644531 205.964844 C 179.300781 205.898438 178.957031 205.863281 178.605469 205.863281 L 138.648438 205.863281 C 137.761719 205.84375 136.882812 205.746094 136.011719 205.566406 C 135.144531 205.386719 134.296875 205.128906 133.476562 204.792969 C 132.652344 204.457031 131.867188 204.050781 131.121094 203.570312 C 130.371094 203.09375 129.675781 202.546875 129.027344 201.941406 C 128.378906 201.332031 127.792969 200.671875 127.265625 199.953125 C 126.742188 199.238281 126.285156 198.480469 125.898438 197.679688 C 125.511719 196.882812 125.199219 196.054688 124.964844 195.195312 C 124.730469 194.339844 124.578125 193.46875 124.503906 192.582031 C 124.449219 192.21875 124.363281 191.863281 124.242188 191.515625 C 124.121094 191.167969 123.964844 190.835938 123.78125 190.515625 C 123.597656 190.199219 123.382812 189.898438 123.140625 189.621094 C 122.898438 189.34375 122.632812 189.09375 122.339844 188.867188 C 122.050781 188.640625 121.742188 188.445312 121.414062 188.277344 C 121.085938 188.109375 120.746094 187.972656 120.390625 187.871094 C 120.035156 187.769531 119.675781 187.703125 119.308594 187.667969 C 118.941406 187.636719 118.578125 187.636719 118.210938 187.675781 L 91.648438 187.675781 C 90.183594 187.664062 88.855469 188.085938 87.664062 188.945312 C 87.132812 189.328125 86.695312 189.800781 86.355469 190.363281 C 86.015625 190.925781 85.796875 191.53125 85.703125 192.179688 C 85.632812 193.070312 85.480469 193.945312 85.246094 194.808594 C 85.011719 195.667969 84.703125 196.503906 84.316406 197.308594 C 83.929688 198.113281 83.472656 198.875 82.945312 199.59375 C 82.417969 200.316406 81.828125 200.980469 81.175781 201.589844 C 80.523438 202.203125 79.824219 202.75 79.070312 203.230469 C 78.320312 203.710938 77.53125 204.121094 76.703125 204.457031 C 75.875 204.792969 75.023438 205.050781 74.148438 205.226562 C 73.273438 205.40625 72.390625 205.503906 71.496094 205.515625 L 31.078125 205.515625 C 30.730469 205.515625 30.382812 205.550781 30.039062 205.617188 C 29.695312 205.6875 29.359375 205.789062 29.039062 205.921875 C 28.714844 206.054688 28.40625 206.21875 28.113281 206.410156 C 27.820312 206.605469 27.550781 206.824219 27.300781 207.070312 C 27.054688 207.316406 26.832031 207.582031 26.632812 207.875 C 26.4375 208.164062 26.269531 208.46875 26.132812 208.792969 C 25.996094 209.113281 25.894531 209.445312 25.820312 209.789062 C 25.75 210.132812 25.714844 210.480469 25.710938 210.828125 Z M 104.871094 228.09375 C 103.945312 228.09375 103.019531 228.140625 102.097656 228.230469 C 101.175781 228.320312 100.261719 228.457031 99.351562 228.636719 C 98.445312 228.816406 97.546875 229.042969 96.660156 229.3125 C 95.773438 229.582031 94.902344 229.894531 94.042969 230.246094 C 93.1875 230.601562 92.351562 230.996094 91.535156 231.433594 C 90.71875 231.871094 89.921875 232.347656 89.152344 232.863281 C 88.382812 233.378906 87.640625 233.929688 86.921875 234.515625 C 86.207031 235.105469 85.519531 235.726562 84.867188 236.378906 C 84.210938 237.035156 83.589844 237.722656 83 238.4375 C 82.414062 239.15625 81.863281 239.898438 81.347656 240.667969 C 80.832031 241.4375 80.355469 242.234375 79.917969 243.050781 C 79.484375 243.867188 79.085938 244.703125 78.734375 245.558594 C 78.378906 246.414062 78.066406 247.289062 77.796875 248.175781 C 77.527344 249.0625 77.304688 249.957031 77.121094 250.867188 C 76.941406 251.777344 76.804688 252.691406 76.714844 253.613281 C 76.625 254.535156 76.578125 255.460938 76.578125 256.386719 C 76.578125 257.3125 76.625 258.238281 76.714844 259.160156 C 76.804688 260.082031 76.941406 260.996094 77.121094 261.90625 C 77.304688 262.816406 77.527344 263.714844 77.796875 264.601562 C 78.066406 265.488281 78.378906 266.359375 78.734375 267.214844 C 79.085938 268.070312 79.484375 268.90625 79.917969 269.722656 C 80.355469 270.542969 80.832031 271.335938 81.347656 272.105469 C 81.863281 272.875 82.414062 273.621094 83 274.335938 C 83.589844 275.050781 84.210938 275.738281 84.867188 276.394531 C 85.519531 277.046875 86.207031 277.667969 86.921875 278.257812 C 87.640625 278.84375 88.382812 279.398438 89.152344 279.910156 C 89.921875 280.425781 90.71875 280.902344 91.535156 281.339844 C 92.351562 281.777344 93.1875 282.171875 94.042969 282.527344 C 94.902344 282.882812 95.773438 283.191406 96.660156 283.460938 C 97.546875 283.730469 98.445312 283.957031 99.351562 284.136719 C 100.261719 284.316406 101.175781 284.453125 102.097656 284.542969 C 103.019531 284.632812 103.945312 284.679688 104.871094 284.679688 C 105.796875 284.679688 106.722656 284.632812 107.644531 284.542969 C 108.566406 284.453125 109.484375 284.316406 110.390625 284.136719 C 111.300781 283.957031 112.199219 283.730469 113.085938 283.460938 C 113.972656 283.191406 114.84375 282.882812 115.699219 282.527344 C 116.554688 282.171875 117.390625 281.777344 118.210938 281.339844 C 119.027344 280.902344 119.820312 280.425781 120.589844 279.910156 C 121.359375 279.398438 122.105469 278.84375 122.820312 278.257812 C 123.535156 277.667969 124.222656 277.046875 124.878906 276.394531 C 125.535156 275.738281 126.15625 275.050781 126.742188 274.335938 C 127.332031 273.621094 127.882812 272.875 128.398438 272.105469 C 128.910156 271.335938 129.386719 270.542969 129.824219 269.722656 C 130.261719 268.90625 130.65625 268.070312 131.011719 267.214844 C 131.367188 266.359375 131.675781 265.488281 131.945312 264.601562 C 132.214844 263.714844 132.441406 262.816406 132.621094 261.90625 C 132.800781 260.996094 132.9375 260.082031 133.027344 259.160156 C 133.121094 258.238281 133.164062 257.3125 133.164062 256.386719 C 133.164062 255.460938 133.117188 254.535156 133.023438 253.617188 C 132.929688 252.695312 132.792969 251.777344 132.613281 250.871094 C 132.429688 249.964844 132.203125 249.066406 131.933594 248.179688 C 131.664062 247.292969 131.351562 246.425781 130.996094 245.570312 C 130.640625 244.714844 130.246094 243.878906 129.808594 243.0625 C 129.371094 242.246094 128.894531 241.453125 128.378906 240.683594 C 127.863281 239.910156 127.3125 239.167969 126.726562 238.453125 C 126.136719 237.738281 125.515625 237.050781 124.859375 236.398438 C 124.207031 235.742188 123.519531 235.121094 122.804688 234.535156 C 122.089844 233.945312 121.347656 233.394531 120.578125 232.878906 C 119.808594 232.363281 119.015625 231.890625 118.199219 231.453125 C 117.382812 231.015625 116.546875 230.617188 115.691406 230.261719 C 114.835938 229.90625 113.964844 229.59375 113.078125 229.324219 C 112.191406 229.054688 111.296875 228.828125 110.386719 228.648438 C 109.480469 228.464844 108.566406 228.328125 107.644531 228.234375 C 106.722656 228.144531 105.796875 228.097656 104.871094 228.09375 Z M 25.824219 301.65625 C 25.828125 302.007812 25.867188 302.351562 25.9375 302.695312 C 26.007812 303.039062 26.113281 303.371094 26.25 303.691406 C 26.386719 304.015625 26.554688 304.320312 26.75 304.613281 C 26.945312 304.902344 27.167969 305.167969 27.417969 305.414062 C 27.667969 305.660156 27.9375 305.882812 28.230469 306.074219 C 28.519531 306.269531 28.828125 306.429688 29.152344 306.566406 C 29.476562 306.699219 29.808594 306.796875 30.152344 306.867188 C 30.496094 306.933594 30.84375 306.96875 31.195312 306.96875 L 178.605469 306.96875 C 178.957031 306.96875 179.300781 306.933594 179.644531 306.867188 C 179.984375 306.796875 180.316406 306.695312 180.640625 306.5625 C 180.960938 306.429688 181.269531 306.265625 181.558594 306.074219 C 181.847656 305.878906 182.117188 305.660156 182.363281 305.410156 C 182.609375 305.164062 182.828125 304.898438 183.023438 304.605469 C 183.21875 304.316406 183.382812 304.011719 183.515625 303.6875 C 183.648438 303.367188 183.75 303.035156 183.816406 302.691406 C 183.886719 302.351562 183.917969 302.003906 183.917969 301.65625 L 183.917969 240.855469 L 141.59375 240.855469 C 143.683594 245.761719 144.722656 250.882812 144.714844 256.214844 C 144.714844 256.949219 144.695312 257.679688 144.65625 258.414062 C 144.621094 259.144531 144.5625 259.878906 144.480469 260.605469 C 144.402344 261.335938 144.304688 262.0625 144.183594 262.785156 C 144.066406 263.511719 143.925781 264.230469 143.765625 264.945312 C 143.609375 265.664062 143.429688 266.375 143.230469 267.082031 C 143.035156 267.789062 142.816406 268.488281 142.578125 269.183594 C 142.34375 269.875 142.085938 270.5625 141.8125 271.242188 C 141.535156 271.925781 141.242188 272.597656 140.929688 273.261719 C 140.617188 273.925781 140.289062 274.578125 139.941406 275.226562 C 139.59375 275.871094 139.226562 276.507812 138.84375 277.132812 C 138.460938 277.757812 138.058594 278.371094 137.640625 278.976562 C 137.226562 279.578125 136.792969 280.171875 136.339844 280.75 C 135.890625 281.328125 135.425781 281.898438 134.945312 282.449219 C 134.464844 283.003906 133.96875 283.542969 133.457031 284.070312 C 132.945312 284.597656 132.417969 285.109375 131.878906 285.605469 C 131.339844 286.105469 130.789062 286.585938 130.222656 287.050781 C 129.65625 287.519531 129.078125 287.96875 128.488281 288.40625 C 127.894531 288.839844 127.292969 289.257812 126.679688 289.660156 C 126.066406 290.0625 125.441406 290.445312 124.804688 290.8125 C 124.167969 291.179688 123.523438 291.527344 122.871094 291.859375 C 122.214844 292.191406 121.550781 292.503906 120.878906 292.800781 C 120.207031 293.09375 119.53125 293.371094 118.84375 293.628906 C 118.15625 293.886719 117.460938 294.125 116.761719 294.34375 C 116.0625 294.5625 115.355469 294.761719 114.644531 294.941406 C 113.933594 295.121094 113.21875 295.28125 112.496094 295.421875 C 111.777344 295.5625 111.054688 295.683594 110.328125 295.78125 C 109.597656 295.882812 108.871094 295.964844 108.140625 296.023438 C 107.40625 296.082031 106.675781 296.125 105.941406 296.144531 C 105.207031 296.164062 104.476562 296.164062 103.742188 296.140625 C 103.007812 296.121094 102.277344 296.078125 101.546875 296.019531 C 100.8125 295.957031 100.085938 295.875 99.359375 295.773438 C 98.632812 295.671875 97.910156 295.550781 97.1875 295.410156 C 96.46875 295.269531 95.753906 295.105469 95.042969 294.925781 C 94.332031 294.746094 93.625 294.542969 92.925781 294.324219 C 92.226562 294.105469 91.53125 293.867188 90.847656 293.605469 C 90.160156 293.347656 89.480469 293.070312 88.808594 292.777344 C 88.136719 292.480469 87.472656 292.164062 86.820312 291.832031 C 86.167969 291.5 85.523438 291.152344 84.886719 290.78125 C 84.253906 290.414062 83.628906 290.03125 83.015625 289.628906 C 82.402344 289.222656 81.800781 288.804688 81.210938 288.371094 C 80.621094 287.933594 80.042969 287.480469 79.476562 287.015625 C 78.910156 286.546875 78.359375 286.0625 77.820312 285.566406 C 77.28125 285.066406 76.757812 284.554688 76.246094 284.027344 C 75.738281 283.5 75.242188 282.960938 74.761719 282.40625 C 74.28125 281.851562 73.816406 281.285156 73.367188 280.703125 C 72.917969 280.121094 72.484375 279.53125 72.066406 278.925781 C 71.652344 278.324219 71.253906 277.707031 70.871094 277.082031 C 70.488281 276.457031 70.121094 275.820312 69.777344 275.171875 C 69.429688 274.527344 69.097656 273.871094 68.789062 273.207031 C 68.476562 272.542969 68.183594 271.871094 67.910156 271.1875 C 67.636719 270.507812 67.382812 269.820312 67.144531 269.125 C 66.910156 268.429688 66.695312 267.730469 66.496094 267.023438 C 66.300781 266.316406 66.121094 265.605469 65.964844 264.886719 C 65.804688 264.171875 65.667969 263.453125 65.550781 262.726562 C 65.433594 262.003906 65.335938 261.277344 65.257812 260.546875 C 65.179688 259.816406 65.121094 259.085938 65.082031 258.355469 C 65.046875 257.621094 65.027344 256.886719 65.03125 256.152344 C 65.035156 255.421875 65.058594 254.6875 65.101562 253.953125 C 65.144531 253.222656 65.207031 252.492188 65.292969 251.761719 C 65.375 251.035156 65.480469 250.308594 65.605469 249.585938 C 65.726562 248.863281 65.871094 248.140625 66.035156 247.425781 C 66.199219 246.710938 66.382812 246.003906 66.585938 245.296875 C 66.789062 244.59375 67.011719 243.894531 67.25 243.199219 C 67.492188 242.507812 67.753906 241.820312 68.035156 241.144531 L 25.824219 241.488281 Z M 25.824219 301.65625 " fill-opacity="1" fill-rule="nonzero"/></g></svg>