<svg xmlns="http://www.w3.org/2000/svg" xmlns:xlink="http://www.w3.org/1999/xlink" width="500" zoomAndPan="magnify" viewBox="0 0 375 374.999991" height="500" preserveAspectRatio="xMidYMid meet" version="1.0"><defs><clipPath id="6db5958714"><path d="M 14.308594 26.992188 L 360.808594 26.992188 L 360.808594 357.742188 L 14.308594 357.742188 Z M 14.308594 26.992188 " clip-rule="nonzero"/></clipPath></defs><g clip-path="url(#6db5958714)"><path fill="#1c1d28" d="M 360.609375 200.171875 C 360.609375 200.171875 360.609375 200.105469 360.609375 200.105469 C 360.609375 191.707031 360 183.308594 358.78125 175.046875 C 358.710938 174.367188 358.578125 173.691406 358.507812 173.011719 C 358.171875 170.914062 357.832031 168.882812 357.425781 166.78125 C 356.949219 164.34375 356.410156 161.90625 355.800781 159.535156 C 355.664062 158.859375 355.527344 158.179688 355.324219 157.503906 C 347.535156 126.824219 331.621094 99.390625 309.949219 77.71875 C 309.609375 77.378906 309.203125 77.042969 308.863281 76.703125 C 308.050781 75.890625 307.171875 75.078125 306.289062 74.265625 C 304.867188 72.910156 303.378906 71.554688 301.886719 70.269531 C 296.46875 65.460938 290.78125 61.058594 284.753906 56.996094 C 284.480469 56.859375 284.277344 56.65625 284.007812 56.519531 C 280.824219 54.351562 277.503906 52.320312 274.121094 50.355469 C 273.984375 50.289062 273.847656 50.222656 273.78125 50.152344 C 272.289062 49.339844 270.867188 48.394531 269.378906 47.582031 L 269.3125 47.648438 C 269.175781 47.582031 269.105469 47.511719 268.972656 47.445312 C 267.074219 46.429688 265.246094 45.480469 263.28125 44.53125 C 262.875 44.328125 262.46875 44.125 262.0625 43.921875 C 259.964844 42.90625 257.796875 41.957031 255.695312 41.011719 C 255.222656 40.808594 254.75 40.605469 254.207031 40.402344 C 252.3125 39.589844 250.414062 38.84375 248.449219 38.167969 C 247.503906 37.828125 246.484375 37.421875 245.539062 37.082031 C 244.117188 36.609375 242.761719 36.132812 241.339844 35.660156 C 239.714844 35.117188 238.019531 34.644531 236.394531 34.101562 C 235.648438 33.898438 234.90625 33.695312 234.160156 33.425781 C 231.855469 32.816406 229.621094 32.207031 227.320312 31.664062 C 227.117188 31.597656 226.914062 31.597656 226.710938 31.527344 C 218.648438 29.632812 210.320312 28.34375 201.851562 27.667969 C 201.71875 27.667969 201.515625 27.667969 201.378906 27.601562 C 198.875 27.398438 196.367188 27.261719 193.859375 27.195312 C 193.117188 27.195312 192.304688 27.125 191.558594 27.125 C 190.203125 27.125 188.917969 26.992188 187.5625 26.992188 C 186.953125 26.992188 186.410156 27.058594 185.800781 27.058594 C 184.3125 27.058594 182.820312 27.125 181.332031 27.195312 C 180.113281 27.261719 178.894531 27.261719 177.605469 27.328125 C 175.4375 27.464844 173.273438 27.601562 171.105469 27.804688 C 170.5625 27.871094 169.953125 27.871094 169.410156 27.9375 C 166.769531 28.210938 164.128906 28.546875 161.488281 28.953125 C 161.351562 28.953125 161.214844 29.023438 161.082031 29.023438 C 158.4375 29.429688 155.867188 29.902344 153.222656 30.445312 C 152.953125 30.511719 152.683594 30.511719 152.480469 30.582031 C 150.515625 30.988281 148.617188 31.460938 146.65625 31.933594 C 145.570312 32.207031 144.417969 32.476562 143.335938 32.746094 C 143.132812 32.816406 142.863281 32.882812 142.660156 32.882812 C 142.253906 33.019531 141.777344 33.152344 141.371094 33.289062 C 138.59375 34.035156 135.816406 34.914062 133.042969 35.796875 C 132.226562 36.066406 131.414062 36.335938 130.535156 36.609375 C 127.621094 37.625 124.710938 38.707031 121.867188 39.859375 C 121.527344 39.996094 121.1875 40.128906 120.851562 40.265625 C 117.597656 41.621094 114.347656 43.109375 111.234375 44.667969 C 110.757812 44.871094 110.285156 45.140625 109.808594 45.414062 C 107.167969 46.769531 104.527344 48.121094 101.953125 49.613281 C 101.613281 49.816406 101.207031 50.019531 100.871094 50.222656 C 100.667969 50.355469 100.464844 50.492188 100.261719 50.628906 C 95.859375 53.203125 91.589844 55.910156 87.460938 58.890625 C 86.917969 59.296875 86.308594 59.703125 85.765625 60.109375 C 81.703125 63.023438 77.84375 66.136719 74.050781 69.457031 C 73.574219 69.863281 73.101562 70.269531 72.628906 70.675781 C 69.984375 72.976562 67.414062 75.347656 64.972656 77.855469 C 63.824219 79.007812 62.738281 80.226562 61.585938 81.375 C 61.25 81.714844 60.976562 81.988281 60.640625 82.324219 C 57.183594 86.117188 53.800781 90.179688 50.546875 94.3125 C 50.34375 94.582031 50.140625 94.785156 50.007812 94.988281 C 46.753906 99.257812 43.707031 103.660156 40.863281 108.195312 C 40.726562 108.402344 40.59375 108.671875 40.390625 108.875 C 37.613281 113.414062 34.96875 118.019531 32.601562 122.828125 C 32.464844 123.164062 32.261719 123.503906 32.125 123.84375 C 29.824219 128.515625 27.722656 133.324219 25.828125 138.199219 C 25.691406 138.605469 25.488281 139.082031 25.285156 139.488281 C 23.457031 144.433594 21.832031 149.511719 20.410156 154.589844 C 20.339844 154.792969 20.273438 154.996094 20.207031 155.269531 C 20.136719 155.402344 20.136719 155.605469 20.070312 155.742188 C 19.191406 159.0625 18.378906 162.449219 17.699219 165.902344 C 17.632812 166.308594 17.5625 166.714844 17.496094 167.121094 C 16.953125 170.03125 16.414062 173.011719 16.007812 175.992188 C 15.871094 177.007812 15.734375 177.957031 15.601562 178.972656 C 15.261719 181.480469 15.058594 184.054688 14.855469 186.625 C 14.789062 187.640625 14.71875 188.660156 14.652344 189.605469 C 14.449219 193.0625 14.3125 196.582031 14.3125 200.105469 C 14.3125 203.152344 16.820312 205.660156 19.867188 205.660156 L 29.824219 205.660156 L 29.824219 223.742188 C 29.824219 228.890625 31.921875 233.628906 35.375 237.085938 C 41.472656 244.738281 57.050781 242.230469 65.515625 242.636719 C 67.140625 247.3125 69.039062 251.847656 71.207031 256.320312 L 59.285156 268.308594 L 58.945312 268.644531 C 51.902344 276.027344 52.039062 287.675781 59.285156 294.855469 L 92.742188 328.3125 C 100.058594 335.628906 111.976562 335.695312 119.359375 328.3125 L 131.28125 316.394531 C 135.75 318.5625 140.289062 320.457031 144.960938 322.082031 L 144.960938 338.949219 C 144.960938 349.308594 153.425781 357.777344 163.789062 357.777344 L 211.0625 357.777344 C 221.425781 357.777344 229.894531 349.308594 229.894531 338.949219 L 229.894531 322.082031 C 234.566406 320.457031 239.105469 318.5625 243.574219 316.394531 L 255.492188 328.3125 C 262.808594 335.628906 274.730469 335.695312 282.109375 328.3125 L 315.570312 294.855469 C 322.882812 287.542969 322.953125 275.621094 315.570312 268.238281 L 303.648438 256.320312 C 305.816406 251.78125 307.710938 247.3125 309.339844 242.636719 C 318.007812 242.300781 333.179688 244.738281 339.476562 237.085938 C 342.863281 233.699219 345.03125 228.957031 345.03125 223.742188 L 345.03125 205.660156 L 360.539062 205.660156 C 360.675781 203.898438 360.609375 202.070312 360.609375 200.171875 Z M 214.042969 170.304688 C 212.960938 166.039062 210.929688 162.042969 207.949219 158.722656 L 243.4375 138.199219 C 244.996094 137.320312 246.757812 137.117188 248.382812 137.589844 C 253.867188 138.808594 254.953125 146.871094 249.941406 149.511719 Z M 199.347656 165.96875 C 209.84375 175.722656 202.125 195.226562 187.496094 194.6875 C 172.867188 195.226562 165.144531 175.789062 175.574219 166.039062 C 181.535156 159.535156 193.453125 159.535156 199.347656 165.96875 Z M 247.636719 205.726562 C 244.792969 236.609375 218.851562 260.585938 187.496094 260.585938 C 156.136719 260.585938 130.195312 236.679688 127.351562 205.726562 Z M 253.394531 194.617188 L 209.640625 194.617188 C 212.214844 191.027344 213.976562 186.964844 214.652344 182.628906 L 254.953125 159.332031 C 255.222656 159.195312 255.5625 159.0625 255.832031 158.859375 C 275.339844 146.191406 257.457031 117.207031 237.410156 128.921875 L 197.519531 151.949219 C 194.539062 150.867188 191.21875 150.054688 187.425781 149.917969 C 161.011719 150.59375 153.699219 178.5 165.210938 194.617188 L 66.9375 194.617188 C 67.820312 175.179688 73.304688 156.417969 82.921875 139.757812 C 93.488281 121.472656 108.792969 106.097656 127.148438 95.53125 C 145.367188 84.964844 166.09375 79.414062 187.496094 79.414062 C 208.558594 79.414062 228.945312 84.832031 246.960938 95.058594 C 256.375 100.542969 265.246094 107.046875 272.898438 114.765625 C 294.234375 135.832031 306.5625 164.683594 308.117188 194.617188 Z M 196.164062 38.4375 C 197.585938 38.503906 199.078125 38.640625 200.5 38.777344 C 222.78125 40.535156 244.117188 46.769531 263.6875 57.199219 L 257.324219 68.238281 L 248.585938 83.410156 C 211.402344 63.496094 163.65625 63.496094 126.472656 83.410156 L 111.570312 57.605469 C 136.5625 44.464844 164.804688 37.625 193.25 38.371094 C 194.199219 38.371094 195.214844 38.371094 196.164062 38.4375 Z M 26.4375 182.699219 C 26.570312 181.546875 26.707031 180.328125 26.910156 179.175781 C 27.25 176.738281 27.589844 174.367188 27.996094 171.996094 C 28.332031 169.964844 28.671875 168 29.144531 166.039062 C 29.347656 165.089844 29.550781 164.207031 29.753906 163.328125 C 33.34375 147.816406 39.238281 132.917969 47.160156 119.167969 C 53.664062 107.859375 61.585938 97.429688 70.59375 88.082031 C 70.796875 87.878906 70.933594 87.675781 71.136719 87.472656 C 72.085938 86.523438 73.035156 85.644531 73.980469 84.695312 C 82.515625 76.433594 91.929688 69.253906 101.953125 63.023438 L 116.855469 88.894531 C 80.824219 111.515625 57.320312 151.949219 55.761719 194.6875 L 25.554688 194.6875 C 25.691406 190.621094 26.03125 186.625 26.4375 182.699219 Z M 334.058594 223.878906 C 334.058594 228.144531 330.605469 231.664062 326.269531 231.597656 C 326.269531 231.597656 305.476562 231.597656 305.476562 231.597656 C 298.839844 231.9375 299.3125 240.878906 296.605469 245.347656 C 295.316406 250.699219 288.613281 256.25 293.082031 261.398438 L 307.847656 276.097656 C 309.339844 277.585938 310.082031 279.617188 310.082031 281.582031 C 310.082031 283.476562 309.40625 285.375 308.050781 286.863281 L 274.390625 320.527344 C 271.476562 323.4375 266.667969 323.503906 263.621094 320.730469 L 248.652344 305.761719 C 243.574219 301.289062 237.953125 307.929688 232.601562 309.214844 C 228.0625 311.992188 219.257812 311.316406 218.851562 318.085938 L 218.851562 338.878906 C 218.851562 343.148438 215.398438 346.601562 211.132812 346.601562 L 163.859375 346.601562 C 161.691406 346.601562 159.792969 345.71875 158.371094 344.367188 C 156.949219 342.945312 156.070312 341.046875 156.070312 338.878906 C 156.070312 338.878906 156.070312 318.085938 156.070312 318.085938 C 155.730469 311.382812 146.789062 311.925781 142.320312 309.214844 C 136.96875 307.929688 131.414062 301.222656 126.269531 305.761719 L 111.570312 320.527344 C 110.082031 322.015625 108.050781 322.761719 106.085938 322.761719 C 104.1875 322.761719 102.292969 322.082031 100.800781 320.730469 L 67.140625 287.066406 C 64.230469 284.15625 64.160156 279.347656 66.9375 276.300781 L 81.90625 261.332031 C 86.375 256.320312 79.738281 250.5625 78.382812 245.28125 C 75.609375 240.742188 76.285156 231.9375 69.511719 231.53125 L 48.652344 231.53125 C 44.386719 231.53125 40.863281 228.078125 40.863281 223.808594 L 40.863281 205.726562 L 116.109375 205.726562 C 120.105469 265.328125 195.488281 294.042969 237.953125 250.699219 C 249.667969 238.980469 257.253906 223.199219 258.609375 205.726562 L 333.992188 205.726562 L 333.992188 223.878906 Z M 339.613281 194.617188 L 319.226562 194.617188 C 317.667969 151.882812 294.234375 111.515625 258.136719 88.894531 L 273.238281 62.683594 C 277.640625 65.394531 281.839844 68.441406 285.972656 71.554688 C 287.734375 72.910156 289.5625 74.332031 291.253906 75.753906 C 292.136719 76.5 293.015625 77.246094 293.828125 77.992188 C 296.265625 80.089844 298.636719 82.324219 300.941406 84.628906 C 301.414062 85.101562 301.957031 85.574219 302.429688 86.050781 C 305.546875 89.234375 308.523438 92.484375 311.4375 95.9375 C 312.113281 96.75 312.722656 97.5625 313.402344 98.375 C 315.5 100.949219 317.464844 103.660156 319.429688 106.367188 C 320.242188 107.519531 321.121094 108.671875 321.933594 109.890625 C 324.101562 113.140625 326.203125 116.527344 328.167969 119.914062 C 328.910156 121.269531 329.65625 122.625 330.402344 124.046875 C 331.824219 126.753906 333.246094 129.464844 334.53125 132.308594 C 335.074219 133.527344 335.683594 134.746094 336.226562 135.964844 C 337.917969 139.894531 339.476562 143.890625 340.898438 148.019531 C 341.171875 148.835938 341.441406 149.648438 341.710938 150.460938 C 344.625 159.535156 346.859375 168.949219 348.144531 178.632812 C 348.214844 178.972656 348.214844 179.246094 348.28125 179.582031 C 348.890625 184.59375 349.367188 189.675781 349.5 194.820312 L 339.613281 194.820312 Z M 339.613281 194.617188 " fill-opacity="1" fill-rule="evenodd"/></g></svg>