<svg xmlns="http://www.w3.org/2000/svg" xmlns:xlink="http://www.w3.org/1999/xlink" width="500" zoomAndPan="magnify" viewBox="0 0 375 374.999991" height="500" preserveAspectRatio="xMidYMid meet" version="1.0"><defs><clipPath id="e9a0eeb5be"><path d="M 31.804688 30.234375 L 343.054688 30.234375 L 343.054688 344.484375 L 31.804688 344.484375 Z M 31.804688 30.234375 " clip-rule="nonzero"/></clipPath></defs><g clip-path="url(#e9a0eeb5be)"><path fill="#1c1d28" d="M 62.589844 344.632812 L 312.71875 344.632812 C 313.726562 344.628906 314.730469 344.582031 315.730469 344.480469 C 316.730469 344.382812 317.726562 344.234375 318.710938 344.035156 C 319.699219 343.839844 320.671875 343.59375 321.636719 343.300781 C 322.597656 343.007812 323.542969 342.671875 324.472656 342.285156 C 325.402344 341.898438 326.308594 341.46875 327.195312 340.996094 C 328.082031 340.519531 328.945312 340.003906 329.78125 339.445312 C 330.617188 338.886719 331.421875 338.285156 332.203125 337.648438 C 332.980469 337.011719 333.722656 336.335938 334.433594 335.625 C 335.144531 334.914062 335.820312 334.167969 336.457031 333.390625 C 337.097656 332.613281 337.695312 331.808594 338.253906 330.972656 C 338.8125 330.132812 339.332031 329.273438 339.804688 328.386719 C 340.277344 327.5 340.710938 326.589844 341.09375 325.660156 C 341.480469 324.734375 341.820312 323.789062 342.113281 322.824219 C 342.402344 321.863281 342.648438 320.886719 342.847656 319.902344 C 343.042969 318.914062 343.191406 317.921875 343.289062 316.921875 C 343.390625 315.917969 343.441406 314.917969 343.441406 313.910156 L 343.441406 61.085938 C 343.441406 60.082031 343.390625 59.078125 343.289062 58.078125 C 343.191406 57.078125 343.042969 56.082031 342.847656 55.097656 C 342.648438 54.109375 342.402344 53.136719 342.113281 52.171875 C 341.820312 51.210938 341.480469 50.265625 341.09375 49.335938 C 340.710938 48.40625 340.277344 47.5 339.804688 46.613281 C 339.332031 45.726562 338.8125 44.863281 338.253906 44.027344 C 337.695312 43.191406 337.097656 42.382812 336.457031 41.605469 C 335.820312 40.828125 335.144531 40.085938 334.433594 39.375 C 333.722656 38.664062 332.980469 37.988281 332.203125 37.351562 C 331.421875 36.710938 330.617188 36.113281 329.78125 35.554688 C 328.945312 34.996094 328.082031 34.476562 327.195312 34.003906 C 326.308594 33.527344 325.402344 33.097656 324.472656 32.714844 C 323.542969 32.328125 322.597656 31.988281 321.636719 31.695312 C 320.671875 31.402344 319.699219 31.160156 318.710938 30.960938 C 317.726562 30.765625 316.730469 30.617188 315.730469 30.515625 C 314.730469 30.417969 313.726562 30.367188 312.71875 30.367188 L 62.589844 30.367188 C 61.21875 30.371094 59.851562 30.464844 58.492188 30.652344 C 57.132812 30.839844 55.792969 31.113281 54.46875 31.480469 C 53.148438 31.847656 51.855469 32.296875 50.589844 32.835938 C 49.328125 33.375 48.109375 33.996094 46.929688 34.699219 C 45.75 35.398438 44.621094 36.175781 43.546875 37.03125 C 42.472656 37.882812 41.457031 38.804688 40.503906 39.792969 C 39.554688 40.78125 38.671875 41.828125 37.859375 42.933594 C 37.046875 44.039062 36.3125 45.195312 35.65625 46.402344 C 34.4375 48.644531 33.515625 51.003906 32.890625 53.480469 C 32.265625 55.957031 31.957031 58.46875 31.964844 61.023438 L 31.964844 313.910156 C 31.96875 314.914062 32.019531 315.914062 32.117188 316.914062 C 32.214844 317.914062 32.363281 318.90625 32.558594 319.890625 C 32.757812 320.875 33 321.847656 33.292969 322.808594 C 33.582031 323.769531 33.921875 324.710938 34.304688 325.640625 C 34.6875 326.566406 35.117188 327.472656 35.589844 328.359375 C 36.0625 329.246094 36.578125 330.105469 37.132812 330.941406 C 37.691406 331.777344 38.285156 332.582031 38.921875 333.359375 C 39.558594 334.136719 40.230469 334.878906 40.941406 335.589844 C 41.648438 336.300781 42.390625 336.976562 43.164062 337.613281 C 43.941406 338.253906 44.742188 338.851562 45.578125 339.410156 C 46.410156 339.96875 47.269531 340.488281 48.152344 340.964844 C 49.039062 341.4375 49.941406 341.871094 50.871094 342.257812 C 51.796875 342.644531 52.738281 342.984375 53.699219 343.277344 C 54.660156 343.574219 55.628906 343.820312 56.613281 344.019531 C 57.597656 344.21875 58.589844 344.371094 59.585938 344.472656 C 60.585938 344.574219 61.585938 344.628906 62.589844 344.632812 Z M 42.515625 47.523438 C 43.625 45.875 44.914062 44.386719 46.386719 43.054688 C 47.859375 41.726562 49.46875 40.59375 51.21875 39.65625 C 52.96875 38.71875 54.804688 38.007812 56.730469 37.523438 C 58.652344 37.035156 60.605469 36.789062 62.589844 36.78125 L 312.71875 36.78125 C 313.515625 36.78125 314.308594 36.820312 315.101562 36.898438 C 315.894531 36.980469 316.679688 37.097656 317.460938 37.253906 C 318.242188 37.410156 319.011719 37.601562 319.773438 37.835938 C 320.535156 38.066406 321.28125 38.335938 322.019531 38.640625 C 322.753906 38.945312 323.472656 39.285156 324.171875 39.660156 C 324.875 40.035156 325.554688 40.445312 326.21875 40.886719 C 326.878906 41.328125 327.515625 41.800781 328.132812 42.308594 C 328.746094 42.8125 329.335938 43.347656 329.898438 43.910156 C 330.460938 44.472656 330.996094 45.0625 331.5 45.675781 C 332.003906 46.289062 332.480469 46.929688 332.921875 47.589844 C 333.363281 48.253906 333.773438 48.933594 334.148438 49.636719 C 334.523438 50.335938 334.863281 51.054688 335.167969 51.789062 C 335.472656 52.527344 335.742188 53.273438 335.972656 54.035156 C 336.207031 54.796875 336.398438 55.566406 336.554688 56.347656 C 336.710938 57.128906 336.828125 57.914062 336.90625 58.707031 C 336.988281 59.496094 337.027344 60.292969 337.027344 61.085938 L 337.027344 92 L 38.378906 92 L 38.378906 61.085938 C 38.375 58.671875 38.722656 56.304688 39.429688 53.996094 C 40.132812 51.683594 41.164062 49.523438 42.515625 47.523438 Z M 38.378906 98.414062 L 336.933594 98.414062 L 336.933594 313.910156 C 336.929688 314.703125 336.890625 315.496094 336.8125 316.285156 C 336.734375 317.074219 336.617188 317.859375 336.460938 318.640625 C 336.308594 319.417969 336.113281 320.1875 335.882812 320.945312 C 335.652344 321.707031 335.386719 322.453125 335.082031 323.1875 C 334.777344 323.917969 334.441406 324.636719 334.066406 325.335938 C 333.691406 326.035156 333.285156 326.71875 332.84375 327.378906 C 332.40625 328.039062 331.933594 328.675781 331.429688 329.289062 C 330.929688 329.90625 330.398438 330.492188 329.835938 331.054688 C 329.277344 331.617188 328.691406 332.152344 328.078125 332.65625 C 327.464844 333.160156 326.832031 333.636719 326.171875 334.078125 C 325.511719 334.519531 324.832031 334.929688 324.136719 335.308594 C 323.4375 335.683594 322.71875 336.023438 321.988281 336.332031 C 321.257812 336.636719 320.511719 336.90625 319.75 337.140625 C 318.992188 337.375 318.226562 337.570312 317.445312 337.730469 C 316.667969 337.886719 315.886719 338.007812 315.097656 338.089844 C 314.304688 338.171875 313.515625 338.214844 312.71875 338.21875 L 62.589844 338.21875 C 61.796875 338.21875 61 338.175781 60.210938 338.097656 C 59.417969 338.019531 58.632812 337.902344 57.851562 337.746094 C 57.070312 337.589844 56.300781 337.394531 55.539062 337.164062 C 54.777344 336.933594 54.03125 336.664062 53.292969 336.359375 C 52.558594 336.054688 51.839844 335.714844 51.140625 335.339844 C 50.4375 334.964844 49.757812 334.554688 49.09375 334.113281 C 48.433594 333.667969 47.792969 333.195312 47.179688 332.691406 C 46.5625 332.1875 45.976562 331.652344 45.414062 331.089844 C 44.851562 330.527344 44.316406 329.9375 43.8125 329.324219 C 43.304688 328.707031 42.832031 328.070312 42.390625 327.40625 C 41.949219 326.746094 41.539062 326.0625 41.164062 325.363281 C 40.789062 324.660156 40.449219 323.941406 40.144531 323.207031 C 39.835938 322.472656 39.570312 321.722656 39.335938 320.964844 C 39.105469 320.203125 38.914062 319.429688 38.757812 318.652344 C 38.601562 317.871094 38.484375 317.085938 38.402344 316.292969 C 38.324219 315.5 38.285156 314.707031 38.285156 313.910156 Z M 68.554688 77.058594 C 69.402344 77.058594 70.238281 76.976562 71.066406 76.808594 C 71.894531 76.644531 72.695312 76.398438 73.476562 76.074219 C 74.257812 75.75 74.996094 75.355469 75.699219 74.882812 C 76.398438 74.414062 77.046875 73.878906 77.644531 73.28125 C 78.242188 72.683594 78.773438 72.03125 79.238281 71.328125 C 79.707031 70.625 80.101562 69.882812 80.421875 69.101562 C 80.742188 68.320312 80.984375 67.515625 81.144531 66.6875 C 81.304688 65.855469 81.386719 65.019531 81.382812 64.175781 C 81.378906 63.332031 81.292969 62.496094 81.125 61.667969 C 80.953125 60.839844 80.707031 60.039062 80.378906 59.257812 C 80.050781 58.480469 79.652344 57.742188 79.179688 57.042969 C 78.707031 56.34375 78.167969 55.695312 77.566406 55.101562 C 76.96875 54.511719 76.3125 53.980469 75.609375 53.515625 C 74.902344 53.050781 74.160156 52.660156 73.375 52.34375 C 72.59375 52.027344 71.789062 51.789062 70.957031 51.628906 C 70.128906 51.472656 69.292969 51.398438 68.449219 51.402344 C 67.601562 51.410156 66.769531 51.5 65.941406 51.671875 C 65.113281 51.84375 64.3125 52.097656 63.535156 52.425781 C 62.757812 52.757812 62.019531 53.160156 61.324219 53.636719 C 60.625 54.113281 59.980469 54.652344 59.390625 55.253906 C 58.800781 55.859375 58.273438 56.515625 57.8125 57.222656 C 57.351562 57.929688 56.964844 58.675781 56.648438 59.457031 C 56.335938 60.242188 56.101562 61.046875 55.945312 61.878906 C 55.789062 62.707031 55.71875 63.546875 55.730469 64.390625 C 55.738281 65.226562 55.832031 66.050781 56.003906 66.871094 C 56.175781 67.6875 56.425781 68.480469 56.75 69.25 C 57.078125 70.019531 57.476562 70.75 57.945312 71.441406 C 58.414062 72.132812 58.949219 72.769531 59.542969 73.355469 C 60.136719 73.945312 60.78125 74.46875 61.480469 74.929688 C 62.175781 75.390625 62.910156 75.78125 63.683594 76.097656 C 64.457031 76.414062 65.253906 76.652344 66.074219 76.816406 C 66.894531 76.976562 67.71875 77.058594 68.554688 77.058594 Z M 68.554688 58.136719 C 68.980469 58.136719 69.398438 58.179688 69.8125 58.261719 C 70.230469 58.34375 70.632812 58.46875 71.023438 58.632812 C 71.414062 58.792969 71.785156 58.992188 72.136719 59.230469 C 72.488281 59.46875 72.8125 59.734375 73.109375 60.035156 C 73.40625 60.335938 73.671875 60.664062 73.90625 61.015625 C 74.140625 61.371094 74.335938 61.742188 74.496094 62.136719 C 74.65625 62.527344 74.773438 62.929688 74.855469 63.347656 C 74.933594 63.761719 74.972656 64.183594 74.96875 64.605469 C 74.964844 65.027344 74.917969 65.449219 74.832031 65.863281 C 74.746094 66.277344 74.621094 66.679688 74.453125 67.066406 C 74.285156 67.457031 74.085938 67.828125 73.84375 68.175781 C 73.605469 68.523438 73.335938 68.847656 73.03125 69.144531 C 72.726562 69.4375 72.398438 69.703125 72.042969 69.933594 C 71.6875 70.164062 71.3125 70.355469 70.921875 70.511719 C 70.527344 70.667969 70.121094 70.785156 69.707031 70.859375 C 69.289062 70.9375 68.871094 70.972656 68.445312 70.964844 C 68.023438 70.957031 67.605469 70.90625 67.191406 70.816406 C 66.777344 70.726562 66.375 70.597656 65.988281 70.429688 C 65.601562 70.257812 65.234375 70.054688 64.886719 69.8125 C 64.539062 69.570312 64.21875 69.296875 63.925781 68.992188 C 63.632812 68.683594 63.371094 68.355469 63.144531 67.996094 C 62.917969 67.640625 62.726562 67.261719 62.574219 66.867188 C 62.421875 66.472656 62.308594 66.066406 62.234375 65.652344 C 62.164062 65.234375 62.132812 64.8125 62.140625 64.390625 C 62.152344 63.976562 62.203125 63.566406 62.292969 63.164062 C 62.382812 62.757812 62.511719 62.367188 62.675781 61.984375 C 62.839844 61.605469 63.042969 61.246094 63.277344 60.90625 C 63.515625 60.5625 63.78125 60.25 64.078125 59.957031 C 64.375 59.667969 64.695312 59.410156 65.042969 59.183594 C 65.390625 58.957031 65.753906 58.765625 66.136719 58.609375 C 66.523438 58.453125 66.917969 58.335938 67.324219 58.257812 C 67.730469 58.175781 68.140625 58.136719 68.554688 58.136719 Z M 100.429688 77.058594 C 101.277344 77.058594 102.113281 76.976562 102.941406 76.808594 C 103.769531 76.644531 104.574219 76.398438 105.351562 76.074219 C 106.132812 75.75 106.871094 75.355469 107.574219 74.882812 C 108.277344 74.414062 108.925781 73.878906 109.519531 73.28125 C 110.117188 72.683594 110.648438 72.03125 111.113281 71.328125 C 111.582031 70.625 111.976562 69.882812 112.296875 69.101562 C 112.617188 68.320312 112.859375 67.515625 113.019531 66.6875 C 113.183594 65.855469 113.261719 65.019531 113.257812 64.175781 C 113.253906 63.332031 113.167969 62.496094 113 61.667969 C 112.832031 60.839844 112.582031 60.039062 112.253906 59.257812 C 111.929688 58.480469 111.527344 57.742188 111.054688 57.042969 C 110.582031 56.34375 110.042969 55.695312 109.445312 55.101562 C 108.84375 54.511719 108.1875 53.980469 107.484375 53.515625 C 106.777344 53.050781 106.035156 52.660156 105.253906 52.34375 C 104.46875 52.027344 103.664062 51.789062 102.835938 51.628906 C 102.003906 51.472656 101.167969 51.398438 100.324219 51.402344 C 99.480469 51.410156 98.644531 51.5 97.816406 51.671875 C 96.988281 51.84375 96.1875 52.097656 95.410156 52.425781 C 94.632812 52.757812 93.894531 53.160156 93.199219 53.636719 C 92.5 54.113281 91.855469 54.652344 91.265625 55.253906 C 90.675781 55.859375 90.148438 56.515625 89.6875 57.222656 C 89.226562 57.929688 88.839844 58.675781 88.523438 59.457031 C 88.210938 60.242188 87.976562 61.046875 87.820312 61.878906 C 87.664062 62.707031 87.59375 63.546875 87.605469 64.390625 C 87.613281 65.226562 87.707031 66.050781 87.878906 66.871094 C 88.050781 67.6875 88.300781 68.480469 88.625 69.25 C 88.953125 70.019531 89.351562 70.75 89.820312 71.441406 C 90.289062 72.132812 90.824219 72.769531 91.417969 73.355469 C 92.011719 73.945312 92.65625 74.46875 93.355469 74.929688 C 94.050781 75.390625 94.785156 75.78125 95.558594 76.097656 C 96.332031 76.414062 97.128906 76.652344 97.949219 76.816406 C 98.769531 76.976562 99.597656 77.058594 100.429688 77.058594 Z M 100.429688 58.136719 C 100.855469 58.136719 101.273438 58.179688 101.6875 58.261719 C 102.105469 58.34375 102.507812 58.46875 102.898438 58.632812 C 103.289062 58.792969 103.660156 58.992188 104.011719 59.230469 C 104.363281 59.46875 104.6875 59.734375 104.984375 60.035156 C 105.28125 60.335938 105.546875 60.664062 105.78125 61.015625 C 106.015625 61.371094 106.210938 61.742188 106.371094 62.136719 C 106.53125 62.527344 106.648438 62.929688 106.730469 63.347656 C 106.808594 63.761719 106.847656 64.183594 106.84375 64.605469 C 106.839844 65.027344 106.792969 65.449219 106.707031 65.863281 C 106.621094 66.277344 106.496094 66.679688 106.328125 67.066406 C 106.164062 67.457031 105.960938 67.828125 105.71875 68.175781 C 105.480469 68.523438 105.210938 68.847656 104.90625 69.144531 C 104.605469 69.4375 104.273438 69.703125 103.917969 69.933594 C 103.5625 70.164062 103.191406 70.355469 102.796875 70.511719 C 102.402344 70.667969 101.996094 70.785156 101.582031 70.859375 C 101.164062 70.9375 100.746094 70.972656 100.320312 70.964844 C 99.898438 70.957031 99.480469 70.90625 99.066406 70.816406 C 98.652344 70.726562 98.25 70.597656 97.863281 70.429688 C 97.476562 70.257812 97.109375 70.054688 96.761719 69.8125 C 96.414062 69.570312 96.09375 69.296875 95.800781 68.992188 C 95.507812 68.683594 95.246094 68.355469 95.019531 67.996094 C 94.792969 67.640625 94.601562 67.261719 94.449219 66.867188 C 94.296875 66.472656 94.183594 66.066406 94.109375 65.652344 C 94.039062 65.234375 94.007812 64.8125 94.019531 64.390625 C 94.027344 63.976562 94.078125 63.566406 94.167969 63.164062 C 94.257812 62.757812 94.386719 62.367188 94.550781 61.984375 C 94.71875 61.605469 94.917969 61.246094 95.152344 60.90625 C 95.390625 60.5625 95.65625 60.25 95.953125 59.957031 C 96.25 59.667969 96.570312 59.410156 96.917969 59.183594 C 97.265625 58.957031 97.628906 58.765625 98.011719 58.609375 C 98.398438 58.453125 98.792969 58.335938 99.199219 58.257812 C 99.605469 58.175781 100.015625 58.136719 100.429688 58.136719 Z M 134.296875 77.058594 C 135.140625 77.058594 135.976562 76.976562 136.804688 76.808594 C 137.632812 76.644531 138.4375 76.398438 139.214844 76.074219 C 139.996094 75.75 140.738281 75.355469 141.4375 74.882812 C 142.140625 74.414062 142.789062 73.878906 143.382812 73.28125 C 143.980469 72.683594 144.511719 72.03125 144.976562 71.328125 C 145.445312 70.625 145.839844 69.882812 146.160156 69.101562 C 146.480469 68.320312 146.722656 67.515625 146.882812 66.6875 C 147.046875 65.855469 147.125 65.019531 147.121094 64.175781 C 147.117188 63.332031 147.03125 62.496094 146.863281 61.667969 C 146.695312 60.839844 146.445312 60.039062 146.117188 59.257812 C 145.792969 58.480469 145.390625 57.742188 144.917969 57.042969 C 144.445312 56.34375 143.90625 55.695312 143.308594 55.101562 C 142.707031 54.511719 142.054688 53.980469 141.347656 53.515625 C 140.640625 53.050781 139.898438 52.660156 139.117188 52.34375 C 138.332031 52.027344 137.527344 51.789062 136.699219 51.628906 C 135.867188 51.472656 135.03125 51.398438 134.1875 51.402344 C 133.34375 51.410156 132.507812 51.5 131.679688 51.671875 C 130.851562 51.84375 130.050781 52.097656 129.273438 52.425781 C 128.496094 52.757812 127.761719 53.160156 127.0625 53.636719 C 126.363281 54.113281 125.722656 54.652344 125.128906 55.253906 C 124.539062 55.859375 124.011719 56.515625 123.550781 57.222656 C 123.089844 57.929688 122.703125 58.675781 122.386719 59.457031 C 122.074219 60.242188 121.839844 61.046875 121.683594 61.878906 C 121.53125 62.707031 121.457031 63.546875 121.46875 64.390625 C 121.476562 65.226562 121.570312 66.050781 121.742188 66.871094 C 121.914062 67.6875 122.164062 68.480469 122.488281 69.25 C 122.816406 70.019531 123.214844 70.75 123.683594 71.441406 C 124.15625 72.132812 124.6875 72.769531 125.28125 73.355469 C 125.875 73.945312 126.519531 74.46875 127.21875 74.929688 C 127.914062 75.390625 128.648438 75.78125 129.421875 76.097656 C 130.195312 76.414062 130.992188 76.652344 131.8125 76.816406 C 132.632812 76.976562 133.460938 77.058594 134.296875 77.058594 Z M 134.296875 58.136719 C 134.71875 58.136719 135.136719 58.179688 135.554688 58.261719 C 135.96875 58.34375 136.371094 58.46875 136.761719 58.632812 C 137.152344 58.792969 137.523438 58.992188 137.875 59.230469 C 138.226562 59.46875 138.550781 59.734375 138.847656 60.035156 C 139.144531 60.335938 139.410156 60.664062 139.644531 61.015625 C 139.878906 61.371094 140.074219 61.742188 140.234375 62.136719 C 140.394531 62.527344 140.511719 62.929688 140.59375 63.347656 C 140.671875 63.761719 140.710938 64.183594 140.707031 64.605469 C 140.703125 65.027344 140.65625 65.449219 140.570312 65.863281 C 140.484375 66.277344 140.359375 66.679688 140.191406 67.066406 C 140.027344 67.457031 139.824219 67.828125 139.582031 68.175781 C 139.34375 68.523438 139.074219 68.847656 138.769531 69.144531 C 138.46875 69.4375 138.136719 69.703125 137.78125 69.933594 C 137.429688 70.164062 137.054688 70.355469 136.660156 70.511719 C 136.265625 70.667969 135.863281 70.785156 135.445312 70.859375 C 135.027344 70.9375 134.609375 70.972656 134.183594 70.964844 C 133.761719 70.957031 133.34375 70.90625 132.929688 70.816406 C 132.515625 70.726562 132.117188 70.597656 131.726562 70.429688 C 131.339844 70.257812 130.972656 70.054688 130.625 69.8125 C 130.277344 69.570312 129.957031 69.296875 129.664062 68.992188 C 129.371094 68.683594 129.109375 68.355469 128.882812 67.996094 C 128.65625 67.640625 128.464844 67.261719 128.3125 66.867188 C 128.160156 66.472656 128.046875 66.066406 127.972656 65.652344 C 127.902344 65.234375 127.871094 64.8125 127.882812 64.390625 C 127.890625 63.976562 127.941406 63.566406 128.03125 63.164062 C 128.121094 62.757812 128.25 62.367188 128.414062 61.984375 C 128.582031 61.605469 128.78125 61.246094 129.015625 60.90625 C 129.253906 60.5625 129.519531 60.25 129.816406 59.957031 C 130.113281 59.667969 130.433594 59.410156 130.78125 59.183594 C 131.128906 58.957031 131.492188 58.765625 131.878906 58.609375 C 132.261719 58.453125 132.65625 58.335938 133.0625 58.257812 C 133.46875 58.175781 133.878906 58.136719 134.296875 58.136719 Z M 190.574219 64.390625 C 190.574219 63.964844 190.65625 63.554688 190.816406 63.164062 C 190.980469 62.769531 191.210938 62.421875 191.511719 62.125 C 191.8125 61.824219 192.160156 61.589844 192.554688 61.429688 C 192.945312 61.265625 193.355469 61.183594 193.78125 61.183594 L 313.425781 61.183594 C 313.851562 61.183594 314.261719 61.265625 314.652344 61.429688 C 315.046875 61.589844 315.394531 61.824219 315.695312 62.125 C 315.996094 62.421875 316.226562 62.769531 316.390625 63.164062 C 316.550781 63.554688 316.632812 63.964844 316.632812 64.390625 C 316.632812 64.816406 316.550781 65.226562 316.390625 65.617188 C 316.226562 66.011719 315.996094 66.359375 315.695312 66.65625 C 315.394531 66.957031 315.046875 67.191406 314.652344 67.351562 C 314.261719 67.515625 313.851562 67.597656 313.425781 67.597656 L 193.78125 67.597656 C 193.355469 67.597656 192.945312 67.515625 192.554688 67.351562 C 192.160156 67.191406 191.8125 66.957031 191.511719 66.65625 C 191.210938 66.359375 190.980469 66.011719 190.816406 65.617188 C 190.65625 65.226562 190.574219 64.816406 190.574219 64.390625 Z M 67.402344 226.589844 L 186.050781 226.589844 L 188.648438 235.410156 C 188.730469 235.675781 188.839844 235.929688 188.984375 236.167969 C 189.128906 236.40625 189.304688 236.621094 189.503906 236.8125 C 189.707031 237.007812 189.929688 237.171875 190.171875 237.304688 C 190.417969 237.441406 190.671875 237.542969 190.945312 237.609375 C 191.214844 237.679688 191.488281 237.710938 191.765625 237.707031 C 192.046875 237.703125 192.320312 237.664062 192.585938 237.589844 C 192.855469 237.515625 193.109375 237.40625 193.351562 237.265625 C 193.589844 237.125 193.808594 236.953125 194.003906 236.753906 L 196.796875 233.964844 L 210.488281 247.691406 C 210.789062 247.992188 211.136719 248.226562 211.53125 248.390625 C 211.925781 248.558594 212.335938 248.640625 212.765625 248.640625 C 213.191406 248.640625 213.605469 248.558594 214 248.390625 C 214.394531 248.226562 214.742188 247.992188 215.042969 247.691406 L 226.136719 236.339844 C 226.761719 235.707031 227.074219 234.949219 227.066406 234.0625 C 227.054688 233.179688 226.746094 232.421875 226.136719 231.785156 L 212.414062 218.09375 L 215.203125 215.300781 C 215.402344 215.109375 215.570312 214.894531 215.714844 214.65625 C 215.859375 214.421875 215.96875 214.167969 216.046875 213.902344 C 216.125 213.636719 216.167969 213.367188 216.175781 213.089844 C 216.183594 212.8125 216.15625 212.539062 216.09375 212.269531 C 216.03125 212 215.933594 211.742188 215.804688 211.5 C 215.675781 211.253906 215.515625 211.03125 215.328125 210.828125 C 215.140625 210.621094 214.929688 210.445312 214.695312 210.296875 C 214.464844 210.148438 214.214844 210.03125 213.953125 209.945312 L 203.882812 206.964844 L 203.882812 127.242188 C 203.882812 126.820312 203.800781 126.410156 203.636719 126.015625 C 203.476562 125.625 203.242188 125.277344 202.941406 124.976562 C 202.640625 124.675781 202.296875 124.445312 201.902344 124.28125 C 201.511719 124.117188 201.101562 124.035156 200.675781 124.035156 L 67.402344 124.035156 C 66.976562 124.035156 66.566406 124.117188 66.175781 124.28125 C 65.78125 124.445312 65.433594 124.675781 65.132812 124.976562 C 64.832031 125.277344 64.601562 125.625 64.4375 126.015625 C 64.277344 126.410156 64.195312 126.820312 64.195312 127.242188 L 64.195312 223.445312 C 64.203125 223.867188 64.289062 224.269531 64.457031 224.65625 C 64.625 225.039062 64.855469 225.378906 65.15625 225.671875 C 65.457031 225.96875 65.800781 226.195312 66.1875 226.351562 C 66.578125 226.511719 66.980469 226.589844 67.402344 226.589844 Z M 205.742188 220.367188 L 219.46875 234.0625 L 212.636719 240.890625 L 198.945312 227.199219 C 198.644531 226.902344 198.296875 226.671875 197.90625 226.507812 C 197.515625 226.347656 197.105469 226.265625 196.683594 226.265625 C 196.257812 226.265625 195.851562 226.347656 195.460938 226.507812 C 195.070312 226.671875 194.722656 226.902344 194.421875 227.199219 L 193.171875 228.449219 L 191.40625 222.550781 L 187.335938 208.761719 L 199.777344 212.449219 L 206.992188 214.597656 L 205.742188 215.847656 C 205.445312 216.148438 205.214844 216.492188 205.050781 216.886719 C 204.890625 217.277344 204.808594 217.683594 204.808594 218.109375 C 204.808594 218.53125 204.890625 218.9375 205.050781 219.332031 C 205.214844 219.722656 205.445312 220.066406 205.742188 220.367188 Z M 70.609375 130.578125 L 197.46875 130.578125 L 197.46875 205.074219 L 183.488281 200.9375 C 182.917969 200.765625 182.34375 200.757812 181.769531 200.90625 C 181.191406 201.054688 180.695312 201.34375 180.28125 201.769531 C 179.859375 202.1875 179.578125 202.6875 179.433594 203.261719 C 179.289062 203.835938 179.304688 204.410156 179.480469 204.976562 L 184 220.207031 L 70.609375 220.207031 Z M 232.550781 182.59375 L 309.769531 182.59375 C 310.195312 182.59375 310.605469 182.511719 310.996094 182.347656 C 311.390625 182.1875 311.738281 181.953125 312.039062 181.652344 C 312.339844 181.351562 312.570312 181.007812 312.734375 180.613281 C 312.894531 180.21875 312.976562 179.8125 312.976562 179.386719 L 312.976562 127.277344 C 312.976562 126.851562 312.894531 126.441406 312.734375 126.046875 C 312.570312 125.65625 312.339844 125.308594 312.039062 125.007812 C 311.738281 124.707031 311.390625 124.476562 310.996094 124.3125 C 310.605469 124.148438 310.195312 124.070312 309.769531 124.070312 L 232.550781 124.070312 C 232.125 124.070312 231.714844 124.148438 231.324219 124.3125 C 230.929688 124.476562 230.585938 124.707031 230.285156 125.007812 C 229.984375 125.308594 229.75 125.65625 229.589844 126.046875 C 229.425781 126.441406 229.34375 126.851562 229.34375 127.277344 L 229.34375 179.386719 C 229.34375 179.8125 229.425781 180.21875 229.589844 180.613281 C 229.75 181.007812 229.984375 181.351562 230.285156 181.652344 C 230.585938 181.953125 230.929688 182.1875 231.324219 182.347656 C 231.714844 182.511719 232.125 182.59375 232.550781 182.59375 Z M 235.757812 130.484375 L 306.5625 130.484375 L 306.5625 176.179688 L 235.757812 176.179688 Z M 232.550781 250.160156 L 309.769531 250.160156 C 310.195312 250.160156 310.605469 250.078125 310.996094 249.914062 C 311.390625 249.753906 311.738281 249.519531 312.039062 249.21875 C 312.339844 248.917969 312.570312 248.574219 312.734375 248.179688 C 312.894531 247.789062 312.976562 247.378906 312.976562 246.953125 L 312.976562 197.984375 C 312.976562 197.558594 312.894531 197.152344 312.734375 196.757812 C 312.570312 196.367188 312.339844 196.019531 312.039062 195.71875 C 311.738281 195.417969 311.390625 195.183594 310.996094 195.023438 C 310.605469 194.859375 310.195312 194.777344 309.769531 194.777344 L 232.550781 194.777344 C 232.125 194.777344 231.714844 194.859375 231.324219 195.023438 C 230.929688 195.183594 230.585938 195.417969 230.285156 195.71875 C 229.984375 196.019531 229.75 196.367188 229.589844 196.757812 C 229.425781 197.152344 229.34375 197.558594 229.34375 197.984375 L 229.34375 246.953125 C 229.34375 247.378906 229.425781 247.789062 229.589844 248.179688 C 229.75 248.574219 229.984375 248.917969 230.285156 249.21875 C 230.585938 249.519531 230.929688 249.753906 231.324219 249.914062 C 231.714844 250.078125 232.125 250.160156 232.550781 250.160156 Z M 235.757812 201.191406 L 306.5625 201.191406 L 306.5625 243.746094 L 235.757812 243.746094 Z M 232.550781 320.902344 L 309.769531 320.902344 C 310.195312 320.902344 310.605469 320.820312 310.996094 320.65625 C 311.390625 320.496094 311.738281 320.261719 312.039062 319.960938 C 312.339844 319.660156 312.570312 319.316406 312.734375 318.921875 C 312.894531 318.527344 312.976562 318.121094 312.976562 317.695312 L 312.976562 268.726562 C 312.976562 268.300781 312.894531 267.894531 312.734375 267.5 C 312.570312 267.105469 312.339844 266.761719 312.039062 266.460938 C 311.738281 266.160156 311.390625 265.925781 310.996094 265.765625 C 310.605469 265.601562 310.195312 265.519531 309.769531 265.519531 L 232.550781 265.519531 C 232.125 265.519531 231.714844 265.601562 231.324219 265.765625 C 230.929688 265.925781 230.585938 266.160156 230.285156 266.460938 C 229.984375 266.761719 229.75 267.105469 229.589844 267.5 C 229.425781 267.894531 229.34375 268.300781 229.34375 268.726562 L 229.34375 317.695312 C 229.34375 318.121094 229.425781 318.527344 229.589844 318.921875 C 229.75 319.316406 229.984375 319.660156 230.285156 319.960938 C 230.585938 320.261719 230.929688 320.496094 231.324219 320.65625 C 231.714844 320.820312 232.125 320.902344 232.550781 320.902344 Z M 235.757812 271.933594 L 306.5625 271.933594 L 306.5625 314.488281 L 235.757812 314.488281 Z M 204.042969 249.839844 C 204.042969 250.265625 203.960938 250.671875 203.796875 251.066406 C 203.636719 251.460938 203.402344 251.804688 203.101562 252.105469 C 202.800781 252.40625 202.457031 252.640625 202.0625 252.800781 C 201.671875 252.964844 201.261719 253.046875 200.835938 253.046875 L 68.554688 253.046875 C 68.128906 253.046875 67.722656 252.964844 67.328125 252.800781 C 66.9375 252.640625 66.589844 252.40625 66.289062 252.105469 C 65.988281 251.804688 65.757812 251.460938 65.59375 251.066406 C 65.429688 250.671875 65.347656 250.265625 65.347656 249.839844 C 65.347656 249.414062 65.429688 249.003906 65.59375 248.613281 C 65.757812 248.21875 65.988281 247.871094 66.289062 247.570312 C 66.589844 247.269531 66.9375 247.039062 67.328125 246.875 C 67.722656 246.714844 68.128906 246.632812 68.554688 246.632812 L 200.675781 246.632812 C 201.101562 246.632812 201.511719 246.714844 201.902344 246.875 C 202.296875 247.039062 202.640625 247.269531 202.941406 247.570312 C 203.242188 247.871094 203.476562 248.21875 203.636719 248.613281 C 203.800781 249.003906 203.882812 249.414062 203.882812 249.839844 Z M 204.042969 279.726562 C 204.042969 280.152344 203.960938 280.5625 203.796875 280.953125 C 203.636719 281.347656 203.402344 281.691406 203.101562 281.992188 C 202.800781 282.292969 202.457031 282.527344 202.0625 282.6875 C 201.671875 282.851562 201.261719 282.933594 200.835938 282.933594 L 122.78125 282.933594 C 122.359375 282.933594 121.949219 282.851562 121.554688 282.6875 C 121.164062 282.527344 120.816406 282.292969 120.515625 281.992188 C 120.214844 281.691406 119.984375 281.347656 119.820312 280.953125 C 119.65625 280.5625 119.574219 280.152344 119.574219 279.726562 C 119.574219 279.300781 119.65625 278.890625 119.820312 278.5 C 119.984375 278.105469 120.214844 277.757812 120.515625 277.457031 C 120.816406 277.15625 121.164062 276.925781 121.554688 276.761719 C 121.949219 276.601562 122.359375 276.519531 122.78125 276.519531 L 200.675781 276.519531 C 201.101562 276.519531 201.511719 276.601562 201.902344 276.761719 C 202.296875 276.925781 202.640625 277.15625 202.941406 277.457031 C 203.242188 277.757812 203.476562 278.105469 203.636719 278.5 C 203.800781 278.890625 203.882812 279.300781 203.882812 279.726562 Z M 65.507812 279.726562 C 65.507812 279.300781 65.589844 278.890625 65.753906 278.5 C 65.917969 278.105469 66.148438 277.757812 66.449219 277.457031 C 66.75 277.15625 67.097656 276.925781 67.488281 276.761719 C 67.882812 276.601562 68.292969 276.519531 68.714844 276.519531 L 102.964844 276.519531 C 103.390625 276.519531 103.800781 276.601562 104.191406 276.761719 C 104.585938 276.925781 104.933594 277.15625 105.230469 277.457031 C 105.53125 277.757812 105.765625 278.105469 105.925781 278.5 C 106.089844 278.890625 106.171875 279.300781 106.171875 279.726562 C 106.171875 280.152344 106.089844 280.5625 105.925781 280.953125 C 105.765625 281.347656 105.53125 281.691406 105.230469 281.992188 C 104.933594 282.292969 104.585938 282.527344 104.191406 282.6875 C 103.800781 282.851562 103.390625 282.933594 102.964844 282.933594 L 68.554688 282.933594 C 68.128906 282.933594 67.722656 282.851562 67.328125 282.6875 C 66.9375 282.527344 66.589844 282.292969 66.289062 281.992188 C 65.988281 281.691406 65.757812 281.347656 65.59375 280.953125 C 65.429688 280.5625 65.347656 280.152344 65.347656 279.726562 Z M 128.011719 309.613281 C 128.011719 310.039062 127.929688 310.449219 127.765625 310.839844 C 127.601562 311.234375 127.371094 311.582031 127.070312 311.882812 C 126.769531 312.183594 126.421875 312.414062 126.03125 312.578125 C 125.636719 312.738281 125.226562 312.820312 124.804688 312.820312 L 68.554688 312.820312 C 68.128906 312.820312 67.722656 312.738281 67.328125 312.578125 C 66.9375 312.414062 66.589844 312.183594 66.289062 311.882812 C 65.988281 311.582031 65.757812 311.234375 65.59375 310.839844 C 65.429688 310.449219 65.347656 310.039062 65.347656 309.613281 C 65.347656 309.1875 65.429688 308.777344 65.59375 308.386719 C 65.757812 307.992188 65.988281 307.648438 66.289062 307.347656 C 66.589844 307.046875 66.9375 306.8125 67.328125 306.652344 C 67.722656 306.488281 68.128906 306.40625 68.554688 306.40625 L 124.804688 306.40625 C 125.226562 306.40625 125.636719 306.488281 126.03125 306.652344 C 126.421875 306.8125 126.769531 307.046875 127.070312 307.347656 C 127.371094 307.648438 127.601562 307.992188 127.765625 308.386719 C 127.929688 308.777344 128.011719 309.1875 128.011719 309.613281 Z M 281.390625 148.472656 L 267.824219 138.757812 C 267.382812 138.402344 266.898438 138.121094 266.375 137.90625 C 265.847656 137.691406 265.304688 137.558594 264.742188 137.5 C 264.179688 137.441406 263.617188 137.464844 263.0625 137.566406 C 262.503906 137.667969 261.972656 137.847656 261.46875 138.101562 C 260.960938 138.355469 260.5 138.675781 260.085938 139.0625 C 259.671875 139.449219 259.320312 139.886719 259.03125 140.371094 C 258.742188 140.859375 258.527344 141.378906 258.386719 141.925781 C 258.246094 142.476562 258.1875 143.03125 258.207031 143.597656 L 258.207031 163.0625 C 258.191406 163.625 258.257812 164.179688 258.402344 164.726562 C 258.546875 165.269531 258.765625 165.785156 259.054688 166.265625 C 259.347656 166.75 259.699219 167.183594 260.113281 167.566406 C 260.523438 167.949219 260.984375 168.269531 261.488281 168.523438 C 261.992188 168.773438 262.519531 168.953125 263.074219 169.058594 C 263.625 169.160156 264.183594 169.183594 264.746094 169.128906 C 265.304688 169.074219 265.847656 168.945312 266.371094 168.738281 C 266.894531 168.527344 267.378906 168.25 267.824219 167.90625 L 281.550781 158.285156 C 281.929688 158.011719 282.273438 157.695312 282.582031 157.339844 C 282.886719 156.980469 283.144531 156.59375 283.359375 156.175781 C 283.574219 155.757812 283.734375 155.320312 283.847656 154.863281 C 283.957031 154.40625 284.011719 153.945312 284.011719 153.476562 C 284.011719 153.003906 283.957031 152.542969 283.847656 152.085938 C 283.734375 151.628906 283.574219 151.191406 283.359375 150.773438 C 283.144531 150.355469 282.886719 149.96875 282.582031 149.613281 C 282.273438 149.253906 281.929688 148.941406 281.550781 148.664062 Z M 264.617188 162.164062 L 264.617188 144.496094 L 277.0625 153.316406 Z M 281.328125 217.644531 L 267.601562 208.023438 C 267.160156 207.699219 266.683594 207.441406 266.171875 207.246094 C 265.660156 207.054688 265.132812 206.929688 264.585938 206.878906 C 264.042969 206.828125 263.5 206.851562 262.960938 206.949219 C 262.421875 207.042969 261.90625 207.210938 261.410156 207.445312 C 260.925781 207.695312 260.484375 208.003906 260.082031 208.378906 C 259.683594 208.75 259.34375 209.167969 259.058594 209.636719 C 258.777344 210.105469 258.5625 210.601562 258.417969 211.128906 C 258.273438 211.652344 258.203125 212.191406 258.207031 212.738281 L 258.207031 232.203125 C 258.1875 232.769531 258.246094 233.324219 258.386719 233.875 C 258.527344 234.421875 258.742188 234.941406 259.03125 235.425781 C 259.320312 235.914062 259.671875 236.351562 260.085938 236.738281 C 260.5 237.125 260.960938 237.445312 261.46875 237.699219 C 261.972656 237.953125 262.503906 238.132812 263.0625 238.234375 C 263.617188 238.335938 264.179688 238.359375 264.742188 238.300781 C 265.304688 238.242188 265.847656 238.105469 266.375 237.894531 C 266.898438 237.679688 267.382812 237.394531 267.824219 237.042969 L 281.550781 227.421875 C 281.929688 227.148438 282.273438 226.832031 282.582031 226.476562 C 282.886719 226.121094 283.144531 225.734375 283.359375 225.316406 C 283.574219 224.898438 283.734375 224.460938 283.847656 224.003906 C 283.957031 223.546875 284.011719 223.082031 284.011719 222.613281 C 284.011719 222.144531 283.957031 221.679688 283.847656 221.222656 C 283.734375 220.765625 283.574219 220.332031 283.359375 219.910156 C 283.144531 219.492188 282.886719 219.105469 282.582031 218.75 C 282.273438 218.394531 281.929688 218.078125 281.550781 217.804688 Z M 264.617188 231.304688 L 264.617188 213.632812 L 277.0625 222.484375 Z M 281.328125 288.351562 L 267.601562 278.730469 C 267.160156 278.40625 266.683594 278.148438 266.171875 277.953125 C 265.660156 277.757812 265.128906 277.636719 264.582031 277.589844 C 264.039062 277.542969 263.496094 277.570312 262.957031 277.671875 C 262.417969 277.769531 261.902344 277.945312 261.410156 278.1875 C 260.925781 278.4375 260.484375 278.746094 260.082031 279.121094 C 259.683594 279.492188 259.34375 279.910156 259.058594 280.378906 C 258.777344 280.847656 258.5625 281.34375 258.417969 281.867188 C 258.273438 282.394531 258.203125 282.933594 258.207031 283.476562 L 258.207031 302.945312 C 258.1875 303.507812 258.246094 304.066406 258.386719 304.617188 C 258.527344 305.164062 258.742188 305.683594 259.03125 306.167969 C 259.320312 306.65625 259.671875 307.09375 260.085938 307.480469 C 260.5 307.867188 260.960938 308.1875 261.46875 308.441406 C 261.972656 308.695312 262.503906 308.875 263.0625 308.976562 C 263.617188 309.078125 264.179688 309.101562 264.742188 309.042969 C 265.304688 308.984375 265.847656 308.847656 266.375 308.636719 C 266.898438 308.421875 267.382812 308.136719 267.824219 307.785156 L 281.550781 298.164062 C 281.929688 297.886719 282.269531 297.570312 282.570312 297.214844 C 282.875 296.855469 283.132812 296.46875 283.34375 296.050781 C 283.554688 295.632812 283.714844 295.195312 283.824219 294.742188 C 283.933594 294.285156 283.988281 293.824219 283.988281 293.355469 C 283.988281 292.886719 283.933594 292.425781 283.824219 291.96875 C 283.714844 291.511719 283.554688 291.078125 283.34375 290.660156 C 283.132812 290.242188 282.875 289.851562 282.570312 289.496094 C 282.269531 289.140625 281.929688 288.820312 281.550781 288.546875 Z M 264.617188 302.046875 L 264.617188 284.375 L 277.125 293.324219 Z M 108.351562 157.996094 C 108.082031 157.367188 107.675781 156.84375 107.132812 156.425781 C 106.550781 155.96875 105.886719 155.753906 105.144531 155.785156 L 104.664062 155.785156 C 103.929688 155.75 103.277344 155.960938 102.707031 156.425781 C 102.164062 156.84375 101.757812 157.367188 101.488281 157.996094 L 89.046875 187.5 C 88.898438 187.859375 88.8125 188.234375 88.789062 188.621094 C 88.765625 189.332031 89 189.941406 89.496094 190.449219 C 90.011719 190.988281 90.644531 191.246094 91.386719 191.21875 C 91.914062 191.214844 92.394531 191.0625 92.832031 190.769531 C 93.277344 190.484375 93.609375 190.097656 93.824219 189.617188 L 97.03125 182.238281 L 113.066406 182.238281 L 116.273438 189.617188 C 116.445312 190.058594 116.726562 190.421875 117.105469 190.707031 C 117.542969 191.003906 118.023438 191.152344 118.550781 191.15625 C 119.289062 191.183594 119.90625 190.925781 120.410156 190.386719 C 120.914062 189.878906 121.160156 189.269531 121.148438 188.558594 C 121.128906 188.164062 121.03125 187.789062 120.859375 187.433594 Z M 98.925781 177.238281 L 104.921875 162.839844 L 110.886719 177.238281 Z M 147.1875 154.210938 C 146.464844 154.207031 145.847656 154.453125 145.328125 154.949219 C 144.792969 155.46875 144.535156 156.097656 144.558594 156.84375 L 144.558594 167.839844 C 143.492188 166.816406 142.273438 166.027344 140.90625 165.472656 C 139.535156 164.917969 138.113281 164.640625 136.636719 164.636719 C 134.519531 164.628906 132.539062 165.152344 130.703125 166.207031 C 128.769531 167.324219 127.261719 168.867188 126.183594 170.824219 C 124.980469 173.023438 124.402344 175.375 124.449219 177.878906 C 124.390625 180.398438 124.964844 182.757812 126.183594 184.964844 C 127.257812 186.933594 128.765625 188.484375 130.703125 189.617188 C 132.539062 190.671875 134.519531 191.195312 136.636719 191.1875 C 138.113281 191.183594 139.535156 190.902344 140.90625 190.347656 C 142.273438 189.792969 143.492188 189.003906 144.558594 187.980469 L 144.558594 188.300781 C 144.539062 189.035156 144.796875 189.652344 145.328125 190.160156 C 145.847656 190.65625 146.464844 190.902344 147.1875 190.898438 C 147.53125 190.902344 147.863281 190.839844 148.183594 190.710938 C 148.503906 190.578125 148.789062 190.390625 149.03125 190.148438 C 149.277344 189.902344 149.464844 189.621094 149.59375 189.300781 C 149.726562 188.980469 149.789062 188.648438 149.785156 188.300781 L 149.785156 156.84375 C 149.789062 156.121094 149.542969 155.503906 149.046875 154.980469 C 148.539062 154.453125 147.917969 154.195312 147.1875 154.210938 Z M 144.558594 183.074219 C 143.625 184.078125 142.558594 184.898438 141.351562 185.542969 C 140.074219 186.167969 138.730469 186.476562 137.308594 186.472656 C 136.269531 186.527344 135.269531 186.363281 134.300781 185.980469 C 133.332031 185.601562 132.484375 185.039062 131.761719 184.292969 C 131.425781 183.847656 131.128906 183.378906 130.871094 182.886719 C 130.609375 182.398438 130.390625 181.886719 130.214844 181.359375 C 130.039062 180.832031 129.90625 180.292969 129.816406 179.746094 C 129.726562 179.195312 129.679688 178.644531 129.679688 178.085938 C 129.679688 177.53125 129.726562 176.976562 129.816406 176.429688 C 129.90625 175.878906 130.039062 175.34375 130.214844 174.816406 C 130.390625 174.289062 130.609375 173.777344 130.871094 173.285156 C 131.128906 172.792969 131.425781 172.324219 131.761719 171.882812 C 132.480469 171.144531 133.316406 170.589844 134.273438 170.207031 C 135.226562 169.828125 136.21875 169.660156 137.246094 169.703125 C 138.671875 169.691406 140.019531 170.011719 141.285156 170.664062 C 142.5 171.296875 143.570312 172.121094 144.492188 173.132812 Z M 173.417969 179.515625 C 174.382812 180.738281 174.851562 182.125 174.828125 183.683594 C 174.839844 184.746094 174.613281 185.761719 174.160156 186.722656 C 173.703125 187.683594 173.0625 188.5 172.230469 189.167969 C 171.1875 189.925781 170.046875 190.488281 168.808594 190.851562 C 167.570312 191.214844 166.304688 191.359375 165.015625 191.28125 C 161.804688 191.328125 158.789062 190.582031 155.972656 189.039062 C 155.640625 188.828125 155.382812 188.546875 155.199219 188.199219 C 155.015625 187.847656 154.929688 187.476562 154.945312 187.082031 C 154.9375 186.449219 155.148438 185.902344 155.589844 185.445312 C 155.9375 185.085938 156.363281 184.859375 156.855469 184.773438 C 157.351562 184.683594 157.828125 184.746094 158.28125 184.964844 C 159.316406 185.417969 160.386719 185.773438 161.488281 186.023438 C 162.605469 186.292969 163.738281 186.421875 164.886719 186.410156 C 168.09375 186.410156 169.890625 185.414062 169.890625 183.203125 C 169.878906 182.902344 169.78125 182.628906 169.597656 182.390625 C 169.417969 182.148438 169.183594 181.980469 168.894531 181.886719 C 167.597656 181.332031 166.261719 180.894531 164.886719 180.574219 C 163.261719 180.210938 161.671875 179.738281 160.109375 179.160156 C 158.855469 178.636719 157.785156 177.855469 156.902344 176.820312 C 156.40625 176.242188 156.035156 175.59375 155.785156 174.875 C 155.535156 174.152344 155.425781 173.414062 155.460938 172.652344 C 155.429688 171.527344 155.640625 170.453125 156.097656 169.425781 C 156.550781 168.398438 157.207031 167.515625 158.058594 166.785156 C 159.089844 166.023438 160.21875 165.464844 161.449219 165.105469 C 162.675781 164.746094 163.929688 164.613281 165.207031 164.699219 C 167.6875 164.671875 170.089844 165.078125 172.421875 165.917969 C 172.941406 166.0625 173.347656 166.363281 173.640625 166.816406 C 173.898438 167.179688 174.042969 167.585938 174.066406 168.03125 C 174.09375 168.480469 173.996094 168.898438 173.78125 169.289062 C 173.566406 169.679688 173.265625 169.988281 172.875 170.207031 C 172.488281 170.425781 172.070312 170.523438 171.621094 170.503906 C 171.375 170.542969 171.128906 170.542969 170.882812 170.503906 C 169.109375 169.9375 167.292969 169.652344 165.433594 169.636719 C 164.046875 169.570312 162.742188 169.871094 161.519531 170.535156 C 161.128906 170.742188 160.816406 171.035156 160.585938 171.414062 C 160.355469 171.796875 160.238281 172.207031 160.238281 172.652344 C 160.21875 173.039062 160.3125 173.394531 160.519531 173.726562 C 160.722656 174.054688 161.003906 174.292969 161.359375 174.449219 C 162.699219 175.039062 164.089844 175.464844 165.527344 175.730469 C 167.132812 176.113281 168.703125 176.59375 170.242188 177.171875 C 171.496094 177.703125 172.5625 178.484375 173.449219 179.515625 Z M 173.417969 179.515625 " fill-opacity="1" fill-rule="nonzero"/></g></svg>